<svg id="logo_flag" xmlns="http://www.w3.org/2000/svg" width="30.633" height="30.633" viewBox="0 0 30.633 30.633">
  <path id="Tracé_226" data-name="Tracé 226" d="M0,0H30.634V30.634H0Z" fill="none"/>
  <path id="Tracé_227" data-name="Tracé 227" d="M17,6.553l-.306-1.532A1.274,1.274,0,0,0,15.441,4H6.276A1.28,1.28,0,0,0,5,5.276V24.422a1.276,1.276,0,0,0,2.553,0V16.764H14.7l.306,1.532a1.261,1.261,0,0,0,1.251,1.021H22.87a1.28,1.28,0,0,0,1.276-1.276V7.829A1.28,1.28,0,0,0,22.87,6.553Z" transform="translate(1.382 1.106)" fill="#fff"/>
</svg>
