<svg id="logo_recommandations" xmlns="http://www.w3.org/2000/svg" width="117.809" height="117.809" viewBox="0 0 117.809 117.809">
  <circle id="Ellipse_17" data-name="Ellipse 17" cx="56.829" cy="56.829" r="56.829" transform="translate(2.103 2.103)" fill="#feaa28"/>
  <path id="Tracé_120" data-name="Tracé 120" d="M193.525,215.592V201.02a7.026,7.026,0,0,0-7.026-7.026h-2.791v7a17.25,17.25,0,0,1-2.459,8.876l-3.432,5.72L168,219.519v25.525h7.854l7.854,1.963H207.27V215.592Z" transform="translate(-130.694 -150.308)" fill="#fec9a3"/>
  <path id="Tracé_121" data-name="Tracé 121" d="M241.815,281.994v.719a13.589,13.589,0,0,1-8.582,12.676,1.964,1.964,0,0,0,1.457,3.647,17.5,17.5,0,0,0,11.052-16.323v-.719Z" transform="translate(-178.984 -216.71)" fill="#efb58b"/>
  <path id="Tracé_122" data-name="Tracé 122" d="M120,297.994h11.781v25.525H120Z" transform="translate(-94.475 -228.783)" fill="#4298d1"/>
  <path id="Tracé_123" data-name="Tracé 123" d="M221.648,65.356l1.433,4.408a1.963,1.963,0,0,0,1.868,1.357h4.635a1.963,1.963,0,0,1,1.154,3.552l-3.75,2.724a1.963,1.963,0,0,0-.713,2.2L227.706,84a1.963,1.963,0,0,1-3.021,2.2l-3.75-2.724a1.963,1.963,0,0,0-2.308,0l-3.75,2.724a1.963,1.963,0,0,1-3.022-2.2l1.432-4.408a1.963,1.963,0,0,0-.713-2.2l-3.75-2.724a1.963,1.963,0,0,1,1.154-3.552h4.636a1.963,1.963,0,0,0,1.867-1.357l1.432-4.408a1.963,1.963,0,0,1,3.735,0Z" transform="translate(-160.888 -52.218)" fill="#ffdc80"/>
  <path id="Tracé_124" data-name="Tracé 124" d="M101.74,121.352l1.432,4.408a1.963,1.963,0,0,0,1.867,1.357h4.635a1.963,1.963,0,0,1,1.154,3.552l-3.75,2.724a1.963,1.963,0,0,0-.713,2.2L107.8,140a1.963,1.963,0,0,1-3.022,2.2l-3.75-2.724a1.963,1.963,0,0,0-2.308,0l-3.75,2.724a1.963,1.963,0,0,1-3.021-2.2l1.432-4.408a1.964,1.964,0,0,0-.713-2.2l-3.75-2.724a1.963,1.963,0,0,1,1.154-3.552H94.7a1.964,1.964,0,0,0,1.868-1.357L98,121.352a1.963,1.963,0,0,1,3.736,0Z" transform="translate(-70.409 -94.47)" fill="#ffdc80"/>
  <path id="Tracé_125" data-name="Tracé 125" d="M341.74,121.352l1.432,4.408a1.964,1.964,0,0,0,1.867,1.357h4.635a1.963,1.963,0,0,1,1.154,3.552l-3.75,2.724a1.963,1.963,0,0,0-.713,2.2L347.8,140a1.963,1.963,0,0,1-3.022,2.2l-3.75-2.724a1.963,1.963,0,0,0-2.308,0l-3.75,2.724a1.963,1.963,0,0,1-3.021-2.2l1.432-4.408a1.964,1.964,0,0,0-.713-2.2l-3.75-2.724a1.963,1.963,0,0,1,1.154-3.552H334.7a1.964,1.964,0,0,0,1.868-1.357L338,121.352a1.963,1.963,0,0,1,3.736,0Z" transform="translate(-251.504 -94.47)" fill="#ffdc80"/>
  <path id="Tracé_126" data-name="Tracé 126" d="M406.962,257.209a1.963,1.963,0,0,1-1.672-2.989,43.108,43.108,0,0,0,6.337-22.536,43.9,43.9,0,0,0-.363-5.629,1.963,1.963,0,1,1,3.891-.514,47.611,47.611,0,0,1,.4,6.143,47.025,47.025,0,0,1-6.916,24.588A1.961,1.961,0,0,1,406.962,257.209Z" transform="translate(-309.527 -172.779)" fill="#ec9e15"/>
  <path id="Tracé_127" data-name="Tracé 127" d="M69.551,251.315a1.963,1.963,0,0,1-1.806-1.195A46.847,46.847,0,0,1,64,231.68a47.586,47.586,0,0,1,.4-6.137,1.963,1.963,0,1,1,3.893.5,43.938,43.938,0,0,0-.364,5.637,42.951,42.951,0,0,0,3.43,16.9,1.963,1.963,0,0,1-1.806,2.732Z" transform="translate(-52.219 -172.776)" fill="#ec9e15"/>
  <rect id="Rectangle_72" data-name="Rectangle 72" width="14.335" height="8.192" rx="4.096" transform="translate(68.659 65.587)" fill="#efb58b"/>
  <rect id="Rectangle_73" data-name="Rectangle 73" width="14.335" height="7.168" rx="3.584" transform="translate(68.659 73.779)" fill="#efb58b"/>
  <rect id="Rectangle_74" data-name="Rectangle 74" width="14.335" height="8.192" rx="4.096" transform="translate(68.659 80.947)" fill="#efb58b"/>
  <rect id="Rectangle_75" data-name="Rectangle 75" width="14.335" height="7.168" rx="3.584" transform="translate(66.611 89.138)" fill="#efb58b"/>
  <g id="Groupe_36" data-name="Groupe 36" transform="translate(68.659 65.587)">
    <rect id="Rectangle_76" data-name="Rectangle 76" width="13.311" height="8.192" rx="4.096" transform="translate(2.048 0)" fill="#fec9a3"/>
    <rect id="Rectangle_77" data-name="Rectangle 77" width="13.311" height="7.168" rx="3.584" transform="translate(2.048 8.192)" fill="#fec9a3"/>
    <rect id="Rectangle_78" data-name="Rectangle 78" width="13.311" height="8.192" rx="4.096" transform="translate(2.048 15.359)" fill="#fec9a3"/>
    <rect id="Rectangle_79" data-name="Rectangle 79" width="14.335" height="7.168" rx="3.584" transform="translate(0 23.551)" fill="#fec9a3"/>
  </g>
  <path id="Tracé_128" data-name="Tracé 128" d="M168.941,207.6h-5.89a5.858,5.858,0,0,0-1.262.144,1.944,1.944,0,0,0-.7-.142h-7.854V194.993A9,9,0,0,0,144.24,186h-2.788a1.963,1.963,0,0,0-1.963,1.963v7.01a15.3,15.3,0,0,1-2.175,7.863l-3.1,5.148-8.847,3.539H113.963A1.963,1.963,0,0,0,112,213.487v25.525a1.963,1.963,0,0,0,1.963,1.963h11.771l.01,0h7.612l7.62,1.9a1.892,1.892,0,0,0,.476.059h17.671a1.945,1.945,0,0,0,.709-.143,5.87,5.87,0,0,0,1.254.141h5.89a5.9,5.9,0,0,0,5.89-5.89,5.819,5.819,0,0,0-.788-2.888,5.833,5.833,0,0,0,1.22-8.893,5.8,5.8,0,0,0,0-7.854,5.866,5.866,0,0,0-4.358-9.817Zm-45.16,29.452h-7.854v-21.6h7.854Zm34.911-11.781a5.753,5.753,0,0,0-.744,6.815,5.878,5.878,0,0,0-2.752,4.966,5.818,5.818,0,0,0,.363,1.965H141.694l-7.62-1.9a1.894,1.894,0,0,0-.476-.059h-5.89V214.817l8.583-3.432c.026-.01.042-.033.067-.044a1.939,1.939,0,0,0,.575-.376c.015-.015.025-.033.039-.049a1.955,1.955,0,0,0,.274-.344l3.438-5.719a19.257,19.257,0,0,0,2.732-9.88v-5.047h.824a5.071,5.071,0,0,1,5.066,5.066v15.775a13.589,13.589,0,0,1-8.583,12.676,1.964,1.964,0,1,0,1.457,3.647,17.464,17.464,0,0,0,11-15.566h4.344a5.7,5.7,0,0,0,1.171,5.888,5.8,5.8,0,0,0,0,7.854Zm8.285,13.744h-5.89a1.963,1.963,0,0,1,0-3.927h5.89a1.963,1.963,0,0,1,0,3.927Zm1.963-7.854h-5.89a1.963,1.963,0,0,1,0-3.927h5.89a1.963,1.963,0,1,1,0,3.927Zm0-7.854h-5.89a1.963,1.963,0,0,1,0-3.927h5.89a1.963,1.963,0,1,1,0,3.927Zm0-7.854h-5.89a1.963,1.963,0,0,1,0-3.927h5.89a1.963,1.963,0,1,1,0,3.927Z" transform="translate(-88.438 -144.276)"/>
  <path id="Tracé_129" data-name="Tracé 129" d="M201.635,70.225l3.751,2.723-1.432,4.407A3.927,3.927,0,0,0,210,81.745l3.749-2.724,3.75,2.724a3.926,3.926,0,0,0,6.042-4.389l-1.432-4.408,3.751-2.723a3.928,3.928,0,0,0-2.309-7.106l-4.635,0-1.432-4.408v0a3.927,3.927,0,0,0-7.47,0l-1.433,4.407h-4.635a3.929,3.929,0,0,0-2.309,7.106Zm6.944-3.179a3.918,3.918,0,0,0,3.735-2.713l1.424-4.431a.2.2,0,0,1,.01.025l1.432,4.406a3.919,3.919,0,0,0,3.735,2.713h4.635l-3.754,2.727a3.918,3.918,0,0,0-1.424,4.387l1.434,4.41-3.752-2.727a3.923,3.923,0,0,0-4.614,0l-3.749,2.723,1.43-4.408a3.919,3.919,0,0,0-1.426-4.391l-3.75-2.723Z" transform="translate(-154.853 -46.18)"/>
  <path id="Tracé_130" data-name="Tracé 130" d="M93.836,135.021l3.749,2.727a3.927,3.927,0,0,0,6.044-4.391l-1.432-4.408,3.751-2.724a3.927,3.927,0,0,0-2.309-7.1l-4.634,0-1.432-4.408v0a3.927,3.927,0,0,0-7.47,0l-1.433,4.407H84.033a3.928,3.928,0,0,0-2.309,7.106l3.75,2.723-1.432,4.407a3.926,3.926,0,0,0,6.042,4.391Zm-6.051-9.253-3.751-2.722h4.635a3.919,3.919,0,0,0,3.735-2.713l1.424-4.431s0,.008.01.025l1.432,4.406A3.918,3.918,0,0,0,99,123.046h4.634l-3.75,2.724a3.915,3.915,0,0,0-1.426,4.389l1.432,4.41-3.751-2.727a3.923,3.923,0,0,0-4.614,0l-3.749,2.723,1.431-4.408a3.924,3.924,0,0,0-1.426-4.391Z" transform="translate(-64.372 -88.436)"/>
  <path id="Tracé_131" data-name="Tracé 131" d="M337.572,114.712v0a3.927,3.927,0,0,0-7.47,0l-1.433,4.407h-4.635a3.928,3.928,0,0,0-2.309,7.106l3.751,2.723-1.432,4.407a3.926,3.926,0,0,0,6.042,4.391l3.75-2.724,3.749,2.727a3.927,3.927,0,0,0,6.044-4.391l-1.432-4.408,3.751-2.724a3.927,3.927,0,0,0-2.309-7.1l-4.634,0Zm2.316,11.058a3.915,3.915,0,0,0-1.426,4.389l1.432,4.41-3.751-2.727a3.923,3.923,0,0,0-4.614,0l-3.749,2.723,1.431-4.408a3.924,3.924,0,0,0-1.426-4.391l-3.751-2.723h4.635a3.919,3.919,0,0,0,3.735-2.713l1.424-4.431s0,.008.01.025l1.432,4.406A3.918,3.918,0,0,0,339,123.046h4.634Z" transform="translate(-245.469 -88.436)"/>
  <path id="Tracé_132" data-name="Tracé 132" d="M74.9,16a58.9,58.9,0,1,0,58.9,58.9A58.971,58.971,0,0,0,74.9,16Zm0,113.882A54.977,54.977,0,1,1,129.882,74.9,55.039,55.039,0,0,1,74.9,129.882Z" transform="translate(-16 -16)"/>
  <path id="Tracé_133" data-name="Tracé 133" d="M411.626,231.68a43.108,43.108,0,0,1-6.337,22.536,1.963,1.963,0,1,0,3.348,2.052,47.026,47.026,0,0,0,6.916-24.588,47.583,47.583,0,0,0-.4-6.138,1.963,1.963,0,1,0-3.893.5A43.922,43.922,0,0,1,411.626,231.68Z" transform="translate(-309.525 -172.776)"/>
  <path id="Tracé_134" data-name="Tracé 134" d="M67.927,231.684a43.9,43.9,0,0,1,.363-5.629,1.963,1.963,0,1,0-3.891-.514,47.609,47.609,0,0,0-.4,6.143,46.847,46.847,0,0,0,3.745,18.44,1.963,1.963,0,1,0,3.613-1.538,42.951,42.951,0,0,1-3.431-16.9Z" transform="translate(-52.219 -172.779)"/>
</svg>
