<svg xmlns="http://www.w3.org/2000/svg" width="28.161" height="23.457" viewBox="0 0 28.161 23.457">
  <path id="logo_visible" d="M15.081,7.517a6.321,6.321,0,0,1,6.093,8.269L25.091,19.7a15.107,15.107,0,0,0,4.071-5.8,15.154,15.154,0,0,0-18.74-8.858L13.2,7.825a6.58,6.58,0,0,1,1.882-.307ZM3.189,3.242a1.275,1.275,0,0,0,0,1.8L5.711,7.569A15.222,15.222,0,0,0,1,13.918a15.1,15.1,0,0,0,19.6,8.551l3.482,3.482a1.276,1.276,0,0,0,1.8-1.8L5.007,3.242A1.29,1.29,0,0,0,3.189,3.242ZM15.081,20.318a6.4,6.4,0,0,1-6.4-6.4,6.286,6.286,0,0,1,.627-2.739l2.01,2.01a4.4,4.4,0,0,0-.077.73,3.835,3.835,0,0,0,3.84,3.84,3.449,3.449,0,0,0,.73-.09l2.01,2.01A6.16,6.16,0,0,1,15.081,20.318Zm3.8-6.823A3.8,3.8,0,0,0,15.5,10.116Z" transform="translate(-1 -2.868)" fill="#feaa28"/>
</svg>
