<svg xmlns="http://www.w3.org/2000/svg" width="147.862" height="120.72" viewBox="0 0 147.862 120.72">
  <g id="logo_convival" transform="translate(0 -46.992)">
    <g id="Groupe_58" data-name="Groupe 58" transform="translate(0 46.992)">
      <g id="Groupe_57" data-name="Groupe 57" transform="translate(2.888 2.888)">
        <g id="Groupe_47" data-name="Groupe 47" transform="translate(0 45.79)">
          <path id="Tracé_166" data-name="Tracé 166" d="M92.567,227.618,87.4,228.858A20.644,20.644,0,0,0,73.21,247l-.647,37.5-.162.2H10l.65-38.9A20.313,20.313,0,0,1,24.84,227.66l13.732-3.3h1.849c2.113,2.688,6.1,4.034,9.194,4.034a10.544,10.544,0,0,0,9.488-6.752,285.151,285.151,0,0,1,29.372-6.1Z" transform="translate(-10 -215.549)" fill="#feaa28"/>
        </g>
        <g id="Groupe_48" data-name="Groupe 48" transform="translate(23.075 12.234)">
          <path id="Tracé_167" data-name="Tracé 167" d="M122.978,108.95v5.9a16.681,16.681,0,0,1-16.539,16.539c-9.083,0-16.184-7.379-16.539-16.539v-5.9c0-.185,0-.37.012-.554a17.172,17.172,0,0,0,9.6-5.3v3.743c5.617,0,8.554-7.486,8.554-7.486,3.246,6.414,10.671,8.363,14.879,8.955C122.958,108.522,122.97,108.736,122.978,108.95Z" transform="translate(-89.9 -99.353)" fill="#ffdad5"/>
        </g>
        <g id="Groupe_49" data-name="Groupe 49" transform="translate(30.423 42.392)">
          <path id="Tracé_168" data-name="Tracé 168" d="M134.027,213.277a10.543,10.543,0,0,1-9.491,6.749c-3.09,0-7.081-1.343-9.191-4.031l1.609-12.212a16.053,16.053,0,0,0,7.582,1.882,16.287,16.287,0,0,0,7.321-1.753Z" transform="translate(-115.344 -203.783)" fill="#ffdad5"/>
        </g>
        <g id="Groupe_50" data-name="Groupe 50" transform="translate(62.561 55.804)">
          <path id="Tracé_169" data-name="Tracé 169" d="M305.5,271.666a20.617,20.617,0,0,0-14.19-18.146l-13.732-3.3h-1.849c-1.929,2.456-6.58,3.994-9.416,4.034a14.136,14.136,0,0,1-9.408-4.034H255.2l-13.732,3.3a20.644,20.644,0,0,0-14.19,18.146l-.65,37.7h79.525Z" transform="translate(-226.628 -250.223)" fill="#5dc185"/>
        </g>
        <g id="Groupe_51" data-name="Groupe 51" transform="translate(85.636 13.372)">
          <path id="Tracé_170" data-name="Tracé 170" d="M339.608,112.041v5.614a16.681,16.681,0,0,1-16.539,16.539c-9.083,0-16.184-7.379-16.539-16.539v-5.614a16.194,16.194,0,0,1,.237-2.77c3.032-.286,7.569-1.5,9.807-5.978,2.864,4.481,8.59,6.106,13.284,6.056H339.3A17.889,17.889,0,0,1,339.608,112.041Z" transform="translate(-306.53 -103.293)" fill="#ffdad5"/>
        </g>
        <g id="Groupe_52" data-name="Groupe 52" transform="translate(92.841 42.392)">
          <path id="Tracé_171" data-name="Tracé 171" d="M350.274,217.23c-1.945,2.437-6.563,4-9.386,4a14.441,14.441,0,0,1-9.407-4.034l1.75-13.411a16.053,16.053,0,0,0,7.582,1.882,16.286,16.286,0,0,0,7.321-1.753Z" transform="translate(-331.481 -203.783)" fill="#ffdad5"/>
        </g>
        <g id="Groupe_53" data-name="Groupe 53" transform="translate(78.476 42.967)">
          <path id="Tracé_172" data-name="Tracé 172" d="M281.739,208.6c7.782-1.517,16.03-2.823,16.03-2.823L296.1,218.61h-1.708l-8.565,2.056Z" transform="translate(-281.739 -205.774)" fill="#ffdad5"/>
        </g>
        <g id="Groupe_54" data-name="Groupe 54" transform="translate(109.677 43.558)">
          <path id="Tracé_173" data-name="Tracé 173" d="M411.369,215.34l-2.979,8.376c-.344-.129-.692-.249-1.046-.357l-13.732-3.3h-1.849a.3.3,0,0,1-.03.036l-1.957-12.281a27.485,27.485,0,0,1,7.283,2.374,3.69,3.69,0,0,0,1.681.407,3.734,3.734,0,0,0,2.6-1.058,3.726,3.726,0,0,1,4.5-.524l3.977,1.762a3.719,3.719,0,0,1,1.552,4.561Z" transform="translate(-389.777 -207.818)" fill="#ffdad5"/>
        </g>
        <g id="Groupe_55" data-name="Groupe 55" transform="translate(20.878 0.426)">
          <path id="Tracé_174" data-name="Tracé 174" d="M102.652,70.272s-2.936,7.487-8.551,7.487V74.016s-4.607,5.473-11.806,5.473c0,0,0-21.023,19.025-21.023,18.378,0,19.273,21.023,19.273,21.023S107.316,79.487,102.652,70.272Z" transform="translate(-82.294 -58.465)" fill="#ffc135"/>
        </g>
        <g id="Groupe_56" data-name="Groupe 56" transform="translate(82.856)">
          <path id="Tracé_175" data-name="Tracé 175" d="M296.9,76.359s9.283,1.092,12.826-6c0,0,3.2,6.059,13.283,6.059h11.928s-1.772-19.428-18.429-19.428C298.082,56.991,296.9,76.359,296.9,76.359Z" transform="translate(-296.904 -56.991)" fill="#ffc135"/>
        </g>
      </g>
      <path id="Tracé_176" data-name="Tracé 176" d="M17.055,104.972c-.059.014-.116.03-.174.048A23.106,23.106,0,0,0,.655,125.769c0,.035,0,.07,0,.105L0,164.771a2.888,2.888,0,0,0,2.888,2.94H93.013a2.888,2.888,0,0,0,0-5.776h-9.4v-22.1a2.888,2.888,0,0,0-5.776,0v22.1H68.392l.594-34.7a17.781,17.781,0,0,1,12.07-15.468l13.308-3.195h.266c6.062,5.006,15.147,5.523,21.166,0h.265l13.308,3.195a17.751,17.751,0,0,1,12.07,15.468l.594,34.7h-9.3v-22.1a2.888,2.888,0,0,0-5.776,0v22.1h-8.53a2.888,2.888,0,0,0,0,5.776h26.55a2.888,2.888,0,0,0,2.887-2.942l-.65-37.7c0-.035,0-.069,0-.1A23.478,23.478,0,0,0,134.79,107.8l2.074-5.832c1.136-2.944-.061-6.872-3.089-8.211l-3.839-1.7a6.621,6.621,0,0,0-7.82,1.031.836.836,0,0,1-.946.156,24.59,24.59,0,0,0-3.073-1.308c.2-.184.4-.37.6-.563a19.234,19.234,0,0,0,5.8-13.761V72.1a2.879,2.879,0,0,0,2.167-3.058,32.223,32.223,0,0,0-3.282-10.784c-3.833-7.373-10.065-11.27-18.023-11.27-10.948,0-16.517,6.094-19.26,11.206a29.129,29.129,0,0,0-3.23,10.874,2.888,2.888,0,0,0,2.545,3.043c.037,0,.118.013.229.023v5.474c0,.037,0,.075,0,.112a20.407,20.407,0,0,0,5.48,13.237c-2.943.5-6.642,1.16-10.228,1.858-.988.144-13,1.93-26.753,5.406l-1.019-4.4a20.063,20.063,0,0,0,3.014-2.453,19.234,19.234,0,0,0,5.8-13.761v-3.4h.135a2.888,2.888,0,0,0,2.885-3.011,33.029,33.029,0,0,0-3.026-11.638c-3.813-7.949-10.429-12.15-19.133-12.15-11.368,0-16.759,6.639-19.279,12.209a31.4,31.4,0,0,0-2.634,11.7,2.886,2.886,0,0,0,2.2,2.8v3.483c0,.037,0,.075,0,.112a20.222,20.222,0,0,0,8.736,16.023l-1.045,7.933ZM6.425,126.033a17.54,17.54,0,0,1,12.069-15.467L31.8,107.372h.235c6.506,6.29,17.731,4.917,22-3.157C64.962,101.377,75,99.612,79.408,98.9l2.3,6.773-2.09.5c-.059.014-.117.03-.174.048a23.41,23.41,0,0,0-16.225,20.749c0,.034,0,.069,0,.1l-.6,34.864H21.519v-22.1a2.888,2.888,0,0,0-5.776,0v22.1H5.829Zm99.643-29.021a19.28,19.28,0,0,0,4.026-.65l1.338,8.329A10.4,10.4,0,0,1,98.8,104.5l1.066-8.166A19.146,19.146,0,0,0,106.068,97.012Zm15.46,2.094a6.587,6.587,0,0,0,4.609-1.873c.429-.415.89-.148,1.32.043l3.759,1.666a.828.828,0,0,1,.255.955c-.012.031-.024.063-.036.095l-2.074,5.832-12.287-2.95-.085-.019-.876-5.5a18.921,18.921,0,0,1,2.419,1.023A6.622,6.622,0,0,0,121.529,99.107ZM107.8,90.976a13.181,13.181,0,0,1-2.734.289c-7.5,0-13.343-6.4-13.651-13.71V72c0-.088,0-.175,0-.263A14.855,14.855,0,0,0,98.735,67.9c3.556,3.078,8.507,4.292,13.117,4.292h6.862v5.417A13.877,13.877,0,0,1,107.8,90.976Zm-16.532-30.2c2.913-5.313,7.653-8.008,14.087-8.008,5.694,0,10.009,2.7,12.826,8.019a25.683,25.683,0,0,1,2.128,5.632c-2.979,0-5.964.06-8.943-.007a18.311,18.311,0,0,1-5.2-.885,9.645,9.645,0,0,1-5.032-3.613,2.879,2.879,0,0,0-5.08-.071,8.876,8.876,0,0,1-6.883,4.429,22.771,22.771,0,0,1,2.094-5.5Zm2.766,35.551-.855,6.589-5.831,1.4-2.179-6.428C88.485,97.272,91.679,96.721,94.031,96.326ZM28.774,62.007c2.646-5.849,7.362-8.814,14.016-8.814,6.363,0,11.024,2.937,13.855,8.73A26.3,26.3,0,0,1,58.7,68.1c-4.442-.742-9.121-2.59-11.6-6.577-.739-1.188-1.4-2.3-2.979-2.3a2.919,2.919,0,0,0-2.689,1.834,13.873,13.873,0,0,1-3,4.68c-.285-2.021-2.647-3.434-4.392-2.335A20.807,20.807,0,0,0,32.1,65.184,14.378,14.378,0,0,1,27,67.969,24.6,24.6,0,0,1,28.774,62.007Zm.076,15.547V73.447a19.467,19.467,0,0,0,4.468-2.039,2.883,2.883,0,0,0,2.252,1.079c3.639,0,6.718-2.247,8.823-5.069,3.446,3.577,8.093,5.272,11.759,6.075v4.12A13.921,13.921,0,0,1,42.5,91.264C35,91.264,29.159,84.863,28.851,77.555ZM41.53,97.015a19.248,19.248,0,0,0,6.232-.717l1.2,5.159c-2.442,4.685-8.727,5.342-12.6,2.035l.944-7.164a19.028,19.028,0,0,0,4.232.687Z" transform="translate(0 -46.992)"/>
      <path id="Tracé_177" data-name="Tracé 177" d="M356.118,449.524a2.888,2.888,0,1,0,.8-4.006,2.919,2.919,0,0,0-.8,4.006Z" transform="translate(-252.936 -330.089)"/>
    </g>
  </g>
</svg>
