<svg xmlns="http://www.w3.org/2000/svg" width="43.688" height="43.688" viewBox="0 0 43.688 43.688">
  <path id="logo_games" d="M30.4,13.555V4.184A2.191,2.191,0,0,0,28.213,2H19.475a2.191,2.191,0,0,0-2.184,2.184v9.371a1.025,1.025,0,0,0,.328.765l5.461,5.461a1.081,1.081,0,0,0,1.551,0l5.461-5.461a1.054,1.054,0,0,0,.306-.765ZM13.555,17.291H4.184A2.191,2.191,0,0,0,2,19.475v8.738A2.191,2.191,0,0,0,4.184,30.4h9.371a1.025,1.025,0,0,0,.765-.328l5.461-5.461a1.081,1.081,0,0,0,0-1.551L14.32,17.6A1.054,1.054,0,0,0,13.555,17.291Zm3.735,16.842V43.5a2.191,2.191,0,0,0,2.184,2.184h8.738A2.191,2.191,0,0,0,30.4,43.5V34.133a1.025,1.025,0,0,0-.328-.765l-5.461-5.461a1.081,1.081,0,0,0-1.551,0L17.6,33.368A1.054,1.054,0,0,0,17.291,34.133ZM33.346,17.618l-5.461,5.461a1.081,1.081,0,0,0,0,1.551l5.461,5.461a1.112,1.112,0,0,0,.765.328H43.5a2.191,2.191,0,0,0,2.184-2.184V19.5A2.191,2.191,0,0,0,43.5,17.313H34.133A.976.976,0,0,0,33.346,17.618Z" transform="translate(-2 -2)" fill="#fff"/>
</svg>
