<svg xmlns="http://www.w3.org/2000/svg" width="123.896" height="123.857" viewBox="0 0 123.896 123.857">
  <g id="logo_decouvertes" transform="translate(-3 1.918)">
    <g id="Groupe_35" data-name="Groupe 35" transform="translate(3 -1.918)">
      <g id="Groupe_33" data-name="Groupe 33" transform="translate(1.814 1.782)">
        <g id="Groupe_32" data-name="Groupe 32">
          <g id="Groupe_30" data-name="Groupe 30" transform="translate(0 17.149)">
            <g id="Groupe_25" data-name="Groupe 25" transform="translate(58.173 0.014)">
              <g id="Groupe_24" data-name="Groupe 24" transform="translate(0 0)">
                <g id="Groupe_23" data-name="Groupe 23">
                  <path id="Tracé_88" data-name="Tracé 88" d="M344.615,431.544l-42.229,11.586a3.94,3.94,0,0,1-4.839-2.781l0-.008a3.968,3.968,0,0,1,2.762-4.874l8.9-2.442,12.227-5.251,13.943-1.93,7.159-1.964a3.94,3.94,0,0,1,4.839,2.781l0,.007A3.967,3.967,0,0,1,344.615,431.544Z" transform="translate(-285.423 -340.166)" fill="#828cb3"/>
                  <path id="Tracé_89" data-name="Tracé 89" d="M443.91,426.522a3.94,3.94,0,0,1,4.839,2.78l0,.008a3.967,3.967,0,0,1-2.762,4.874l9.68-2.639a3.968,3.968,0,0,0,2.762-4.874l0-.008a3.94,3.94,0,0,0-4.839-2.78l-7.159,1.964Z" transform="translate(-396.477 -340.166)" fill="#717eb3"/>
                  <path id="Tracé_90" data-name="Tracé 90" d="M334.805,249.3l-13.982,7.952-16.068.293L298,207.959l7.6-6.629,9.9,1.828Z" transform="translate(-285.871 -171.575)" fill="#828cb3"/>
                  <g id="Groupe_21" data-name="Groupe 21" transform="translate(18.031 29.755)">
                    <path id="Tracé_91" data-name="Tracé 91" d="M324.319,203.158l21.172,50.593,7.819-4.447L334,203.158l-9.9-1.828-1.691,1.475Z" transform="translate(-322.407 -201.33)" fill="#717eb3"/>
                  </g>
                  <ellipse id="Ellipse_15" data-name="Ellipse 15" cx="14.055" cy="14.17" rx="14.055" ry="14.17" transform="matrix(0.989, -0.148, 0.148, 0.989, 0, 4.16)" fill="#828cb3"/>
                  <path id="Tracé_92" data-name="Tracé 92" d="M312.307,96.731a14.08,14.08,0,0,0-17.278-9.951c-.392.108-.773.234-1.148.372a14.2,14.2,0,0,1,.062,26.6,13.891,13.891,0,0,0,8.532.372A14.145,14.145,0,0,0,312.307,96.731Z" transform="translate(-282.752 -84.366)" fill="#717eb3"/>
                  <g id="Groupe_22" data-name="Groupe 22" transform="translate(3.65 22.825)">
                    <path id="Tracé_93" data-name="Tracé 93" d="M292.434,180.492l-24.476,6.715a3.94,3.94,0,0,1-4.839-2.78l0-.008a3.968,3.968,0,0,1,2.762-4.874l24.476-6.715a3.94,3.94,0,0,1,4.839,2.78l0,.007A3.968,3.968,0,0,1,292.434,180.492Z" transform="translate(-262.976 -172.69)" fill="#cc8b66"/>
                    <path id="Tracé_94" data-name="Tracé 94" d="M344.595,404.464l-34.163,9.373a3.94,3.94,0,0,1-4.839-2.78l0-.008a3.968,3.968,0,0,1,2.762-4.874l34.163-9.373a3.94,3.94,0,0,1,4.839,2.78l0,.008A3.968,3.968,0,0,1,344.595,404.464Z" transform="translate(-295.171 -342.463)" fill="#cc8b66"/>
                  </g>
                </g>
              </g>
            </g>
            <g id="Groupe_29" data-name="Groupe 29">
              <g id="Groupe_28" data-name="Groupe 28">
                <g id="Groupe_27" data-name="Groupe 27">
                  <path id="Tracé_95" data-name="Tracé 95" d="M61.886,250.552,75.868,258.5l16.068.293,6.76-49.589-7.706-6.231L81.2,204.406Z" transform="translate(-48.725 -172.809)" fill="#fff6e0"/>
                  <path id="Tracé_96" data-name="Tracé 96" d="M154.874,202.977l-1.147.167-7.563,55.477,9.656.176,6.76-49.589Z" transform="translate(-112.608 -172.809)" fill="#fff0cc"/>
                  <path id="Tracé_97" data-name="Tracé 97" d="M10.4,431.544l42.229,11.586a3.94,3.94,0,0,0,4.839-2.781l0-.008a3.968,3.968,0,0,0-2.762-4.874l-7.152-1.962-12.916-7.66-15.872-.239-6.289-1.726a3.94,3.94,0,0,0-4.839,2.781l0,.007a3.968,3.968,0,0,0,2.762,4.874Z" transform="translate(-7.499 -340.152)" fill="#fff6e0"/>
                  <path id="Tracé_98" data-name="Tracé 98" d="M169.245,464.526l-7.152-1.962-1.923-.489a3.968,3.968,0,0,1,2.762,4.874l0,.008a3.942,3.942,0,0,1-4.332,2.88l8.568,2.351a3.94,3.94,0,0,0,4.839-2.78l0-.008A3.968,3.968,0,0,0,169.245,464.526Z" transform="translate(-122.034 -369.209)" fill="#fff0cc"/>
                  <ellipse id="Ellipse_16" data-name="Ellipse 16" cx="14.17" cy="14.055" rx="14.17" ry="14.055" transform="matrix(0.148, -0.989, 0.989, 0.148, 30.095, 28.028)" fill="#fff6e0"/>
                  <path id="Tracé_99" data-name="Tracé 99" d="M186.454,86.785a13.892,13.892,0,0,0-8.532.372,14.2,14.2,0,0,1-.062,26.6c.375.138.756.265,1.148.372a14.169,14.169,0,0,0,7.446-27.34Z" transform="translate(-136.634 -84.357)" fill="#fff0cc"/>
                  <g id="Groupe_26" data-name="Groupe 26" transform="translate(6.119 22.838)">
                    <path id="Tracé_100" data-name="Tracé 100" d="M118.193,180.492l24.476,6.715a3.94,3.94,0,0,0,4.839-2.78l0-.008a3.968,3.968,0,0,0-2.762-4.874l-24.476-6.715a3.94,3.94,0,0,0-4.839,2.78l0,.007A3.968,3.968,0,0,0,118.193,180.492Z" transform="translate(-95.324 -172.69)" fill="#cc8b66"/>
                    <path id="Tracé_101" data-name="Tracé 101" d="M35.688,404.464l34.163,9.373a3.94,3.94,0,0,0,4.839-2.78l0-.008a3.968,3.968,0,0,0-2.762-4.874L37.766,396.8a3.94,3.94,0,0,0-4.839,2.78l0,.008a3.967,3.967,0,0,0,2.762,4.874Z" transform="translate(-32.784 -342.463)" fill="#cc8b66"/>
                  </g>
                </g>
              </g>
            </g>
          </g>
          <g id="Groupe_31" data-name="Groupe 31" transform="translate(41.706)">
            <path id="Tracé_102" data-name="Tracé 102" d="M185.231,38.839l4.522-9.484-9.907-3.526,9.912-3.513-4.508-9.49,9.5,4.516,3.531-9.9,3.517,9.9,9.5-4.5-4.522,9.484,9.907,3.527L206.768,29.6l4.508,9.49-9.5-4.75-3.531,9.895-3.517-9.9Z" transform="translate(-179.846 -7.446)" fill="#feaa28"/>
          </g>
        </g>
      </g>
      <g id="Groupe_34" data-name="Groupe 34" transform="translate(0 0)">
        <path id="Tracé_103" data-name="Tracé 103" d="M120.981,101.544a5.7,5.7,0,0,0-3.256-.741,5.8,5.8,0,0,0-.153-2.309,5.863,5.863,0,0,0-7.592-3.911l-17.9-42.769,1.494-.41c6.73-1.846,4.614-12.536-2.507-11.282a16.061,16.061,0,0,0-8.9-19.725q.005-.071,0-.144a1.815,1.815,0,0,0-1.206-1.692L72.952,15.71l3.656-7.668a1.828,1.828,0,0,0-2.416-2.421L66.506,9.264,63.662,1.257a1.833,1.833,0,0,0-3.42,0l-2.856,8L49.7,5.6a1.828,1.828,0,0,0-2.419,2.418l3.645,7.673-8.016,2.841a1.815,1.815,0,0,0-1.209,1.709q0,.081.007.16A16.061,16.061,0,0,0,32.83,40.122a5.859,5.859,0,0,0-6.54,4.181,5.789,5.789,0,0,0,4.033,7.1l1.494.41L29.771,56.7a1.815,1.815,0,0,0,3.348,1.4l2.226-5.319,14.428,3.958L43.508,102.7l-26.061-7.15L29.573,66.576a1.815,1.815,0,1,0-3.348-1.4L13.918,94.584A5.88,5.88,0,0,0,6.172,100.8,5.867,5.867,0,0,0,.2,105.055a5.789,5.789,0,0,0,4.033,7.1l42.229,11.586a5.786,5.786,0,0,0,4.091-10.76,5.9,5.9,0,0,0-3.518-9.311L53.3,57.71l1.493.41a5.9,5.9,0,0,0,4.36-.55,5.727,5.727,0,0,0,2.7-3.482c.124-.423.036-.5.171-.009A5.742,5.742,0,0,0,64.74,57.57a5.9,5.9,0,0,0,4.36.55l1.494-.41,6.266,45.961a5.839,5.839,0,0,0-4.551,7.251,5.78,5.78,0,0,0,1.033,2.061,5.786,5.786,0,0,0,4.091,10.76l42.229-11.586a5.8,5.8,0,0,0,1.32-10.612ZM50.035,118.735a2.126,2.126,0,0,1-2.608,1.507L5.2,108.656A2.155,2.155,0,0,1,3.709,106a2.2,2.2,0,0,1,2.608-1.507L48.546,116.08a2.156,2.156,0,0,1,1.489,2.654Zm-1.947-8.766a2.293,2.293,0,0,1-2.611,1.506L11.312,102.1a2.156,2.156,0,0,1-1.484-2.653,2.126,2.126,0,0,1,2.608-1.507L46.6,107.314a2.156,2.156,0,0,1,1.489,2.655Zm39.7-78.1a12.448,12.448,0,0,1-1.208,9.457L70.008,45.874c-4.463-2.509-5.94-7.828-5.94-7.828L66.477,31.3l7.663,3.834a1.828,1.828,0,0,0,2.451-2.4l-3.663-7.711,5.379-2.033A12.314,12.314,0,0,1,87.791,31.869ZM54.039,18.444a1.815,1.815,0,0,0,1.033-2.489l-2.318-4.881L57.641,13.4a1.815,1.815,0,0,0,2.489-1.029l1.818-5.094,1.81,5.1A1.815,1.815,0,0,0,66.245,13.4l4.89-2.318L68.81,15.964a1.815,1.815,0,0,0,1.03,2.491l5.248,1.868-5.286,2a1.814,1.814,0,0,0-1,2.476l2.247,4.731-4.783-2.393a1.815,1.815,0,0,0-2.521,1.013l-1.818,5.094-1.81-5.1a1.844,1.844,0,0,0-2.487-1.033l-4.89,2.318,2.326-4.877a1.815,1.815,0,0,0-1.03-2.491L48.944,20.25ZM36.107,31.869a12.312,12.312,0,0,1,9.624-8.91l5.192,1.848-3.656,7.668A1.828,1.828,0,0,0,49.683,34.9l7.687-3.643L59.8,38.1s-1.451,5.562-5.914,7.769L37.314,41.326a12.449,12.449,0,0,1-1.208-9.457ZM58.375,53.083a2.283,2.283,0,0,1-2.616,1.536L31.283,47.9a2.155,2.155,0,0,1-1.489-2.654A2.2,2.2,0,0,1,32.4,43.742S58.681,51.956,58.375,53.083Zm3.575-1.747a5.783,5.783,0,0,0-3.6-4.21,16.046,16.046,0,0,0,3.6-4.586,16.046,16.046,0,0,0,3.6,4.586A5.782,5.782,0,0,0,61.949,51.335Zm6.19,3.284A2.29,2.29,0,0,1,65.528,53.1a2.153,2.153,0,0,1,1.494-2.638L91.5,43.742c2.6-.71,3.728,3.445,1.118,4.161Zm5.985,2.122,14.428-3.958,17.9,42.77L80.39,102.7ZM118.7,108.656,76.471,120.242a2.126,2.126,0,0,1-2.61-1.515,2.154,2.154,0,0,1,1.491-2.647l27.209-7.466a1.816,1.816,0,0,0-.96-3.5l-23.18,6.36a2.271,2.271,0,0,1-2.613-1.514,2.154,2.154,0,0,1,1.491-2.647l34.163-9.373c2.6-.71,3.728,3.442,1.121,4.161l-1.734.476a1.816,1.816,0,0,0,.96,3.5l5.771-1.584a2.126,2.126,0,0,1,2.61,1.515A2.154,2.154,0,0,1,118.7,108.656Z" transform="translate(0 -0.082)"/>
        <path id="Tracé_104" data-name="Tracé 104" d="M87.512,99.674h2.039a1.815,1.815,0,0,0,0-3.63H87.512A1.815,1.815,0,0,0,87.512,99.674Z" transform="translate(-64.969 -72.822)"/>
        <path id="Tracé_105" data-name="Tracé 105" d="M64.442,69.177a1.815,1.815,0,0,0,1.815-1.815V65.323a1.815,1.815,0,0,0-3.63,0v2.039A1.815,1.815,0,0,0,64.442,69.177Z" transform="translate(-47.472 -48.17)"/>
        <path id="Tracé_106" data-name="Tracé 106" d="M31.906,98.551h2.039a1.815,1.815,0,0,0,0-3.63H31.906A1.815,1.815,0,0,0,31.906,98.551Z" transform="translate(-22.819 -71.971)"/>
        <path id="Tracé_107" data-name="Tracé 107" d="M63.318,124.783a1.815,1.815,0,0,0,1.815-1.815v-2.039a1.815,1.815,0,0,0-3.63,0v2.039A1.815,1.815,0,0,0,63.318,124.783Z" transform="translate(-46.62 -90.32)"/>
        <path id="Tracé_108" data-name="Tracé 108" d="M460.379,99.674h2.039a1.815,1.815,0,0,0,0-3.63h-2.039A1.815,1.815,0,0,0,460.379,99.674Z" transform="translate(-347.607 -72.822)"/>
        <path id="Tracé_109" data-name="Tracé 109" d="M437.309,69.177a1.815,1.815,0,0,0,1.815-1.815V65.323a1.815,1.815,0,0,0-3.63,0v2.039A1.815,1.815,0,0,0,437.309,69.177Z" transform="translate(-330.109 -48.17)"/>
        <path id="Tracé_110" data-name="Tracé 110" d="M404.772,98.551h2.039a1.815,1.815,0,0,0,0-3.63h-2.039A1.815,1.815,0,0,0,404.772,98.551Z" transform="translate(-305.456 -71.971)"/>
        <path id="Tracé_111" data-name="Tracé 111" d="M436.185,124.783A1.815,1.815,0,0,0,438,122.968v-2.039a1.815,1.815,0,0,0-3.63,0v2.039A1.815,1.815,0,0,0,436.185,124.783Z" transform="translate(-329.257 -90.32)"/>
        <path id="Tracé_112" data-name="Tracé 112" d="M490.429,218.1h2.039a1.815,1.815,0,0,0,0-3.63h-2.039A1.815,1.815,0,0,0,490.429,218.1Z" transform="translate(-370.385 -162.589)"/>
        <path id="Tracé_113" data-name="Tracé 113" d="M469.174,183.746a1.815,1.815,0,0,0-3.63,0v2.039a1.815,1.815,0,0,0,3.63,0Z" transform="translate(-352.888 -137.936)"/>
        <path id="Tracé_114" data-name="Tracé 114" d="M434.823,216.974h2.039a1.815,1.815,0,0,0,0-3.63h-2.039A1.815,1.815,0,0,0,434.823,216.974Z" transform="translate(-328.235 -161.737)"/>
        <path id="Tracé_115" data-name="Tracé 115" d="M466.236,237.5a1.815,1.815,0,0,0-1.815,1.815v2.039a1.815,1.815,0,0,0,3.63,0v-2.039A1.815,1.815,0,0,0,466.236,237.5Z" transform="translate(-352.036 -180.045)"/>
        <path id="Tracé_116" data-name="Tracé 116" d="M57.461,218.1H59.5a1.815,1.815,0,0,0,0-3.63H57.461A1.815,1.815,0,0,0,57.461,218.1Z" transform="translate(-42.191 -162.589)"/>
        <path id="Tracé_117" data-name="Tracé 117" d="M36.206,183.746a1.815,1.815,0,0,0-3.63,0v2.039a1.815,1.815,0,0,0,3.63,0Z" transform="translate(-24.693 -137.936)"/>
        <path id="Tracé_118" data-name="Tracé 118" d="M1.855,216.974H3.894a1.815,1.815,0,0,0,0-3.63H1.855a1.815,1.815,0,0,0,0,3.63Z" transform="translate(-0.041 -161.737)"/>
        <path id="Tracé_119" data-name="Tracé 119" d="M33.268,237.5a1.815,1.815,0,0,0-1.815,1.815v2.039a1.815,1.815,0,0,0,3.63,0v-2.039A1.815,1.815,0,0,0,33.268,237.5Z" transform="translate(-23.842 -180.045)"/>
      </g>
    </g>
  </g>
</svg>
