<svg xmlns="http://www.w3.org/2000/svg" width="24.973" height="32.777" viewBox="0 0 24.973 32.777">
  <path id="logo_security_2" d="M25.852,11.926H24.291V8.8a7.8,7.8,0,1,0-15.608,0v3.122H7.122A3.131,3.131,0,0,0,4,15.047V30.656a3.131,3.131,0,0,0,3.122,3.122h18.73a3.131,3.131,0,0,0,3.122-3.122V15.047A3.131,3.131,0,0,0,25.852,11.926ZM16.487,25.973a3.122,3.122,0,1,1,3.122-3.122A3.131,3.131,0,0,1,16.487,25.973ZM11.8,11.926V8.8a4.682,4.682,0,1,1,9.365,0v3.122Z" transform="translate(-4 -1)" fill="#feaa28"/>
</svg>
