<svg xmlns="http://www.w3.org/2000/svg" width="26.07" height="37.931" viewBox="0 0 26.07 37.931">
  <path id="logo_strategie" d="M14.87,0C8.957,0,5.127,2.423,2.12,6.743A1.78,1.78,0,0,0,2.5,9.179L5.7,11.6a1.778,1.778,0,0,0,2.463-.307c1.856-2.325,3.232-3.663,6.131-3.663,2.279,0,5.1,1.467,5.1,3.677,0,1.671-1.379,2.529-3.63,3.79-2.624,1.471-6.1,3.3-6.1,7.883v.725a1.778,1.778,0,0,0,1.778,1.778h5.369a1.778,1.778,0,0,0,1.778-1.778v-.428c0-3.175,9.28-3.307,9.28-11.9C27.87,4.908,21.158,0,14.87,0Zm-.742,27.667A5.132,5.132,0,1,0,19.259,32.8,5.138,5.138,0,0,0,14.127,27.667Z" transform="translate(-1.8)" fill="#fff"/>
</svg>
