<svg xmlns="http://www.w3.org/2000/svg" width="109.167" height="109.223" viewBox="0 0 109.167 109.223">
  <g id="logo_abonnement" transform="translate(-1 -0.981)">
    <path id="Tracé_81" data-name="Tracé 81" d="M5.521,25.043H20.335a3.521,3.521,0,0,1,3.428,2.722L33.549,69.7a10.565,10.565,0,0,0,10.288,8.165h60.286a3.522,3.522,0,0,0,3.521-3.521h0a3.522,3.522,0,0,0-3.521-3.522H43.531A3.522,3.522,0,0,1,40.1,68.1L29.681,23.442A7.043,7.043,0,0,0,22.821,18H5.521A3.521,3.521,0,0,0,2,21.521H2a3.521,3.521,0,0,0,3.521,3.521Z" transform="translate(0.761 12.947)" fill="#5378a5"/>
    <circle id="Ellipse_9" data-name="Ellipse 9" cx="8.804" cy="8.804" r="8.804" transform="translate(46.779 90.812)" fill="#b5b5b5"/>
    <circle id="Ellipse_10" data-name="Ellipse 10" cx="8.804" cy="8.804" r="8.804" transform="translate(81.994 90.812)" fill="#b5b5b5"/>
    <circle id="Ellipse_11" data-name="Ellipse 11" cx="3.521" cy="3.521" r="3.521" transform="translate(52.062 96.095)" fill="#939393"/>
    <circle id="Ellipse_12" data-name="Ellipse 12" cx="3.521" cy="3.521" r="3.521" transform="translate(87.277 96.095)" fill="#939393"/>
    <path id="Tracé_82" data-name="Tracé 82" d="M94.567,21.66A1.761,1.761,0,0,0,93.191,21H22.761a1.761,1.761,0,0,0-1.717,2.152l8.8,38.736a1.761,1.761,0,0,0,1.717,1.37H84.387a1.761,1.761,0,0,0,1.717-1.37l8.8-38.737a1.761,1.761,0,0,0-.34-1.491ZM70.445,47.411H59.736V36.847H71.886Zm4.993-10.564H88.183l-2.4,10.564H74Zm-47.67,0H40.513l1.44,10.564H30.168Zm16.3,0H56.215V47.411H45.506Zm-.481-3.521-1.2-8.8H56.215v8.8Zm12.63,17.607v8.8H47.188l-1.2-8.8Zm3.521,0H69.965l-1.2,8.8H59.736Zm0-17.607v-8.8H73.567l-1.2,8.8Zm-20.905-8.8,1.2,8.8H26.967l-2-8.8ZM30.969,50.933H42.434l1.2,8.8H32.973Zm52.009,8.8H72.317l1.2-8.8H84.982Zm6-26.411H75.916l1.2-8.8H90.981Z" transform="translate(15.215 15.229)" fill="#5e87ca"/>
    <path id="Tracé_83" data-name="Tracé 83" d="M69.737,21.371A19.368,19.368,0,1,0,46.671,40.377l3.7,7.406,3.7-7.406A19.368,19.368,0,0,0,69.737,21.371Z" transform="translate(22.822 0.772)" fill="#feaa28"/>
    <path id="Tracé_84" data-name="Tracé 84" d="M46.564,26.607l7.628-6.356a8.165,8.165,0,0,0,2.937-6.272h0A4.979,4.979,0,0,0,52.15,9h0a4.98,4.98,0,0,0-3.522,1.459l-2.063,2.063L44.5,10.458A4.979,4.979,0,0,0,40.979,9h0A4.979,4.979,0,0,0,36,13.979h0a8.165,8.165,0,0,0,2.937,6.272Z" transform="translate(26.626 6.1)" fill="#ffe6be"/>
    <path id="Tracé_85" data-name="Tracé 85" d="M104.884,69.822H44.291a1.761,1.761,0,0,1-1.715-1.361L32.165,23.8A8.767,8.767,0,0,0,23.583,17H6.282a5.282,5.282,0,1,0,0,10.564H21.1a1.761,1.761,0,0,1,1.715,1.359l9.784,41.939a12.276,12.276,0,0,0,12,9.524H47.73a10.564,10.564,0,1,0,15.706,0H82.945a10.564,10.564,0,1,0,15.706,0h6.233a5.282,5.282,0,1,0,0-10.564ZM62.626,87.43a7.043,7.043,0,1,1-7.043-7.043A7.043,7.043,0,0,1,62.626,87.43Zm35.215,0A7.043,7.043,0,1,1,90.8,80.387,7.043,7.043,0,0,1,97.841,87.43Zm7.043-10.564H44.6a8.767,8.767,0,0,1-8.573-6.8L26.239,28.124A5.259,5.259,0,0,0,21.1,24.043H6.282a1.761,1.761,0,1,1,0-3.521h17.3A5.263,5.263,0,0,1,28.728,24.6l10.42,44.66a5.259,5.259,0,0,0,5.143,4.081h60.593a1.761,1.761,0,1,1,0,3.521Z" transform="translate(0 12.186)"/>
    <path id="Tracé_86" data-name="Tracé 86" d="M31.564,78.487H84.387a1.761,1.761,0,0,0,1.717-1.37l8.8-38.737a1.761,1.761,0,0,0-1.717-2.152H73.7a21.129,21.129,0,1,0-31.438,0h-19.5a1.761,1.761,0,0,0-1.717,2.152l8.8,38.736A1.761,1.761,0,0,0,31.564,78.487Zm21.511-35.8,2.932,5.863H43.585l-1.2-8.8h3.935A20.953,20.953,0,0,0,53.075,42.691Zm16.556-2.94h3.935l-1.2,8.8H59.944l2.932-5.863a20.976,20.976,0,0,0,6.756-2.94Zm.813,22.89H59.736V52.076H71.886Zm4.993-10.564H88.183l-2.4,10.564H74Zm-15.7,14.086H69.965l-1.2,8.8H59.736Zm-3.521,8.8H47.188l-1.2-8.8H56.215Zm0-22.89V62.64H45.506l-1.44-10.564ZM41.953,62.64H30.168l-2.4-10.564H40.513ZM30.969,66.162H42.434l1.2,8.8H32.973Zm52.009,8.8H72.317l1.2-8.8H84.982Zm6-26.411H75.916l1.2-8.8H90.981Zm-31-44.019A17.607,17.607,0,0,1,61.344,39.42a1.761,1.761,0,0,0-1.233.942l-2.136,4.256-2.127-4.256a1.761,1.761,0,0,0-1.233-.942,17.607,17.607,0,0,1,3.36-34.884ZM38.831,39.751l1.2,8.8H26.967l-2-8.8Z" transform="translate(15.215 0)"/>
    <circle id="Ellipse_13" data-name="Ellipse 13" cx="3.521" cy="3.521" r="3.521" transform="translate(52.062 96.095)"/>
    <circle id="Ellipse_14" data-name="Ellipse 14" cx="3.521" cy="3.521" r="3.521" transform="translate(87.277 96.095)"/>
    <path id="Tracé_87" data-name="Tracé 87" d="M38.571,22.365,46.2,28.721a1.761,1.761,0,0,0,2.254,0l7.628-6.356a9.9,9.9,0,0,0,3.571-7.622A6.74,6.74,0,0,0,48.142,9.976l-.817.817-.817-.817A6.74,6.74,0,0,0,35,14.742,9.9,9.9,0,0,0,38.571,22.365Zm3.171-10.843a3.2,3.2,0,0,1,2.277.944l2.062,2.062a1.761,1.761,0,0,0,2.49,0l2.062-2.062a3.22,3.22,0,0,1,5.5,2.277,6.383,6.383,0,0,1-2.3,4.918l-6.5,5.42-6.5-5.416a6.383,6.383,0,0,1-2.3-4.921,3.222,3.222,0,0,1,3.22-3.22Z" transform="translate(25.865 5.339)"/>
  </g>
</svg>
