<svg xmlns="http://www.w3.org/2000/svg" width="117.092" height="137.302" viewBox="0 0 117.092 137.302">
  <g id="logo_securise" transform="translate(-37.681 0)">
    <g id="Groupe_38" data-name="Groupe 38" transform="translate(40.569 2.887)">
      <path id="Tracé_136" data-name="Tracé 136" d="M135.038,63.328l-35.6,35.6a6.5,6.5,0,0,1-9.2,0L73.184,81.877a6.5,6.5,0,0,1,9.2-9.2L94.837,85.134l31-31a6.5,6.5,0,0,1,9.2,9.2Zm-30.929-52.56A225.791,225.791,0,0,1,48.452,34.375v29.51c0,55.365,47.883,78.409,55.657,78.409s55.659-23.044,55.659-78.409V34.375A232.84,232.84,0,0,1,104.109,10.768Z" transform="translate(-48.452 -10.768)" fill="#5dc185"/>
      <path id="Tracé_137" data-name="Tracé 137" d="M161.731,212.07l35.6-35.6a6.5,6.5,0,1,0-9.2-9.2l-31,31-12.456-12.455a6.5,6.5,0,1,0-9.2,9.2l17.054,17.053A6.5,6.5,0,0,0,161.731,212.07Z" transform="translate(-110.748 -123.908)" fill="#fff"/>
    </g>
    <g id="Groupe_39" data-name="Groupe 39" transform="translate(37.681 0)">
      <path id="Tracé_138" data-name="Tracé 138" d="M152.648,23.709A228.394,228.394,0,0,1,97.7.4,2.887,2.887,0,0,0,94.76.4,222.14,222.14,0,0,1,39.806,23.709a2.888,2.888,0,0,0-2.125,2.786V56.005c0,30.39,14.02,50.505,25.781,62.029C76.124,130.441,90.873,137.3,96.228,137.3s20.1-6.861,32.766-19.268c11.761-11.523,25.78-31.639,25.78-62.029V26.494A2.888,2.888,0,0,0,152.648,23.709ZM149,56.005c0,28.384-13.076,47.154-24.046,57.9-12.451,12.2-25.764,17.617-28.723,17.617S79.956,126.108,67.5,113.908c-10.97-10.749-24.047-29.519-24.047-57.9V28.687A227.462,227.462,0,0,0,96.228,6.235,234.661,234.661,0,0,0,149,28.686Z" transform="translate(-37.681 0)" fill="#000003"/>
      <path id="Tracé_139" data-name="Tracé 139" d="M101.837,100.774a2.888,2.888,0,0,0-3.746-1.629c-5.16,2.033-10.455,3.9-15.74,5.562a2.888,2.888,0,0,0-2.024,2.756v11.153a2.888,2.888,0,1,0,5.776,0v-9.043c4.741-1.534,9.477-3.231,14.105-5.054A2.887,2.887,0,0,0,101.837,100.774Z" transform="translate(-68.891 -72.41)" fill="#000003"/>
      <path id="Tracé_140" data-name="Tracé 140" d="M173.1,92a2.889,2.889,0,0,0,1.158-.243l.053-.023a2.888,2.888,0,1,0-2.332-5.285l-.047.02A2.887,2.887,0,0,0,173.1,92Z" transform="translate(-134.664 -63.087)" fill="#000003"/>
      <path id="Tracé_141" data-name="Tracé 141" d="M325.05,346a2.889,2.889,0,0,0-4,.838,70.292,70.292,0,0,1-8.3,10.367,73.768,73.768,0,0,1-8.285,7.371,2.888,2.888,0,1,0,3.5,4.593,79.607,79.607,0,0,0,8.935-7.949A76,76,0,0,0,325.888,350,2.888,2.888,0,0,0,325.05,346Z" transform="translate(-232.092 -252.869)" fill="#000003"/>
      <path id="Tracé_142" data-name="Tracé 142" d="M278.171,432.362l-.166.1a2.888,2.888,0,1,0,2.893,5l.191-.112a2.888,2.888,0,1,0-2.919-4.984Z" transform="translate(-212.503 -316.127)" fill="#000003"/>
      <path id="Tracé_143" data-name="Tracé 143" d="M138.849,175.9a9.392,9.392,0,1,0-13.282,13.283l17.054,17.054a9.394,9.394,0,0,0,13.282,0l35.6-35.6a9.392,9.392,0,0,0-13.283-13.282L149.262,186.31Zm43.459-14.463a3.615,3.615,0,1,1,5.113,5.113l-35.6,35.6a3.618,3.618,0,0,1-5.114,0L129.652,185.1a3.616,3.616,0,0,1,5.113-5.113l12.455,12.455a2.888,2.888,0,0,0,4.084,0Z" transform="translate(-99.989 -113.14)" fill="#000003"/>
    </g>
  </g>
</svg>
