<svg xmlns="http://www.w3.org/2000/svg" width="155.609" height="151.298" viewBox="0 0 155.609 151.298">
  <g id="logo_suggestions" transform="translate(0 -7.093)">
    <g id="Groupe_106" data-name="Groupe 106" transform="translate(0 7.093)">
      <g id="Groupe_101" data-name="Groupe 101" transform="translate(3.039 44.471)">
        <path id="Tracé_204" data-name="Tracé 204" d="M98.589,242A51.893,51.893,0,1,0,25.2,242a52.982,52.982,0,0,0,5.333,4.661,31.477,31.477,0,0,1,18.5-28.585,20.517,20.517,0,1,1,25.733,0,31.477,31.477,0,0,1,18.5,28.585A52.949,52.949,0,0,0,98.589,242Z" transform="translate(-10 -153.417)" fill="#5dc185" fill-rule="evenodd"/>
      </g>
      <path id="Tracé_205" data-name="Tracé 205" d="M146.6,282.566A20.532,20.532,0,1,0,133.73,287.1,20.484,20.484,0,0,0,146.6,282.566Z" transform="translate(-78.802 -173.429)" fill="#ffdcd5" fill-rule="evenodd"/>
      <path id="Tracé_206" data-name="Tracé 206" d="M108.908,405.29a51.75,51.75,0,0,0,31.367-10.545,31.455,31.455,0,0,0-18.5-28.577,20.517,20.517,0,0,1-25.733-.009,31.477,31.477,0,0,0-18.5,28.585A51.744,51.744,0,0,0,108.908,405.29Z" transform="translate(-53.98 -257.03)" fill="#feaa28" fill-rule="evenodd"/>
      <g id="Groupe_103" data-name="Groupe 103" transform="translate(90.026 95.095)">
        <g id="Groupe_102" data-name="Groupe 102">
          <path id="Tracé_207" data-name="Tracé 207" d="M358.755,344.786V323.937a3.965,3.965,0,0,0-3.954-3.954H310.193a3.963,3.963,0,0,0-3.946,3.954v3.773l-10.036,6.651,10.036,6.651v3.773a3.964,3.964,0,0,0,3.946,3.954H354.8A3.966,3.966,0,0,0,358.755,344.786Z" transform="translate(-296.211 -319.983)" fill="#faf7f5" fill-rule="evenodd"/>
        </g>
      </g>
      <g id="Groupe_104" data-name="Groupe 104" transform="translate(62.635 3.044)">
        <path id="Tracé_208" data-name="Tracé 208" d="M252.88,95.529a39.528,39.528,0,1,0-40.585-17.61c.56,6.78-.543,11.346-4.385,17.868,8.865,2.3,16.73,1.327,23.657-2.18a39.4,39.4,0,0,0,21.313,1.921Z" transform="translate(-206.088 -17.108)" fill="#feaa28" fill-rule="evenodd"/>
        <path id="Tracé_209" data-name="Tracé 209" d="M260.381,109.462v24.183a2.528,2.528,0,0,0,2.524,2.524h8.512a2.533,2.533,0,0,0,2.524-2.524V109.462a2.535,2.535,0,0,0-2.524-2.533h-8.512a2.53,2.53,0,0,0-2.524,2.533Z" transform="translate(-243.88 -79.63)" fill="#5dc185" fill-rule="evenodd"/>
        <path id="Tracé_210" data-name="Tracé 210" d="M305,84.018v21.039c1.551,1.792,5.815,3.274,9.761,3.274h10.708a11.148,11.148,0,0,0,11.122-11.114v-7.78a7.17,7.17,0,0,0-7.15-7.142h-5.875V72.723a4.611,4.611,0,0,0-4.6-4.6c-2.533,0-3.7,2.24-4.609,4.6l-2.645,6.935C310,84.147,307.271,84.018,305,84.018Z" transform="translate(-274.936 -52.618)" fill="#ffdcd5" fill-rule="evenodd"/>
      </g>
      <g id="Groupe_105" data-name="Groupe 105" transform="translate(0)">
        <path id="Tracé_211" data-name="Tracé 211" d="M363.833,357.219a3.066,3.066,0,1,0,3.062,3.07v-.017A3.054,3.054,0,0,0,363.833,357.219Z" transform="translate(-251.124 -250.807)"/>
        <path id="Tracé_212" data-name="Tracé 212" d="M408.818,357.219a3.066,3.066,0,1,0,3.062,3.07v-.017A3.054,3.054,0,0,0,408.818,357.219Z" transform="translate(-282.437 -250.807)"/>
        <path id="Tracé_213" data-name="Tracé 213" d="M453.831,357.219a3.066,3.066,0,1,0,3.062,3.07v-.017A3.054,3.054,0,0,0,453.831,357.219Z" transform="translate(-313.769 -250.807)"/>
        <path id="Tracé_214" data-name="Tracé 214" d="M250.381,99.672a5.57,5.57,0,0,0,5.563,5.564h8.512a5.556,5.556,0,0,0,4.519-2.331,21.74,21.74,0,0,0,7.766,1.5h10.708A14.173,14.173,0,0,0,301.61,90.256V82.476A10.2,10.2,0,0,0,291.421,72.3h-2.836V65.763a7.648,7.648,0,0,0-7.639-7.64c-4.936,0-6.76,4.76-7.449,6.557l-2.646,6.939a4.252,4.252,0,0,1-1.183,1.938,5.568,5.568,0,0,0-5.211-3.639h-8.512a5.574,5.574,0,0,0-5.563,5.572Zm19.638-19.782c2.272-.439,4.879-1.813,6.512-6.109l2.643-6.93c1.015-2.649,1.545-2.649,1.771-2.649a1.563,1.563,0,0,1,1.561,1.562v9.571a3.04,3.04,0,0,0,3.039,3.039h5.875a4.112,4.112,0,0,1,4.111,4.1v7.779a8.088,8.088,0,0,1-8.083,8.074H276.741a14.424,14.424,0,0,1-6.722-1.653ZM256.459,76h7.481V99.158h-7.481Z" transform="translate(-174.284 -42.614)"/>
        <path id="Tracé_215" data-name="Tracé 215" d="M148.616,99.149H109.688a55,55,0,0,0-1.074-7.371q.687-.1,1.371-.231a42.579,42.579,0,1,0-25.493-80.6,3.039,3.039,0,1,0,2.524,5.529A36.508,36.508,0,1,1,89.2,83.8a3.037,3.037,0,0,0-2.456.128,28.955,28.955,0,0,1-17.673,2.735A28.348,28.348,0,0,0,71.87,70.7a3.042,3.042,0,0,0-.468-1.386,36.525,36.525,0,0,1-2.068-35.545,3.039,3.039,0,0,0-5.467-2.656A42.2,42.2,0,0,0,59.6,48.728c-1.556-.132-3.119-.2-4.675-.2A54.932,54.932,0,1,0,93.777,142.3a55.221,55.221,0,0,0,7.269-8.972,6.933,6.933,0,0,0,2.961.662h44.608a7,7,0,0,0,6.994-6.994V106.142a7,7,0,0,0-6.994-6.994ZM70.835,92.977A17.485,17.485,0,1,1,54.929,82.76a17.352,17.352,0,0,1,8.258,2.071c-.4.782-.847,1.59-1.35,2.444a3.039,3.039,0,0,0,1.855,4.484A41.662,41.662,0,0,0,70.835,92.977ZM20.385,138A48.849,48.849,0,0,1,59.925,54.861c.108.873.235,1.746.4,2.618a42.261,42.261,0,0,0,5.544,14.445,23.727,23.727,0,0,1-.487,7.2,23.55,23.55,0,0,0-28.389,36.369,34.6,34.6,0,0,0-15.9,23.192c-.235-.226-.47-.453-.7-.685Zm34.543,14.315a48.473,48.473,0,0,1-28.275-9.006,28.451,28.451,0,0,1,15.1-23.542,23.515,23.515,0,0,0,26.353,0,28.452,28.452,0,0,1,15.1,23.545A48.483,48.483,0,0,1,54.929,152.313ZM89.477,138c-.231.231-.465.458-.7.684a34.594,34.594,0,0,0-15.908-23.194,23.52,23.52,0,0,0,4.455-22.564A34.176,34.176,0,0,0,88.28,89.932a42.514,42.514,0,0,0,14.206,2.327,48.865,48.865,0,0,1,1.11,6.9,7,7,0,0,0-6.573,6.981v2.141l-8.676,5.749a3.039,3.039,0,0,0,0,5.067l8.676,5.749v2.142a7.029,7.029,0,0,0,.091,1.121A48.993,48.993,0,0,1,89.477,138Zm60.053-11.008a.927.927,0,0,1-.915.915H104.007a.923.923,0,0,1-.906-.915v-3.774a3.039,3.039,0,0,0-1.36-2.534l-6.213-4.118,6.213-4.118a3.04,3.04,0,0,0,1.36-2.534v-3.773a.923.923,0,0,1,.906-.915h44.608a.927.927,0,0,1,.915.915Z" transform="translate(0 -7.093)"/>
        <path id="Tracé_216" data-name="Tracé 216" d="M238.433,50.116a3.04,3.04,0,1,0-2.142-5.19l-.008.009a3.037,3.037,0,0,0,2.151,5.182Z" transform="translate(-163.852 -32.808)"/>
      </g>
    </g>
  </g>
</svg>
