<svg xmlns="http://www.w3.org/2000/svg" width="122.137" height="122.199" viewBox="0 0 122.137 122.199">
  <g id="logo_ludotheque" transform="translate(-1 -0.981)">
    <path id="Tracé_81" data-name="Tracé 81" d="M5.94,25.88H22.513a3.94,3.94,0,0,1,3.835,3.046L37.3,75.843a11.82,11.82,0,0,0,11.51,9.135h67.448a3.94,3.94,0,0,0,3.94-3.94h0a3.94,3.94,0,0,0-3.94-3.94H48.465a3.94,3.94,0,0,1-3.838-3.046L32.969,24.089A7.88,7.88,0,0,0,25.294,18H5.94A3.94,3.94,0,0,0,2,21.94H2a3.94,3.94,0,0,0,3.94,3.94Z" transform="translate(0.97 16.507)" fill="#5378a5"/>
    <circle id="Ellipse_9" data-name="Ellipse 9" cx="9.85" cy="9.85" r="9.85" transform="translate(52.218 101.485)" fill="#b5b5b5"/>
    <circle id="Ellipse_10" data-name="Ellipse 10" cx="9.85" cy="9.85" r="9.85" transform="translate(91.617 101.485)" fill="#b5b5b5"/>
    <circle id="Ellipse_11" data-name="Ellipse 11" cx="3.94" cy="3.94" r="3.94" transform="translate(58.128 107.394)" fill="#939393"/>
    <circle id="Ellipse_12" data-name="Ellipse 12" cx="3.94" cy="3.94" r="3.94" transform="translate(97.527 107.394)" fill="#939393"/>
    <path id="Tracé_82" data-name="Tracé 82" d="M103.308,21.739A1.97,1.97,0,0,0,101.767,21H22.97a1.97,1.97,0,0,0-1.921,2.407L30.9,66.746a1.97,1.97,0,0,0,1.921,1.533h59.1a1.97,1.97,0,0,0,1.921-1.532l9.85-43.339a1.97,1.97,0,0,0-.38-1.669ZM76.32,50.549H64.338V38.729H77.931Zm5.587-11.82H96.165L93.48,50.549H80.295Zm-53.334,0H42.831l1.611,11.82H31.257Zm18.234,0H60.4v11.82H48.417Zm-.538-3.94-1.343-9.85H60.4v9.85Zm14.13,19.7v9.85H50.3l-1.343-9.85Zm3.94,0H75.782l-1.343,9.85h-10.1Zm0-19.7V24.94H79.812l-1.343,9.85ZM40.949,24.94l1.343,9.85H27.676l-2.24-9.85Zm-8.8,29.549H44.98l1.343,9.85H34.4Zm58.188,9.85H78.414l1.343-9.85H92.583ZM97.057,34.79H82.44l1.343-9.85H99.295Z" transform="translate(19.399 19.417)" fill="#5e87ca"/>
    <path id="Tracé_83" data-name="Tracé 83" d="M74.339,23.673A21.669,21.669,0,1,0,48.533,44.937l4.137,8.286,4.137-8.286A21.669,21.669,0,0,0,74.339,23.673Z" transform="translate(29.097 0.984)" fill="#feaa28"/>
    <path id="Tracé_84" data-name="Tracé 84" d="M47.82,28.7l8.534-7.111a9.135,9.135,0,0,0,3.286-7.017h0A5.571,5.571,0,0,0,54.068,9h0a5.572,5.572,0,0,0-3.941,1.632L47.82,12.94l-2.309-2.309A5.571,5.571,0,0,0,41.571,9h0A5.571,5.571,0,0,0,36,14.571h0a9.135,9.135,0,0,0,3.286,7.017Z" transform="translate(33.948 7.778)" fill="#ffe6be"/>
    <path id="Tracé_85" data-name="Tracé 85" d="M117.226,76.1H49.435a1.97,1.97,0,0,1-1.919-1.523L35.868,24.612A9.808,9.808,0,0,0,26.266,17H6.91a5.91,5.91,0,0,0,0,11.82H23.483A1.97,1.97,0,0,1,25.4,30.34L36.348,77.262A13.734,13.734,0,0,0,49.777,87.918h3.5a11.82,11.82,0,1,0,17.572,0H92.681a11.82,11.82,0,1,0,17.572,0h6.974a5.91,5.91,0,1,0,0-11.82ZM69.948,95.8a7.88,7.88,0,1,1-7.88-7.88A7.88,7.88,0,0,1,69.948,95.8Zm39.4,0a7.88,7.88,0,1,1-7.88-7.88A7.88,7.88,0,0,1,109.346,95.8Zm7.88-11.82H49.777a9.808,9.808,0,0,1-9.592-7.612L29.237,29.446a5.884,5.884,0,0,0-5.754-4.566H6.91a1.97,1.97,0,1,1,0-3.94H26.266a5.888,5.888,0,0,1,5.756,4.566L43.681,75.472a5.884,5.884,0,0,0,5.754,4.566h67.791a1.97,1.97,0,1,1,0,3.94Z" transform="translate(0 15.537)"/>
    <path id="Tracé_86" data-name="Tracé 86" d="M32.82,87.7h59.1a1.97,1.97,0,0,0,1.921-1.533l9.85-43.339a1.97,1.97,0,0,0-1.921-2.407H79.956a23.639,23.639,0,1,0-35.173,0H22.97a1.97,1.97,0,0,0-1.921,2.407L30.9,86.163A1.97,1.97,0,0,0,32.82,87.7ZM56.886,47.646l3.28,6.56h-13.9l-1.342-9.85h4.4A23.442,23.442,0,0,0,56.886,47.646Zm18.523-3.29h4.4l-1.343,9.85h-13.9l3.28-6.56a23.468,23.468,0,0,0,7.559-3.29Zm.91,25.609H64.338V58.146H77.931Zm5.587-11.82H96.165L93.48,69.966H80.295ZM64.338,73.906H75.782l-1.343,9.85h-10.1Zm-3.94,9.85H50.3l-1.343-9.85H60.4Zm0-25.609v11.82H48.417l-1.611-11.82ZM44.442,69.966H31.257l-2.685-11.82H42.831Zm-12.288,3.94H44.98l1.343,9.85H34.4Zm58.188,9.85H78.414l1.343-9.85H92.583Zm6.715-29.549H82.44l1.343-9.85H99.295ZM62.369,4.958a19.7,19.7,0,0,1,3.768,39.028,1.97,1.97,0,0,0-1.379,1.054L62.369,49.8l-2.38-4.761a1.97,1.97,0,0,0-1.379-1.054A19.7,19.7,0,0,1,62.369,4.958Zm-21.419,39.4,1.343,9.85H27.676l-2.238-9.85Z" transform="translate(19.399 0)"/>
    <circle id="Ellipse_13" data-name="Ellipse 13" cx="3.94" cy="3.94" r="3.94" transform="translate(58.128 107.394)"/>
    <circle id="Ellipse_14" data-name="Ellipse 14" cx="3.94" cy="3.94" r="3.94" transform="translate(97.527 107.394)"/>
    <path id="Tracé_87" data-name="Tracé 87" d="M39,24.071l8.534,7.111a1.97,1.97,0,0,0,2.522,0l8.534-7.111a11.071,11.071,0,0,0,4-8.528A7.541,7.541,0,0,0,49.7,10.211l-.914.914-.914-.914A7.541,7.541,0,0,0,35,15.543,11.071,11.071,0,0,0,39,24.071ZM42.543,11.94A3.577,3.577,0,0,1,45.09,13L47.4,15.3a1.97,1.97,0,0,0,2.785,0L52.489,13a3.6,3.6,0,0,1,6.15,2.547,7.141,7.141,0,0,1-2.579,5.5L48.79,27.109l-7.271-6.06a7.141,7.141,0,0,1-2.579-5.506,3.6,3.6,0,0,1,3.6-3.6Z" transform="translate(32.978 6.807)"/>
  </g>
</svg>
