<svg xmlns="http://www.w3.org/2000/svg" width="28.587" height="28.587" viewBox="0 0 28.587 28.587">
  <path id="logo_disconnected" d="M15.372,24.107a1.582,1.582,0,0,0,2.239,0l5.7-5.7a1.582,1.582,0,0,0,0-2.239l-5.7-5.7A1.583,1.583,0,0,0,15.372,12.7l2.986,3H4.588a1.588,1.588,0,1,0,0,3.176h13.77l-2.986,2.986A1.6,1.6,0,0,0,15.372,24.107ZM28.411,3H6.176A3.175,3.175,0,0,0,3,6.176v4.765a1.588,1.588,0,0,0,3.176,0V7.765A1.593,1.593,0,0,1,7.765,6.176H26.823a1.593,1.593,0,0,1,1.588,1.588V26.823a1.593,1.593,0,0,1-1.588,1.588H7.765a1.593,1.593,0,0,1-1.588-1.588V23.646a1.588,1.588,0,0,0-3.176,0v4.765a3.186,3.186,0,0,0,3.176,3.176H28.411a3.186,3.186,0,0,0,3.176-3.176V6.176A3.186,3.186,0,0,0,28.411,3Z" transform="translate(-3 -3)" fill="#eae4d8"/>
</svg>
