<svg xmlns="http://www.w3.org/2000/svg" width="158.432" height="153.324" viewBox="0 0 158.432 153.324">
  <g id="logo_preferences" transform="translate(-0.583)">
    <g id="Groupe_80" data-name="Groupe 80" transform="translate(0.583 10.416)">
      <path id="Tracé_184" data-name="Tracé 184" d="M142.718,29.975c0,31.461,16.3,53.065,16.3,68.225s-8.715,47-78.454,47S.583,102.367.583,85.692c0-78.081,142.135-111.434,142.135-55.717Z" transform="translate(-0.583 -2.29)" fill="#efefef"/>
    </g>
    <g id="Groupe_81" data-name="Groupe 81" transform="translate(28.632 44.346)">
      <path id="Tracé_185" data-name="Tracé 185" d="M68.152,9.75h-9.1V14.3a4.55,4.55,0,0,1-4.548,4.548H29.492A4.55,4.55,0,0,1,24.943,14.3V9.75h-9.1a9.123,9.123,0,0,0-9.1,9.1V75.7a9.123,9.123,0,0,0,9.1,9.1H68.152a9.123,9.123,0,0,0,9.1-9.1V18.847A9.123,9.123,0,0,0,68.152,9.75Z" transform="translate(-6.75 -9.75)" fill="#f3f3f1"/>
    </g>
    <g id="Groupe_82" data-name="Groupe 82" transform="translate(46.826 30.701)">
      <path id="Tracé_186" data-name="Tracé 186" d="M44.862,15.847v9.1a4.55,4.55,0,0,1-4.548,4.548H15.3a4.55,4.55,0,0,1-4.548-4.548v-9.1h7.96a9.1,9.1,0,1,1,18.193,0Z" transform="translate(-10.75 -6.75)" fill="#5dc185"/>
    </g>
    <g id="Groupe_83" data-name="Groupe 83" transform="translate(78.664 80.733)">
      <circle id="Ellipse_18" data-name="Ellipse 18" cx="26.153" cy="26.153" r="26.153" fill="#5dc185"/>
    </g>
    <g id="Groupe_84" data-name="Groupe 84" transform="translate(28.632 44.346)">
      <path id="Tracé_187" data-name="Tracé 187" d="M16.984,75.7V18.847a9.1,9.1,0,0,1,7.96-8.983V9.75h-9.1a9.123,9.123,0,0,0-9.1,9.1V75.7a9.123,9.123,0,0,0,9.1,9.1H26.08A9.123,9.123,0,0,1,16.984,75.7Z" transform="translate(-6.75 -9.75)" fill="#d5dbe1"/>
    </g>
    <g id="Groupe_85" data-name="Groupe 85" transform="translate(76.39 44.346)">
      <path id="Tracé_188" data-name="Tracé 188" d="M32.032,14.3V9.864a8.521,8.521,0,0,0-1.137-.114H21.8V14.3a4.55,4.55,0,0,1-4.548,4.548H27.484A4.55,4.55,0,0,0,32.032,14.3Z" transform="translate(-17.25 -9.75)" fill="#d5dbe1"/>
    </g>
    <g id="Groupe_86" data-name="Groupe 86" transform="translate(46.826 30.701)">
      <path id="Tracé_189" data-name="Tracé 189" d="M20.984,24.943v-9.1h7.96a9.1,9.1,0,0,1,3.98-7.5A9.022,9.022,0,0,0,27.806,6.75a9.123,9.123,0,0,0-9.1,9.1H10.75v9.1A4.55,4.55,0,0,0,15.3,29.492H25.532A4.55,4.55,0,0,1,20.984,24.943Z" transform="translate(-10.75 -6.75)" fill="#488d64"/>
    </g>
    <g id="Groupe_87" data-name="Groupe 87" transform="translate(78.664 80.733)">
      <path id="Tracé_190" data-name="Tracé 190" d="M27.984,43.9A26.154,26.154,0,0,1,49.02,18.259a26.151,26.151,0,1,0-5.117,51.8,26,26,0,0,0,5.117-.509A26.154,26.154,0,0,1,27.984,43.9Z" transform="translate(-17.75 -17.75)" fill="#488d64"/>
    </g>
    <g id="Groupe_88" data-name="Groupe 88" transform="translate(75.253 77.321)">
      <path id="Tracé_191" data-name="Tracé 191" d="M46.564,76.128A29.564,29.564,0,1,1,76.128,46.564,29.6,29.6,0,0,1,46.564,76.128Zm0-52.306A22.742,22.742,0,1,0,69.306,46.564,22.767,22.767,0,0,0,46.564,23.822Z" transform="translate(-17 -17)"/>
    </g>
    <g id="Groupe_89" data-name="Groupe 89" transform="translate(88.761 95.542)">
      <path id="Tracé_192" data-name="Tracé 192" d="M31.477,44.857a3.4,3.4,0,0,1-2.411-1l-9.1-9.1L24.8,29.934l6.518,6.518L44.831,21.006,49.966,25.5,34.047,43.693a3.421,3.421,0,0,1-2.456,1.164h-.114Z" transform="translate(-19.97 -21.006)"/>
    </g>
    <g id="Groupe_90" data-name="Groupe 90" transform="translate(25.221 40.935)">
      <path id="Tracé_193" data-name="Tracé 193" d="M47.8,90.87H18.508A12.521,12.521,0,0,1,6,78.362V21.508A12.521,12.521,0,0,1,18.508,9h8.551v6.822H18.508a5.693,5.693,0,0,0-5.685,5.685V78.362a5.693,5.693,0,0,0,5.685,5.685H47.8Z" transform="translate(-6 -9)"/>
    </g>
    <g id="Groupe_91" data-name="Groupe 91" transform="translate(81.529 40.935)">
      <path id="Tracé_194" data-name="Tracé 194" d="M39.393,35.562H32.571V21.508a5.693,5.693,0,0,0-5.685-5.685H18.38V9h8.505A12.521,12.521,0,0,1,39.393,21.508Z" transform="translate(-18.38 -9)"/>
    </g>
    <g id="Groupe_92" data-name="Groupe 92" transform="translate(43.415 27.29)">
      <path id="Tracé_195" data-name="Tracé 195" d="M42.975,35.564H17.96A7.968,7.968,0,0,1,10,27.6v-9.1A3.412,3.412,0,0,1,13.411,15.1h5.021a12.509,12.509,0,0,1,24.07,0h5.021a3.412,3.412,0,0,1,3.411,3.411v9.1A7.968,7.968,0,0,1,42.975,35.564ZM16.822,21.919V27.6a1.137,1.137,0,0,0,1.137,1.137H42.975A1.137,1.137,0,0,0,44.112,27.6V21.919H39.564a3.412,3.412,0,0,1-3.411-3.411,5.685,5.685,0,1,0-11.371,0,3.412,3.412,0,0,1-3.411,3.411Z" transform="translate(-10 -6)"/>
    </g>
    <g id="Groupe_93" data-name="Groupe 93" transform="translate(42.277 63.676)">
      <path id="Tracé_196" data-name="Tracé 196" d="M9.75,14H52.959v6.822H9.75Z" transform="translate(-9.75 -14)"/>
    </g>
    <g id="Groupe_94" data-name="Groupe 94" transform="translate(42.277 77.321)">
      <path id="Tracé_197" data-name="Tracé 197" d="M9.75,17H42.361v6.822H9.75Z" transform="translate(-9.75 -17)"/>
    </g>
    <g id="Groupe_95" data-name="Groupe 95" transform="translate(42.277 90.966)">
      <path id="Tracé_198" data-name="Tracé 198" d="M9.75,20H34.493v6.822H9.75Z" transform="translate(-9.75 -20)"/>
    </g>
    <g id="Groupe_96" data-name="Groupe 96" transform="translate(133.244 73.91)">
      <path id="Tracé_199" data-name="Tracé 199" d="M36.572,29.895a6.822,6.822,0,1,1,6.822-6.822A6.831,6.831,0,0,1,36.572,29.895Zm0-9.1a2.274,2.274,0,1,0,2.274,2.274A2.278,2.278,0,0,0,36.572,20.8Z" transform="translate(-29.75 -16.25)" fill="#a4afc1"/>
    </g>
    <g id="Groupe_100" data-name="Groupe 100" transform="translate(46.257)">
      <g id="Groupe_97" data-name="Groupe 97" transform="translate(26.153 14.782)">
        <path id="Tracé_200" data-name="Tracé 200" d="M16.375,3.25h9.1V7.8h-9.1Z" transform="translate(-16.375 -3.25)" fill="#a4afc1"/>
      </g>
      <g id="Groupe_98" data-name="Groupe 98" transform="translate(0 14.782)">
        <path id="Tracé_201" data-name="Tracé 201" d="M10.625,3.25h9.1V7.8h-9.1Z" transform="translate(-10.625 -3.25)" fill="#a4afc1"/>
      </g>
      <g id="Groupe_99" data-name="Groupe 99" transform="translate(15.919)">
        <path id="Tracé_202" data-name="Tracé 202" d="M14.125,0h4.548V9.1H14.125Z" transform="translate(-14.125)" fill="#a4afc1"/>
      </g>
    </g>
  </g>
</svg>
