<svg xmlns="http://www.w3.org/2000/svg" width="141.538" height="146.692" viewBox="0 0 141.538 146.692">
  <g id="logo_innovant" transform="translate(-8.967 0.001)">
    <g id="Groupe_46" data-name="Groupe 46" transform="translate(8.967 -0.001)">
      <g id="Groupe_44" data-name="Groupe 44" transform="translate(3.386 1.11)">
        <g id="Groupe_43" data-name="Groupe 43">
          <path id="Tracé_144" data-name="Tracé 144" d="M243.717,224.6H227.846v11.883a4.133,4.133,0,0,0,4.133,4.133h7.6a4.133,4.133,0,0,0,4.133-4.133Z" transform="translate(-168.326 -161.159)" fill="#a59ca6"/>
          <path id="Tracé_145" data-name="Tracé 145" d="M242.674,238.163h-7.6a4.133,4.133,0,0,1-4.133-4.133V233a1.6,1.6,0,0,1,1.6-1.6h11.177v-6.8H227.845v11.883a4.133,4.133,0,0,0,4.133,4.133h7.6a4.134,4.134,0,0,0,3.806-2.519A4.15,4.15,0,0,1,242.674,238.163Z" transform="translate(-168.325 -161.159)" fill="#8f8390"/>
          <path id="Tracé_146" data-name="Tracé 146" d="M314.529,288.593l12.624-10.641a6.106,6.106,0,0,0,.717-8.639,6.186,6.186,0,0,0-8.686-.713l-26.24,22.117-9.875,8.557,13.823,5.435Z" transform="translate(-207.678 -191.478)" fill="#ffe0d1"/>
          <path id="Tracé_147" data-name="Tracé 147" d="M287.475,300.557,297.35,292l26.24-22.117a6.152,6.152,0,0,1,3.391-1.42,6.194,6.194,0,0,0-7.8.141l-26.24,22.117-9.875,8.557,13.823,5.435.347-.317Z" transform="translate(-207.678 -191.481)" fill="#ffd1c2"/>
          <path id="Tracé_148" data-name="Tracé 148" d="M270.9,281.058,290.813,264.4a6.07,6.07,0,0,0,.27-8.22,6.269,6.269,0,0,0-8.754-.713L264.58,270.31l-13.238,10.255,7.891,10.022Z" transform="translate(-185.069 -182.12)" fill="#ffe0d1"/>
          <path id="Tracé_149" data-name="Tracé 149" d="M255.817,282.628l13.238-10.255L286.8,257.531A6.247,6.247,0,0,1,291,256.084a6.272,6.272,0,0,0-8.668-.614l-17.748,14.843-13.238,10.255,7.891,10.021,1.735-1.417Z" transform="translate(-185.07 -182.122)" fill="#ffd1c2"/>
          <path id="Tracé_150" data-name="Tracé 150" d="M215.6,30.8a26.937,26.937,0,1,0-48.968,15.5L179.6,66.479V69.1a2.991,2.991,0,0,0,2.991,2.991h12.155a2.991,2.991,0,0,0,2.991-2.991V66.479L210.7,46.3A26.808,26.808,0,0,0,215.6,30.8Z" transform="translate(-121.211 -3.86)" fill="#feaa28"/>
          <path id="Tracé_151" data-name="Tracé 151" d="M178,49.737a29.664,29.664,0,0,1-5.13-16.758c0-13.88,9.391-25.49,21.962-28.41A26.942,26.942,0,0,0,166.635,46.3L179.6,66.479V69.1a2.991,2.991,0,0,0,2.991,2.991h7.7Z" transform="translate(-121.211 -3.86)" fill="#d39028"/>
          <g id="Groupe_41" data-name="Groupe 41" transform="translate(0 79.458)">
            <g id="XMLID_250_">
              <g id="Groupe_40" data-name="Groupe 40" transform="translate(0 0)">
                <path id="Tracé_152" data-name="Tracé 152" d="M103.526,300.06l.491.055h18.79a6.049,6.049,0,0,0,3.911-1.434l19.937-16.9a6.129,6.129,0,0,1,7.924,9.352L123.11,317.81a21.768,21.768,0,0,1-11.47,5L76.5,327.038l-13.64,16.331a1.806,1.806,0,0,1-1.936.562L22,331.484a1.806,1.806,0,0,1-.865-2.842L36.16,309.682l1.118-2.36A33.113,33.113,0,0,1,67.2,288.4H96.962a7.679,7.679,0,0,1,6.564,11.66Z" transform="translate(-20.747 -280.333)" fill="#ffe0d1"/>
              </g>
              <path id="Tracé_153" data-name="Tracé 153" d="M255.758,280.333a6.109,6.109,0,0,0-3.957,1.451l-19.937,16.9a6.049,6.049,0,0,1-3.911,1.434h-18.79l-.491-.055a7.723,7.723,0,0,0,.391-.74H168.3v1.474a7.267,7.267,0,0,0,7.267,7.267H201.9l.216,0a12.055,12.055,0,0,0,8.751-3.814,2.657,2.657,0,0,1,1.939-.838h17.131a6.252,6.252,0,0,0,4.116-1.555l20.977-18.321a6.263,6.263,0,0,1,4.95-1.523,6.124,6.124,0,0,0-4.219-1.679Z" transform="translate(-125.89 -280.333)" fill="#ffd1c2"/>
              <path id="Tracé_154" data-name="Tracé 154" d="M199.522,316.079a7.67,7.67,0,0,1-7.843,7.674H154.161l-.264-14.327a33.242,33.242,0,0,1,8.182-1.023h29.766a7.673,7.673,0,0,1,7.676,7.676Z" transform="translate(-115.63 -300.336)" fill="#ffe0d1"/>
            </g>
          </g>
          <g id="Groupe_42" data-name="Groupe 42" transform="translate(0 87.525)">
            <path id="Tracé_155" data-name="Tracé 155" d="M40.439,335.782l1.118-2.36A33.113,33.113,0,0,1,71.475,314.5h29.766a7.66,7.66,0,0,1,3.358.773,7.679,7.679,0,0,0-7.637-6.869H67.2a33.113,33.113,0,0,0-29.918,18.922l-1.118,2.36L21.138,348.644A1.806,1.806,0,0,0,22,351.486l4.78,1.529Z" transform="translate(-20.747 -308.403)" fill="#ffd1c2"/>
          </g>
        </g>
      </g>
      <g id="Groupe_45" data-name="Groupe 45" transform="translate(0 0)">
        <path id="Tracé_156" data-name="Tracé 156" d="M34.778,332.362a35.1,35.1,0,0,0-7.842,10.7L25.922,345.2,9.433,366.016a2.156,2.156,0,0,0,3.379,2.677l16.642-21.007a2.167,2.167,0,0,0,.258-.414l1.119-2.36a30.8,30.8,0,0,1,6.884-9.392,2.155,2.155,0,1,0-2.936-3.156Z" transform="translate(-8.967 -236.43)"/>
        <path id="Tracé_157" data-name="Tracé 157" d="M229.574,257.015a8.294,8.294,0,0,0-11.677-.964l-1.114.944a8.28,8.28,0,0,0-13.484-4.732l-.989.838a8.3,8.3,0,0,0-13.471-4.612l-16.568,14.041a9.8,9.8,0,0,0-2.673-.372H139.831a35.418,35.418,0,0,0-15.975,3.83,2.155,2.155,0,0,0,1.953,3.843,31.091,31.091,0,0,1,14.021-3.362H169.6a5.519,5.519,0,1,1-.12,11.037h-19.26a2.155,2.155,0,1,0,0,4.311h19.19l.2,0a9.749,9.749,0,0,0,6.865-2.8,10.044,10.044,0,0,0,.76-.835h18.213a8.211,8.211,0,0,0,5.3-1.945l19.936-16.9a3.974,3.974,0,0,1,5.139,6.063l-31.472,26.672a19.55,19.55,0,0,1-10.333,4.508l-3.883.467a2.156,2.156,0,0,0,.255,4.3,2.214,2.214,0,0,0,.26-.016l3.883-.467a23.841,23.841,0,0,0,12.605-5.5l31.472-26.672A8.294,8.294,0,0,0,229.574,257.015Zm-37.947-5.237a3.974,3.974,0,0,1,5.5,5.72L179.415,272.5q.013-.257.014-.517a9.8,9.8,0,0,0-3.15-7.2Zm-7.155,22.092,21.614-18.317a3.974,3.974,0,1,1,5.139,6.063l-13.263,11.331a3.9,3.9,0,0,1-2.516.923Z" transform="translate(-89.997 -175.676)"/>
        <path id="Tracé_158" data-name="Tracé 158" d="M195.476,426.111l-22.1,2.659a2.156,2.156,0,0,0-1.4.758l-14.42,17.262a2.156,2.156,0,0,0,3.309,2.764l13.872-16.607,21.254-2.557a2.156,2.156,0,1,0-.515-4.28Z" transform="translate(-114.495 -303.635)"/>
        <path id="Tracé_159" data-name="Tracé 159" d="M179.122,61.678s-12.6-19.61-12.615-19.635a23.961,23.961,0,0,1-4.1-10.208,2.155,2.155,0,1,0-4.263.638,28.285,28.285,0,0,0,4.808,12.014l12.2,18.987v3.144a3.8,3.8,0,0,0,.854,2.4v7.409A6.3,6.3,0,0,0,182.3,82.72h7.6a6.3,6.3,0,0,0,6.289-6.289V69.022a3.8,3.8,0,0,0,.854-2.4V63.475l12.2-18.987a28.27,28.27,0,0,0-7.213-39.58,28.812,28.812,0,0,0-27.117-2.75,26.285,26.285,0,0,0-14.847,14.749,32.236,32.236,0,0,0-1.662,5.627,2.156,2.156,0,0,0,4.23.834A27.917,27.917,0,0,1,164.07,18.5,21.96,21.96,0,0,1,176.476,6.175a24.563,24.563,0,0,1,23.118,2.293,23.959,23.959,0,0,1,6.094,33.575c-.018.025-12.615,19.635-12.615,19.635a2.158,2.158,0,0,0-.342,1.165V66.13h-.527l1.228-20.837h2.055a6,6,0,0,0,6-6v-.238a6,6,0,0,0-11.981-.352l-.134,2.276h-6.522l-.134-2.276a6,6,0,0,0-11.981.352V39.3a6,6,0,0,0,6,6h2.055L180.01,66.13h-.547V62.843a2.155,2.155,0,0,0-.341-1.165ZM193.807,38.96a1.685,1.685,0,0,1,3.367.1V39.3a1.687,1.687,0,0,1-1.685,1.685h-1.8Zm-17.079,2.022a1.687,1.687,0,0,1-1.685-1.685v-.238a1.685,1.685,0,0,1,3.367-.1l.119,2.022h-1.8Zm15.15,35.45A1.98,1.98,0,0,1,189.9,78.41h-7.6a1.98,1.98,0,0,1-1.978-1.978V70.441h11.56ZM183.1,45.293h6.014L187.887,66.13h-3.558Z" transform="translate(-115.257 0.001)"/>
        <path id="Tracé_160" data-name="Tracé 160" d="M385.353,101.132a2.155,2.155,0,0,0,2.155,2.155h5.081a2.155,2.155,0,1,0,0-4.311h-5.081A2.155,2.155,0,0,0,385.353,101.132Z" transform="translate(-277.18 -70.53)"/>
        <path id="Tracé_161" data-name="Tracé 161" d="M375.643,51.751a2.147,2.147,0,0,0,.749-.135l4.764-1.766a2.155,2.155,0,0,0-1.5-4.042l-4.764,1.766a2.156,2.156,0,0,0,.75,4.177Z" transform="translate(-268.724 -32.546)"/>
        <path id="Tracé_162" data-name="Tracé 162" d="M374.894,150.309l4.764,1.766a2.155,2.155,0,0,0,1.5-4.042l-4.764-1.766a2.155,2.155,0,1,0-1.5,4.042Z" transform="translate(-268.724 -104.134)"/>
        <path id="Tracé_163" data-name="Tracé 163" d="M95.038,103.287h5.081a2.155,2.155,0,1,0,0-4.311H95.038a2.155,2.155,0,1,0,0,4.311Z" transform="translate(-68.765 -70.53)"/>
        <path id="Tracé_164" data-name="Tracé 164" d="M107.252,49.851l4.764,1.766a2.155,2.155,0,0,0,1.5-4.042l-4.764-1.766a2.155,2.155,0,1,0-1.5,4.042Z" transform="translate(-78.002 -32.547)"/>
        <path id="Tracé_165" data-name="Tracé 165" d="M114.787,147.538a2.155,2.155,0,0,0-2.77-1.272l-4.764,1.766a2.155,2.155,0,1,0,1.5,4.042l4.764-1.766A2.155,2.155,0,0,0,114.787,147.538Z" transform="translate(-78.003 -104.133)"/>
      </g>
    </g>
  </g>
</svg>
