<svg xmlns="http://www.w3.org/2000/svg" width="216.009" height="198.267" viewBox="0 0 216.009 198.267">
  <g id="tache" transform="translate(0.001)">
    <g id="Groupe_75" data-name="Groupe 75" transform="translate(-0.001 0)">
      <g id="Groupe_74" data-name="Groupe 74">
        <path id="Tracé_182" data-name="Tracé 182" d="M210.324,116.065c16.007-28.656-3.592-63.073-36.232-66.323l-11.911-1.187a34.376,34.376,0,0,1-22.893-11.867C116.849,11.5,75.067,17.722,61.313,47.979a33.165,33.165,0,0,1-17.056,16.6l-16.78,7.316C.729,83.555-8.34,115.912,8.555,139.052L19.2,153.634a31.724,31.724,0,0,1,5.018,10.406l5.287,19.438C36.75,210.106,66.952,224.5,93.315,213.3l2.257-.958A35.624,35.624,0,0,1,117.06,210.4l34.616,7.708c33.723,7.509,63.449-21.759,55.918-53.929l-4.381-18.711A31.192,31.192,0,0,1,206.4,123.1Z" transform="translate(0 -21.028)" fill="#f1f1f3"/>
      </g>
    </g>
  </g>
</svg>
