<svg id="Calque_1" xmlns="http://www.w3.org/2000/svg" viewBox="0 0 2048 2048">
  <defs>
    <style>
      .cls-1 {
        fill: #0e1824;
      }

      .cls-2 {
        fill: #fff;
      }

      .cls-3 {
        fill: #a57c7c;
      }

      .cls-4 {
        fill: #feaa28;
      }

      .cls-5 {
        fill: #5dc185;
      }
    </style>
  </defs>
  <g>
    <g>
      <g>
        <path d="M895.61,1008.09a83.6,83.6,0,0,1,22.16,11.9A61.92,61.92,0,0,0,895.61,1008.09Z"/>
        <path d="M666.94,575.64c0-1.43,0-2.86,0-4.29h0Z"/>
        <path class="cls-1" d="M1136.51,1086.9a83.19,83.19,0,0,1,18-51.85c1.35-1.71,2.63-3.47,3.9-5.23a52,52,0,0,1,20.14-16.76,53.47,53.47,0,0,0,29.4-55.83,333.59,333.59,0,0,0-132.29-220.32c-55.36-40.86-123.82-87.11-197.91-87.11l-23.38,192c-92.32,0-147.24-21.74-174.54-104.92a208,208,0,0,1-10.35-65c0-115,93.25-163.7,208.27-163.7v-170c-258.48.19-415.48,280.56-289,500.52a333.88,333.88,0,0,0,263.73,165.9,84.72,84.72,0,0,1,15.13-1.36,83.57,83.57,0,0,1,28,4.81,61.92,61.92,0,0,1,22.16,11.9,83.65,83.65,0,0,1-5.39,137.55c-33.78,21.45-39.71,68.69-11,96.53A73.49,73.49,0,0,0,953.54,1275h182.13a76.3,76.3,0,0,0,12.56-1,72.35,72.35,0,0,0,40.41-20.58c27.93-27.94,21.38-74.45-12.26-95.15A83.56,83.56,0,0,1,1136.51,1086.9ZM666.94,575.64v-4.29h0C667,572.78,666.94,574.21,666.94,575.64Z"/>
        <path d="M895.61,1008.09a83.57,83.57,0,0,0-28-4.81,84.72,84.72,0,0,0-15.13,1.36q13.6,1,27.47,1A61.31,61.31,0,0,1,895.61,1008.09Z"/>
      </g>
      <path class="cls-2" d="M877.77,478.91v386A14.72,14.72,0,0,1,862,879.58c-85.37-6.4-156.39-64.27-182.12-142.67a208,208,0,0,1-10.35-65c0-109.7,84.81-199.58,192.43-207.67A14.73,14.73,0,0,1,877.77,478.91Z"/>
      <rect class="cls-3" x="427.2" y="996.51" width="1193.59" height="33.43"/>
      <path d="M667,571.35c0,1.43,0,2.86,0,4.29v-4.29Z"/>
      <path d="M545.74,638.57v66.65c-1.09-11-1.64-22.08-1.64-33.32S544.65,649.53,545.74,638.57Z"/>
      <path d="M667,571.35c0,1.43,0,2.86,0,4.29v-4.29Z"/>
      <path d="M1428.23,671.9a116.92,116.92,0,0,1,96.51-115.11"/>
      <circle class="cls-1" cx="799.32" cy="573.4" r="39.15"/>
      <path class="cls-4" d="M1524.74,556.79a116.92,116.92,0,0,0-96.51,115.11H899.86a22.1,22.1,0,0,1-22.09-22.1V338.22h333.67C1355.27,338.22,1477.85,429.22,1524.74,556.79Z"/>
      <path d="M667,571.35c0,1.43,0,2.86,0,4.29v-4.29Z"/>
      <path class="cls-1" d="M1522.72,671.9h-94.49a116.92,116.92,0,0,1,96.51-115.11,331.9,331.9,0,0,1,19.59,91.94A21.67,21.67,0,0,1,1522.72,671.9Z"/>
      <path d="M667,571.35c0,1.43,0,2.86,0,4.29v-4.29Z"/>
    </g>
    <ellipse class="cls-5" cx="1379.52" cy="957.39" rx="84.21" ry="49.94" transform="translate(-284.61 1181.77) rotate(-42.44)"/>
    <ellipse class="cls-5" cx="554.38" cy="1079.75" rx="84.21" ry="49.94" transform="translate(-583.37 657.01) rotate(-42.44)"/>
    <g>
      <path class="cls-1" d="M595.18,1398.47a207.16,207.16,0,0,1-2.09,31,92.16,92.16,0,0,0-15.48-1.79l-14-.29c-5.17,0-7.75.29-7.75.89q-.6,4.17-.59,17.57,0,26.21,2.08,141.13a120.82,120.82,0,0,1-20.24,1.49h-8.64a165.74,165.74,0,0,0-27.39,2.09c-.6-1-1-3-1.34-6.11a48.81,48.81,0,0,1-.15-8.48v-14.59l.3-26.8q0-54.19-2.39-105.7c-2.18-1-5.26-1.49-9.23-1.49l-11.91.29q-10.12,0-14.59-1.48c-.59-1.19-1.08-4.47-1.49-9.83s-.59-11.41-.59-18.16q0-14.9.3-21.44h12.8l11.61-.3h16.68l17.27-.3q44.35,0,72.35,3.28h3.87Q595.18,1389.55,595.18,1398.47Z"/>
      <path class="cls-1" d="M754.47,1448.8l-.29,5.36v5.35q-.6,9.84-.6,28.89,0,21.13-.89,32.15l-.9,9.83q-1.49,24.12-12.2,41.09-4.47,6.26-13.4,11a97.24,97.24,0,0,1-19.66,7.74,91.45,91.45,0,0,1-25.9,3.27c-4.57,0-7.74-.1-9.53-.29a78,78,0,0,1-26.05-6.41q-11.47-5.21-16.82-15.33-7.15-13.4-7.75-33.65l-.59-9.52q-.3-2.38-.3-9.83-1.49-24.4-1.49-46.75,0-13.7.9-27.39a124.32,124.32,0,0,1,5.21-29,70.24,70.24,0,0,1,13.25-24.86l6.55-3.58a99,99,0,0,1,68.63-5.51,69.36,69.36,0,0,1,22.18,10.87q10.42,9.54,13.7,18.76a97.61,97.61,0,0,1,5.06,19.06Q754.48,1439.27,754.47,1448.8Zm-47,13.69L706.24,1447a36.49,36.49,0,0,0-4-14.74,20.52,20.52,0,0,0-8.79-9.08,13.38,13.38,0,0,0-4.76-.9,24.29,24.29,0,0,0-14,4.77,34.77,34.77,0,0,0-7,8.49,48.83,48.83,0,0,0-5.21,11.16q-3,13.11-3,33.35,0,10.13.3,15.18V1495a122.58,122.58,0,0,1,1.78,15.78l.3,4.17q1.18,14.88,3.28,22v-.3a19.54,19.54,0,0,0,7.89,9.08,21.26,21.26,0,0,0,11.16,3.13,23.22,23.22,0,0,0,9.68-2.23,24.36,24.36,0,0,0,8.49-6.4,20.87,20.87,0,0,0,3.72-6.56,34.17,34.17,0,0,0,.74-8.33,66.15,66.15,0,0,1,.3-7.45l.3-3.87.3-5.65v-4.17l.29-5.66v-14.29l-.59-20.25Z"/>
      <path class="cls-1" d="M924.49,1446.12a878.86,878.86,0,0,1-5.07,97.06q-2.38,20.55-16.52,34.39t-36.48,15.93h.3a88.83,88.83,0,0,1-9.82.6,103.14,103.14,0,0,1-33.65-5.51,64.16,64.16,0,0,1-26.65-16.82q-10.58-11.31-11.17-27.69,0-21.74.6-65.21l.3-19.36q.58-31.54.59-46.74,0-19.65-.29-28.88h7.44l17.86-.6a90.26,90.26,0,0,1,25.61,3.27q-1.18,33.36-1.19,51.22,0,43.17,3.87,95.58v-.3a18.94,18.94,0,0,0,5.36,9.08,11.51,11.51,0,0,0,7.74,3.13,13,13,0,0,0,8.94-3.87,19.58,19.58,0,0,0,5.65-9.83v.3q1.19-27.39,1.79-86.65l.3-19q0-14.3.59-39.31l6.26-.89a97.59,97.59,0,0,0,11.31-.89c8.14-.8,13-1.09,14.59-.9q12.79,0,17.86,3H923Q924.49,1419,924.49,1446.12Z"/>
      <path class="cls-1" d="M1009,1448.5q-.88,17.57-.89,35.73,0,18.46.89,31a45.41,45.41,0,0,0,4.77,15.64q3.87,7.59,9.23,10.27,10.41.6,15.78-9.53h-.3q2.68-5.65,2.68-17a64.46,64.46,0,0,1,1.19-14,89.87,89.87,0,0,0,14.3,1.2l13.69-.3a83.19,83.19,0,0,1,20.25,2.38,66.61,66.61,0,0,1,3.57,21.74,65,65,0,0,1-8.48,32.15,68.77,68.77,0,0,1-23.38,24.72,64.12,64.12,0,0,1-33,10.12,76.41,76.41,0,0,1-12.5.89q-23.24,0-40.8-10.42t-19.65-31.26q-1.49-29.77-1.49-64,0-28.29.3-46.45l.3-13.4a42.88,42.88,0,0,1,.74-10.27,53.16,53.16,0,0,1,2.83-10.27,81.42,81.42,0,0,1,7-13.7,56.75,56.75,0,0,1,9.08-11.31q6.25-5.07,18.46-8.64a81.6,81.6,0,0,1,24.12-3.57,80.71,80.71,0,0,1,38.11,9.38,75.92,75.92,0,0,1,28.59,25.6,62.86,62.86,0,0,1,10.72,35.29,65.29,65.29,0,0,1-4.17,22.63,103.48,103.48,0,0,1-20.85,2.68q-11.31,0-31.26-3.87l-.89-11.32q-.6-13.69-3.43-20.69t-12.06-6.7a2.41,2.41,0,0,0-.74.15,4.52,4.52,0,0,1-1.34.15h.3q-9.24,1.48-10.13,6.25Q1009.93,1430.93,1009,1448.5Z"/>
      <path class="cls-1" d="M1228.19,1590.82a138.86,138.86,0,0,1-28.58-3.27q-2.1-5.65-6.56-23.82-4.46-18.46-7.14-24.42l-6-.3-5.06.3q-1.19,3.57-3.87,17.57-2.08,11.61-4.17,18.91a49.06,49.06,0,0,1-5.95,13.25,50.23,50.23,0,0,1-8.94.59q-2.67,0-11.61-.59-25.9-1.2-28.88-1.19c0-1,.2-3.33.6-7s1-7.79,1.78-12.36l6.55-37.52q7.74-46.14,14.74-80.39t18.31-72.35a83.52,83.52,0,0,1,11.32-.6h1.78q19.37,0,37.82-1.49,3.57,14,6.55,27.55t5.36,24.26q9.53,41.4,12.8,55.09l19.65,105.7A96,96,0,0,1,1228.19,1590.82Zm-47.94-149.17-.3-3-.59,7.15q-.9,22.34-2.68,35.43l-2.68,20h12.5Q1180,1441.65,1180.25,1441.65Z"/>
      <path class="cls-1" d="M1347,1562.83q-18.77-41.08-24.71-56.87v57.17q0,18.46.29,25.31a61.52,61.52,0,0,1-17.56,2.38q-3,0-8.94-.59c-4.36-.4-7.54-.6-9.52-.6L1272,1589v-22.33q0-19.07-.6-54.2-.3-17.57-.3-53.29,0-47.94,2.68-80.4a71.68,71.68,0,0,1,17.87-2.08,130.63,130.63,0,0,1,15.93,1.19q9.38,1.2,13,3.57,4.17,7.76,10.27,21.59t11.76,27.54l11.91,27.4q-.6-20.85-.59-49.13,0-22.94.3-31.57A135.67,135.67,0,0,1,1380,1375a115.54,115.54,0,0,1,24.12,2.68v211.11a14.85,14.85,0,0,0-3.58.89c-2,.79-5.46,1.19-10.42,1.19q-1.48.3-15.78-.89-3.57-.3-9.08-.6t-6.4,0Z"/>
      <path class="cls-1" d="M1573.28,1448.8l-.3,5.36v5.35q-.6,9.84-.6,28.89,0,21.13-.89,32.15l-.89,9.83q-1.5,24.12-12.21,41.09-4.47,6.26-13.4,11a96.92,96.92,0,0,1-19.65,7.74,91.5,91.5,0,0,1-25.9,3.27q-6.86,0-9.53-.29a78.11,78.11,0,0,1-26.06-6.41q-11.46-5.21-16.82-15.33-7.14-13.4-7.74-33.65l-.6-9.52c-.2-1.59-.29-4.87-.29-9.83q-1.5-24.4-1.49-46.75,0-13.7.89-27.39a124.85,124.85,0,0,1,5.21-29,70.56,70.56,0,0,1,13.25-24.86l6.55-3.58a99,99,0,0,1,68.63-5.51,69.41,69.41,0,0,1,22.19,10.87q10.41,9.54,13.69,18.76a96.91,96.91,0,0,1,5.06,19.06Q1573.28,1439.27,1573.28,1448.8Zm-47,13.69L1525,1447a36.49,36.49,0,0,0-4-14.74,20.5,20.5,0,0,0-8.78-9.08,13.43,13.43,0,0,0-4.77-.9,24.29,24.29,0,0,0-14,4.77,35,35,0,0,0-7,8.49,49.26,49.26,0,0,0-5.21,11.16q-3,13.11-3,33.35,0,10.13.3,15.18V1495a122.32,122.32,0,0,1,1.79,15.78l.3,4.17q1.18,14.88,3.27,22v-.3a19.65,19.65,0,0,0,7.89,9.08,21.26,21.26,0,0,0,11.17,3.13,23.21,23.21,0,0,0,9.67-2.23,24.27,24.27,0,0,0,8.49-6.4,20.67,20.67,0,0,0,3.72-6.56,33.57,33.57,0,0,0,.75-8.33,66.73,66.73,0,0,1,.29-7.45l.3-3.87.3-5.65v-4.17l.3-5.66v-14.29l-.6-20.25Z"/>
      <path class="cls-1" d="M872.81,1699.77c0,.54,0,1.27-.14,2.19a12.8,12.8,0,0,0,0,2.37,14.16,14.16,0,0,1-.22,3c-.15.57-.35.89-.58,1a4.38,4.38,0,0,1-1.34.14,11,11,0,0,0-1.75,0c-.62,0-1.26,0-1.92,0q-8,.25-15.63.26l-12.24-.09c-.77-.06-2-.08-3.75-.08v-1.61q.72-16.8.72-29.66,0-8.13-.27-18,0-3.4-.18-13.58a11.23,11.23,0,0,1,3.75-.45,16,16,0,0,1,6,.9c-.12,4.64-.18,8.16-.18,10.54q0,4.29.18,13l.09,12.95v5.63c0,4.58-.06,8.28-.18,11.07v.09c.71-.06,1.93-.11,3.66-.18s3.42-.08,5.09-.08c1.85,0,5,.12,9.56.35q6.08.36,7.77.36A8.66,8.66,0,0,0,872.81,1699.77Z"/>
      <path class="cls-1" d="M951,1648.5c2.68-.3,4.49-.45,5.45-.45a7,7,0,0,1,3.3.63q.45,9.55.45,17.24a263.82,263.82,0,0,1-1.52,29A17.53,17.53,0,0,1,954,1705a15.49,15.49,0,0,1-10,4.65c-.66,0-1.61.09-2.86.09a23.67,23.67,0,0,1-13.71-3.89q-5.67-3.89-6-11.48-.09-3.39-.09-10.36c0-4.76,0-8.37.09-10.81q.18-10,.18-14.92l-.09-10.54-.09-.09h.09l4.38-.08a21.24,21.24,0,0,1,4.28.35c-.06,1.13-.08,2.74-.08,4.83l-.09,3.57q-.27,8.58-.27,15a132.34,132.34,0,0,0,.71,15.18,45.76,45.76,0,0,0,2.59,10.81,7.16,7.16,0,0,0,4,3,13,13,0,0,0,3.13.44,9.9,9.9,0,0,0,4.29-.93,6.78,6.78,0,0,0,3-2.82,39.39,39.39,0,0,0,2.77-11.66,163,163,0,0,0,.72-16.57l-.09-13.75Q950.88,1650.64,951,1648.5Z"/>
      <path class="cls-1" d="M1033,1645.82a14.84,14.84,0,0,1,5.49,2.77,17.08,17.08,0,0,1,4.24,4.73,43.91,43.91,0,0,1,4.25,9.11,36.86,36.86,0,0,1,1.92,9.65l-.18,4a82.62,82.62,0,0,1-1.07,12.77,5.17,5.17,0,0,1-.49,1.34c-.33.72-.64,1.46-.94,2.24a51.67,51.67,0,0,1-4.11,7.37q-2.77,4.25-5.9,8.17-7.86.27-23.49.27l-.09.09a218.23,218.23,0,0,1-1.52-28.68q0-8,.09-12l.09-12.06c0-3.81,0-6.66-.09-8.57l.27-.36a43,43,0,0,1,10.09-1q3,0,4.38.09C1028.29,1645.88,1030.65,1645.88,1033,1645.82Zm-8,51.09a38.26,38.26,0,0,0,6.3-.49,6.21,6.21,0,0,0,2.9-1.29,27.52,27.52,0,0,0,2.86-3.4q2.58-3.39,3.93-11.34c.12-1.43.18-2.5.18-3.22s-.06-1.79-.18-3.21a29.1,29.1,0,0,0-2-8.4,18.61,18.61,0,0,0-3.57-5.81,7.73,7.73,0,0,0-4-2.5c-1.55-.12-2.56-.18-3-.18a62.41,62.41,0,0,0-8.57.36h-.45a80.19,80.19,0,0,1,.36,9.47q0,5.71-.18,9.65l-.09,3.12q0,1.53.18,6.88l.45,9.83C1020.49,1696.73,1022.13,1696.91,1024.93,1696.91Z"/>
      <path class="cls-1" d="M1102,1645.19a10.73,10.73,0,0,1,1.51-.09c.48,0,1.31.06,2.51.18,2.85.18,4.88.3,6.07.36v.36q0,5.8-.18,17.77t-.27,24q0,11.34.36,20.37c-.48.36-1.67.53-3.57.53l-4.92-.09a13.52,13.52,0,0,0-2.23.18q.36-6.78.36-16.17,0-5.7-.09-8.66l-.27-15.27-.09-8a143.17,143.17,0,0,1,.81-15.37Z"/>
      <path class="cls-1" d="M1172.76,1648.5a27.51,27.51,0,0,1,12.15-2.59,24.2,24.2,0,0,1,10.85,2.36,12.39,12.39,0,0,1,6.48,7.28,25.22,25.22,0,0,1,1.7,10.19q0,2.85-.09,4.2-.18,3.12-.18,9.2c0,1,0,2.27-.05,3.79s-.1,3.29-.22,5.32l-.27,3c-.41,5.06-1.55,9.08-3.39,12a13.85,13.85,0,0,1-6.92,4.83,29.25,29.25,0,0,1-9.7,1.61c-1.25,0-2.17,0-2.77-.09q-6.78-.54-10.27-4.16t-3.66-12l-.27-5.63q-.09-1.79-.27-6.21c-.12-2.94-.17-5.64-.17-8.08,0-2.74.08-5.45.26-8.13a34.83,34.83,0,0,1,1.61-10.09A11.33,11.33,0,0,1,1172.76,1648.5Zm23.41,28.94-.09-7.15q-.36-6.07-.63-8.26a11.25,11.25,0,0,0-2.68-5.22q-2.41-3-8-3-6.79,0-9.51,6t-2.73,18.23q0,7.5.32,11.65a23.94,23.94,0,0,0,1.29,6.7,8.44,8.44,0,0,0,3,4,10.59,10.59,0,0,0,6.16,1.52q6.34,0,9.2-2.6t3.13-7.59c0-1.78.06-3.9.18-6.34s.21-4,.27-4.73Z"/>
    </g>
  </g>
</svg>
