<svg xmlns="http://www.w3.org/2000/svg" width="655.797" height="687.477" viewBox="0 0 655.797 687.477" opacity="0.5">
  <path id="leave_02" d="M5131.631,2703.364c-1.3,4.07-1.3,8.329-1.785,12.515a120.142,120.142,0,0,0-.4,19.1,47.7,47.7,0,0,0,1.249,8c1.24,5.7,2.771,11.33,3.91,17.043,2.4,12.025-2.614,20.039-13.656,24.916-8.5,3.753-17.639,3.805-26.761,3.7-7.4-.085-14.852-.877-22.145,1.006-3.48.9-6.325,2.781-7.694,6.361-1.476,3.863.463,6.636,3.09,8.975,5.278,4.7,11.716,6.99,18.512,8.464a40.871,40.871,0,0,0,9.936.586c4.126-.12,7.479-2.271,10.776-4.5,5.746-3.876,11.407-7.871,16.912-12.086a1.751,1.751,0,0,1,1.463-.505,7.952,7.952,0,0,1-2.12,3.065c-7.545,8.643-15.667,16.687-25.3,23.019a70.216,70.216,0,0,1-25.9,10.814c-9.136,1.695-18.271,3.4-27.572,3.707-8.129.269-16.1-.53-23.023-5.5a1.733,1.733,0,0,0-.559-.154c-.315.635.147.967.438,1.3,9.042,10.52,17.567,21.451,25.786,32.62,7.151,9.716,13.9,19.705,20.35,29.9a396.059,396.059,0,0,1,21.792,38.982c3.985,8.223,7.5,16.662,10.846,25.182a247.518,247.518,0,0,1,12.41,43.311,141.7,141.7,0,0,1,2.594,20.176c.075,1.561-.563,2.232-2.042,2.536-3.125.642-6.216,1.447-9.333,2.127-2.032.443-2.431,0-2.55-2.052a150.614,150.614,0,0,0-2.114-19.822c-1.287-6.667-2.356-13.385-4.134-19.96a293.579,293.579,0,0,0-9.805-30.226,335.271,335.271,0,0,0-14.234-31.637q-8.9-17.28-19.284-33.729c-6.271-9.985-12.946-19.687-19.751-29.3-2.512-3.551-5.207-6.972-7.973-10.4a58.739,58.739,0,0,1-5.588,42.252,70.065,70.065,0,0,1-9.93,14.808,48.665,48.665,0,0,1-15.256,11.322,132.663,132.663,0,0,1-27.762,9.813,3.994,3.994,0,0,1-.608.136c-.769.055-1.839.8-2.212-.162-.3-.767.883-1.049,1.483-1.466,8.251-5.727,16.93-10.923,24.229-17.881a43.85,43.85,0,0,0,13.988-30.63c.255-5.611-.872-11.029-4.388-15.719-3.152-4.2-7.451-5.81-12.5-5.779-2.142.013-4.312,2.436-4.88,5.283-.905,4.534-.569,9.1-.4,13.674.328,9,.728,18.01-2,26.8a35.9,35.9,0,0,1-11.32,16.608,36.85,36.85,0,0,1-22.611,9.4c-4.939.269-9.584-1.25-14.216-2.715-4.225-1.336-8.315-3.131-12.716-3.861a62.5,62.5,0,0,0-18.615-.328c-.859.115-1.749.579-2.836-.376,2.429-.932,4.707-1.773,6.959-2.678a57.219,57.219,0,0,0,21.791-15.917,125.6,125.6,0,0,0,22.15-36.681,34.064,34.064,0,0,0,2.64-14.413c-.256-4.952-2.671-8.208-6.879-9.3-3.88-1.007-8.021.77-10.505,4.622-2.779,4.306-4.253,9.177-5.708,14.018-3.256,10.825-6.261,21.736-11.5,31.839-5.2,10.042-12.117,18.534-22.829,22.974-12.007,4.976-23.349,3.465-33.54-4.808-3.333-2.706-6.352-5.8-9.653-8.545-5.693-4.74-12.464-7.451-19.368-9.827-4.717-1.623-9.49-3.083-14.233-4.627a1.708,1.708,0,0,1-1.259-.888c.715-.743,1.661-.394,2.467-.37a84.281,84.281,0,0,0,32.111-5.628c16.138-6,28.389-16.956,39.432-29.63,5.442-6.244,10.457-12.784,13.73-20.464,1.555-3.65,2.706-7.41,1.658-11.5-1.26-4.92-5.195-7.359-10.222-6.375-5.848,1.144-10.537,4.529-15.2,7.857a232.271,232.271,0,0,0-19.5,16.177c-6.253,5.586-12.322,11.378-18.571,16.969-7.127,6.376-14.186,12.886-22.464,17.779-11.208,6.623-22.979,8.779-35.339,3.359-6.86-3.008-12.33-7.911-17.231-13.479-7.064-8.024-12.491-17.115-17.221-26.647-1.939-3.908-3.774-7.869-5.627-11.819-.314-.668-.884-1.513-.292-2.125.631-.652,1.417.081,2.1.33a166.61,166.61,0,0,0,31.538,8.2,119.6,119.6,0,0,0,29.208,1.174,78.188,78.188,0,0,0,22.826-5.246c5.069-2.084,9.469-5.474,13.856-8.739a82.239,82.239,0,0,0,16.038-15.622,29.15,29.15,0,0,0,4.926-9.326c1.945-6.316-2.823-11.117-7.929-12.074-4.694-.88-8.966.426-13.029,2.479-9.606,4.856-18.176,11.4-27.29,17.055-10.454,6.49-21.271,12.161-33.459,14.843-9.1,2-18.225,3.569-27.574,3.407a46.735,46.735,0,0,1-28.1-9.4c-4.373-3.308-6.233-8.214-7.551-13.313-1.788-6.92-2.277-14.094-4.021-21.031-1.149-4.57-1.971-9.233-3.909-13.573-3.352-7.51-7.873-14.333-12.542-21.053-2.768-3.983-5.774-7.8-8.648-11.713a2.578,2.578,0,0,1-.838-2.022c2.621,1.131,4.769,2.866,7.089,4.288a212.19,212.19,0,0,0,41.788,19.887,139.217,139.217,0,0,0,37.543,7.769,88.757,88.757,0,0,0,22.958-1.492c9.038-1.853,18.047-3.875,26.442-7.883a33.8,33.8,0,0,0,11.114-7.9c5.428-6.147,4.02-13.362-3.411-17.189-5.336-2.749-11.043-2.732-16.857-2.245-9.425.79-18.278,3.7-27.177,6.645-9.2,3.044-18.117,7-27.714,8.774-11.362,2.1-22.679,2.475-33.978-.612-9.39-2.566-16.342-8.209-21.565-16.253-4.645-7.156-7.612-15.012-10.25-23.084-3.174-9.714-4.207-19.763-5.507-29.791a3.975,3.975,0,0,1-.037-.83c.048-.6-.261-1.43.4-1.709.793-.333,1.189.49,1.612,1.01a96.689,96.689,0,0,0,43.954,30.938c9.64,3.361,19.663,4.608,29.753,5.518a116.966,116.966,0,0,0,17.838.614c5.306-.334,10.7-.441,15.8-2.17,3.727-1.262,7.395-2.687,10.478-5.323a12.753,12.753,0,0,0,4.554-10.486,8.873,8.873,0,0,0-6.115-7.865c-5.284-1.788-10.719-1.551-16.053-.894-13,1.6-25.834,4.234-38.7,6.677a58.014,58.014,0,0,1-33.23-3.579,41.442,41.442,0,0,1-14.559-9.392c-6.423-6.636-7.985-14.457-5.906-23.25,1.169-4.948,3.146-9.62,4.9-14.356,3.024-8.167,3.741-16.531,3.261-25.152a76.786,76.786,0,0,0-6.271-25.919c-.864-2.037-.6-3.239,1.233-4.533,11.707-8.252,20.84-19.019,29.458-30.3,4.077-5.337,8.079-10.777,13.621-14.782,6.984-5.048,14.421-5.552,22.228-2.2,5.238,2.249,9.214,6.124,12.891,10.309,6.237,7.1,11.425,14.962,16.572,22.867,6.163,9.465,11.912,19.209,18.762,28.217a45.417,45.417,0,0,0,7.294,7.947c2.163,1.759,4.634,3.646,7.537,2.147,2.712-1.4,2.73-4.337,2.513-7a69.8,69.8,0,0,0-6.23-22.742,113.922,113.922,0,0,0-10.46-18.664,81.521,81.521,0,0,0-21.033-21.068,131.069,131.069,0,0,0-22.576-12.342c-.437-.187-.925-.322-1.158-.865.316-.781,1.008-.53,1.581-.509a260.636,260.636,0,0,1,30.646,2.452c5.757.895,11.594,1.793,16.646,4.907,4.642,2.861,8.352,6.862,11.729,11.115a120.714,120.714,0,0,1,15.43,25.313,105.754,105.754,0,0,1,8.011,29.134c1.425,9.992.974,20.019.742,30.058-.137,5.934-.5,11.906.831,17.814,1.884,8.373,8.454,10.456,15.21,4.687,6.04-5.157,9.395-11.938,11.245-19.487,3.205-13.073,1.315-25.856-2.387-38.548a149.364,149.364,0,0,0-5.77-16.467,145.9,145.9,0,0,0-13.031-24.1,188.1,188.1,0,0,0-13.156-17.671c-7.233-8.5-15.735-15.6-24.672-22.213-1.949-1.442-4-2.753-5.984-4.143-.487-.341-1.256-.607-1.023-1.376.18-.6.9-.578,1.428-.662,5.815-.92,11.631-1.8,17.488-2.46,7.713-.864,15.423-1.736,23.164-2.259a151.293,151.293,0,0,1,31.307.827,43.829,43.829,0,0,1,11.414,3.056c4.01,1.739,6.429,5.2,8.943,8.5,4.979,6.519,8.3,13.93,10.9,21.632,4.022,11.927,7.018,24.117,7.5,36.759.233,6.1-.662,12.172-1.379,18.225-1.066,9.012-2.257,18.01-3.382,27.016-1.058,8.46-2.042,16.935-2.262,25.462-.109,4.2-.32,8.45.85,12.6,1.061,3.756,3.62,4.693,6.7,2.352,5.018-3.813,7.659-9.286,9.884-14.892a109.258,109.258,0,0,0,7.093-32.786,111.715,111.715,0,0,0-3.284-35.837c-1.594-6.25-2.867-12.606-5.043-18.668-2.454-6.836-4.849-13.706-7.8-20.364-2.779-6.271-5.42-12.6-8.776-18.6-.2-.356-.566-.73-.244-1.128.457-.565,1.025-.2,1.521-.009a102.8,102.8,0,0,0,14.061,4.476,49.89,49.89,0,0,0,12.587,1.187,39.1,39.1,0,0,1,16.283,2.638c7.428,3.056,11.03,8.885,12.123,16.6a127.806,127.806,0,0,1,1.271,20.917,139.148,139.148,0,0,1-4.278,30.817c-2.422,9.624-6.168,18.835-8.852,28.375-1.859,6.6-3.633,13.25-3.295,20.221a12.46,12.46,0,0,0,1.29,5.214,6.311,6.311,0,0,0,10.05,1.706c3.568-3.381,5.663-7.707,7.334-12.2,5.188-13.941,8.295-28.3,8.271-43.254-.016-9.931-1.271-19.756-2.267-29.608-1.191-11.8-3.386-23.448-4.952-35.19-.146-1.1-.488-2.168-.651-3.264-.137-.922-.964-2.1-.107-2.726.945-.691,1.688.58,2.416,1.1,4.408,3.125,8.721,6.386,13.158,9.47a73.083,73.083,0,0,0,14.941,8.121c5.389,2.124,9.241,6.283,12.655,10.807a53.547,53.547,0,0,1,10.717,30.3c.535,10.786-2.379,20.829-6.894,30.509-5.321,11.4-12.044,21.982-18.815,32.546-5.31,8.283-10.892,16.426-14.823,25.5-3.086,7.128-5.948,14.353-7.393,22.034a17.525,17.525,0,0,0,1.449,10.56c1.373,3.058,4.216,4.279,7.548,3.712,5.618-.957,9-4.905,12.211-9.038,5.509-7.09,8.969-15.263,12.258-23.525,4.692-11.788,9.774-23.42,14.157-35.332,4.675-12.7,8.763-25.573,10.652-39.031a61.012,61.012,0,0,0-.5-22.321c-1.256-5.472-2.287-11.01-4.524-16.207a52.958,52.958,0,0,0-8.98-14.646c-.269-.3-.642-.569-.391-1.182.971-.221,1.615.537,2.3.994a366.751,366.751,0,0,1,32.064,23.416,153.373,153.373,0,0,1,20.641,20.461c6.96,8.472,8.209,17.815,4.615,28.1-4.289,12.273-11.157,23.015-18.881,33.327-9.055,12.088-19.433,22.911-30.433,33.232-8.746,8.207-16.068,17.631-20.965,28.715-1.375,3.111-2.418,6.41-1.936,9.877.5,3.581,3,5.181,6.56,4.622a39.132,39.132,0,0,0,14.955-6A112.23,112.23,0,0,0,5063.2,2693.6c10.843-12.221,18.815-25.99,22.979-41.909,2.984-11.416,5.218-22.973,7.193-34.592a3.118,3.118,0,0,1,.713-2.015c1.546,2.039,2.149,4.392,3.037,6.6a77.17,77.17,0,0,0,12.625,21.609,73.514,73.514,0,0,1,10.689,16.049,6.178,6.178,0,0,0,1.45,2.266l4.165,17.84a11.305,11.305,0,0,0-.556,1.985c-.642,6.722-4.084,11.788-9.269,15.845-8.171,6.393-17.381,11.1-26.347,16.194-9.4,5.339-18.857,10.575-27.267,17.44-4.21,3.437-8.128,7.158-9.792,12.612-2.022,6.628,2.645,15.964,12.4,13.838a42.08,42.08,0,0,0,12.733-5.465c10.959-6.6,19.987-15.549,28.87-24.607a273.176,273.176,0,0,0,23.86-27.974ZM4905.237,2746.4a23.392,23.392,0,0,0-6.084,2.368,69.57,69.57,0,0,0-17.34,13.76c-3.3,3.458-6.618,6.9-8.923,11.167-2.259,4.178-1.765,7.7,1.622,9.654a10.924,10.924,0,0,0,6.018,1.25c4.588-.187,8.848-1.668,13.031-3.31a61.264,61.264,0,0,0,18.612-11.534,31.765,31.765,0,0,0,7.224-9.05c2.385-4.635,1.54-8.755-2.362-12.131C4913.6,2745.6,4909.723,2745.232,4905.237,2746.4Zm59.12-76.52c-.583-2.635-1.373-3.614-3.036-3.805-1.889-.218-2.661,1.2-3.43,2.521a27.8,27.8,0,0,0-1.493,2.968,110.794,110.794,0,0,1-11.6,21.074,133.043,133.043,0,0,0-7.972,11.655c-1.891,3.311-3.772,6.635-4.441,10.464a7.043,7.043,0,0,0,3.307,7.672c2.592,1.492,5.5,1.139,8.131-.784a25.445,25.445,0,0,0,6.12-6.726c7.54-11.418,11.557-24.173,13.965-37.5C4964.372,2674.859,4965.076,2672.243,4964.357,2669.879Zm-50.985,32.245c2.2-.572,4.035-3.614,5.585-6.833,3.741-7.774,3.887-16.057,3.211-24.425a7.676,7.676,0,0,0-1.6-4.009c-1.626-2.166-3.568-2.484-5.741-.819a15.351,15.351,0,0,0-3.33,3.689c-3.25,4.819-5.359,10.179-7.259,15.609-1.3,3.727-2.38,7.572-1.464,11.61C4903.743,2701.23,4907.461,2703.528,4913.372,2702.124Zm88.967,122.185c-2.133-2.521-4.224-5.079-6.407-7.556q-12.707-14.42-26.2-28.107c-1.358-1.369-1.977-1.084-3.031.217-5.017,6.187-4.91,19.554,6.086,24.595C4982.325,2817.832,4992.588,2820.133,5002.339,2824.309ZM4854.6,2726.572a18.266,18.266,0,0,0,7.861-4.053c3.776-3.132,7.05-6.661,8.961-11.268,1.106-2.667.479-5.54-1.5-6.982a9.382,9.382,0,0,0-6.468-1.853c-7.275.71-13.212,4.356-18.395,9.219-2.25,2.111-3.539,5.126-2.458,8.163C4844.427,2724.931,4849.369,2728.014,4854.6,2726.572Zm71.146,73.136c3.432-.528,6.319-2.427,9.385-3.826a16,16,0,0,0,8.257-8.66,5.578,5.578,0,0,0-.659-5.89,9.049,9.049,0,0,0-10.364-2.4c-4,1.944-7.073,5.054-10.178,8.113a24.274,24.274,0,0,0-4.529,5.648c-1.931,3.58-.321,6.835,3.6,7.537C4922.837,2800.516,4924.264,2799.967,4925.746,2799.708Zm54.163-33.159c2.155-.55,4.527-2.826,6.979-4.954a59.158,59.158,0,0,0,12.136-14.134c.947-1.574,1.617-3.424.157-5.022-1.435-1.57-3.357-1.392-5.228-.777a8.836,8.836,0,0,0-1.125.536,64.927,64.927,0,0,0-16.874,12.664,12.741,12.741,0,0,0-3.168,5.32C4971.538,2764.294,4974.659,2767.73,4979.909,2766.549Zm34.973,59.149c-.72-2.529-2.2-4.625-3.4-6.872a149.9,149.9,0,0,0-15-23.4,35.029,35.029,0,0,0-11.117-9.523,16.062,16.062,0,0,0-10.453-1.8C4989,2797.609,5002.131,2811.453,5014.882,2825.7Z" transform="translate(-5305.507 408.386) rotate(-30)" fill="#84d1a3"/>
</svg>
