<svg id="leave_01" xmlns="http://www.w3.org/2000/svg" width="842.523" height="360.383" viewBox="0 0 842.523 360.383">
  <path id="Tracé_9" data-name="Tracé 9" d="M4965.191,1707.231c2.683-.016,5.367-.025,8.05-.052,2.2-.022,4.4,0,6.59-.135a7.312,7.312,0,0,0,2.089-.823c-.334-.736-.471-1.715-1.032-2.169-4.672-3.772-9.6-7.245-14.11-11.194-9.437-8.258-19.043-16.374-27.89-25.237-12.907-12.929-25.247-26.426-37.744-39.76-5.673-6.053-11.213-12.237-16.682-18.475-4.3-4.906-8.42-9.973-12.578-15a5.573,5.573,0,0,1-1.238-3.109c4.736,3.2,9.567,6.269,14.193,9.621,19.071,13.818,36.783,29.267,53.79,45.52,13.243,12.657,25.553,26.191,35.811,41.414a97.7,97.7,0,0,1,7.869,15.219c1.224,2.77,2.533,4.347,5.762,4.267,5.9-.148,11.815.053,17.721-.03a10.081,10.081,0,0,0,3.038-1.09,11.767,11.767,0,0,0-1.775-2.7c-9.842-8.465-20.1-16.485-29.522-25.385-10.391-9.812-20.15-20.3-29.963-30.71-9.269-9.828-18.34-19.848-27.323-29.938-5.395-6.06-10.5-12.384-15.656-18.65q-5.279-6.41-10.168-13.154c12.97,7.861,24.81,17.175,36.221,27q15.864,13.657,31.074,28.068a319.693,319.693,0,0,1,32.951,36.244c6.373,8.227,12.527,16.687,16.415,26.471,1.361,3.424,3.548,4.532,7.162,4.354,4.3-.213,8.635.281,12.955.353a17.611,17.611,0,0,0,3.419-.608c-.6-1.055-.987-2.358-1.849-3.122-4.892-4.335-10.139-8.293-14.809-12.847-8.344-8.135-16.648-16.346-24.451-24.992-11.888-13.173-23.433-26.659-34.924-40.181-5.768-6.788-11.139-13.917-16.607-20.954-4.926-6.34-9.745-12.762-14.6-19.158a6.133,6.133,0,0,1-1.315-2.91c2.771,1.927,5.771,3.6,8.276,5.823,16.377,14.553,33.063,28.794,48.836,43.981a302.316,302.316,0,0,1,43.274,51.73c4.2,6.4,8.355,12.915,10.522,20.4a4.657,4.657,0,0,0,5.063,3.718c2.644-.035,5.291.256,7.937.241.874-.005,2.177-.285,2.494-.868a2.967,2.967,0,0,0-.713-2.518c-4.611-5.234-9.424-10.291-13.964-15.584-3.554-4.143-6.93-8.453-10.164-12.852-6.48-8.816-13.075-17.567-19.139-26.668-7.726-11.6-15.052-23.465-22.4-35.311-5.205-8.392-10.212-16.908-15.2-25.428-3.34-5.7-6.507-11.5-9.734-17.262a2.752,2.752,0,0,1-.312-1.911c1.14,1.024,2.315,2.01,3.413,3.077,16.9,16.4,32.125,34.292,46.464,52.937,13.422,17.451,25.654,35.7,35.568,55.4,3.846,7.639,7.165,15.549,8.808,24.021a4.049,4.049,0,0,0,4.105,3.7c6.235.455,12.468,1.29,18.7,1.3,5.687.011,11.1,1.682,16.72,1.925,4.3.186,8.581.92,12.882,1.235,1.013.074,2.076-.56,3.116-.868-.407-1-.55-2.279-1.262-2.967-13.454-12.995-25.018-27.613-36.4-42.378-4.524-5.871-8.789-11.949-13.035-18.027q-10.223-14.637-20.254-29.41c-5.294-7.809-10.549-15.649-15.617-23.606-6.827-10.718-13.47-21.554-20.162-32.358a36.114,36.114,0,0,1-3.23-6.475c2.807,2.522,5.8,4.865,8.386,7.6,8.856,9.371,17.755,18.714,26.279,28.382q11.738,13.311,22.7,27.3c7.963,10.133,15.862,20.351,23.129,30.983,8.359,12.233,16.567,24.643,22.61,38.253,3.067,6.908,5.605,14.055,8.269,21.137a5.1,5.1,0,0,0,4.532,3.5c6.208.76,12.42,1.5,18.644,2.111a10.118,10.118,0,0,0,3.119-.722,10.635,10.635,0,0,0-1.243-2.945c-7.4-8.649-15.129-17.029-22.249-25.9-6.783-8.452-13.114-17.284-19.345-26.159-6.792-9.675-13.287-19.561-19.825-29.413-6.337-9.55-12.8-19.028-18.787-28.8-9.637-15.724-18.931-31.657-28.352-47.512a7.483,7.483,0,0,1-1.122-3.448c3.16,3.195,6.451,6.272,9.457,9.607,8.155,9.046,16.387,18.037,24.217,27.362,7.5,8.925,14.7,18.108,21.71,27.421,7.963,10.58,15.885,21.219,23.233,32.227,6.61,9.9,12.812,20.128,18.461,30.606,4.928,9.138,8.9,18.8,13.14,28.3a33.217,33.217,0,0,1,1.774,6.632,4.408,4.408,0,0,0,3.84,3.833q9.388,1.384,18.81,2.551a8.8,8.8,0,0,0,2.7-.542,8.951,8.951,0,0,0-1.011-2.806c-4.061-4.887-8.437-9.524-12.316-14.547-7.658-9.918-15.492-19.744-22.464-30.139-9.668-14.416-18.793-29.208-27.811-44.045q-14.572-23.977-28.484-48.353c-5.354-9.321-10.212-18.925-15.278-28.41a2.154,2.154,0,0,1-.041-1.8,29.974,29.974,0,0,1,2.582,2.344c7.986,9.09,16.181,18.011,23.843,27.367,8.61,10.513,17.035,21.207,24.985,32.223,8.468,11.733,16.366,23.88,24.366,35.945a319.4,319.4,0,0,1,23.517,42.626c3.961,8.568,7.663,17.273,9.06,26.737.371,2.518,1.7,4.267,4.328,4.7,4.954.818,9.911,1.631,14.885,2.32a7.786,7.786,0,0,0,2.654-.628,8.163,8.163,0,0,0-.774-2.347c-3.47-4.769-7.1-9.419-10.517-14.229-3.108-4.385-6.127-8.845-8.959-13.413-4.788-7.727-9.665-15.419-14.025-23.389q-12.19-22.279-23.79-44.878-9.316-18.12-17.981-36.573c-5.6-11.883-10.85-23.936-16.229-35.924a11.552,11.552,0,0,1-.425-2.144c.813.476,1.345.621,1.612.969,6.233,8.111,12.708,16.053,18.583,24.417,8.628,12.283,17.215,24.628,25.1,37.391,8.9,14.405,17.493,29.045,25.316,44.053,9.549,18.318,18.092,37.153,22.243,57.61.367,1.81.449,3.678.688,5.516.493,3.819,1.006,4.473,4.777,5.2q6.628,1.276,13.312,2.241a8.808,8.808,0,0,0,2.882-.593,11.319,11.319,0,0,0-.831-2.867c-6.411-10.54-13.179-20.876-19.257-31.6-5.252-9.27-9.951-18.873-14.508-28.512-4.977-10.53-9.581-21.239-14.213-31.929-4.594-10.6-9.2-21.2-13.475-31.929-5.194-13.019-10.064-26.167-15.044-39.271-.556-1.462-.906-3-1.353-4.507l.716-.467c1.339,1.715,2.745,3.383,4.008,5.153a561.422,561.422,0,0,1,34.132,54.835c6.186,11.19,12.034,22.6,17.418,34.192s10.253,23.43,14.869,35.346a154.192,154.192,0,0,1,9.328,36.851c.8,6.5.786,6.448,7.182,7.656,5.975,1.128,11.919,2.422,17.9,3.54a8.057,8.057,0,0,0,2.668-.443,8.9,8.9,0,0,0-.639-2.878c-4.432-7-9.32-13.739-13.378-20.946q-9.021-16.018-17.081-32.572c-6.52-13.394-12.661-26.977-18.756-40.572-4.293-9.574-8.285-19.284-12.319-28.971-4.137-9.931-8.291-19.858-12.194-29.882-3.325-8.541-6.306-17.215-9.426-25.835a2.311,2.311,0,0,1,.034-1.7c4.037,5.8,8.15,11.56,12.1,17.424a574.59,574.59,0,0,1,32.92,55.544c7.135,13.69,14.137,27.488,20.326,41.62a412.515,412.515,0,0,1,15.057,39.808c2.8,8.75,3.85,18.067,5.508,27.163.416,2.276,1.158,3.693,3.576,4.186,5.518,1.125,10.987,2.482,16.509,3.586.95.19,2.058-.4,3.091-.634a12.063,12.063,0,0,0-.771-2.881c-5.382-9.708-11.115-19.234-16.174-29.106-5.147-10.048-9.818-20.352-14.376-30.686-4.126-9.353-7.885-18.87-11.679-28.365-4.712-11.792-9.539-23.547-13.872-35.478-6.045-16.647-11.682-33.442-17.473-50.18a2.416,2.416,0,0,1,.289-2.008c2.338,3.357,4.791,6.641,6.994,10.083a638.769,638.769,0,0,1,33.07,58.847c6.708,13.405,12.658,27.2,18.633,40.957a262.654,262.654,0,0,1,14.87,43.263c2.008,8.372,3.152,16.954,4.555,25.462.294,1.784.748,2.8,2.726,3.241,5.575,1.242,11.089,2.757,16.628,4.157a5.252,5.252,0,0,0,1.557.295c.844-.056,2.006-.006,2.416-.507.363-.443.112-1.7-.256-2.384q-3.183-5.953-6.565-11.8a310.366,310.366,0,0,1-19.249-40.639q-9.321-23.487-18.034-47.213-7.573-20.738-14.354-41.763c-3.228-9.969-5.862-20.129-8.752-30.207a1.8,1.8,0,0,1,.25-1.5c2.155,3.351,4.521,6.586,6.43,10.072,8.4,15.324,17.1,30.5,24.845,46.153,7.153,14.458,13.552,29.317,19.685,44.245a281.954,281.954,0,0,1,15.686,49.921c1.627,7.86,3,15.778,2.584,23.866-.115,2.229.768,3.33,2.982,3.878,5.311,1.316,10.548,2.929,15.854,4.264.972.245,2.131-.259,3.2-.417a24.187,24.187,0,0,0-.87-2.6c-4.766-10.325-9.989-20.465-14.233-31-5.3-13.155-10.035-26.552-14.572-39.993-4.141-12.268-7.773-24.711-11.477-37.122-2.925-9.8-5.775-19.635-8.372-29.528-2.841-10.824-5.355-21.733-8-32.607a2.122,2.122,0,0,1,.367-1.783c.7,1.022,1.468,2.006,2.1,3.072a410.337,410.337,0,0,1,23.59,47.367c5.244,12.245,10.5,24.52,14.923,37.072q7.471,21.189,13.372,42.92c3.778,13.984,6.3,28.272,5.483,42.909-.122,2.216.682,3.723,2.926,4.408,5.562,1.7,11.088,3.515,16.665,5.159a8.818,8.818,0,0,0,2.982-.2,14.919,14.919,0,0,0-.592-3.5c-4.413-10.282-9.36-20.361-13.263-30.83-4.339-11.638-7.959-23.559-11.507-35.471-4.026-13.518-7.761-27.126-11.363-40.764-2.478-9.381-4.594-18.861-6.721-28.331-1.97-8.777-3.746-17.6-5.582-26.4a5.794,5.794,0,0,1,.205-3.313c1.71,2.764,3.657,5.411,5.083,8.315,3.845,7.84,7.781,15.66,11.113,23.723,6.3,15.247,12.465,30.56,18.2,46.025a310.483,310.483,0,0,1,16.221,61.3c1.432,9.4,2.43,18.881,1.372,28.454a4.051,4.051,0,0,0,1.842,3.3c4.115,1.756,8.38,3.178,12.643,4.56a3.02,3.02,0,0,0,2.655-.456c.444-.523.261-1.856-.043-2.688-3.229-8.862-6.817-17.6-9.738-26.564-2.51-7.7-4.558-15.584-6.325-23.494q-5.19-23.238-9.8-46.6-4.021-20.376-7.39-40.879c-1.586-9.751-2.6-19.6-3.849-29.4a3,3,0,0,1,.661-2.245c1.36,2.774,2.917,5.471,4.046,8.335,4.08,10.344,8.333,20.636,11.923,31.151,4.5,13.188,8.853,26.459,12.478,39.906,5.147,19.085,9.48,38.376,11.272,58.142,1.006,11.1,1.733,22.174-.33,33.229-.45,2.408.446,3.749,2.8,4.582,6.324,2.24,12.563,4.717,18.877,6.986a10.727,10.727,0,0,0,3.233.118,9.447,9.447,0,0,0-.145-2.929c-2.314-6-4.967-11.881-7.084-17.949-2.9-8.324-5.609-16.726-8.056-25.195-2.324-8.047-4.312-16.2-6.252-24.349-1.8-7.557-3.385-15.166-4.975-22.771-2.255-10.787-4.686-21.546-6.57-32.4-2.659-15.3-4.887-30.677-7.289-46.023a1.742,1.742,0,0,1,.478-1.471c1.578,3.236,3.249,6.431,4.718,9.716a538.5,538.5,0,0,1,19.993,52.7,439.9,439.9,0,0,1,15.723,61.5c2.414,13.922,4.09,27.958,2.843,42.154a38.522,38.522,0,0,1-.758,5.239c-.587,2.568.6,4.129,2.744,5.063,4.265,1.852,8.554,3.654,12.9,5.3a4.36,4.36,0,0,0,3.123-.267c.347-.168.244-1.781-.026-2.613-2.66-8.132-5.73-16.146-8.025-24.377-2.529-9.074-4.662-18.285-6.437-27.539-2.574-13.42-4.913-26.9-6.913-40.413-2.43-16.408-4.489-32.872-6.533-49.333-.869-7-1.3-14.055-1.913-21.087a4.691,4.691,0,0,1,.546-2.823,19.443,19.443,0,0,1,1.31,2.23,421.435,421.435,0,0,1,17.022,49.532,467.936,467.936,0,0,1,12.244,53.375c2.705,16.661,4.563,33.411,3.349,50.333-.283,3.938-1.05,7.848-1.725,11.748-.472,2.726.179,4.131,2.723,5.254,4.679,2.064,9.327,4.2,14.037,6.181a3.268,3.268,0,0,0,2.616-.073c.411-.253.408-1.611.2-2.365-2.359-8.483-5.172-16.86-7.109-25.436-2.233-9.88-4.109-19.877-5.43-29.917q-3.885-29.531-6.9-59.174c-.98-9.55-1.1-19.189-1.59-28.789a3.348,3.348,0,0,1,.566-2.123c.689,1.579,1.432,3.137,2.06,4.739,5.262,13.414,9.106,27.257,12.679,41.2a383.169,383.169,0,0,1,9.713,50.916c1.732,14.916,2.609,29.885.123,44.832a33.015,33.015,0,0,1-1.151,5.162c-.793,2.348.169,3.7,2.142,4.712q5.774,2.955,11.531,5.946c1.251.654,2.407,1.513,3.7,2.066a38.921,38.921,0,0,0,4.529,1.253c-15.108-45.067-18.513-91.072-21.895-137.079l1.032-.256c1.014,2.361,2.2,4.665,3.013,7.092,3.408,10.109,7.075,20.151,9.947,30.414,3.255,11.626,6.163,23.383,8.493,35.226,3.207,16.3,5.035,32.8,4.082,49.454-.265,4.63-1.444,9.225-2.437,13.785-.393,1.8-.22,3.146,1.3,4.161,2.413,1.611,4.82,3.242,7.315,4.72a249.146,249.146,0,0,1,33.284,23c6.565,5.5,13.464,10.645,19.613,16.572,7.359,7.094,14.116,14.817,21,22.385.564.619.145,2.133.182,3.231-1.012-.147-2.391.076-2.975-.5-2.681-2.658-5.093-5.585-7.686-8.335a269.315,269.315,0,0,0-36.49-32.625c-9.869-7.242-20.2-13.852-30.353-20.709-2.542-1.717-3.552-1.045-4.6,1.713-2.029,5.324-3.767,10.943-6.829,15.656-11.911,18.329-27.368,33.429-44.506,46.851-6.108,4.785-12.264,9.525-18.614,13.978-4.152,2.911-8.693,5.269-13.062,7.874l-.5-.478c1.236-1.85,2.395-3.756,3.72-5.539a510.072,510.072,0,0,1,43.7-50.8c10.2-10.5,21.122-20.33,33.677-28.12,3.514-2.18,3.377-3.483-.264-5.522-3.848-2.155-7.668-4.362-11.562-6.431q-9.438-5.013-18.965-9.855a13.006,13.006,0,0,0-4.433-1.612,3.352,3.352,0,0,0-2.761,1.565c-4.787,13.659-13.777,24.6-22.97,35.331a295.259,295.259,0,0,1-39.416,38.062q-17.224,13.838-34.977,27.014c-5.011,3.727-10.6,6.673-15.941,9.953a14.062,14.062,0,0,1-2.142.727c1.645-2.224,2.762-3.867,4.01-5.4a633.763,633.763,0,0,1,43.527-48.134c8.046-8.063,15.816-16.419,24.143-24.179,8.385-7.814,17.184-15.2,26.042-22.481,4.547-3.738,9.627-6.825,14.444-10.235a10.742,10.742,0,0,0,1.956-1.776c1.027-1.2.844-2.373-.595-3.018-5.212-2.337-10.442-4.637-15.713-6.84-1.712-.716-2.942.27-3.592,1.82-8.7,20.784-23.727,36.884-39.385,52.369a442.254,442.254,0,0,1-33.481,30.458c-14.287,11.491-29.454,21.892-44.283,32.706a19.276,19.276,0,0,1-5.891,2.755,12.87,12.87,0,0,1,1.116-1.728c14.657-16.4,29.177-32.931,44.056-49.129,8.657-9.425,17.8-18.408,26.9-27.42,6.27-6.21,12.622-12.368,19.315-18.108,6.209-5.323,12.883-10.108,19.423-15.034,3.24-2.441,6.686-4.608,9.935-7.037a3.457,3.457,0,0,0,1.455-2.525c-.125-.785-1.251-1.667-2.135-2.033-5.36-2.219-10.642-4.815-16.209-6.308-7.652-2.052-14.558-5.955-22.136-8.118-2.281-.651-3.694-.346-4.69,1.869a101.158,101.158,0,0,1-14.911,24.322c-9.441,11.088-18.9,22.261-29.351,32.365-13.063,12.629-26.848,24.565-40.876,36.126-10.126,8.345-21.124,15.636-31.8,23.3-3.648,2.62-7.5,4.954-11.276,7.4a3.138,3.138,0,0,1-2.189.515,19.958,19.958,0,0,1,1.59-2.469c7.633-8.813,15.019-17.862,23.015-26.333,12.669-13.417,25.731-26.46,38.667-39.622,5.2-5.288,10.349-10.639,15.8-15.663,7.519-6.934,15.145-13.77,23.011-20.3,7.249-6.021,14.861-11.605,22.35-17.335,1.323-1.012,2.93-1.662,4.219-2.709,1.924-1.562,1.682-3.024-.654-3.885-4.049-1.492-8.151-2.838-12.24-4.217-2.08-.7-4.186-1.326-6.271-2.01-3.025-.992-3.924-.493-5.407,2.342-2.653,5.073-5.169,10.255-8.286,15.037a191.983,191.983,0,0,1-12.885,17.777,352.735,352.735,0,0,1-36.1,38.032c-9.01,8.06-18.036,16.137-27.5,23.644-11.813,9.371-24.083,18.166-36.159,27.206-1.085.812-2.192,1.6-3.29,2.391l-.52-.467c.906-1.333,1.738-2.726,2.735-3.988,16.985-21.521,35.568-41.647,54.181-61.739,7.438-8.03,15.041-15.941,23.009-23.439,9.5-8.938,19.4-17.455,29.274-25.988,3.654-3.159,7.761-5.79,11.561-8.79a14.773,14.773,0,0,0,2.289-3.042c-1.034-.746-1.964-1.807-3.117-2.182-5.452-1.769-10.952-3.394-16.462-4.976-2.39-.686-3.484,1.233-4.164,2.846-10.311,24.442-28.155,43.224-46.571,61.449-11.164,11.048-22.933,21.514-34.8,31.809-8.929,7.741-18.351,14.928-27.757,22.095a113.843,113.843,0,0,1-15.341,9.534,6.588,6.588,0,0,1,.639-1.419c3.083-3.979,6.027-8.082,9.332-11.87,12.138-13.914,24.146-27.952,36.678-41.505,12.467-13.483,25.164-26.794,38.406-39.507,9.39-9.015,19.835-16.934,29.852-25.292,2.428-2.027,5.043-3.83,7.521-5.8.64-.508,1.657-1.6,1.516-1.839a4.99,4.99,0,0,0-2.293-2.253c-3.516-1.133-7.117-2-10.691-2.95-1.618-.428-3.235-.883-4.879-1.175-1.5-.266-3.042-.389-3.821,1.438-5.806,13.6-14.963,24.943-24.506,35.984a360.837,360.837,0,0,1-38.472,37.911c-11.793,10.1-23.693,20.107-35.96,29.621-10.314,8-21.2,15.265-31.889,22.775a29.631,29.631,0,0,1-7.249,3.6,20.035,20.035,0,0,1,1.511-2.1c18.473-19.855,36.713-39.932,55.535-59.448,11.327-11.744,23.354-22.842,35.46-33.8,8.955-8.1,18.441-15.639,27.9-23.17,4.75-3.783,9.987-6.949,14.924-10.505.808-.581,1.2-1.74,1.78-2.633a10.344,10.344,0,0,0-2.545-1.486c-5.133-1.252-10.3-2.372-15.451-3.547-4.273-.975-4.962-.64-6.687,3.367-4.181,9.711-10.88,17.755-17.437,25.831-12.176,14.995-26.05,28.407-40.613,41.005-13.679,11.831-27.842,23.137-42.216,34.117-10.076,7.7-20.856,14.474-31.354,21.617a11.768,11.768,0,0,1-4.281,1.719,10.813,10.813,0,0,1,1.021-1.555c14.323-15.388,28.5-30.914,43.052-46.086,9.468-9.875,19.3-19.421,29.291-28.77,9.723-9.1,19.924-17.684,29.791-26.633,9.444-8.564,19.972-15.648,30.4-22.885a3.718,3.718,0,0,0,1.41-2.5c.029-.411-1.338-1.172-2.164-1.351-7.923-1.719-15.88-3.277-23.792-5.042-2.427-.541-3.392.72-4.254,2.514a86.712,86.712,0,0,1-4.55,9.227c-4.553,7.135-9.049,14.348-14.174,21.067-10.846,14.218-23.2,27.12-36.14,39.438a530.851,530.851,0,0,1-47.185,40.551c-7.9,5.93-15.981,11.628-24,17.41a26.738,26.738,0,0,1-2.42,1.4l-.554-.486a15.432,15.432,0,0,1,1.261-1.959c16.382-18.767,32.675-37.613,49.22-56.234,7.564-8.513,15.489-16.721,23.509-24.812,6.956-7.02,14.027-13.968,21.5-20.427,9.735-8.417,19.916-16.319,29.9-24.444a15.28,15.28,0,0,0,1.4-1.21c1.65-1.72,1.425-3.036-.869-3.663-2.976-.811-6.029-1.34-9.062-1.937q-3.875-.762-7.775-1.392c-1.489-.241-2.75-.04-3.447,1.652-3.321,8.056-8.2,15.16-13.367,22.129-11.372,15.338-24.944,28.582-38.783,41.619-15.776,14.863-32.8,28.2-50.036,41.268-7.239,5.486-14.778,10.585-22.281,15.711a43.833,43.833,0,0,1-8.859,4.466,31.405,31.405,0,0,1,1.907-2.539c12.887-14.061,25.492-28.395,38.771-42.076,14.941-15.394,30.328-30.367,45.85-45.18,7.648-7.3,15.874-14.026,24.142-20.633,6.116-4.887,12.74-9.137,19.084-13.745a10.046,10.046,0,0,0,1.778-2.383c-.971-.648-1.865-1.658-2.926-1.882-4.994-1.054-10.034-1.877-15.054-2.812a4.45,4.45,0,0,0-5.273,2.517c-6.221,12.068-14.926,22.3-24.115,32.112A416.112,416.112,0,0,1,5108.7,1799.4c-7.111,5.807-14.111,11.774-21.481,17.238-10.062,7.459-20.36,14.608-30.69,21.7-6.912,4.743-14.027,9.193-21.107,13.687a63.524,63.524,0,0,1-9.266,4.858,36.694,36.694,0,0,1,2.309-2.905c9.4-9.707,18.723-19.485,28.272-29.038,5.611-5.615,11.573-10.882,17.41-16.268,9.085-8.381,18.1-16.843,27.327-25.061q13.644-12.148,27.684-23.849c7.6-6.309,15.4-12.389,23.308-18.3,4.5-3.365,9.405-6.193,14.133-9.257,1.7-1.1,3.454-2.125,5.086-3.319a2.124,2.124,0,0,0,.8-1.732,2.161,2.161,0,0,0-1.483-1.22c-5.457-1.013-10.931-1.946-16.405-2.865-2.743-.461-3.856,1.59-5.142,3.408-3.456,4.888-6.672,9.981-10.481,14.578a235.237,235.237,0,0,1-30.579,30.066c-11.237,9.394-22.549,18.739-34.295,27.475s-23.957,16.887-36.192,24.946c-10.31,6.79-20.911,13.14-31.461,19.558a74.809,74.809,0,0,1-11.461,5.585c1.06-1.179,2.03-2.455,3.192-3.522,8.841-8.121,17.642-16.291,26.61-24.27,7.915-7.041,15.974-13.924,24.071-20.755,10.8-9.107,21.6-18.207,32.574-27.1q12.224-9.9,24.906-19.24,12.13-8.944,24.7-17.286c5.558-3.7,11.456-6.894,17.144-10.407a11.292,11.292,0,0,0,2.137-2.385,9.442,9.442,0,0,0-2.713-1.457c-6.959-1.091-13.935-2.082-20.914-3.03-1.817-.247-3.6-.007-4.549,1.913-3.74,7.532-9.356,13.649-14.862,19.865a265.787,265.787,0,0,1-33.959,31.5c-13.672,10.868-27.88,21.089-42.184,31.123-10.753,7.543-21.912,14.528-33.1,21.415-7.5,4.619-15.379,8.631-23.088,12.916a9.565,9.565,0,0,1-2.434,1.07c.508-.564.975-1.172,1.527-1.686,8.528-7.929,16.967-15.959,25.632-23.736,9.321-8.366,18.742-16.629,28.33-24.686q15.617-13.123,31.641-25.761c8.986-7.12,17.956-14.3,27.378-20.82,9.841-6.805,20.229-12.815,30.329-19.252a30.183,30.183,0,0,0,3.765-3.371c-1.635-.637-3.223-1.611-4.914-1.852-6.449-.92-12.924-1.677-19.4-2.358-9.753-1.026-19.51-2.038-29.282-2.869-9.809-.834-19.632-1.516-29.458-2.122-9.667-.6-19.341-1.105-29.02-1.4a5.135,5.135,0,0,0-3.748,2.253c-8.147,13.781-19.093,25.191-30.673,35.987-8.715,8.123-17.615,16.105-26.975,23.462-12.617,9.919-25.633,19.349-38.713,28.657-8.845,6.293-18.021,12.129-27.19,17.949-5.012,3.181-10.315,5.905-15.486,8.835l-.529-.631c1.189-1.323,2.292-2.739,3.581-3.956,12.518-11.819,24.9-23.787,37.66-35.342,10.46-9.474,21.237-18.615,32.131-27.593,12.048-9.928,24.183-19.775,36.672-29.135,8.229-6.168,17.165-11.391,25.739-17.1a12.5,12.5,0,0,0,2.147-2.436,11.029,11.029,0,0,0-3.166-1.189c-6.687-.3-13.389-.318-20.069-.714-3.447-.2-4.715,1.989-6.249,4.336-3.074,4.7-5.98,9.58-9.561,13.881a264,264,0,0,1-32.923,32.573,530.213,530.213,0,0,1-52.412,39.092c-10.849,7.077-22.1,13.544-33.177,20.264a4.759,4.759,0,0,1-2.72.677,12.505,12.505,0,0,1,1.3-1.681c16.3-15.14,32.53-30.36,48.967-45.352,9-8.209,18.231-16.179,27.595-23.972,6.7-5.58,13.724-10.793,20.745-15.977,6.282-4.639,12.713-9.083,19.17-13.478,3.205-2.18,6.621-4.047,9.932-6.072a14.264,14.264,0,0,0,2.388-1.65,1.323,1.323,0,0,0-.823-2.449c-1.569-.19-3.159-.216-4.741-.3-.913-.047-1.826-.077-2.741-.115C4965.175,1707.708,4965.183,1707.469,4965.191,1707.231Z" transform="translate(-4700.191 -1550.63)" fill="#5dc185"/>
  <path id="Tracé_10" data-name="Tracé 10" d="M4569.334,1946.993c18.176-10.991,37.208-20.387,56.324-29.583,19.025-9.152,38.261-17.869,58.586-24.19a21.9,21.9,0,0,0-10.226-3.274c-8.241-.771-16.505-1.554-24.659-2.931q-16.41-2.771-32.655-6.5c-11.5-2.646-22.921-5.7-34.312-8.814-9.769-2.67-19.45-5.665-29.161-8.548-1.265-.375-2.472-.942-3.707-1.42l.158-.852c1.993-.059,3.994-.269,5.976-.149,8.713.527,17.463.794,26.122,1.818,13.907,1.644,27.815,3.458,41.607,5.862,11.8,2.057,23.554,4.706,34.712,9.23,7.417,3.008,14.955,6.011,21.755,10.142,4.737,2.878,9,4.783,14.527,2.757.092.238.182.476.273.714a9.219,9.219,0,0,1-1.479,2.134c-5.676,4.588-11.1,9.573-17.181,13.552-12.065,7.895-25.132,13.936-38.47,19.421a405.236,405.236,0,0,1-53.082,17.906c-4.269,1.1-8.568,2.08-12.836,3.179a10.9,10.9,0,0,0-2.114,1.062Z" transform="translate(-4532.077 -1728.02)" fill="#5dc185"/>
  <path id="Tracé_11" data-name="Tracé 11" d="M5916.754,2088.932c-.862,2.089-1.575,4.254-2.608,6.253-9.351,18.094-22.608,33.223-36.532,47.827a453.533,453.533,0,0,1-40.436,37.376c-10.148,8.34-20.717,16.173-31.179,24.126-3.5,2.66-7.239,5.007-10.893,7.463a24.3,24.3,0,0,1-2.405,1.264l-.411-.53c2.476-3.158,4.8-6.447,7.452-9.452,14.539-16.5,28.871-33.188,43.833-49.294,12.548-13.508,25.6-26.579,38.938-39.31,7.5-7.159,16.021-13.25,24.1-19.8,2.118-1.715,4.292-3.367,6.5-4.966a24.507,24.507,0,0,1,2.905-1.576Z" transform="translate(-5243.07 -1858.245)" fill="#5dc185"/>
  <path id="Tracé_12" data-name="Tracé 12" d="M5225.99,1943.712c-1.244,2.07-2.327,4.259-3.758,6.191-10.405,14.042-22.629,26.392-35.775,37.836-8.052,7.009-16.127,14.012-24.529,20.587-10.272,8.038-20.8,15.757-31.4,23.364q-12.366,8.875-25.188,17.111c-8.106,5.235-16.454,10.1-24.7,15.125l-.591-.713c.777-.866,1.5-1.787,2.342-2.589,10.074-9.635,20.067-19.359,30.286-28.839,6.918-6.418,14.1-12.558,21.269-18.7,13.392-11.467,26.689-23.053,40.356-34.184,9.149-7.451,18.75-14.372,28.376-21.21,6.868-4.879,14.113-9.23,21.2-13.806a12.763,12.763,0,0,1,1.38-.677Z" transform="translate(-4835.594 -1775.227)" fill="#5dc185"/>
  <path id="Tracé_13" data-name="Tracé 13" d="M5163.98,1936.909c-2.294,3.393-4.344,6.986-6.925,10.145a282.986,282.986,0,0,1-42.72,42.542c-7.451,5.941-14.687,12.155-22.209,18.005-6.41,4.986-13.017,9.729-19.665,14.4-8.372,5.88-16.756,11.759-25.354,17.3-8.083,5.2-16.448,9.97-24.7,14.912a2.3,2.3,0,0,1-1.855.158,23.971,23.971,0,0,1,1.8-2.2c7.045-6.813,13.984-13.742,21.207-20.362q15.716-14.4,31.782-28.427,15.344-13.439,30.989-26.532c7.654-6.377,15.392-12.688,23.446-18.541,8.408-6.111,17.233-11.648,25.892-17.413,1.979-1.317,4.006-2.565,6.044-3.791a10.19,10.19,0,0,1,1.818-.679C5163.684,1936.583,5163.832,1936.746,5163.98,1936.909Z" transform="translate(-4801.555 -1771.344)" fill="#5dc185"/>
  <path id="Tracé_14" data-name="Tracé 14" d="M5096.963,1931.511c-2.2,6.273-6.1,11.4-10.252,16.268-12.187,14.3-25.988,26.949-40.624,38.668-11.366,9.1-22.773,18.186-34.607,26.655-11.765,8.418-24.027,16.147-36.187,24a157.174,157.174,0,0,1-17.508,9.659,16.267,16.267,0,0,1,1.444-1.8c11.534-10.92,22.92-22.006,34.679-32.681,12.545-11.391,25.334-22.523,38.23-33.518q13.09-11.16,26.793-21.6c8.46-6.467,17.183-12.6,25.951-18.646C5088.7,1935.879,5092.924,1933.827,5096.963,1931.511Z" transform="translate(-4765.645 -1768.534)" fill="#5dc185"/>
  <path id="Tracé_15" data-name="Tracé 15" d="M5262.987,1724.26c-2.218-2.351-4.528-4.624-6.639-7.069-5.649-6.547-11.477-12.967-16.745-19.812-6.556-8.519-12.685-17.373-18.879-26.164-4.061-5.761-7.968-11.633-11.846-17.52-5.774-8.768-11.663-17.47-17.142-26.42-9.39-15.338-18.5-30.845-27.72-46.289-.48-.805-.839-1.684-1.254-2.53l.616-.505c1.689,1.738,3.423,3.438,5.063,5.222,6.745,7.343,13.7,14.508,20.135,22.119,9.225,10.921,18.188,22.071,27.021,33.313a400.122,400.122,0,0,1,27.21,39.4c7.339,12.069,14.248,24.368,18.992,37.74.922,2.6,1.518,5.315,2.264,7.976Z" transform="translate(-4882.914 -1566.261)" fill="#5dc185"/>
  <path id="Tracé_16" data-name="Tracé 16" d="M4951.744,1770.116l-5.6.086c2.045-2.834,1.925-2.662-.919-4.655-8.591-6.019-17.348-11.849-25.536-18.383-8.965-7.151-17.708-14.656-25.943-22.63-15.154-14.674-29.933-29.738-44.727-44.779-5.561-5.655-10.732-11.694-16.063-17.574a8.753,8.753,0,0,1-1.994-3.309,50.09,50.09,0,0,1,5.681,2.824c10.31,6.8,20.7,13.5,30.788,20.624a352.306,352.306,0,0,1,45.365,37.777,331.712,331.712,0,0,1,24.448,27.124c4.479,5.564,7.41,12.365,11.131,18.554A44.611,44.611,0,0,0,4951.744,1770.116Z" transform="translate(-4693.086 -1612.556)" fill="#5dc185"/>
  <path id="Tracé_17" data-name="Tracé 17" d="M4666.794,1744.856c2.62.637,5.311,1.074,7.85,1.948,10.016,3.445,20.194,6.531,29.923,10.669,15.991,6.8,31.9,13.88,47.43,21.659a205.989,205.989,0,0,1,40.759,26.548,76.543,76.543,0,0,1,13.373,14.478c-.136.241-.271.481-.407.722-15.963-7-32.223-13.4-47.809-21.159-15.864-7.9-31.128-17.016-46.539-25.8a516.164,516.164,0,0,1-44.876-28.336Q4666.645,1745.219,4666.794,1744.856Z" transform="translate(-4598.997 -1661.748)" fill="#5dc185"/>
  <path id="Tracé_18" data-name="Tracé 18" d="M4876.052,1791.891c-4.261-2.024-8.551-3.991-12.778-6.084-16.4-8.119-31.5-18.338-46.324-28.96-10.4-7.45-20.785-14.939-30.932-22.728-10.289-7.9-20.282-16.182-30.4-24.306q-3.612-2.9-7.167-5.866a24.248,24.248,0,0,1-1.745-1.771l.337-.572a36.577,36.577,0,0,1,3.54,1.286c10.819,5.186,21.76,10.141,32.395,15.681A358.779,358.779,0,0,1,4832.7,1749.3c10.291,7.716,20.234,15.969,29.729,24.642,5.207,4.755,9.164,10.878,13.671,16.4a3.507,3.507,0,0,1,.381.927C4876.337,1791.471,4876.2,1791.681,4876.052,1791.891Z" transform="translate(-4644.888 -1637.003)" fill="#5dc185"/>
  <path id="Tracé_19" data-name="Tracé 19" d="M4921.013,1917.682c-4.816,13.006-13.653,22.706-22.959,32.043-14.316,14.362-30.174,26.867-46.622,38.67a426.484,426.484,0,0,1-49.78,31.067,16.841,16.841,0,0,1-1.944.733c3.394-3.777,6.472-7.6,9.959-11q10.135-9.888,20.656-19.377c9.375-8.447,18.77-16.886,28.435-25,11.214-9.41,22.5-18.768,34.2-27.555,7.432-5.581,15.707-10.031,23.519-15.119,1.177-.766,1.838-2.292,2.837-3.376A7.719,7.719,0,0,1,4921.013,1917.682Z" transform="translate(-4675.207 -1760.623)" fill="#5dc185"/>
  <path id="Tracé_20" data-name="Tracé 20" d="M6107.154,2158.086a70.314,70.314,0,0,1-2.936,7.414c-7.16,13.569-17.18,24.915-27.74,35.905a319.022,319.022,0,0,1-31.134,27.892c-8.605,6.879-17.68,13.181-26.669,19.567-3.762,2.672-7.839,4.9-11.773,7.331l-.508-.521c1.748-2.24,3.4-4.564,5.259-6.706,9.089-10.463,17.978-21.116,27.424-31.247,11.192-12,22.5-23.95,34.488-35.146,8.334-7.787,17.866-14.294,26.917-21.306,1.829-1.418,3.895-2.532,5.852-3.787Z" transform="translate(-5365.561 -1897.815)" fill="#5dc185"/>
  <path id="Tracé_21" data-name="Tracé 21" d="M4650.993,2005.858c42.146-29.584,84.535-58.767,132.45-79.247a17.471,17.471,0,0,1-2.033,3.146c-4.856,4.862-9.519,9.971-14.763,14.381-17.378,14.616-36.8,26.155-57,36.343-15.106,7.621-30.515,14.648-45.868,21.77-3.961,1.838-8.22,3.037-12.342,4.53Z" transform="translate(-4590.127 -1765.731)" fill="#5dc185"/>
  <path id="Tracé_22" data-name="Tracé 22" d="M4732.864,2012.532c5.762-5.05,11.434-10.207,17.307-15.125,9.807-8.214,19.641-16.4,29.656-24.362,7.939-6.309,16.1-12.343,24.283-18.34,7.956-5.834,15.894-11.721,24.15-17.111,6.846-4.47,14.168-8.206,21.217-12.372a41.313,41.313,0,0,0,3.938-3.274,13.2,13.2,0,0,1,2.084-1.105l.714.882c-2.584,3.63-4.913,7.478-7.8,10.849-9.4,10.983-20.249,20.449-31.722,29.19-6.948,5.293-13.9,10.622-21.186,15.423-10.977,7.23-22.177,14.128-33.42,20.94-6.632,4.018-13.489,7.677-20.33,11.336-2.693,1.44-5.622,2.443-8.442,3.646Z" transform="translate(-4636.967 -1762.431)" fill="#5dc185"/>
  <path id="Tracé_23" data-name="Tracé 23" d="M4752.133,1854.783c-44.946-10.864-85.607-30.615-125.929-51.192a2.475,2.475,0,0,1-1.136-1.663c1.851.229,3.728.336,5.552.706a424.447,424.447,0,0,1,49.5,13.5,287.715,287.715,0,0,1,46.016,19.4c7.418,4,14.245,9.126,21.188,13.96C4749.145,1850.757,4750.4,1852.836,4752.133,1854.783Z" transform="translate(-4575.295 -1694.399)" fill="#5dc185"/>
  <path id="Tracé_24" data-name="Tracé 24" d="M4508.748,1951.974c6.186-1.329,12.337-2.847,18.563-3.945,12.162-2.145,24.36-4.083,36.551-6.056a468.853,468.853,0,0,1,54.143-5.964c7.733-.343,15.5.152,23.257.294a21.016,21.016,0,0,1,2.514.341q.165.466.332.932a88.219,88.219,0,0,1-8.218,4.073c-19.43,7.315-39.748,10.25-60.316,11.538q-19.8,1.239-39.663,1.341c-8.263.056-16.535-.835-24.8-1.34a12.357,12.357,0,0,1-2.277-.574Z" transform="translate(-4508.748 -1771.04)" fill="#5dc185"/>
</svg>
