<svg id="set_of_leaves_right" xmlns="http://www.w3.org/2000/svg" width="191.61" height="173.967" viewBox="0 0 191.61 173.967" fill="#BDD9BE" opacity="0.7">
  <path id="Tracé_25" data-name="Tracé 25" d="M182.754,111.787a1.2,1.2,0,0,1-.725.608c-1.619.7-3.209,1.467-4.826,2.153a18.361,18.361,0,0,1-2.731,1.3c-.542.132-.749.774-1.29.991a11.879,11.879,0,0,1-1.134.56c-.153.044-.4.074-.3.324.064.162.252.114.4.065,1.621-.553,3.234-1.132,4.866-1.651,1.788-.569,3.526-1.3,5.382-1.76-.051.394-.329.481-.58.56-2.442.769-4.786,1.824-7.217,2.6a15.231,15.231,0,0,0-3.758,1.929c-.132.087-.4.113-.29.351.091.2.309.091.473.062a8.94,8.94,0,0,0,2.37-.658,15.473,15.473,0,0,1,3.346-.707c1.139-.268,2.258-.6,3.39-.888,1.073-.271,2.162-.482,3.243-.719l.078.232a11.2,11.2,0,0,1-1.462.369,12.838,12.838,0,0,0-3.148.854,14.721,14.721,0,0,1-1.434.393c-2.778.779-5.557,1.557-8.346,2.294a10.268,10.268,0,0,0-2.133.646c-.306.157-.629.309-.5.714.133.431.484.238.756.162a24.073,24.073,0,0,1,2.892-.284c3.084-.473,6.22-.526,9.287-1.146a4.266,4.266,0,0,1,1.511-.048c-1.615.44-3.111.557-4.578.829-3.767.7-7.6,1.021-11.318,2.009a1.186,1.186,0,0,0-.287.077c-.279.16-.7.347-.647.646.062.335.512.191.788.179,3.971-.167,7.942-.35,11.912-.526,2.755-.122,5.511-.238,8.448-.365a12.6,12.6,0,0,1-4.048.457c-.53,0-1.039.091-1.556.133-3.372.273-6.739.683-10.116.815-2.538.1-5.03.652-7.587.573a15.537,15.537,0,0,0-3.455.544,1.453,1.453,0,0,1-1.145-.02.331.331,0,0,0-.514.122c-.134.311.145.363.338.469a5.5,5.5,0,0,0,1.881.28,26.147,26.147,0,0,0,5.2.058c3.929-.1,7.855-.362,11.783-.535q3.059-.135,6.122-.186a15.647,15.647,0,0,1,3.251-.075,22.423,22.423,0,0,1-3.787.5c-3.453.2-6.906.4-10.351.712a40.941,40.941,0,0,0-5.133.384,6.5,6.5,0,0,1-2.363.138,4.7,4.7,0,0,0-2.069.441c-.972.3-1.941.843-3.061.552-.274-.071-.982-.066-.947.294.049.507.669.389,1.066.327a26.843,26.843,0,0,1,3.657-.085c3.636-.062,7.274-.069,10.908-.2,1.543-.056,3.086-.08,4.629-.112a1.577,1.577,0,0,1,.878.111,1.666,1.666,0,0,1-1.1.491,73.261,73.261,0,0,1-11.067.772c-2.684.1-5.366.287-8.048.441-.208.012-.551-.066-.55.224s.342.218.551.221c3.288.046,6.572-.123,9.856-.233.945-.032,1.891-.031,2.837-.047,3.062-.054,6.123-.106,9.181-.288a.626.626,0,0,1,.363.1,9.343,9.343,0,0,1-2.719.442c-3.288.044-6.567.322-9.852.379-1.917.033-3.817.365-5.74.24a6.934,6.934,0,0,0-2.059.33,1.119,1.119,0,0,1-.73.036c-.4-.169-.735-.326-.605.4.059.331-.293.31-.48.172-.3-.216-.516-.112-.816,0a4.069,4.069,0,0,1-1.923.089,7.805,7.805,0,0,0-2.075.135c-.219.034-.6.065-.544.383s.44.291.7.268c1.989-.182,3.975.065,5.963.032,2.662-.043,5.326-.052,7.987.005,4.851.1,9.7.13,14.553.148a.865.865,0,0,1,.675.2,15.179,15.179,0,0,1-2.151.186c-2.217-.128-4.426.077-6.639.088-2.61.013-5.221.035-7.83.088q-2.949.06-5.9.079c-1.591.007-3.18.174-4.771.08a7.75,7.75,0,0,0-2.377.182,1.039,1.039,0,0,1-.512.056,3.507,3.507,0,0,0-2.478.11,20.387,20.387,0,0,1-3.616.857c-.212.051-.531.1-.485.369.062.363.4.213.617.161a9.222,9.222,0,0,1,2.523.084c1.94.072,3.881,0,5.824.12,2.032.124,4.078,0,6.115.07,3.387.113,6.778.035,10.159.179,2.163.092,4.334-.065,6.49.221.493.065,1,.01,1.515.11a8.857,8.857,0,0,1-1.436.179c-3.58-.125-7.159.027-10.738.021-3.932-.007-7.864,0-11.8.066q-3.951.066-7.907.112a32.469,32.469,0,0,0-6.025.227c-.73.146-1.527-.211-2.258.2-.147.082-.368.077-.34.32a.329.329,0,0,0,.387.281,2.544,2.544,0,0,1,1.941.549.216.216,0,0,0,.144.034,47.434,47.434,0,0,1,6.136.309c1.9.067,3.825.062,5.726.269,1.092.119,2.194.153,3.278.165,3.613.04,7.216.288,10.824.4,4,.121,8,.361,12.005.55.4.019.809.046,1.213.069l0,.234c-.431,0-.863.006-1.294,0-2.833-.043-5.668-.036-8.5-.149-2.861-.113-5.722-.088-8.582-.154-2.833-.065-5.664-.128-8.5-.145-2.183-.013-4.366-.114-6.549-.175a5.072,5.072,0,0,0-1.337.106,1.027,1.027,0,0,1-.655.029,2.274,2.274,0,0,0-2.148.186,5.23,5.23,0,0,1-2.7.233,4.339,4.339,0,0,0-1.337-.009c-.173.035-.36.113-.324.338.029.18.207.2.357.2,2.364.065,4.693.506,7.055.638,3.253.183,6.5.533,9.746.8,2.356.191,4.715.347,7.071.54,2.578.21,5.154.449,7.731.667,1.612.137,3.225.259,4.837.39.764.062,1.527.127,2.424.2a.9.9,0,0,1-.793.215c-2.476-.178-4.951-.377-7.428-.549-1.811-.126-3.625-.217-5.437-.328-2.755-.17-5.507-.385-8.264-.5-1.906-.081-3.8-.3-5.713-.341-2.653-.053-5.3-.388-7.954-.471a55.024,55.024,0,0,0-6.1-.225c-.641.051-1.275-.3-1.923-.092-.328.1-.873.064-.775.606a.813.813,0,0,0,1.016.657c.316-.063.513-.057.687.236a.671.671,0,0,0,.351.255,39.886,39.886,0,0,0,7.363,1.39c2.094.268,4.192.5,6.277.833,1.4.225,2.808.359,4.211.539q3.179.408,6.358.823,3.071.4,6.142.8,3.809.5,7.618.986c2.713.35,5.428.686,8.139,1.05,1.824.245,3.642.532,5.464.793.465.066.933.1,1.463.163-.168.287-.41.215-.593.2-1.433-.139-2.865-.295-4.3-.445-2.35-.247-4.7-.484-7.05-.746-2.05-.229-4.1-.494-6.144-.732-2-.233-3.995-.452-5.992-.679-2.4-.272-4.789-.559-7.185-.815-1.483-.159-2.972-.25-4.454-.413-1.577-.173-3.146-.417-4.723-.59-1.531-.168-3.067-.283-4.6-.426-1.632-.153-3.263-.314-4.894-.469-.965-.092-1.93-.176-2.894-.273-1.127-.114-2.253-.227-3.378-.36-.994-.118-1.588.614-2.289,1.1-.228.156.008.276.19.327,1.617.445,3.159,1.137,4.813,1.464,1.993.394,3.981.813,5.972,1.22q3.03.619,6.061,1.236,5.253,1.077,10.5,2.159,7.38,1.536,14.757,3.092c2.578.539,5.169,1.018,7.733,1.619a23.682,23.682,0,0,1,3.843.944,4.7,4.7,0,0,1-1.893-.174c-1.9-.336-3.805-.689-5.71-1.023-2.641-.464-5.263-1.035-7.9-1.543-1.754-.339-3.516-.635-5.27-.974-1.607-.31-3.2-.665-4.811-.974-1.119-.216-2.249-.375-3.37-.582-2.244-.414-4.478-.894-6.731-1.25s-4.48-.868-6.739-1.205c-1.643-.245-3.282-.564-4.921-.859-2.073-.372-4.136-.807-6.239-.972-.558-.044-.955.442-1.533.473-.487.026-.932.434-1.493.3a.323.323,0,0,0-.356.317c-.016.177.132.249.273.313a29.436,29.436,0,0,0,3.819,1.191c1.45.435,2.921.767,4.385,1.13,2.361.584,4.734,1.118,7.1,1.693,2.219.54,4.43,1.116,6.649,1.654,1.953.474,3.916.909,5.871,1.377,1.763.422,3.521.869,5.281,1.3,4.111,1.008,8.225,2,12.334,3.022,2.7.67,5.392,1.386,8.093,2.059,2.239.558,4.486,1.079,6.727,1.627a5.281,5.281,0,0,1,1.171.449,6.069,6.069,0,0,1-2.341-.309c-2-.38-3.988-.823-5.977-1.255-1.551-.337-3.1-.7-4.645-1.045-1.573-.351-3.149-.691-4.722-1.042-1.454-.325-2.9-.667-4.36-.987-2.522-.554-5.051-1.08-7.57-1.648-2.371-.535-4.73-1.121-7.1-1.661-1.937-.442-3.882-.85-5.825-1.271-2.107-.457-4.212-.925-6.323-1.363-2.091-.434-4.19-.828-6.282-1.255-1.579-.323-3.143-.736-4.732-.985a35.3,35.3,0,0,1-3.543-.649c-1.128-.3-1.81.493-2.737.509a.455.455,0,0,0-.4.481c-.006.257.2.3.4.375a115.653,115.653,0,0,0,11.458,3.322c1.532.424,3.064.85,4.6,1.256,2.573.68,5.151,1.339,7.725,2.017,2.592.683,5.18,1.384,7.773,2.067,3.008.792,6.023,1.557,9.029,2.359,3.336.891,6.664,1.815,10,2.715,2.135.576,4.277,1.125,6.41,1.707,1.935.528,3.863,1.085,5.793,1.63l-.045.23c-.6-.12-1.2-.227-1.8-.361-1.6-.359-3.193-.717-4.785-1.1-1.929-.46-3.852-.946-5.78-1.41-1.833-.441-3.67-.863-5.5-1.3-1.954-.47-3.9-.96-5.858-1.426-2.316-.551-4.638-1.079-6.954-1.629-1.833-.435-3.66-.9-5.493-1.334-1.954-.465-3.912-.907-5.866-1.371-1.93-.458-3.855-.939-5.786-1.394-1.474-.348-2.955-.662-4.429-1.009-1.492-.351-2.974-.749-4.471-1.077a18.145,18.145,0,0,0-3.115-.638,1.96,1.96,0,0,1-.637-.192c-.245-.095-.584-.136-.7.07-.577,1.017-1.335.378-1.94.174a29,29,0,0,0-4.584-1.267c-.5-.08-1.026.125-1.5-.253-.142-.114-.383.091-.46.286-.1.258.113.349.293.441a23.435,23.435,0,0,0,3.891,1.52c2.039.626,4.091,1.207,6.134,1.822,2.332.7,4.658,1.422,6.988,2.131,2.256.686,4.512,1.383,6.777,2.029,2.1.6,4.183,1.279,6.3,1.839,2.156.571,4.274,1.291,6.409,1.942q4.246,1.3,8.494,2.585l6.7,2.041c.14.043.3.048.395.331a4.13,4.13,0,0,1-2.086.023c-1.689-.393-3.358-.877-5.033-1.333-3.69-1-7.38-2-11.065-3.025-2.487-.689-4.959-1.431-7.448-2.115-2.2-.6-4.411-1.153-6.614-1.742-2.11-.564-4.21-1.161-6.321-1.72-2.519-.668-5.046-1.3-7.566-1.97-2.159-.57-4.311-1.162-6.468-1.741q-3.379-.906-6.76-1.8c-.959-.255-1.914-.535-2.884-.741-.379-.081-.992-.305-1.132.144-.134.432.457.593.832.8.482.259,1.183.133,1.439.808a.209.209,0,0,0,.186.087c.9-.395,1.548.406,2.364.5a1.926,1.926,0,0,0-1.282.549c-.14.122-.45.072-.442.331a.623.623,0,0,0,.485.524c.666.221,1.267.59,1.911.844,2.682,1.058,5.386,2.061,8.076,3.1,2.251.869,4.5,1.752,6.765,2.575,3.949,1.435,7.842,3.02,11.8,4.43.939.334,1.865.7,2.8,1.059a.628.628,0,0,1,.47.5c-1.7-.047-3.347.209-5-.425-2.579-.987-5.21-1.833-7.819-2.739-3.56-1.237-7.117-2.483-10.682-3.706-.7-.24-1.427-.39-2.141-.585-.154-.042-.319-.063-.4.084-.117.2.02.325.189.416.126.068.3.076.341.275-.143.279-.325.092-.491.026-2.6-1.022-5.2-2.033-7.787-3.073a18.927,18.927,0,0,0-3.26-.761c-.3-.062-.628-.106-.731.3a.607.607,0,0,0,.38.73c1.384.749,2.873,1.247,4.313,1.86,1.648.7,3.331,1.316,5.006,1.95,2.833,1.071,5.674,2.123,8.508,3.192,1.816.685,3.625,1.387,5.436,2.084a1.392,1.392,0,0,1,.234.147c-.031.078-.045.159-.065.16a10.268,10.268,0,0,1-4.773-.407c-1.727-.7-3.5-1.279-5.257-1.9-1.849-.656-3.7-1.316-5.555-1.947-2.591-.879-5.191-1.73-7.785-2.6-2.19-.731-4.373-1.481-6.567-2.2-1.742-.57-3.5-1.106-5.245-1.654a.482.482,0,0,0-.641.231c-.133.279.137.366.28.532.572.661,1.534.715,2.086,1.4a.263.263,0,0,0,.343.032c.183-.09.362-.4.565-.134.137.18-.134.345-.224.515a1.264,1.264,0,0,0,.829,1.713q3.386,1.488,6.8,2.912c2.522,1.057,5.056,2.086,7.582,3.132a2.367,2.367,0,0,1,.367.237c-.037.072-.056.146-.078.147a11.6,11.6,0,0,1-5.079-.437c-3.169-1.248-6.339-2.5-9.587-3.532-.258-.082-.557-.31-.732,0-.216.39.259.384.426.557a1.408,1.408,0,0,1,.134.211c-.3.17-.552,0-.777-.1-1.385-.622-2.759-1.269-4.143-1.894a21.369,21.369,0,0,1-2.521-.924c-.236-.144-.437.026-.517.272a1.061,1.061,0,0,1-.283.509c-.381.349-.138.563.207.722,1.784.821,3.562,1.653,5.354,2.456,1.27.569,2.556,1.1,3.837,1.641.2.084.52.089.477.375s-.361.183-.568.208a14.28,14.28,0,0,1-7.642-1.555,17.868,17.868,0,0,0-3.484-1.291c-.181-.039-.4-.214-.543.013s.156.266.234.4c.045.08.1.2.065.271-.067.143-.216.1-.326.046-.544-.25-1.1-.479-1.62-.771a14.4,14.4,0,0,0-2.252-1,1.434,1.434,0,0,0-1.594.829c-.129.509.374.74.712.936.922.536,1.881,1.007,2.827,1.5a1.2,1.2,0,0,1,.59.425c-.2.273-.472.185-.7.187-1.346.012-2.692,0-4.037.009a5,5,0,0,1-2.114-.67,6.557,6.557,0,0,0-.683-.3c-.283-.093-.634-.211-.814.108-.208.369.309.357.426.628a.92.92,0,0,1-.954-.166q-1.14-.786-2.329-1.5c-.414-.248-.846-.363-.815.4.008.2-.049.363-.245.416-.373.1-.461.27-.307.656.129.325-.214.371-.411.379a28.473,28.473,0,0,1-4.924-.049,6.921,6.921,0,0,1-1.822-.84c-.315-.149-.636-.286-.954-.428-.375-.168-.772.013-.794.316-.091,1.267-1,.867-1.675.9-1.466.069-2.931.153-4.4.175a4.43,4.43,0,0,1-2.719-.813c-.881-.611-1.821-1.136-2.724-1.717a3.635,3.635,0,0,0-1.366-.329.343.343,0,0,0-.41.251.576.576,0,0,0,.184.618c.426.386.87.751,1.309,1.122.187.159.377.314.6.5-.279.3-.591.189-.864.206-4.032.251-8.066-.007-12.1.044-2.39.031-4.78.088-7.171.1a1.065,1.065,0,0,1-1.073-.582c-.386-.637-.861-1.343-1.814-1.206-.242.035-.531-.03-.669.235-.149.287.021.53.184.759.112.157.37.274.289.489-.1.263-.387.169-.6.173q-3.436.073-6.872.131a3.169,3.169,0,0,1-1.814-.319.6.6,0,0,0-.5-.051,4.5,4.5,0,0,1-2.2.246c-2.315.052-4.636.2-6.946.095-3.017-.132-6.025.117-9.037.015-.917-.031-1.131-.305-.961-1.163.024-.119,0-.285.194-.221.623.212.576-.261.624-.62a12.762,12.762,0,0,1,.4-2.528.952.952,0,0,1,1.189-.745,11.033,11.033,0,0,1,5.051,2.27c.2.159.377.35.658.267.3-.09.331-.361.323-.613a5.177,5.177,0,0,1,.371-1.533,1.417,1.417,0,0,1,1.757-.911,16.808,16.808,0,0,1,4.387,1.637,2.905,2.905,0,0,1,.593.451,2.2,2.2,0,0,0,2.54.557.535.535,0,0,0,.328-.672,7.76,7.76,0,0,1,.094-1.881,1,1,0,0,1,1.089-1.01,6.389,6.389,0,0,1,2.607.551,6.341,6.341,0,0,0,.969.357,3.076,3.076,0,0,1,1.642.975,5.464,5.464,0,0,0,1.447,1.184c.845.518,1.521.151,1.451-.819a11.787,11.787,0,0,1,.158-3.676c.11-.454-.266-.4-.525-.4a25.263,25.263,0,0,0-3.478.469c-3.082.422-6.179.709-9.268,1.065-3.19.368-6.395.559-9.586.911-1.483.163-2.978.215-4.467.327-.395.03-.61-.073-.595-.53.03-.881.021-1.763.04-2.645,0-.143.026-.376.108-.412.794-.358.509-.738.077-1.183-.289-.3-.184-.719-.185-1.088q-.017-10.734-.018-21.469c0-3.729.01-7.458.009-11.188,0-.518-.037-1.017.656-1.141.171-.031.307-.245.463-.37.907-.733.89-.949-.078-1.544-.266-.164-.411-.12-.521.147-.15.363-.292.729-.514,1.286V44.84l.124-.059c.321.533.657,1.059.96,1.6,1.389,2.482,2.841,4.932,4.12,7.471a16.906,16.906,0,0,1,1.823,3.84c.038.172.153.341.369.291.179-.041.185-.218.191-.369a2.053,2.053,0,0,0-.2-.954,58.547,58.547,0,0,1-2.346-5.781C1.576,48.6.771,46.335-.2,44.139c-.452-1.028-.538-2.2-1.24-3.122a.67.67,0,0,1,.009-.82c.3.777,1.092,1.089,1.413,1.851.155.367.384.741.561,1.123.095.2.231.448.492.375s.123-.338.118-.522a2.542,2.542,0,0,0-.485-1.476,9.581,9.581,0,0,1-.793-2.1A14.347,14.347,0,0,1-1.358,36.07c-.039-.263-.12-.621.193-.74s.372.248.5.444c1.263,1.9,2.183,4,3.374,5.933.9,1.465,1.648,3.015,2.569,4.469a37.545,37.545,0,0,1,1.8,3.525,42.789,42.789,0,0,1,1.932,4.063c.363.985,1.176,1.756,1.249,2.858.01.143.052.335.251.3s.181-.227.162-.371a2.525,2.525,0,0,0-.158-.811c-.627-1.236-.833-2.615-1.333-3.893a12.065,12.065,0,0,1-.4-1.453,34.663,34.663,0,0,0-1.308-4.05c-.408-1.051-.784-2.125-1.107-3.2-.812-2.705-2.078-5.214-3.13-7.814-.329-.814-.687-1.616-1.019-2.429a1.232,1.232,0,0,1-.1-.969c.507.068.218.688.581.837a.366.366,0,0,0,.13-.05c.168-.163-.1-.584.294-.589.266,0,.4.268.555.464a.682.682,0,0,1,.1.2,40.27,40.27,0,0,0,3.42,6.589c.943,1.7,1.7,3.5,2.549,5.252a19.934,19.934,0,0,0,1.235,2.477,4.635,4.635,0,0,1,.35,1.065c.058.168.161.338.378.284.178-.045.182-.222.186-.373a3.163,3.163,0,0,0-.282-1.395,39.158,39.158,0,0,1-1.647-5.477c-.278-.989-.689-1.935-1.036-2.9-.46-1.275-.88-2.568-1.3-3.854-.562-1.739-1.232-3.441-1.63-5.248-.254-1.155.268-2.341-.416-3.416,2,1.825,2.974,4.271,4.234,6.529q.93,1.666,1.819,3.355c.15.285.2.621.328.92.079.187.228.359.465.28.211-.07.2-.278.169-.45a10.046,10.046,0,0,0-.246-1.259c-1-3.318-1.723-6.714-2.827-10-.289-.861-.295-1.785-.686-2.766a1.132,1.132,0,0,1,.807.809c.653,1.517,1.2,3.085,1.926,4.564.739,1.506,1.318,3.079,1.995,4.608a25.177,25.177,0,0,1,1.209,3.067c.258.88.665,1.722,1.01,2.572.955,2.355,1.665,4.793,2.482,7.191.809,2.375,1.62,4.751,2.4,7.136.524,1.6,1.294,3.1,1.73,4.729a1.641,1.641,0,0,0,.243.366,1.483,1.483,0,0,0,.049-1.333c-.731-2.348-1.527-4.677-2.208-7.039-.557-1.93-1.169-3.84-1.812-5.74-.851-2.514-1.784-5-2.647-7.511-.7-2.038-1.355-4.092-2.017-6.143-.414-1.283-.826-2.575-1.261-3.854a22.812,22.812,0,0,1-1.3-4.141.951.951,0,0,1,.1-.783.238.238,0,0,1,.285.2c.416,1.506,1.4,2.762,1.828,4.262a.665.665,0,0,0,.13.27c.231.246.438.745.759.6.346-.153-.082-.506-.123-.78-.3-2.04-1.127-3.969-1.247-6.049-.007-.116-.069-.244.123-.4.364,1.06.8,2.061,1.2,3.074.486,1.23,1.016,2.436,1.535,3.649a14.877,14.877,0,0,0,1.108,2.594c.11.163.16.435.4.34.274-.106.193-.394.114-.593-.987-2.5-1.665-5.118-2.626-7.623-.6-1.556-.766-3.239-1.536-4.725a.365.365,0,0,1-.04-.145c-.018-.362-.278-.9.077-1.037.373-.148.329.448.474.7,1.151,1.992,2.019,4.129,3.068,6.173.67,1.305,1.275,2.645,1.908,3.963a13.215,13.215,0,0,1,1.145,2.756c.168.743.8,1.278.921,2.048a.16.16,0,0,0,.226.125.262.262,0,0,0,.126-.167,1.059,1.059,0,0,0,.02-.374c-.508-3.014-.525-6.079-1.547-9.048a97.114,97.114,0,0,1-2.734-9.33c-.161-.684-.414-1.345-.619-2.018a1.888,1.888,0,0,1,.021-1.313c.479,1.03.919,1.853,1.248,2.721A10.72,10.72,0,0,0,18.894,13a6.7,6.7,0,0,1,.514,1.25c.7,1.7,1.391,3.408,2.094,5.108.474,1.145.971,2.293,1.386,3.473.428,1.217.809,2.462,1.333,3.643a9.369,9.369,0,0,1,.515,1.561,36.672,36.672,0,0,1,1.224,3.938c.023.174.1.36.316.366.239.008.349-.18.416-.372A10.41,10.41,0,0,0,27,29.659a9.5,9.5,0,0,0-.6-3.7c-1.038-3.6-2.045-7.208-3.109-10.8-.814-2.749-1.67-5.485-2.261-8.3-.048-.227-.223-.468.03-.73a1.158,1.158,0,0,1,.531.767c.694,2.074,1.693,4.023,2.444,6.068.387,1.054.915,2.047,1.222,3.142a12.318,12.318,0,0,1,.9,2.683c.009.175.1.365.321.349.176-.013.2-.2.249-.338a6.363,6.363,0,0,0,.451-2.438c.336.059.262.284.251.417-.2,2.309.6,4.475.916,6.71a25.428,25.428,0,0,0,1.426,5.5c.1.254.139.619.465.609s.2-.4.294-.609c.721-1.682.1-3.346-.148-4.983-.924-6.151-1.947-12.287-2.927-18.43-.149-.935-.266-1.874-.331-2.828a2.722,2.722,0,0,1,.632,1.541c.357,1.308.545,2.665.946,3.957.547,1.767.834,3.6,1.409,5.359a37.264,37.264,0,0,1,.9,4.34,2.485,2.485,0,0,0,.047.448c.162.391.044,1.091.568,1.087.424,0,.589-.649.664-1.071.145-.814.183-1.648.269-2.473.012-.116-.006-.257.2-.321a4.4,4.4,0,0,1-.02,1.764,15.242,15.242,0,0,0-.32,5.182c.264,1.622.183,3.253.419,4.864a2.054,2.054,0,0,0,.074.37c.112.324.141.784.559.806.514.027.39-.482.475-.792a12.43,12.43,0,0,0,.334-4.032,23.893,23.893,0,0,1,.105-2.93c.16-2.337.081-4.678.178-7.015.057-1.362.089-2.75.017-4.132-.109-2.1-.029-4.212-.029-6.319l.3-.02c.065.738.18,1.476.187,2.215.032,3.376.007,6.753.055,10.129.054,3.776.166,7.552.132,11.329a2.139,2.139,0,0,0,.024.377c.029.172.053.381.289.367s.267-.218.271-.391c.016-.755.018-1.511.018-2.267a2.2,2.2,0,0,1,.264-1.31c.218-.321.07-.62-.04-.932a3.294,3.294,0,0,1-.341-1.456c.014-.127.056-.27.213-.237.066.014.138.139.154.224.052.27.057.551.124.817a.337.337,0,0,0,.382.287c.177-.028.228-.179.252-.332.263-1.637.554-3.271.771-4.914.082-.624.279-1.217.338-1.85s.242-1.234-.233-1.79c-.111-.13-.132-.452.016-.47.815-.1.34-.535.275-.9a5.759,5.759,0,0,1,.368-1.969c.323-2,1.19-3.875,1.386-5.917.112-1.169.387-2.322.623-3.678a9.269,9.269,0,0,1-.139,2.9C39.638,8.919,39,14.241,38.373,19.563q-.349,2.953-.7,5.906c-.025.212-.153.535.114.6.305.07.254-.291.311-.485a18.032,18.032,0,0,0,.593-2.943,1.207,1.207,0,0,1,.191-.559A13.563,13.563,0,0,0,40.766,17c.657-2.679,1.354-5.348,2.015-8.026.552-2.241,1.069-4.49,1.617-6.732a25.57,25.57,0,0,1,.747-2.488,5.314,5.314,0,0,1-.3,2.157c-.657,3.15-1.38,6.286-2.068,9.429-.59,2.7-1.03,5.443-1.778,8.1-.95,3.367-1.346,6.849-2.285,10.214a14.316,14.316,0,0,0-.577,2.4c-.02.2-.107.46.125.531.309.094.215-.253.31-.4.608-.923.505-2.094,1.01-3.042a19.442,19.442,0,0,0,1.81-7.092c.031-.263.067-.531.36-.6.5-.109.656-.512.818-.9,1.145-2.781,2.342-5.543,3.4-8.357.982-2.609,2.01-5.2,3.012-7.8.275-.715.583-1.416.9-2.186.177.31.013.527-.063.74-.611,1.7-1.219,3.406-1.852,5.1a15.029,15.029,0,0,1-.45,1.976.245.245,0,0,0,.147.366c.144.034.211-.093.27-.208.326-.633.653-1.265,1.069-2.069a2.155,2.155,0,0,1-.291,1.441C47.371,12.551,45.98,15.524,44.6,18.5c-.021.046-.05.088-.067.135-.065.179-.246.42-.005.527.256.114.3-.2.373-.367Q47.72,12.842,50.527,6.88c.352-.744.724-1.478,1.109-2.263.206.243.061.422-.007.576C50.016,8.846,48.358,12.48,46.8,16.158c-.414.979-1.078,1.916-.888,3.125.058.367-.291.8-.319,1.273,2.911-4.376,5.413-8.995,8.162-13.659a2.046,2.046,0,0,1-.426,1.275q-2.688,5.055-5.441,10.073c-1.035,1.9-2.1,3.774-3.148,5.661-.049.087-.144.19-.127.266a2.531,2.531,0,0,1-.146,1.67c2.883-3.366,5.348-7.013,8.137-10.626a1.123,1.123,0,0,1-.306.931c-2.036,2.891-4.087,5.771-6.125,8.66a24.289,24.289,0,0,0-1.647,2.7,1.948,1.948,0,0,0-.092,1.354C49.8,23.244,54.661,17.2,59.888,11.482a28.186,28.186,0,0,1-2.638,3.434c-2.7,3.331-5.418,6.641-8.126,9.961q-2.993,3.669-5.975,7.347a3.694,3.694,0,0,0-.688,1.412.4.4,0,0,0,.127.477c.194.128.312-.039.451-.145a28.312,28.312,0,0,0,3.785-3.848c2.124-2.368,4.194-4.785,6.287-7.181q3.808-4.358,7.617-8.715a28.5,28.5,0,0,1,2.62-2.725,8.422,8.422,0,0,1-.492.72,64.428,64.428,0,0,0-4.479,5.745c-1.147,1.726-2.579,3.257-3.861,4.893a24.124,24.124,0,0,0-2.354,3.194c-1.853,3.406-4.8,5.857-7.227,8.764a9.091,9.091,0,0,0-2.025,2.83c6.614-6.7,12.769-13.835,19.355-20.789a1.373,1.373,0,0,1-.476.8,4.46,4.46,0,0,0-1.325,2.214,1.523,1.523,0,0,1-.523.81c-2.831,3.046-5.482,6.255-8.252,9.356-2.137,2.392-4.193,4.853-6.255,7.309-.255.3-.827.817-.574.981.409.265.678-.4.961-.709,1.717-1.891,3.419-3.8,5.131-5.691,3.14-3.477,6.262-6.97,9.435-10.416a47.869,47.869,0,0,1,4.425-4.594c-.459.569-.9,1.155-1.381,1.705q-5.463,6.255-10.937,12.5a6.831,6.831,0,0,0-1.764,3.17,4.3,4.3,0,0,1-1.391,1.926A66.652,66.652,0,0,0,43.1,43.014c-.169.237-.4.447-.27.878,4.291-4.093,8.32-8.45,12.448-12.707,4.148-4.278,8.317-8.536,12.608-12.937a2.183,2.183,0,0,1-.852,1.2c-1.724,1.717-3.061,3.761-4.655,5.587s-3.253,3.61-4.813,5.471A11.627,11.627,0,0,0,55,34.165a5.29,5.29,0,0,1-1.372,1.667c-2.658,2.762-5.269,5.576-8.026,8.234-1.317,1.27-2.478,2.687-3.838,3.907-.311.279-.826.748-.564,1.018.34.35.7-.241.982-.506,6.573-6.209,12.743-12.83,19.15-19.208C63.619,27,65.885,24.691,68.163,22.4a1.307,1.307,0,0,1,.5-.341C62.708,28.51,56.884,35.079,50.766,41.377l.27.266q4.435-4.41,8.733-8.965l.19.178c-.222.244-.438.493-.667.73-1.942,2.02-3.858,4.065-5.674,6.2a6.854,6.854,0,0,0-1.283,1.932,2.768,2.768,0,0,1-.645.917c-2.953,2.926-5.926,5.833-8.878,8.76-.923.915-1.8,1.874-2.7,2.815a.3.3,0,0,0-.07.387c.424.018.695-.292.969-.556q3.6-3.463,7.185-6.939,5.957-5.781,11.907-11.57,4.854-4.706,9.727-9.393c.5-.481,1.015-.942,1.528-1.415.153.189.015.269-.06.346-1.248,1.267-2.461,2.574-3.763,3.783-1.22,1.133-2.125,2.521-3.217,3.755-2.758,3.116-5.678,6.077-8.537,9.1-1.527,1.612-3.339,3.014-4.433,4.969-1.413,2.525-3.858,3.91-5.8,5.851-2.014,2.017-4.347,3.692-6.186,5.9-.128.154-.46.278-.217.523.169.171.352-.066.506-.184,1.769-1.353,3.375-2.9,5.046-4.369,2.536-2.229,5.04-4.494,7.55-6.753,2.474-2.226,4.929-4.473,7.408-6.694q4.976-4.458,9.976-8.887a7.289,7.289,0,0,1,1.22-1.074c.126.209-.007.284-.085.362-1.893,1.889-3.456,4.091-5.478,5.86-.482.422-.684,1.215-1.548,1.073-.045-.007-.161.106-.153.128.349.925-.54,1.2-.94,1.633-1.714,1.857-3.512,3.636-5.293,5.428-1.394,1.4-2.828,2.765-4.2,4.186-.467.482-1.2.882-.865,1.813.08.226-.272.4-.457.552-1.948,1.607-3.918,3.187-5.858,4.8a73.449,73.449,0,0,0-5.928,5.155c-.122.126-.249.247-.365.379s-.25.285-.1.462.33.091.474-.007c.536-.366,1.086-.716,1.591-1.124,3.132-2.527,6.235-5.09,9.383-7.6,2.774-2.208,5.475-4.506,8.27-6.688,2.638-2.06,5.171-4.257,7.77-6.368q6.347-5.155,12.724-10.272A12.168,12.168,0,0,1,82.021,29.3c-.728.645-1.443,1.305-2.186,1.933-4.161,3.518-8.3,7.067-12.5,10.53S59.217,49.044,55.176,52.7c-3.281,2.972-6.514,6-9.772,9a1.337,1.337,0,0,0-.554.868,1.559,1.559,0,0,1-.927,1.351c-1.585.962-2.956,2.218-4.459,3.291a.428.428,0,0,0-.062.042c-.289.3-.764.723-.513,1.03s.67-.164,1-.373c1.493-.942,2.988-1.876,4.429-2.905,3-2.146,6.04-4.246,9.074-6.348,2.705-1.874,5.463-3.674,8.129-5.6,2.469-1.787,5-3.473,7.488-5.237,2.662-1.891,5.33-3.775,8.029-5.61,2.263-1.538,4.559-3.026,6.783-4.623a.351.351,0,0,1,.4-.048,7.587,7.587,0,0,1-1.823,1.488c-1.912,1.442-3.817,2.9-5.8,4.23-2.053,1.375-4.037,2.845-6.036,4.292A159.773,159.773,0,0,0,57.668,57.41c-1.861,1.659-3.86,3.16-5.739,4.8-.344.3-1.172.63-.551,1.426.138.178-.047.307-.205.408q-3.222,2.045-6.439,4.1c-1.277.819-2.561,1.63-3.8,2.505-.429.3-.908.5-1.342.794a4.441,4.441,0,0,0-1.389,1.3c.62.593,1.111.492,1.9.019,2.331-1.4,4.6-2.9,6.928-4.3,2.191-1.327,4.278-2.83,6.431-4.224,3.278-2.124,6.58-4.211,9.86-6.333,2.24-1.449,4.453-2.94,6.691-4.392,2.547-1.652,5.108-3.283,7.665-4.921q5.159-3.3,10.321-6.6c1.555-.989,3.13-1.945,4.7-2.911.049-.03.132,0,.292,0a22.97,22.97,0,0,1-2.924,2.159c-2.531,1.769-5.094,3.49-7.63,5.252-4.044,2.809-8.1,5.6-12.2,8.328-3.426,2.276-6.791,4.647-10.185,6.972-2.777,1.9-5.568,3.785-8.333,5.706C49,69.378,46.3,71.309,43.586,73.225c-.135.1-.389.186-.253.38.156.222.417.111.6-.021,1.808-1.283,3.773-2.313,5.587-3.592,3.324-2.342,6.7-4.613,10.04-6.925,2.3-1.588,4.573-3.205,6.868-4.8,2.354-1.631,4.722-3.244,7.08-4.868q1.261-.869,2.506-1.76a.876.876,0,0,1,.778-.224c-1.549,1.152-3.014,2.256-4.494,3.338q-2.563,1.875-5.149,3.716c-1.089.773-2.2,1.509-3.234,2.365-.131.109-.415.2-.331.349.523.919-.427,1.02-.777,1.257q-3.647,2.471-7.39,4.795c-1.9,1.183-3.741,2.468-5.673,3.585-2.452,1.417-4.834,2.948-7.264,4.4a44.05,44.05,0,0,0-6.082,4.1c-.168.143-.421.233-.325.52a.442.442,0,0,0,.243.258c.315.093.343-.189.445-.383.054-.1.154-.254.24-.259,1.628-.094,2.807-1.177,4.11-1.947,2.977-1.759,5.913-3.591,8.853-5.413,2.011-1.247,3.992-2.544,6-3.79,1.988-1.231,4.008-2.41,6-3.642,2.011-1.246,3.992-2.54,6-3.79,1.542-.96,3.108-1.881,4.66-2.825q2.485-1.512,4.963-3.035c2.124-1.3,4.243-2.615,6.368-3.915q2.484-1.519,4.98-3.018C90.683,47.035,92.433,46,94.209,45a6.731,6.731,0,0,1-1.853,1.46c-3.152,2.095-6.365,4.1-9.508,6.205C81.2,53.767,79.468,54.748,77.918,56c-1.962,1.584-4.162,2.8-6.253,4.188-1.888,1.252-3.767,2.518-5.659,3.764-2.146,1.413-4.307,2.8-6.453,4.216-2.288,1.508-4.562,3.037-6.846,4.55-2.057,1.363-4.121,2.714-6.176,4.079-.16.106-.523.165-.327.454.14.208.408.056.607-.062,1.924-1.14,3.865-2.251,5.768-3.427,1.631-1.008,3.212-2.1,4.826-3.134,1.845-1.185,3.706-2.343,5.55-3.529,1.59-1.023,3.16-2.079,4.75-3.1,1.527-.983,3.07-1.94,4.6-2.915,1.951-1.241,3.893-2.5,5.848-3.731,2.4-1.513,4.809-3.008,7.3-4.388-.6.474-1.168,1-1.806,1.413-2.8,1.822-5.487,3.81-8.324,5.577-1.538.958-2.953,2.118-4.5,3.058a4.191,4.191,0,0,0-1.473,1.605c-.345.591-1.035.785-1.587,1.087-2.466,1.35-4.856,2.828-7.288,4.235-3.189,1.845-6.318,3.79-9.481,5.679-2.26,1.35-4.61,2.544-6.878,3.881-1.861,1.1-3.772,2.1-5.651,3.167a24.376,24.376,0,0,0-3.822,2.542c-.207.175-.516.329-.29.659a.6.6,0,0,0,.868.14q3.984-2.257,7.963-4.524c2.621-1.485,5.253-2.949,7.867-4.446,1.814-1.039,3.6-2.126,5.408-3.174,1.72-1,3.455-1.966,5.18-2.955,1.946-1.115,3.883-2.245,5.832-3.354,2.25-1.28,4.512-2.538,6.762-3.818,1.859-1.058,3.7-2.144,5.564-3.2,2.209-1.252,4.429-2.482,6.643-3.724,1.5-.839,2.988-1.684,4.485-2.521,1.119-.626,2.242-1.244,3.4-1.8a9.375,9.375,0,0,1-2.1,1.529c-2.123,1.348-4.257,2.679-6.428,3.945-3.287,1.917-6.354,4.186-9.666,6.066-2.117,1.2-4.137,2.577-6.22,3.843-2.059,1.252-4.153,2.446-6.212,3.7-1.7,1.031-3.357,2.123-5.049,3.164-1.333.82-2.722,1.552-4.026,2.417-1.538,1.021-3.133,1.943-4.692,2.924-2.07,1.3-4.156,2.579-6.224,3.884-2.4,1.514-4.79,3.048-7.187,4.57-.944.6-1.9,1.185-2.839,1.786-.193.123-.556.233-.358.532.163.246.478.1.657-.083a8.315,8.315,0,0,1,2.324-1.139c1.431-.756,2.795-1.617,4.174-2.453,2.425-1.471,4.826-2.982,7.232-4.486,2-1.251,3.963-2.569,6-3.76s3.992-2.444,5.991-3.66c2.082-1.266,4.13-2.589,6.2-3.869,1.672-1.031,3.364-2.027,5.04-3.052,2.463-1.506,4.913-3.035,7.381-4.533q3.062-1.86,6.157-3.662c.435-.252.778-.713,1.374-.666-2.836,2.067-5.758,4-8.709,5.892q-4.494,2.881-8.962,5.8c-2.957,1.925-5.919,3.844-8.854,5.8-2.894,1.931-5.965,3.606-8.626,5.894.514.181.909-.275,1.428.08a14.341,14.341,0,0,1-1.33.764c-2.386,1.055-4.663,2.339-7.063,3.366-1.391.6-2.717,1.348-4.088,1.994-1.387.654-2.784,1.286-4.2,1.882-.555.234-1.02.609-1.564.867a16.323,16.323,0,0,0-3.44,1.891c-.213.173-.32.373-.162.573.261.331.344-.06.486-.177.212-.175.415-.359.625-.537.336-.284.659-.36.945.07a.452.452,0,0,0,.638.191c1.009-.466,2.045-.878,3.033-1.386,1.484-.764,3.016-1.417,4.532-2.11,1.221-.558,2.4-1.22,3.6-1.805,1.832-.887,3.681-1.741,5.515-2.623,1.748-.841,3.484-1.708,5.232-2.551,2.374-1.145,4.757-2.273,7.13-3.42,1.384-.669,2.752-1.371,4.135-2.041,1.229-.6,2.471-1.163,3.7-1.754,1.456-.7,2.9-1.416,4.363-2.109,1.28-.608,2.572-1.192,3.857-1.79,1.262-.588,2.525-1.175,3.782-1.773,1.345-.639,2.682-1.3,4.027-1.934q3-1.422,6.009-2.824c.352-.164.726-.28,1.089-.418l.087.168c-.42.257-.829.533-1.261.768-2.949,1.606-5.937,3.135-8.927,4.661-2.877,1.469-5.74,2.967-8.616,4.439-2.142,1.1-4.232,2.3-6.4,3.343-2.108,1.011-4.181,2.087-6.242,3.188-1.272.68-2.484,1.475-3.719,2.224-1.141.692-2.276,1.393-3.417,2.085-.13.079-.288.14-.3.308-.014.259.212.23.371.269.125.031.255.064.237.227a.26.26,0,0,1-.258.233c-.543-.088-.777.268-1.155.574a7.925,7.925,0,0,1-1.694.911c-1.5.677-2.945,1.449-4.424,2.16-1.437.69-2.9,1.326-4.328,2.037-.91.453-1.844.857-2.772,1.273-.26.116-.446.247-.29.564a1.893,1.893,0,0,1,.13.737c.029.448.24.471.6.294,2.523-1.231,5.031-2.494,7.584-3.663,2.349-1.076,4.641-2.28,6.973-3.4,1.861-.891,3.754-1.716,5.616-2.6,1.232-.588,2.427-1.256,3.656-1.85,1.3-.627,2.62-1.2,3.925-1.814,1.261-.592,2.509-1.212,3.768-1.807,1.979-.936,3.967-1.853,5.944-2.794,2-.952,3.986-1.933,5.986-2.885q2.495-1.188,5.007-2.339c1.651-.761,3.309-1.507,4.966-2.255a.66.66,0,0,1,.535-.021c-1.429.767-2.853,1.545-4.289,2.3q-2.641,1.385-5.3,2.734c-1.216.616-2.45,1.195-3.669,1.8-1.734.867-3.461,1.748-5.193,2.619q-1.731.87-3.47,1.725c-1.781.881-3.566,1.755-5.345,2.642-1.825.91-3.645,1.832-5.466,2.749-1.751.882-3.485,1.8-5.258,2.635-1.251.589-2.48,1.228-3.711,1.851a33.117,33.117,0,0,0-3.66,1.915c-.573.385-1.276.589-1.9.944-.847.483-1.781.809-2.59,1.38a9.657,9.657,0,0,1-1.6.763c-.7.322-1.212.972-2,1.109-.126.022-.246.091-.23.245s.164.165.283.194c.185.045.456,0,.474.266.021.312-.3.271-.482.37-.525.283-1.052.564-1.562.874-.241.146-.455.378-.274.688.155.266.4.113.6.027,1.094-.47,2.184-.95,3.277-1.421a41.278,41.278,0,0,1,4.81-2,2.634,2.634,0,0,0,1.654-1.393c.3-.491.6-.841,1.151-.279a.524.524,0,0,0,.633.049c1.374-.692,2.816-1.227,4.182-1.951,1.67-.885,3.421-1.613,5.132-2.42,1.781-.84,3.554-1.7,5.333-2.541,1.394-.663,2.79-1.321,4.184-1.983q2.962-1.408,5.924-2.82,1.888-.895,3.783-1.774,2.47-1.152,4.944-2.294a2.165,2.165,0,0,1,.874-.213,5.545,5.545,0,0,1-1.487.952c-2.516,1.3-5,2.672-7.54,3.933a9.742,9.742,0,0,0-3.007,1.882,4.464,4.464,0,0,1-1.7.93c-3.192,1.269-6.372,2.566-9.484,4.029-1.443.678-2.94,1.237-4.4,1.89-1.564.7-3.1,1.466-4.663,2.167-.655.294-1.31.584-1.96.891a1.981,1.981,0,0,0-1.215,1.32c-.058.214-.232.416-.043.63a.561.561,0,0,0,.7.066c.774-.331,1.541-.677,2.319-1,1.467-.613,2.882-1.354,4.333-2.007,2.884-1.3,5.765-2.6,8.671-3.846,2.08-.89,4.128-1.852,6.215-2.731q3.64-1.534,7.233-3.189c2.735-1.26,5.553-2.325,8.264-3.637a3.719,3.719,0,0,1,1.582-.347c-.715.368-1.427.742-2.146,1.1-2.02,1.01-4.055,2-6.1,2.947-2.39,1.109-4.621,2.52-7.065,3.529-2.477,1.023-4.851,2.3-7.273,3.464-1.144.549-2.294,1.085-3.443,1.623a1.2,1.2,0,0,0-.6.429c-.159.277-.4.6-.148.9.233.28.5,0,.738-.108,3.176-1.5,6.346-3.011,9.527-4.5,2.458-1.15,4.932-2.265,7.393-3.407,1.4-.649,2.784-1.328,4.181-1.982.419-.2.855-.353,1.33-.546-.011.371-.225.422-.389.508-2.268,1.19-4.527,2.4-6.812,3.556-1.683.853-3.41,1.616-5.1,2.458-1.753.875-3.438,1.906-5.241,2.651-.895.369-1.6,1.119-2.6,1.236-.114.013-.288.086-.315.171-.412,1.278-1.654,1.373-2.611,1.787a2.807,2.807,0,0,0-1.564,1.8c-.2.554.351.482.607.394.751-.259,1.475-.594,2.211-.9,1.908-.79,3.82-1.571,5.723-2.374,1.56-.658,3.1-1.364,4.664-2.012,2.346-.971,4.706-1.909,7.06-2.862q3.117-1.262,6.233-2.524c.108-.044.222-.135.4.03-.593.32-1.148.674-1.744.933-2.282.988-4.509,2.105-6.793,3.081-1.437.614-2.906,1.2-4.269,1.927-1.237.662-2.525,1.109-3.791,1.655-2.278.983-4.533,2.022-6.8,3.024-1.683.742-3.324,1.579-4.981,2.38a.64.64,0,0,0-.4.737c.136.55.587.142.935.258-.135.449-.327.823-.849.861a.624.624,0,0,0-.53.355c-.086.149-.224.314-.05.473s.329.022.447-.109c.186-.206.375-.32.652-.165a1.317,1.317,0,0,0,1.414-.185,22.869,22.869,0,0,1,2.64-1.213c1.886-.9,3.822-1.69,5.742-2.515a1.609,1.609,0,0,0,.689-.658c.534-.79,1.093-1.562,1.646-2.338.118-.166.259-.337.487-.283.268.063.193.312.216.5.141,1.146.417,1.272,1.526.782q3.929-1.736,7.873-3.435a.746.746,0,0,1,.688-.085,2.451,2.451,0,0,1-1.1.716c-2.123.918-4.142,2.063-6.258,2.985-1.259.549-2.4,1.3-3.651,1.854a.822.822,0,0,0-.454.469c-.474,1.161-.96,2.317-1.44,3.475-.054.131-.19.271-.034.406.108.094.231-.016.348-.029,2.152-.233,4.09-1.2,6.132-1.808a3.729,3.729,0,0,0,1.947-1.757c.617-.884,1.021-1.906,1.705-2.747.146-.179.29-.521.571-.365s.067.453-.015.672c-.2.542-.446,1.068-.636,1.614-.242.7-.011.943.705.939,1.013-.005,1.892-.6,2.9-.639.048.29-.186.283-.319.337a10.608,10.608,0,0,0-1.426,1.007,12.768,12.768,0,0,1-2.81,1.644c-.277.081-.532.15-.647.441-.3.745-.58,1.5-.875,2.241a2.6,2.6,0,0,1-.4.881,2.163,2.163,0,0,0-.531,1.2c-.074.355-.108.758-.493.973a.226.226,0,0,0-.072.333c.573.689.008.733-.634.823.717.343.525.748.3,1.161-.1.176-.174.361-.26.542-.525,1.1-.471,1.221.649,1.534.2.056.5.023.545.306.037.258-.235.362-.4.506a1.657,1.657,0,0,1-.385.229,4.818,4.818,0,0,0-2.554,2.725,85.889,85.889,0,0,1-4.065,8.877c-.261.5-.078,1.016-.268,1.534-.288.786-1.041,1.125-1.39,1.831-1.135,2.295-2.374,4.539-3.464,6.855-.748,1.589-1.671,3.084-2.354,4.7A10.873,10.873,0,0,1,61,142.785l.205.116c.655-.923,1.348-1.822,1.96-2.773,3.289-5.113,6.107-10.5,9.029-15.83,1.666-3.038,3.287-6.1,4.929-9.154,2.245-4.173,4.478-8.353,6.743-12.515.647-1.188,1.382-2.328,2.082-3.487a2.2,2.2,0,0,1,.323-.415c.154-.154.328-.382.568-.22.2.137.082.374.02.558a69.05,69.05,0,0,1-2.718,7.1c-.653,1.4-1.379,2.773-1.972,4.206a1.422,1.422,0,0,0-.2.981c.584-.191.608-.791.825-1.193.3.078.243.248.2.384-.76,2.519-1.78,4.939-2.722,7.39-1.976,5.14-4.539,10-6.941,14.937-2.688,5.527-5.312,11.084-7.939,16.641-.73,1.545-1.469,3.085-2.238,4.61a11.068,11.068,0,0,1-.826,1.162c-.169.248-.37.533-.18.832s.547.241.82.145a12.188,12.188,0,0,1,1.879-.479c.493-.089.731-.478.485-.892-.716-1.211-.254-2.212.349-3.282,1.688-3,3.323-6.026,4.974-9.045,1.855-3.394,3.662-6.814,5.386-10.277,2.473-4.968,4.955-9.933,7.372-14.929,2.537-5.244,5.026-10.512,7.649-15.713.565-1.121,1.172-2.221,1.781-3.318.108-.194.234-.55.534-.4.262.133.037.4-.024.6-.9,3.034-2.15,5.946-3.144,8.948-.551,1.663-1.054,3.343-1.633,5-1.043,2.973-2.2,5.9-3.424,8.8-2.11,4.986-4.4,9.887-6.606,14.831-1.364,3.062-2.649,6.16-4.035,9.213-1.1,2.42-2.115,4.877-3.182,7.311-.16.365-.444.677-.584,1.046-.2.53.039.781.569.638.672-.182,1.338-.386,2.008-.574.5-.142.718-.406.473-.944a3.813,3.813,0,0,1,.272-3.7c2.584-4.683,5.026-9.446,7.433-14.227,2.869-5.7,5.5-11.51,8.217-17.28,2.588-5.494,5.1-11.023,7.663-16.531.487-1.047,1.033-2.066,1.552-3.1.078-.156.144-.37.358-.317.259.064.209.3.181.5a26.842,26.842,0,0,1-1.339,4.293c-.523,1.645-1.065,3.283-1.6,4.925-.662,2.045-1.222,4.123-1.973,6.139-.978,2.623-1.888,5.274-2.981,7.852q-2.068,4.877-4.143,9.751c-.841,1.983-1.7,3.956-2.489,5.962-1.063,2.7-2.228,5.363-3.353,8.04-.729,1.736-1.454,3.474-2.2,5.2-.189.435-.485.82-.7,1.244-.244.477-.015.8.506.757a1.131,1.131,0,0,0,1.175-1.249,5.594,5.594,0,0,1,.9-2.288c3.093-6.007,5.963-12.123,8.774-18.268,1.649-3.6,3.218-7.246,4.769-10.894,1.561-3.67,3.143-7.331,4.708-11,1.34-3.141,2.679-6.281,4.1-9.385a5.583,5.583,0,0,1,.336-.674c.119-.188.138-.584.481-.435a.585.585,0,0,1,.24.73c-.2.752-.375,1.511-.624,2.246-.851,2.519-1.46,5.109-2.23,7.649-.659,2.172-1.25,4.371-2.071,6.494-.394,1.019-.719,2.065-1.062,3.1-.067.2-.179.5.1.586s.235-.238.308-.41c1.054-2.512,2.077-5.038,3.181-7.527q2.517-5.675,4.92-11.4c.3-.716.673-1.4,1.024-2.093.076-.151.181-.353.382-.3s.163.283.169.453a13.627,13.627,0,0,1-.752,3.827c-.51,2.017-1,4.038-1.511,6.054-.421,1.672-.749,3.365-1.2,5.032-.55,2.032-1.237,4.017-1.826,6.035-.47,1.61-1.108,3.17-1.687,4.747-.89,2.423-1.805,4.836-2.687,7.262-.78,2.144-1.529,4.3-2.294,6.45-.08.226-.3.529.025.636.285.095.258-.3.344-.483.755-1.608,1.484-3.229,2.247-4.833.334-.7.76-1.359,1.089-2.063q1.126-2.407,2.194-4.843,1.672-3.826,3.3-7.671c1.848-4.342,3.672-8.695,5.531-13.032,1.019-2.378,2.086-4.736,3.146-7.1.1-.223.117-.677.462-.563.322.107.338.514.28.858a22.673,22.673,0,0,1-.865,3.2c-.473,1.458-.845,2.941-1.184,4.436-.276,1.214-.763,2.367-1.1,3.57-.546,1.974-1.14,3.936-1.8,5.878-1.227,3.612-2.623,7.157-4.03,10.7-.618,1.556-1.175,3.136-1.76,4.706-.053.143-.133.335.018.41.251.125.249-.136.315-.284,1.833-4.12,3.623-8.261,5.52-12.351.862-1.858,1.779-3.691,2.579-5.577,1.3-3.068,2.535-6.166,3.847-9.229,1.136-2.653,2.339-5.276,3.517-7.91.085-.19.129-.518.428-.41a.572.572,0,0,1,.349.743c-.33,1.186-.667,2.369-1,3.553q-.842,2.965-1.687,5.928c-.482,1.676-.946,3.358-1.471,5.021-.618,1.956-1.253,3.909-1.953,5.836-.8,2.209-1.685,4.388-2.532,6.581q-1.719,4.456-3.435,8.914c-.794,2.063-1.6,4.123-2.374,6.191-.245.651-.426,1.327-.653,2.045.668-.3.73-.992,1.012-1.49a187.9,187.9,0,0,0,9.017-18.382c1.487-3.457,3.054-6.879,4.57-10.324,1.878-4.27,3.737-8.549,5.615-12.819a6.885,6.885,0,0,1,.98-1.687c.21,2.238-.807,4.122-1.334,6.117-.46,1.744-.906,3.492-1.43,5.217-.574,1.89-1.233,3.753-1.85,5.63-.657,2-1.389,3.969-2.166,5.923q-1.709,4.294-3.4,8.595-1.555,3.956-3.089,7.92c-.3.769-.574,1.546-.865,2.318-.063.168-.167.371.032.465.225.106.273-.144.347-.292.933-1.858,1.834-3.733,2.8-5.572,2.1-4,3.886-8.141,5.618-12.311,1.106-2.663,2.275-5.3,3.386-7.96,1.866-4.467,3.706-8.945,5.564-13.415.281-.677.6-1.337.95-2.1.567,1.259.118,2.3-.171,3.345-.8,2.9-1.719,5.765-2.564,8.651-.708,2.419-1.644,4.772-2.515,7.141-1.332,3.621-2.673,7.238-4.051,10.841-1.5,3.913-2.868,7.875-4.465,11.75a11.019,11.019,0,0,0-.519,1.57c-.115.468.111.68.584.525a6.449,6.449,0,0,0,.761-.313c.5-.237.62-.668.254-1.034-.622-.621-.352-1.153-.022-1.755,1.171-2.132,2.386-4.242,3.472-6.417,2.626-5.258,5.043-10.617,7.4-16,2.023-4.622,4.11-9.215,6.1-13.852.691-1.613,1.47-3.185,2.132-4.81a.733.733,0,0,1,.5-.5c-.494.615.094,1.138-.089,1.715-.432,1.361-.8,2.742-1.213,4.11s-.805,2.739-1.259,4.092c-.787,2.349-1.552,4.708-2.438,7.019-1.713,4.465-3.5,8.9-5.262,13.345-.9,2.263-1.807,4.52-2.692,6.787a2.317,2.317,0,0,0-.286,1.326c.407-.034.477-.388.616-.61,2.246-3.6,4.343-7.281,6.328-11.03,3.079-5.814,5.983-11.72,8.943-17.6q2.118-4.206,4.3-8.378c.148-.284.311-.85.628-.716.437.185,0,.638-.088.91-.533,1.622-1.117,3.227-1.727,4.822-1.208,3.158-2.384,6.33-3.772,9.413-1.4,3.1-2.844,6.181-4.261,9.273-1.442,3.146-2.872,6.3-4.315,9.444-.793,1.73-1.6,3.452-2.406,5.176-.092.2-.3.4-.081.611.194.193.416.066.621-.035q.47-.23.944-.451c.745-.345.951-.8.443-1.409-.641-.774-.363-1.392.037-2.1,1.865-3.319,3.751-6.626,5.551-9.981q3.33-6.2,6.533-12.479c2.155-4.2,4.237-8.434,6.386-12.635a22.175,22.175,0,0,1,2.079-3.635,3.022,3.022,0,0,1-.362,2.187c-1.168,3.278-2.41,6.53-3.6,9.8-1.685,4.628-3.885,9.019-6,13.449a5.729,5.729,0,0,0-.462,1.568,12.206,12.206,0,0,0,1.5-2.241q3.1-4.893,5.894-9.97,3.172-5.779,6.4-11.53a41.836,41.836,0,0,1,2.744-4.584.517.517,0,0,1,.4-.28,5.021,5.021,0,0,1-.581,1.841c-1.593,3.6-2.921,7.3-4.49,10.908-1.9,4.374-4.175,8.551-6.336,12.789-1.2,2.345-2.312,4.731-3.533,7.063-1.1,2.107-1.941,4.371-3.5,6.215-.135.16-.368.347-.181.588.172.221.407.08.62.013a16.914,16.914,0,0,0,2.155-1.04.494.494,0,0,0,.3-.624c-.451-1.129.153-1.985.675-2.873,1.856-3.161,3.68-6.341,5.565-9.484,2.609-4.35,5.1-8.768,7.606-13.18,1.883-3.319,3.721-6.666,5.682-9.939a6.263,6.263,0,0,1,.988-1.279,200.624,200.624,0,0,1-12.767,27.134c.42.195.5,0,.607-.121,2.5-2.88,4.78-5.929,7.046-8.995,3.4-4.6,6.839-9.167,10.274-13.739a8.6,8.6,0,0,1,1.555-1.933c.144.331-.064.487-.175.661-1.264,1.991-2.672,3.9-3.775,5.981a128.122,128.122,0,0,1-8.717,13.305c-1.02,1.454-2.1,2.874-3.031,4.394-.1.162-.31.351-.136.535.226.239.4-.036.566-.158a48.3,48.3,0,0,0,3.873-3.545c4.039-3.667,8.005-7.413,11.938-11.2,1.548-1.489,3.162-2.907,4.8-4.41.053.292-.135.394-.251.511-3.436,3.474-6.837,6.986-10.328,10.4-2.363,2.313-4.683,4.668-7.029,7-.071.071-.145.139-.209.216-.108.129-.3.265-.15.444.176.2.363.044.523-.078.119-.091.224-.2.345-.29a3.421,3.421,0,0,1,1.814-.913,4.329,4.329,0,0,0,1.92-1.106c4.057-2.9,8.094-5.828,12.14-8.743q2.789-2.009,5.591-4a1.043,1.043,0,0,1,.258-.1l.125.183-19.732,15.137.147.219a6.54,6.54,0,0,0,2.034-1.087,6.108,6.108,0,0,1,2.177-1.066,18.54,18.54,0,0,0,4.789-2.381c1.9-1.092,3.806-2.16,5.7-3.253,1.787-1.031,3.565-2.078,5.344-3.123.964-.566,1.92-1.144,2.885-1.708a2.343,2.343,0,0,1,.527-.113,9.723,9.723,0,0,1-2.33,1.614q-3.755,2.386-7.544,4.717c-1.613,1-3.248,1.957-4.869,2.94-2.528,1.531-5.09,3-7.55,4.652-1.611,1.079-3.321,2.007-4.988,3-.185.111-.51.173-.413.441.112.308.421.144.654.1a2.75,2.75,0,0,0,1.088-.641c1.07-.807,2.456-.8,3.56-1.5a26.5,26.5,0,0,0,3.907-2.609,1.575,1.575,0,0,1,1.329-.344,3.1,3.1,0,0,0,1.915-.449,22.069,22.069,0,0,1,2.538-1.032,21.727,21.727,0,0,0,2.989-1.289c.634-.36,1.364-.42,2.031-.721a47.659,47.659,0,0,1,5.965-2.41ZM43,164.693c-.009-2.071.2-2.261,1.607-2.077.148.019.3.01.447.034a10.241,10.241,0,0,1,4.133,1.308c.442.292.654.1.679-.372a3.211,3.211,0,0,0-.086-.6c-.158-1.132.036-1.384,1.176-1.5a4.531,4.531,0,0,1,.67.01,14.8,14.8,0,0,1,3.747.584c.3.094.784.318.891-.289.1-.585-.378-1.966-.664-1.987a1.535,1.535,0,0,0-.444.049c-.63.143-1.254.323-1.889.439-3.036.558-6.07,1.129-9.113,1.641-5.283.888-10.573,1.73-15.856,2.611-.331.055-.914-.094-.924.365-.007.3.574.381.928.487a7.282,7.282,0,0,1,3.135,1.516,3.925,3.925,0,0,0,1.415.811,3.288,3.288,0,0,1,1.785,1.1.624.624,0,0,0,.731.254c.275-.095.191-.361.235-.577a4.021,4.021,0,0,0-.154-1.705c-.206-.932.136-1.429.913-1.418a10.477,10.477,0,0,1,4,1.029,8.49,8.49,0,0,1,2.538,1.837,30.774,30.774,0,0,0,2.723,1.844.468.468,0,0,0,.721-.135c.171-.319-.112-.436-.337-.55a4.432,4.432,0,0,1-1.86-1.582A8.1,8.1,0,0,1,43,164.693Zm93.1-28.8c.467-.025.841.026.981-.356.131-.357-.212-.524-.4-.745-.168-.2-.5-.333-.387-.669s.452-.369.741-.42a21.645,21.645,0,0,1,3.236-.557c.324-.008.613-.1.666-.469.067-.471.4-.6.779-.686.437-.1.875-.2,1.311-.3.228-.054.482-.156.421-.434-.223-1.012.492-1.1,1.158-1.266a11.026,11.026,0,0,1,3.16-.481c.328.013.77-.2.513-.585-.387-.585.006-.672.358-.858a8.331,8.331,0,0,1,3.486-.7c.35-.022.821-.013.887-.511.059-.44-.352-.476-.647-.591-.168-.066-.32-.168-.3-.383.02-.178.17-.229.316-.275a4.927,4.927,0,0,0,2.325-1.373c.123-.139.418-.2.245-.446-.147-.206-.359-.047-.535.048-1.928,1.041-3.846,2.1-5.788,3.117-3.048,1.594-6.09,3.2-9.174,4.722-2.48,1.223-5.014,2.336-7.532,3.481-3.492,1.588-6.991,3.158-10.565,4.551-.19.074-.525.088-.435.394.077.263.386.18.595.155.692-.084,1.378-.243,2.071-.282.664-.037,1.416.259,1.715-.691.021-.067.164-.126.256-.135,1.36-.131,2.646-.711,4.035-.676a13.1,13.1,0,0,1,2.074.245.558.558,0,0,0,.689-.317c.111-.293-.092-.463-.3-.622-.237-.183-.467-.376-.7-.564-.321-.258-.323-.529.054-.691a5.741,5.741,0,0,1,1.241-.5C133.852,135.8,135.029,135.4,136.1,135.891ZM68.271,109.276a.213.213,0,0,1,.048.272c-.633,1.47-1.054,3.027-1.791,4.453a.554.554,0,0,0-.051.561c.591,1.18.587,1.181,1.881.857a10.819,10.819,0,0,1,1.161-.274,2.187,2.187,0,0,0,1.619-1.072c1.78-2.763,3.116-5.778,4.8-8.6.183-.307.011-.536-.335-.584a1.2,1.2,0,0,0-.792.164c-1.512.914-3.234,1.392-4.735,2.34-.32.2-.8.7-1.084.377-.269-.307.152-.822.367-1.212a1.556,1.556,0,0,0,.183-1.5c-.408,1.2-1.492,2.055-.98,3.454a.936.936,0,0,0-.372.1c-.351.274-.874.711-.656,1.041C67.809,110.078,67.887,109.178,68.271,109.276ZM55.62,119.023c.9-.254,1.917-.6,2.959-.825a4.355,4.355,0,0,0,3.238-2.351c.943-1.761,1.894-3.529,2.882-5.271.114-.2.188-.431-.016-.624a.476.476,0,0,0-.563-.048c-1.245.627-2.551,1.114-3.815,1.694a28.826,28.826,0,0,0-3.978,2.015,1.859,1.859,0,0,0-.9,1.107,6.421,6.421,0,0,1-.571,1.539c-.235.428-.153.69.326.742.572.062.441.33.231.649a1.9,1.9,0,0,0-.411.794C54.964,118.8,55.067,119.045,55.62,119.023ZM50.6,131.176c.881-.148,1.84-.3,2.795-.475a.94.94,0,0,0,.611-.52c.7-1.212,1.541-2.335,2.17-3.6.751-1.5,1.573-2.972,2.367-4.455.1-.183.191-.369.059-.565-.154-.229-.385-.2-.607-.136a2.5,2.5,0,0,0-.492.175c-1.2.622-2.523.913-3.742,1.471a3.788,3.788,0,0,0-2.1,1.71c-.487,1.1-.913,2.222-1.394,3.324-.153.351-.525.8-.187,1.192s.2.612-.037.962C49.7,130.757,49.946,131.168,50.6,131.176Zm-24.782-60.8a16.288,16.288,0,0,0,1.658-1.92c.438-.451,1.1-.778.672-1.607-.047-.09.065-.286.136-.414.3-.547.651-1.073.927-1.634.485-.988,1.42-1.688,1.707-2.805.082-.318.181-.62-.117-.814-.617-.4-.441-.875-.186-1.372a22.008,22.008,0,0,1,1.836-2.93.908.908,0,0,0-.067-1.346.756.756,0,0,1-.153-1.017,14.056,14.056,0,0,1,1.7-2.83c.117-.135.269-.285.226-.458a3.379,3.379,0,0,1,.753-2.522c.177-.323.246-.606-.117-.847s-.347-.562-.187-.926a8.5,8.5,0,0,1,1.771-3.025.591.591,0,0,0,.039-.973c-.274-.259-.233-.551-.115-.9A17.422,17.422,0,0,1,37.8,39.1c.179-.316.349-.64-.161-.741-.655-.13-.542-.44-.359-.918a4.58,4.58,0,0,0,.664-2.359c-.03-.2,0-.461-.235-.505-.29-.055-.254.237-.3.416q-.783,2.782-1.564,5.564Q33.56,48.608,30.8,56.5c-1.239,3.554-2.586,7.069-3.883,10.6A17.89,17.89,0,0,0,25.815,70.381Zm62.909,81.056c-.185.033-.383.053-.572.105a12.018,12.018,0,0,0-3.038,1.009c-1.129.67-2.459.487-3.672.889-2.193.729-4.453,1.254-6.688,1.849-.913.243-1.838.443-2.755.674-.217.055-.479.151-.429.431.044.247.315.194.505.209.223.018.45,0,.672.027a13.1,13.1,0,0,1,3.426.672c1.008.421,1.994.9,2.988,1.351.354.162.8.495,1.066.118.228-.322-.129-.744-.353-1.074-.084-.123-.213-.215-.3-.339a5.635,5.635,0,0,1-1.017-1.656c-.143-.542-.024-.828.577-.96a20.136,20.136,0,0,1,2.454-.048,10.985,10.985,0,0,1,2.993.433c.4.069.843.462,1.182.1s-.107-.73-.258-1.079a1.054,1.054,0,0,1,1.05-1.618c.648-.012,1.3-.031,1.943,0,1.6.075,3.225.006,4.663.94a.606.606,0,0,0,.874-.137c.21-.324-.036-.539-.257-.768-1.048-1.087-.933-1.5.509-1.884a1.386,1.386,0,0,0,.145-.037c.194-.076.369-.183.373-.419s-.163-.356-.35-.445a1.106,1.106,0,0,0-.8,0,14.1,14.1,0,0,0-2.322,1.026C90.52,151.2,89.746,151.824,88.724,151.436Zm-28.3-23.087c.083.372-.21.742.214.956a3.778,3.778,0,0,0,2.456-.59c.35-.517.7-1.035,1.008-1.579,1.14-2.038,2.26-4.086,3.387-6.131.5-.9,1-1.8,1.488-2.706.147-.271.271-.577.036-.845-.262-.3-.542-.115-.8.05a5.529,5.529,0,0,1-1.109.43c-1.292.474-2.538,1-3.158,2.416-1.025,2.343-2.064,4.682-3.26,6.943C60.494,127.655,60.272,128,60.425,128.35Zm53.76,15.543c.318-.015.841-.019,1.361-.07.344-.034.673-.184.556-.623-.212-.8.32-.9.861-.969.938-.117,1.879-.2,2.819-.3.266-.028.512-.076.451-.441a1.043,1.043,0,0,0-1.352-.775c-1.593.638-3.16,1.343-4.788,1.893-.752.254-1.462.636-2.213.894-1.216.419-2.353,1.034-3.6,1.385a13.484,13.484,0,0,0-4.974,2.134c-.468.373-.926.758-1.394,1.131a.722.722,0,0,1-1.071.01,1.3,1.3,0,0,0-1.656-.181,8.554,8.554,0,0,0-2.4,1.765.566.566,0,0,0-.185.61.533.533,0,0,0,.54.33,6.1,6.1,0,0,1,2.5.281.427.427,0,0,0,.532-.172.477.477,0,0,0-.027-.562c-.556-.863-.47-1.052.567-1.167a14.176,14.176,0,0,1,6.062.272c.214.07.451.121.607-.118a.534.534,0,0,0-.073-.694c-.235-.259-.5-.489-.745-.74-.832-.856-.711-1.406.394-1.745a8.319,8.319,0,0,1,.874-.171,15.408,15.408,0,0,1,3.2-.017c.768.012.859-.148.516-.807s-.213-.885.508-1.025A8.8,8.8,0,0,1,114.185,143.893ZM15.83,94.8c-.015.221-.063.471.17.61.286.171.464-.057.64-.228a16.076,16.076,0,0,1,1.4-1.354c.515-.387.512-.706.045-1.061s-.4-.74-.109-1.168A17.209,17.209,0,0,1,19.12,90.1a10.525,10.525,0,0,0,2-2.7c.222-.541.093-.847-.444-1.05-.971-.367-1.021-.533-.42-1.44a19.153,19.153,0,0,1,2.466-3.123c.33-.325.614-.681-.072-.953s-.731-.475-.309-1.1a13.24,13.24,0,0,1,2.194-2.661c.345-.3.492-.6-.086-.823-.454-.179-.4-.515-.211-.867A13.271,13.271,0,0,1,25.92,72.8c.161-.185.4-.365.23-.649s-.472-.236-.744-.219c-.393.026-.516.328-.646.642-.97,2.343-1.953,4.679-2.919,7.024a32.221,32.221,0,0,1-1.2,3c-1.132,2.112-2.247,4.21-2.277,6.7a2.268,2.268,0,0,1-.088.67c-.135.413-.312.834-.837.834-.611,0-.857.39-1.068.885A11.2,11.2,0,0,0,15.83,94.8Zm43.026,13.169c0,.6.253.794.66.559a11.492,11.492,0,0,1,2.022-.753c1.636-.577,3.271-1.158,4.91-1.727a1.375,1.375,0,0,0,.821-.726c.455-1.019,1.277-1.793,1.76-2.787.169-.348.592-.719.282-1.081-.343-.4-.77.062-1.163.129a.249.249,0,0,0-.068.03q-3.2,1.654-6.52,3.054a10.825,10.825,0,0,1-1.556.852c-.1.026-.265.174-.255.245.1.708-.576,1.068-.711,1.666A4.378,4.378,0,0,1,58.857,107.966ZM56.7,102.778a3.265,3.265,0,0,1-.463.117c-.621.073-1.03.621-1.61.751a23.8,23.8,0,0,0-2.666,1.134,10.944,10.944,0,0,0-1.411.633,9.819,9.819,0,0,0-2.292,1.186,1.607,1.607,0,0,1-.909.451c-.223.032-.6-.017-.586.313s.378.269.609.259c.6-.026.764.176.5.757-.145.323-.42.737-.088,1.05s.7-.051,1.05-.112a1.261,1.261,0,0,0,.267-.131c1.583-.711,3.162-1.43,4.751-2.127.986-.433,1.953-.824,2.322-2.028.161-.525.245-1.178.889-1.463.177-.078.2-.341.1-.545A.445.445,0,0,0,56.7,102.778ZM40.472,133c.774-.12,1.636-.236,2.491-.395a1.051,1.051,0,0,0,.723-.7,13.68,13.68,0,0,1,1.04-1.889,29.722,29.722,0,0,0,1.628-3.206.51.51,0,0,0-.089-.628c-.2-.18-.405-.109-.622-.007-.336.158-.679.3-1.027.435a14.286,14.286,0,0,0-3.934,1.892c-.506.394-.56.984-.778,1.5-.161.384.157.587.376.823.183.2.121.408.014.627-.143.293-.275.592-.391.9C39.725,132.814,39.92,133.015,40.472,133Zm10.036-16.975a2.178,2.178,0,0,0-.551.169c-1.885,1.1-4.093,1.534-5.828,2.938-.194.157-.629.108-.545.484.065.29.419.2.655.22.434.046.569.222.215.547a2.158,2.158,0,0,0-.509,1.065c-.072.232-.287.463-.055.691s.514.109.776.03c1-.3,1.992-.634,3-.906a2.414,2.414,0,0,0,1.907-2.157c.025-.206,0-.426.211-.518.821-.354.887-1.23,1.27-1.88C51.3,116.29,51.059,116.054,50.509,116.029ZM51.722,133a13.281,13.281,0,0,0-3.785,1.435,1.878,1.878,0,0,0-.83,1.021c-.25.679-.577,1.329-.876,1.99-.1.222-.165.481.064.611.505.286.318.555.073.9a.682.682,0,0,0-.088.78c.192.291.491.18.749.1a4.041,4.041,0,0,0,2.637-1.675c.914-1.436,1.652-2.972,2.6-4.383C52.583,133.305,52.383,133.013,51.722,133Zm5.244,5.15c.756.162,1.177-.478,1.529-1.065,1.235-2.06,2.424-4.149,3.6-6.242.349-.618.084-1-.619-.87a3.76,3.76,0,0,0-3.174,2.143c-.154.369-.375.708-.551,1.067-.561,1.145-1.141,2.282-1.664,3.446C55.663,137.583,55.963,138.132,56.965,138.154Zm5.508-98.695a19.573,19.573,0,0,0-3.03,2.658q-6.789,6.3-13.5,12.692c-1.38,1.3-2.718,2.653-4.073,3.985-.12.118-.319.263-.193.438.153.213.358.067.524-.049.081-.057.15-.132.228-.195,3.388-2.741,6.36-5.936,9.527-8.919,3.422-3.223,6.773-6.523,10.151-9.793A.878.878,0,0,0,62.473,39.459ZM48.859,103.973c-.012.527.212.615.778.374,2.191-.935,4.4-1.828,6.578-2.789,1.061-.469,2.292-.776,2.644-2.166.049-.193.192-.372.04-.558a.437.437,0,0,0-.553-.062c-.549.234-1.076.523-1.635.726-2.291.832-4.469,1.934-6.728,2.839A1.726,1.726,0,0,0,48.859,103.973Zm-2.08,8.691c.062.284.253.335.624.2,1.35-.5,2.69-1.032,4.067-1.465,1.188-.374,2.442-.729,2.8-2.212.057-.233.287-.46.054-.693-.217-.217-.462-.065-.7.013-1.821.6-3.626,1.241-5.4,1.961A2.167,2.167,0,0,0,46.78,112.663Zm14.583-17.92c-.611.236-1.227.617-1.876.918-2.993,1.392-5.954,2.853-8.932,4.278a2,2,0,0,0-.925.84c-.105.188-.357.354-.182.594a.464.464,0,0,0,.677.046,12.187,12.187,0,0,1,1.891-.885c1.922-.931,3.861-1.829,5.794-2.737a26.558,26.558,0,0,0,3.4-1.952,1.823,1.823,0,0,0,.5-.646C61.862,94.93,61.728,94.775,61.362,94.743ZM38.741,102.69c-.052.526.189.566.621.372,1.039-.466,2.1-.881,3.128-1.369,1.208-.573,2.411-1.152,3.647-1.664a2.5,2.5,0,0,0,1.4-1.844c.037-.145.108-.3-.026-.422-.174-.155-.322-.015-.463.083a14.415,14.415,0,0,1-2.2,1.079c-1.705.793-3.445,1.512-5.152,2.307A1.438,1.438,0,0,0,38.741,102.69Zm2.145,33.64c-.838.307-1.786.616-2.7,1.006a4.389,4.389,0,0,0-1.17.8c-.351.317-.516.736.037,1.034.354.192.433.384.169.7a1.93,1.93,0,0,0-.28.851c-.123.488.025.693.57.642a2.484,2.484,0,0,0,2.367-1.489c.416-.96,1.158-1.754,1.525-2.757C41.561,136.685,41.573,136.363,40.886,136.33ZM37.159,112.7c-.142.133-.276.243-.393.369-.149.16-.385.325-.227.573s.41.113.612.038c1.425-.526,2.843-1.07,4.27-1.589.544-.2.685-.711.894-1.143.194-.4-.372-.344-.527-.618a9.037,9.037,0,0,0,.932-.324.512.512,0,0,0,.357-.594c-.091-.342-.361-.236-.613-.221-.735.044-1.256.568-1.892.819a16.28,16.28,0,0,0-3.514,1.642c-.2.138-.523.158-.545.457C36.487,112.487,36.922,112.407,37.159,112.7ZM31.706,99.262c-.024.466.263.6.759.365,1.814-.864,3.561-1.873,5.455-2.563a.819.819,0,0,0,.429-.589,6.533,6.533,0,0,1,.21-.638c.1-.245.378-.51.134-.746s-.56-.015-.825.108c-1.636.759-3.244,1.59-4.916,2.256C32.056,97.813,31.947,98.539,31.706,99.262Zm5.914,9.347c0,.664.184.8.668.568.652-.308,1.328-.572,1.994-.828a16.865,16.865,0,0,1,2.387-1.019,2.538,2.538,0,0,0,1.759-1.678.515.515,0,0,0-.065-.633c-.157-.14-.323,0-.484.059-1.746.659-3.4,1.537-5.166,2.158A1.539,1.539,0,0,0,37.62,108.608Zm-1.908,7.958c-.035.378.241.409.572.3.964-.331,1.915-.7,2.884-1.015a2.424,2.424,0,0,0,1.857-1.858c.044-.211.258-.413.076-.627s-.429-.091-.629-.021c-1.125.394-2.228.87-3.372,1.193C36.07,114.824,35.876,115.636,35.712,116.566Zm11.573,24.259a5.252,5.252,0,0,0-2.493.695c-.551.35-.879,1.23-.528,1.5.38.289.316.5.075.8-.164.2-.322.406-.158.676a.645.645,0,0,0,.722.267,1.422,1.422,0,0,0,1.058-.483c.617-.877,1.24-1.75,1.816-2.655C48.1,141.11,47.9,140.833,47.285,140.825Zm6.332,1.314c.03.317-.054.728.338.9.428.192.765-.055,1.055-.357a17.387,17.387,0,0,0,1.928-2.856c.144-.225.324-.5.122-.766s-.538-.2-.833-.157C54.777,139.1,53.679,140.973,53.617,142.139Zm-15.925.407c-.987-.145-1.673.553-2.484.892-.224.094-.328.456-.12.562.77.392.368.84.182,1.348-.111.3-.575.715-.1.989a1.217,1.217,0,0,0,1.377-.268,1.115,1.115,0,0,0,.218-.3,6.963,6.963,0,0,1,1.314-2.061.884.884,0,0,0,.2-.98C38.17,142.474,37.9,142.526,37.692,142.546Zm31.123,14.236a27.921,27.921,0,0,0-3.808.964c-.23.094-.661.04-.6.411.054.336.447.215.7.235.2.016.4-.019.6,0a7.976,7.976,0,0,1,3.651.854c.2.123.42.216.607,0a.556.556,0,0,0,0-.7,2.63,2.63,0,0,1-.532-1.379C69.423,156.862,69.185,156.756,68.815,156.782Zm-31.8-34.333c-.776.19-1.562.425-2.352.631a1.942,1.942,0,0,0-1.448,1.621c-.149.58.023.759.6.591a13.656,13.656,0,0,1,1.993-.6c1.046-.136,1.331-.9,1.639-1.7C37.614,122.559,37.419,122.445,37.018,122.449ZM-.816,124.562a.954.954,0,0,0,.551-.365,17.381,17.381,0,0,1,2.67-2.271c.957-.635.931-1.093.016-1.8a1.054,1.054,0,0,1-.16-.157c-.278-.331-.547-.222-.728.073-.835,1.366-1.651,2.744-2.47,4.12C-1.036,124.329-1.071,124.5-.816,124.562Zm31.254-17.841c.046.313.262.238.519.115a18.581,18.581,0,0,1,2.152-.99,2.023,2.023,0,0,0,1.307-1.751c.105-.459-.077-.507-.485-.38-.736.229-1.378.663-2.087.932A1.764,1.764,0,0,0,30.438,106.721Zm7.829-.539c.1.358.339.259.591.187.676-.191,1.242-.618,1.9-.86,1.37-.5,2.709-1.1,4.051-1.674a1.468,1.468,0,0,0,.618-.641c.121-.2.192-.434-.011-.62-.178-.163-.367-.05-.551.04q-3.042,1.489-6.086,2.972C38.527,105.71,38.3,105.851,38.267,106.183Zm13.562,6.894a9.3,9.3,0,0,1-1.558.681c-1.311.467-2.606.987-3.887,1.532-.372.158-.851.452-.584.963.245.468.668.122.983-.019,1.315-.591,2.635-1.165,3.989-1.661a3.179,3.179,0,0,0,1.323-.82.457.457,0,0,0,.122-.484C52.166,113.131,52.051,113.094,51.83,113.077ZM30.482,158.363a1.433,1.433,0,0,0-1.172,1.685c.125.423.027.582-.317.752a1.93,1.93,0,0,0-.509.43.453.453,0,0,0-.133.323c.031.182.219.194.362.174.834-.112,1.671-.213,2.5-.369.313-.059.488-.363.213-.618-.343-.319-.271-.611-.188-1C31.39,159,30.989,158.348,30.482,158.363Zm6.487,2.334c.517-.072,1.034-.138,1.55-.217,1.233-.189,1.233-.192,1.086-1.468-.133-1.159-.771-1.471-1.741-.865a1.683,1.683,0,0,0-.719.93,2.4,2.4,0,0,1-.5,1,.416.416,0,0,0-.14.475C36.6,160.752,36.8,160.7,36.968,160.7ZM34.5,120.665c-.061.567.255.689.683.511,1.051-.437,2.1-.894,3.119-1.394a1.688,1.688,0,0,0,.849-1.008c.051-.157.226-.309.08-.481a.4.4,0,0,0-.486-.044c-1.211.505-2.426,1-3.623,1.54A1.035,1.035,0,0,0,34.5,120.665Zm12.636,38.513c.283,0,.457,0,.632,0,.332-.008.688-.018.767-.435a1.054,1.054,0,0,0-.372-1.151,2.229,2.229,0,0,0-3.076,1.134c-.163.619,0,.826.618.686A4.342,4.342,0,0,1,47.137,159.177ZM13.263,99.27c.014.152.018.2.024.253.033.3.059.6.1.9.074.538.442.715.9.417a11.012,11.012,0,0,0,1.024-.745c.431-.355.385-.773-.089-1.011-1.2-.6-1.2-.6-.441-1.677.015-.02.03-.04.043-.061.135-.211.334-.447.073-.664a.453.453,0,0,0-.7.189A8.768,8.768,0,0,0,13.263,99.27ZM57.93,111.136c.108.328.36.276.557.2.3-.109.565-.325.868-.417,1.8-.55,3.411-1.595,5.228-2.119a3.262,3.262,0,0,0,.868-.571c.1-.072.193-.186.107-.317s-.226-.09-.337-.034a4.243,4.243,0,0,1-1.077.5,24.761,24.761,0,0,0-3.2,1.191c-.7.238-1.381.542-2.087.778A1.418,1.418,0,0,0,57.93,111.136Zm-26.117,17.88c.056.364.229.519.571.395.793-.288,1.588-.574,2.375-.879a1.181,1.181,0,0,0,.763-.949c.03-.168.13-.352-.014-.5-.172-.177-.382-.084-.555,0a10.689,10.689,0,0,1-2.124.678C32.175,127.914,31.986,128.469,31.813,129.016Zm-1.715,5.4c-.042.4,0,.473.321.535a3.351,3.351,0,0,0,2.775-1.659c.125-.391.009-.606-.4-.569-.493.044-.985.12-1.472.209A1.416,1.416,0,0,0,30.1,134.42Zm-7.291,26.32c-.072-.593-.109-1.068-.193-1.535-.08-.448-.387-.526-.787-.425-.592.15-.667.682-.852,1.136-.2.492-.816,1.03-.479,1.467.388.5,1.111.014,1.689.009A.6.6,0,0,0,22.807,160.74Zm4.985-16.25a4.919,4.919,0,0,0-1.763.569.274.274,0,0,0-.076.49c.614.369.539.765.2,1.287a.515.515,0,0,0,.206.723.552.552,0,0,0,.679-.142,1.131,1.131,0,0,0,.455-.67,1.683,1.683,0,0,1,.735-1.244.539.539,0,0,0,.18-.677A.577.577,0,0,0,27.792,144.491Zm19.414-21.272c-.085.018-.16.026-.23.049-1.231.389-2.464.774-3.691,1.177a1.23,1.23,0,0,0-.422.3c-.186.177-.358.4-.2.66.151.248.4.138.609.066q1.8-.624,3.586-1.263a1.151,1.151,0,0,0,.623-.517C47.658,123.385,47.549,123.218,47.206,123.219Zm10.181,36.117.029.225c.438.044.877.08,1.314.134a16.581,16.581,0,0,1,2.878.332c.327.1.734-.046.645-.479-.08-.39.166-1.168-.587-1.06C60.229,158.694,58.812,159.045,57.387,159.336Zm-38.8-36.3c.842.208,1.085-.437,1.28-1.175a10.226,10.226,0,0,1,.382-.98c.061-.161.158-.353-.021-.483a.378.378,0,0,0-.479.084,2.023,2.023,0,0,1-1.008.62c-.675.067-.95.339-1.035,1.056C17.6,123.044,17.6,123.139,18.587,123.039Zm10.663-10.8c.009.512.241.734.758.486a13.892,13.892,0,0,0,1.321-.7c.352-.218.923-1.592.739-1.684-.558-.278-1.037.11-1.531.29a3.4,3.4,0,0,0-.644.375A1.362,1.362,0,0,0,29.25,112.243ZM2.411,118.694a7.169,7.169,0,0,0,3.082-5.426A37.219,37.219,0,0,0,2.411,118.694Zm12.856,11.488c-.021.312.144.362.42.293a2.052,2.052,0,0,0,1.775-1.665c.056-.323.46-.675.109-.958-.291-.234-.492.218-.748.331a.705.705,0,0,1-.135.061c-.428.085-.923.055-1.081.615C15.487,129.293,15.383,129.73,15.267,130.182Zm16.387,2.548c.619-.422,1.6-.172,2.3-.8a.673.673,0,0,0,.275-.795c-.158-.352-.481-.251-.782-.221-.8.079-1.367.7-2.121.885-.279.067-.56.209-.523.539C30.844,132.746,31.209,132.7,31.654,132.731ZM27.759,32.557c-.081.142-.128.185-.127.228a26.291,26.291,0,0,0,1.047,5.069.335.335,0,0,0,.379.292c.238-.032.321-.217.344-.431a3.323,3.323,0,0,0-.629-2.278A2.8,2.8,0,0,1,28.3,34.2,2.443,2.443,0,0,0,27.759,32.557Zm1.459,84.774c-.049.009-.1.019-.147.026a2.289,2.289,0,0,0-1.718,2.194c.031.347.229.384.528.316a2.629,2.629,0,0,0,1.663-2.243C29.544,117.376,29.422,117.321,29.219,117.331Zm-1.313,25.64a2.023,2.023,0,0,0,1.979-1.7c.024-.282-.137-.342-.359-.357a2.046,2.046,0,0,0-1.954,1.282C27.392,142.712,27.568,142.962,27.905,142.97Zm25.705.913c-.438.183-1.059.224-1.249.762-.177.5-.184,1.073-.361,1.595a.345.345,0,0,0,.119.4.322.322,0,0,0,.458-.105A13.6,13.6,0,0,0,54.07,144.5C54.285,144.09,54.067,143.9,53.611,143.883Zm-13.1,7.523a.68.68,0,0,0,.27.66c.225.169.421.044.6-.1a4.731,4.731,0,0,0,1.225-1.759c.147-.311,0-.609-.436-.546A2.337,2.337,0,0,0,40.512,151.406Zm8.769-.614c.052.217-.028.432.183.511a.444.444,0,0,0,.511-.218c.445-.628.869-1.27,1.3-1.909.166-.248.4-.535.109-.793-.263-.231-.593-.052-.809.141A5.984,5.984,0,0,0,49.281,150.792ZM30.963,103.719c.127.326.417.287.644.14a13.79,13.79,0,0,1,1.74-.818c.515-.243,1.027-.486,1.556-.7.221-.089.473-.277.334-.577-.125-.269-.395-.175-.592-.083-1.121.523-2.236,1.06-3.35,1.6A.548.548,0,0,0,30.963,103.719Zm81.246,38.035c.531-.01,1.047-.111,1.062-.771a1.441,1.441,0,0,0-.892-1.281c-.507-.2-.372.549-.588.836a1.607,1.607,0,0,0-.155.42C111.377,141.668,111.442,141.758,112.209,141.754Zm-81.366-4.984a2.28,2.28,0,0,0-1.809.873c-.087.149-.225.294-.122.482a.408.408,0,0,0,.531.146c.546-.171,1.085-.365,1.621-.566a.515.515,0,0,0,.389-.638C31.374,136.745,31.09,136.782,30.844,136.771Zm1.119,15.6a1.037,1.037,0,0,0,.561.743c.327.183.5-.122.663-.324a7.026,7.026,0,0,0,.621-.931.41.41,0,0,0-.163-.636C33.188,151.011,31.984,151.778,31.963,152.371ZM44.274,146c-.6.018-1.009.422-1.342,1.206-.124.292-.271.565.074.78a.588.588,0,0,0,.792-.194,7.677,7.677,0,0,0,.84-1.221C44.886,146.113,44.578,146,44.274,146Zm-9.012,1.071c-.661.071-.912.651-1.079,1.306-.07.276-.28.606.13.767a.655.655,0,0,0,.828-.319c.231-.381.421-.788.63-1.183C36,147.2,35.83,147.04,35.262,147.067ZM13.016,137.86c-.012.427.214.4.489.305a1.892,1.892,0,0,0,1.074-1.27c.11-.268.234-.541-.053-.744a.661.661,0,0,0-.824.1C13.15,136.661,13.261,137.346,13.016,137.86Zm41.838,19.008c-.451.073-.982-.072-1.371.354-.153.168-.307.348-.221.6s.322.264.549.291a2.189,2.189,0,0,0,1.3-.479c.284-.151.875-.068.793-.492C55.8,156.631,55.239,156.936,54.854,156.868Zm69.3-20.466c.022.389.3.416.587.379.473-.062,1.043-.114.944-.788a4.247,4.247,0,0,0-.522-1.241.213.213,0,0,0-.409.016C124.528,135.3,124.348,135.85,124.149,136.4ZM13.969,162.256c.373-.126.933.013,1-.637.023-.218-.923-1.355-1.044-1.266-.455.332-.448.889-.517,1.382C13.359,162.084,13.56,162.3,13.969,162.256ZM25.144,149.91c-.051.267-.036.466.187.563a.43.43,0,0,0,.582-.181c.215-.392.389-.806.578-1.213.083-.178.22-.366.007-.537a.53.53,0,0,0-.562-.012C25.279,148.787,25.37,149.469,25.144,149.91Zm-.04-22.856c-.035.284-.047.522.223.616a.454.454,0,0,0,.578-.219c.2-.4.358-.82.535-1.232a.392.392,0,0,0-.01-.425c-.132-.167-.307-.122-.478-.073C25.254,125.921,25.314,126.6,25.1,127.054Zm-1,26.981c.642-.008.793-.471.885-.944a.319.319,0,0,0-.411-.386c-.51.124-1.195.189-1.327.734C23.148,153.87,23.764,153.924,24.107,154.035ZM57.4,120.225a5.059,5.059,0,0,0-2.975.752c-.134.1-.32.22-.187.422.1.148.28.1.406.019a6.237,6.237,0,0,1,1.976-.634A.924.924,0,0,0,57.4,120.225Zm79.4,10.252c-.329-.01-1.01.7-1.028,1.026-.014.262.13.4.363.347.474-.1,1.05-.121,1.146-.759A.532.532,0,0,0,136.8,130.477ZM26.014,124.1c-.023.282.119.408.386.431a1.1,1.1,0,0,0,1-1.016c.008-.239-.078-.379-.324-.4A1.238,1.238,0,0,0,26.014,124.1Zm3.944-9.233c-.623-.079-.954.618-1.455,1.026-.134.109-.07.288.07.383s.349.106.4-.036c.223-.647.761-.6,1.271-.668.23-.03.442-.182.382-.457C30.571,114.877,30.339,114.868,29.958,114.863ZM11.626,142.649c.022.143.035.3.2.362a.345.345,0,0,0,.39-.149,3.061,3.061,0,0,0,.535-1.068c.068-.192.19-.394-.045-.531a.444.444,0,0,0-.647.181A10.736,10.736,0,0,0,11.626,142.649Zm11.833-10.562c-.019.214.016.358.189.408a.358.358,0,0,0,.436-.2c.186-.379.346-.772.516-1.16.075-.17.123-.344-.081-.454-.181-.1-.334,0-.473.112C23.621,131.138,23.681,131.7,23.459,132.087Zm-2.379-16.84c.141.254-.136.806.43.765s.619-.564.685-1c.041-.274-.055-.524-.4-.461C21.429,114.616,21.068,114.735,21.08,115.247ZM13.911,134.8a.31.31,0,0,0,.355.261,2.415,2.415,0,0,0,.855-.209.732.732,0,0,0,.372-.891c-.171-.338-.464.042-.7.111a3.337,3.337,0,0,0-.665.323A.426.426,0,0,0,13.911,134.8Zm.162,27.805c-.322.031-.643.046-.958.1-.171.029-.344.134-.308.35.031.185.216.195.359.185a6.8,6.8,0,0,0,.952-.115c.315-.068.906.138.887-.246C14.982,162.4,14.4,162.721,14.073,162.6ZM5.615,163.74c.279-.163.874.226.887-.423a.536.536,0,0,0-.7-.479c-.392.087-.816.289-.812.734C4.991,163.946,5.372,163.7,5.615,163.74Zm17.514-28.62c-.049-.152.046-.38-.176-.442s-.294.149-.376.29a2.031,2.031,0,0,0-.277,1.282c.013.1.169.125.246.056A2.156,2.156,0,0,0,23.129,135.121Zm4.345-76.912c.009.308.12.523.435.51a.519.519,0,0,0,.542-.583A.479.479,0,0,0,28,57.628C27.615,57.612,27.511,57.9,27.474,58.209Zm-16.518,86.9c-.007.2-.069.491.184.413.55-.17.456-.779.656-1.19.072-.15-.023-.367-.181-.333C11.006,144.136,11.139,144.743,10.956,145.113ZM29.868,52.727c.016.233.1.46.361.477.351.023.437-.269.473-.549.031-.242-.034-.485-.321-.482C30.062,52.175,29.924,52.419,29.868,52.727ZM25.948,64.38a.433.433,0,0,0-.425.49c0,.23.042.5.34.445a.574.574,0,0,0,.472-.579C26.342,64.5,26.173,64.4,25.948,64.38ZM49.266,43.33a3.042,3.042,0,0,0,1.224-1.341A2.234,2.234,0,0,0,49.266,43.33Zm-8.678,91.2c-.264.135-.706-.009-.848.392-.057.16.2.207.332.158.327-.122.8.038.957-.376C41.1,134.521,40.784,134.552,40.588,134.531Zm18.507-15.113c-.276.148-.745-.044-.933.365-.066.144.2.211.334.165.332-.118.794.07.981-.346C59.542,119.456,59.291,119.422,59.094,119.418ZM5.063,58.873c.119.222-.035.652.332.777.224.076.222-.216.2-.37-.043-.3.02-.695-.363-.8C5.056,58.427,5.069,58.669,5.063,58.873Zm25.03,80.8c-.232.043-.446.142-.446.409s.221.3.43.285.4-.121.411-.354C30.5,139.754,30.319,139.676,30.093,139.669ZM23.411,70.81c-.25.058-.3.277-.311.5-.012.191-.052.463.215.467s.332-.261.363-.487C23.706,71.088,23.683,70.891,23.411,70.81Z" transform="translate(2.737 0.246)" fill="rgba(93,193,133,0.64)"/>
  <path id="Tracé_26" data-name="Tracé 26" d="M525.129,37.868c-8.273-2.838-16.487-5.834-24.591-9.124l.1-.26,24.575,9.168Z" transform="translate(-383.905 133.193)" fill="rgba(93,193,133,0.64)"/>
  <path id="Tracé_27" data-name="Tracé 27" d="M740.754.09l15.731,6.5-.107.258c-5.336-1.944-10.506-4.29-15.733-6.5Z" transform="translate(-639.225 167.082)" fill="rgba(93,193,133,0.64)"/>
  <path id="Tracé_28" data-name="Tracé 28" d="M579.108,5.3A26.843,26.843,0,0,1,582.7,6.55c3,1.107,5.981,2.25,8.972,3.375.138.052.285.078.364.287-.541.2-.943-.163-1.35-.31-2.476-.89-4.933-1.831-7.4-2.753-1.125-.421-2.256-.828-3.375-1.265-.307-.12-.721-.145-.787-.6Z" transform="translate(-458.628 163.137)" fill="rgba(93,193,133,0.64)"/>
  <path id="Tracé_29" data-name="Tracé 29" d="M480.607,100.38l10.447,3.059-.08.275c-3.484-1.016-7.006-1.9-10.443-3.083Z" transform="translate(-347.794 60.076)" fill="rgba(93,193,133,0.64)"/>
  <path id="Tracé_30" data-name="Tracé 30" d="M1509.954,1514.8a.549.549,0,0,1,.131.674c-.505,1.556-.739,3.173-1.092,4.764-.051.227,0,.591-.352.563s-.277-.38-.273-.612c.017-.9-.137-1.775.652-2.573C1509.71,1516.919,1509.546,1515.742,1509.954,1514.8Z" transform="translate(-1469.791 -1500.219)" fill="rgba(93,193,133,0.64)"/>
  <path id="Tracé_31" data-name="Tracé 31" d="M445.679,141.413l7.754,1.968-.064.265-7.762-1.952Z" transform="translate(-306.686 15.995)" fill="rgba(93,193,133,0.64)"/>
  <path id="Tracé_32" data-name="Tracé 32" d="M1309.283,899.64c-1.816.876-3.557,1.906-5.434,2.656l-.125-.259,5.439-2.646Z" transform="translate(-1248.418 -819.398)" fill="rgba(93,193,133,0.64)"/>
  <path id="Tracé_33" data-name="Tracé 33" d="M881.9,3.93c-1.884-.616-3.617-1.585-5.426-2.377l.1-.23,5.447,2.328Z" transform="translate(-778.398 169.878)" fill="rgba(93,193,133,0.64)"/>
  <path id="Tracé_34" data-name="Tracé 34" d="M1009.993,2.684a10.812,10.812,0,0,1,3.342,1.583C1012.025,4.154,1011.07,3.29,1009.993,2.684Z" transform="translate(-923.088 169.404)" fill="rgba(93,193,133,0.64)"/>
  <path id="Tracé_35" data-name="Tracé 35" d="M1444.043,1579.86a5.494,5.494,0,0,1,.942-2.911A5.927,5.927,0,0,1,1444.043,1579.86Z" transform="translate(-1398.202 -1565.561)" fill="rgba(93,193,133,0.64)"/>
  <path id="Tracé_36" data-name="Tracé 36" d="M1019,1049.283c-.55.452-.915,1.243-2.106.931l2.016-1.1Z" transform="translate(-929.453 -982.542)" fill="rgba(93,193,133,0.64)"/>
  <path id="Tracé_37" data-name="Tracé 37" d="M52.21,416.406c-.746.06-1.483.432-2.241.013C50.717,416.469,51.455,416.135,52.21,416.406Z" transform="translate(134.07 -284.814)" fill="rgba(93,193,133,0.64)"/>
  <path id="Tracé_38" data-name="Tracé 38" d="M70.4,432.09a2.581,2.581,0,0,1-1.414.434c-.15.025-.331-.041-.332-.221s.19-.208.338-.21C69.46,432.086,69.929,432.09,70.4,432.09Z" transform="translate(113.992 -302.326)" fill="rgba(93,193,133,0.64)"/>
  <path id="Tracé_39" data-name="Tracé 39" d="M453.772,194.894a5.9,5.9,0,0,1,1.835.217C455.131,195.449,455.131,195.449,453.772,194.894Z" transform="translate(-309.692 -41.108)" fill="rgba(93,193,133,0.64)"/>
  <path id="Tracé_40" data-name="Tracé 40" d="M382.269,177.628c-.593.358-1.029-.183-1.554-.241A2.7,2.7,0,0,1,382.269,177.628Z" transform="translate(-229.042 -21.743)" fill="rgba(93,193,133,0.64)"/>
  <path id="Tracé_41" data-name="Tracé 41" d="M1319.719,1110.12l1.379-.913.136.2a3.669,3.669,0,0,1-1.408.9Z" transform="translate(-1262 -1048.645)" fill="rgba(93,193,133,0.64)"/>
  <path id="Tracé_42" data-name="Tracé 42" d="M460.274,95.109c.593-.39.968.129,1.423.371Z" transform="translate(-316.434 68.858)" fill="rgba(93,193,133,0.64)"/>
  <path id="Tracé_43" data-name="Tracé 43" d="M1453.07,749.229c.015.141.029.173.019.187a.865.865,0,0,1-.912.319.178.178,0,0,1-.089-.3C1452.354,749.105,1452.71,749.267,1453.07,749.229Z" transform="translate(-1407.107 -651.656)" fill="rgba(93,193,133,0.64)"/>
  <path id="Tracé_44" data-name="Tracé 44" d="M1423.159,763.272c-.092.319-.35.3-.547.367-.175.056-.437.329-.523-.04-.06-.258.221-.351.449-.382A.887.887,0,0,1,1423.159,763.272Z" transform="translate(-1374.174 -667.101)" fill="rgba(93,193,133,0.64)"/>
  <path id="Tracé_45" data-name="Tracé 45" d="M708.346,54.767c-.531.169-.957-.156-1.419-.307-.1-.031-.189-.1-.149-.219a.2.2,0,0,1,.306-.094c.395.251.9.285,1.244.633Z" transform="translate(-587.756 113.655)" fill="rgba(93,193,133,0.64)"/>
  <path id="Tracé_46" data-name="Tracé 46" d="M1437.813,756.891c-.054.124-.057.155-.075.167a.967.967,0,0,1-.945.209.158.158,0,0,1-.025-.255C1437.069,756.709,1437.415,756.788,1437.813,756.891Z" transform="translate(-1390.293 -659.988)" fill="rgba(93,193,133,0.64)"/>
  <path id="Tracé_47" data-name="Tracé 47" d="M64.538,354.685h1.719A1.816,1.816,0,0,1,64.538,354.685Z" transform="translate(118.55 -216.866)" fill="rgba(93,193,133,0.64)"/>
  <path id="Tracé_48" data-name="Tracé 48" d="M41.343,587.552a1.552,1.552,0,0,1-1.433.471A1.969,1.969,0,0,1,41.343,587.552Z" transform="translate(145.954 -473.578)" fill="rgba(93,193,133,0.64)"/>
  <path id="Tracé_49" data-name="Tracé 49" d="M43.794,611.96a1.936,1.936,0,0,1,1.46-.47,2.221,2.221,0,0,1-1.476.46Z" transform="translate(141.652 -499.915)" fill="rgba(93,193,133,0.64)"/>
  <path id="Tracé_50" data-name="Tracé 50" d="M1222.3,1555.76l-1.109,1.043A3.4,3.4,0,0,1,1222.3,1555.76Z" transform="translate(-1153.207 -1540.361)" fill="rgba(93,193,133,0.64)"/>
</svg>
