<svg xmlns="http://www.w3.org/2000/svg" width="534.956" height="480.326" viewBox="0 0 534.956 480.326">
  <path id="set_of_leaves" d="M14.347,170.753a3.347,3.347,0,0,1,2.024-1.678c4.52-1.923,8.96-4.051,13.474-5.946,2.6-1.093,4.83-2.921,7.625-3.594,1.515-.365,2.091-2.138,3.6-2.736a33.327,33.327,0,0,1,3.167-1.546c.427-.121,1.115-.2.839-.9-.179-.446-.7-.316-1.111-.179-4.526,1.526-9.029,3.125-13.584,4.558-4.991,1.57-9.846,3.578-15.027,4.859.141-1.089.917-1.327,1.618-1.545,6.818-2.124,13.362-5.037,20.15-7.188a42.7,42.7,0,0,0,10.493-5.326c.369-.241,1.113-.311.81-.969-.253-.549-.863-.25-1.319-.171a25.177,25.177,0,0,0-6.616,1.818c-2.944,1.4-6.238,1.231-9.342,1.951-3.18.739-6.3,1.663-9.465,2.452-3,.748-6.035,1.33-9.055,1.985l-.219-.639a31.546,31.546,0,0,1,4.083-1.018,36.158,36.158,0,0,0,8.788-2.358,41.461,41.461,0,0,1,4-1.086c7.757-2.15,15.515-4.3,23.3-6.335a28.905,28.905,0,0,0,5.954-1.783c.854-.432,1.755-.854,1.406-1.972-.372-1.191-1.35-.657-2.111-.447-2.646.729-5.388.377-8.074.785-8.61,1.307-17.365,1.454-25.93,3.164a12.04,12.04,0,0,1-4.219.133c4.508-1.215,8.685-1.537,12.78-2.29,10.518-1.934,21.22-2.818,31.6-5.548a3.342,3.342,0,0,0,.8-.213c.778-.442,1.959-.958,1.805-1.782-.173-.926-1.429-.527-2.2-.5-11.087.461-22.172.966-33.258,1.451-7.693.337-15.387.658-23.585,1.009,4.015-1.271,7.677-1.26,11.3-1.261,1.479,0,2.9-.25,4.345-.366,9.415-.754,18.814-1.886,28.243-2.249,7.087-.273,14.045-1.8,21.181-1.582,3.2.1,6.451-.864,9.647-1.5,1.115-.222,2.113-.586,3.2.056a.93.93,0,0,0,1.436-.336c.373-.858-.4-1-.943-1.294-1.672-.905-3.528-.477-5.252-.773-4.858-.836-9.706-.281-14.526-.161-10.971.273-21.929,1-32.9,1.478q-8.541.374-17.092.514c-2.846.043-5.664.772-9.077.206a63.267,63.267,0,0,1,10.574-1.375c9.641-.544,19.28-1.106,28.9-1.967,4.772-.427,9.6-.038,14.332-1.06a18.349,18.349,0,0,1,6.6-.382c2.046.3,3.849-.633,5.776-1.217,2.715-.824,5.418-2.326,8.546-1.525.764.2,2.742.183,2.643-.811-.138-1.4-1.866-1.073-2.977-.9-3.4.517-6.808.177-10.211.235-10.152.172-20.309.19-30.453.556-4.309.156-8.616.222-12.925.309a4.448,4.448,0,0,1-2.451-.307,4.675,4.675,0,0,1,3.064-1.354c10.218-1.931,20.574-1.746,30.9-2.133,7.495-.281,14.981-.793,22.469-1.217.582-.033,1.537.183,1.536-.619s-.956-.6-1.537-.61c-9.18-.128-18.347.34-27.518.644-2.638.087-5.28.085-7.92.131-8.548.15-17.1.292-25.633.8a1.763,1.763,0,0,1-1.014-.274A26.351,26.351,0,0,1,27.4,115.6c9.179-.123,18.335-.889,27.5-1.045,5.352-.091,10.656-1.009,16.024-.661a19.556,19.556,0,0,0,5.75-.91,3.158,3.158,0,0,1,2.039-.1c1.117.466,2.053.9,1.69-1.117-.164-.914.817-.855,1.341-.476.825.6,1.441.31,2.279-.009a11.482,11.482,0,0,1,5.368-.245,22.032,22.032,0,0,0,5.794-.372c.611-.095,1.674-.178,1.52-1.059-.16-.918-1.228-.8-1.943-.74-5.553.5-11.1-.179-16.649-.089-7.432.12-14.869.144-22.3-.015-13.543-.289-27.087-.359-40.632-.408a2.435,2.435,0,0,1-1.885-.55,42.835,42.835,0,0,1,6.007-.513c6.19.354,12.356-.213,18.534-.243,7.287-.035,14.576-.1,21.861-.242q8.233-.166,16.466-.217c4.441-.021,8.878-.48,13.321-.22a21.872,21.872,0,0,0,6.636-.5,2.933,2.933,0,0,1,1.43-.155,9.894,9.894,0,0,0,6.918-.3c3.245-1.406,6.734-1.575,10.1-2.366.593-.14,1.483-.275,1.354-1.02-.173-1-1.112-.587-1.723-.445-2.379.552-4.7-.146-7.043-.232-5.416-.2-10.834,0-16.261-.331-5.674-.341-11.386-.006-17.073-.193-9.455-.313-18.922-.1-28.364-.494-6.038-.254-12.1.179-18.12-.61-1.376-.181-2.8-.027-4.231-.3a24.989,24.989,0,0,1,4.009-.493c9.994.344,19.986-.074,29.979-.057,10.977.018,21.955,0,32.935-.182q11.03-.183,22.076-.308c5.6-.071,11.23.478,16.821-.626,2.039-.4,4.263.582,6.3-.544.411-.227,1.028-.212.948-.883a.919.919,0,0,0-1.08-.775,7.16,7.16,0,0,1-5.42-1.515.609.609,0,0,0-.4-.093c-5.741.534-11.417-.653-17.131-.852-5.311-.185-10.68-.172-15.987-.743-3.048-.328-6.124-.423-9.152-.456-10.086-.11-20.145-.8-30.221-1.1-11.178-.335-22.345-1-33.517-1.52-1.129-.053-2.258-.126-3.387-.19l.013-.646c1.2,0,2.409-.016,3.614,0,7.909.119,15.825.1,23.727.41,7.987.312,15.975.243,23.959.425,7.908.179,15.814.353,23.725.4,6.1.036,12.19.315,18.285.482a14.316,14.316,0,0,0,3.733-.292,2.9,2.9,0,0,1,1.828-.08c2.149,1.241,4.224.222,6-.513a14.756,14.756,0,0,1,7.551-.644,12.247,12.247,0,0,0,3.734.024c.484-.1,1-.312.9-.932-.08-.5-.578-.555-1-.566-6.6-.18-13.1-1.4-19.7-1.763-9.083-.5-18.14-1.471-27.211-2.2-6.577-.528-13.163-.959-19.74-1.49-7.2-.581-14.389-1.238-21.585-1.842-4.5-.378-9-.716-13.5-1.076-2.132-.17-4.262-.351-6.768-.558a2.519,2.519,0,0,1,2.214-.593c6.914.492,13.824,1.042,20.739,1.517,5.057.347,10.12.6,15.18.907,7.691.469,15.376,1.064,23.073,1.388,5.322.224,10.61.836,15.95.942,7.407.147,14.8,1.071,22.206,1.3,5.68.176,11.334,1.07,17.038.622,1.791-.141,3.559.822,5.368.253.916-.289,2.437-.176,2.165-1.674a2.269,2.269,0,0,0-2.837-1.815c-.881.175-1.432.157-1.919-.652a1.873,1.873,0,0,0-.981-.7c-6.687-2.154-13.631-2.959-20.556-3.837-5.845-.741-11.7-1.372-17.526-2.3-3.9-.621-7.839-.991-11.758-1.488q-8.876-1.125-17.75-2.271-8.575-1.1-17.148-2.218-10.634-1.367-21.27-2.721c-7.574-.965-15.154-1.893-22.723-2.9C11.833,61.3,6.756,60.511,1.67,59.792c-1.3-.184-2.605-.29-4.084-.45.47-.792,1.145-.594,1.654-.546,4,.383,8,.813,12,1.229,6.561.683,13.126,1.335,19.682,2.06,5.723.633,11.434,1.363,17.154,2.022,5.575.643,11.154,1.248,16.73,1.875,6.687.752,13.37,1.543,20.061,2.251,4.139.438,8.3.689,12.436,1.139,4.4.478,8.783,1.151,13.186,1.63,4.274.464,8.564.78,12.845,1.177,4.556.422,9.109.866,13.664,1.3,2.693.254,5.389.486,8.081.754,3.145.314,6.291.626,9.43.994,2.776.326,4.434-1.7,6.392-3.026.636-.432-.023-.763-.531-.9-4.514-1.229-8.82-3.141-13.436-4.043-5.564-1.088-11.115-2.245-16.672-3.368q-8.461-1.709-16.922-3.411Q98.67,57.5,84.009,54.512,63.4,50.27,42.809,45.976c-7.2-1.487-14.432-2.811-21.588-4.47-3.576-.829-7.267-1.176-10.73-2.605,1.8-.413,3.575.183,5.286.481,5.316.927,10.624,1.9,15.942,2.824,7.372,1.28,14.693,2.856,22.044,4.259,4.9.935,9.817,1.754,14.714,2.689,4.485.856,8.947,1.835,13.432,2.69,3.125.6,6.279,1.036,9.409,1.606,6.266,1.142,12.5,2.468,18.792,3.45s12.507,2.4,18.816,3.327c4.587.677,9.162,1.558,13.738,2.371,5.787,1.028,11.546,2.228,17.419,2.685,1.559.121,2.667-1.219,4.279-1.305,1.359-.073,2.6-1.2,4.167-.842a.9.9,0,0,0,.995-.875c.045-.488-.367-.687-.763-.865-3.421-1.538-7.1-2.23-10.661-3.288-4.049-1.2-8.154-2.119-12.242-3.12-6.591-1.614-13.216-3.088-19.813-4.674-6.2-1.49-12.368-3.081-18.565-4.568-5.454-1.308-10.934-2.509-16.391-3.8-4.922-1.166-9.829-2.4-14.745-3.589-11.478-2.782-22.964-5.53-34.435-8.345-7.542-1.85-15.053-3.826-22.594-5.684C13.063,22.786,6.788,21.348.531,19.833a14.845,14.845,0,0,1-3.268-1.241c2.266-.443,4.393.451,6.537.854,5.583,1.048,11.134,2.271,16.688,3.465,4.329.931,8.643,1.932,12.967,2.885,4.392.969,8.791,1.908,13.183,2.878,4.06.9,8.109,1.842,12.172,2.724,7.043,1.529,14.1,2.981,21.136,4.549,6.619,1.476,13.2,3.1,19.82,4.587,5.409,1.22,10.839,2.348,16.262,3.51,5.883,1.261,11.759,2.553,17.653,3.763,5.837,1.2,11.7,2.286,17.538,3.466,4.408.89,8.775,2.031,13.212,2.719a99.546,99.546,0,0,1,9.892,1.792c3.151.828,5.054-1.361,7.641-1.405a1.26,1.26,0,0,0,1.116-1.328c.016-.71-.568-.828-1.1-1.035-10.388-4.019-21.289-6.243-31.989-9.172-4.277-1.171-8.553-2.346-12.843-3.467-7.184-1.877-14.382-3.7-21.567-5.57-7.238-1.886-14.462-3.822-21.7-5.706-8.4-2.186-16.817-4.3-25.208-6.515-9.315-2.459-18.605-5.011-27.913-7.5-5.96-1.592-11.941-3.1-17.9-4.712-5.4-1.458-10.784-3-16.174-4.5l.125-.636c1.674.33,3.356.627,5.022,1,4.457.99,8.915,1.981,13.358,3.028,5.385,1.269,10.754,2.613,16.136,3.894,5.116,1.218,10.245,2.383,15.362,3.6,5.455,1.3,10.9,2.651,16.354,3.936,6.466,1.522,12.948,2.979,19.415,4.5,5.118,1.2,10.218,2.478,15.335,3.682,5.454,1.284,10.923,2.5,16.378,3.785,5.389,1.265,10.764,2.592,16.154,3.85,4.114.96,8.249,1.829,12.364,2.786,4.166.969,8.3,2.069,12.483,2.974,2.89.626,5.708,1.639,8.7,1.761a5.517,5.517,0,0,1,1.779.531c.684.262,1.63.375,1.957-.194,1.611-2.808,3.727-1.043,5.416-.481a81.674,81.674,0,0,0,12.8,3.5c1.388.222,2.866-.345,4.182.7.4.314,1.07-.25,1.285-.79.283-.712-.317-.963-.817-1.218a65.869,65.869,0,0,0-10.864-4.2c-5.693-1.729-11.423-3.333-17.125-5.032-6.51-1.939-13.006-3.927-19.511-5.883-6.3-1.894-12.6-3.817-18.92-5.6-5.871-1.656-11.68-3.531-17.586-5.077-6.02-1.576-11.932-3.564-17.894-5.362Q86.714,10.353,74.855,6.791,65.5,3.975,56.153,1.155c-.392-.118-.842-.133-1.1-.914A11.657,11.657,0,0,1,60.874.177C65.591,1.261,70.25,2.6,74.926,3.858c10.3,2.774,20.605,5.533,30.893,8.353,6.943,1.9,13.846,3.951,20.793,5.84,6.137,1.669,12.316,3.184,18.466,4.81,5.89,1.557,11.755,3.2,17.648,4.75,7.033,1.845,14.088,3.6,21.123,5.438,6.027,1.573,12.037,3.209,18.057,4.806q9.433,2.5,18.873,4.982c2.678.7,5.344,1.476,8.051,2.047,1.059.223,2.77.842,3.16-.4.374-1.191-1.276-1.639-2.323-2.2-1.345-.715-3.3-.366-4.017-2.23a.587.587,0,0,0-.52-.241c-2.513,1.091-4.321-1.12-6.6-1.391a5.408,5.408,0,0,0,3.581-1.516c.391-.337,1.257-.2,1.234-.914a1.729,1.729,0,0,0-1.354-1.447c-1.86-.61-3.537-1.629-5.337-2.331-7.489-2.922-15.038-5.689-22.548-8.556-6.285-2.4-12.564-4.838-18.887-7.111-11.026-3.963-21.9-8.337-32.944-12.231-2.62-.923-5.208-1.938-7.807-2.923A1.745,1.745,0,0,1,133.155.017c4.752.13,9.345-.576,13.966,1.173,7.2,2.726,14.546,5.06,21.83,7.563,9.939,3.416,19.87,6.856,29.822,10.232,1.951.662,3.985,1.076,5.977,1.617.43.116.889.174,1.129-.231.326-.551-.057-.9-.527-1.15-.352-.189-.831-.21-.951-.759.4-.771.907-.253,1.371-.072,7.25,2.821,14.511,5.612,21.74,8.485,2.94,1.169,6.054,1.469,9.1,2.1.824.171,1.754.293,2.041-.833a1.673,1.673,0,0,0-1.06-2.014c-3.863-2.067-8.021-3.444-12.042-5.135-4.6-1.935-9.3-3.634-13.977-5.383-7.91-2.958-15.841-5.862-23.754-8.814C182.755,4.9,177.7,2.968,172.646,1.042a3.893,3.893,0,0,1-.654-.4c.085-.216.125-.438.181-.442,4.5-.328,8.945-.633,13.326,1.122,4.82,1.931,9.774,3.531,14.678,5.251,5.163,1.81,10.321,3.634,15.508,5.375,7.233,2.427,14.492,4.776,21.736,7.169,6.113,2.02,12.209,4.089,18.334,6.072,4.865,1.574,9.76,3.054,14.645,4.566a1.353,1.353,0,0,0,1.79-.638c.37-.771-.382-1.01-.783-1.469-1.6-1.826-4.282-1.975-5.825-3.86a.741.741,0,0,0-.959-.087c-.51.248-1.011,1.106-1.578.369-.382-.5.374-.952.624-1.421.891-1.67.006-3.722-2.314-4.73Q251.9,13.8,242.372,9.872C235.33,6.954,228.257,4.114,221.2,1.225a6.618,6.618,0,0,1-1.026-.654c.1-.2.155-.4.219-.406,4.781-.267,9.513-.611,14.18,1.207,8.847,3.446,17.7,6.9,26.766,9.753.721.227,1.556.857,2.043-.012.6-1.076-.723-1.059-1.188-1.539a3.883,3.883,0,0,1-.375-.583c.846-.469,1.541-.008,2.171.271,3.868,1.716,7.7,3.5,11.567,5.229,2.28,1.018,4.849,1.234,7.038,2.55.66.4,1.219-.071,1.443-.75a2.92,2.92,0,0,1,.79-1.406c1.065-.964.386-1.554-.577-1.992-4.979-2.267-9.945-4.565-14.947-6.781-3.544-1.57-7.137-3.032-10.713-4.531-.556-.233-1.452-.245-1.332-1.036s1.007-.5,1.586-.575c7.589-.934,14.511,1.3,21.337,4.294a50.238,50.238,0,0,0,9.726,3.566c.506.106,1.123.592,1.516-.035.379-.605-.434-.736-.653-1.116-.127-.221-.269-.565-.181-.748.188-.4.6-.267.911-.127,1.518.69,3.069,1.323,4.524,2.129a40.44,40.44,0,0,0,6.287,2.773c1.416.494,4.036-.674,4.449-2.289.359-1.406-1.044-2.043-1.987-2.584-2.575-1.479-5.252-2.781-7.893-4.147A3.339,3.339,0,0,1,295.235.508c.56-.754,1.318-.511,1.962-.517,3.757-.032,7.515,0,11.271-.025,2.175-.014,4.01.992,5.9,1.85a18.419,18.419,0,0,0,1.906.819c.79.256,1.77.584,2.272-.3.582-1.02-.864-.985-1.191-1.733a2.59,2.59,0,0,1,2.665.457q3.182,2.171,6.5,4.137c1.156.685,2.362,1,2.274-1.1-.023-.546.138-1,.683-1.148,1.04-.276,1.287-.746.858-1.811-.361-.9.6-1.023,1.149-1.046a80.38,80.38,0,0,1,13.746.134c1.767.234,3.39,1.526,5.086,2.32.88.412,1.775.788,2.664,1.181,1.048.463,2.155-.035,2.216-.871.255-3.5,2.784-2.395,4.676-2.483,4.094-.19,8.184-.423,12.288-.483a12.466,12.466,0,0,1,7.591,2.243c2.461,1.688,5.084,3.137,7.6,4.742,1.185.755,2.536.651,3.815.909a.958.958,0,0,0,1.144-.692,1.579,1.579,0,0,0-.515-1.707c-1.19-1.065-2.43-2.072-3.653-3.1-.523-.439-1.053-.868-1.665-1.37.778-.84,1.651-.522,2.412-.569,11.257-.692,22.519.02,33.775-.122,6.672-.084,13.346-.244,20.022-.272a2.98,2.98,0,0,1,3,1.607c1.079,1.758,2.4,3.709,5.066,3.33.676-.1,1.482.083,1.867-.65.416-.792-.057-1.463-.515-2.1-.314-.433-1.033-.756-.806-1.35.278-.727,1.082-.466,1.67-.478q9.592-.2,19.186-.362c1.743-.032,3.474-.083,5.064.881a1.678,1.678,0,0,0,1.39.141C480.59-.08,482.7.348,484.762.3c6.465-.144,12.944-.54,19.393-.262C512.577.4,520.978-.284,529.386,0c2.561.086,3.158.843,2.684,3.211-.066.329-.013.787-.543.609-1.74-.587-1.608.72-1.742,1.712-.316,2.335-.326,4.714-1.116,6.98-.563,1.614-1.544,2.371-3.318,2.057a30.967,30.967,0,0,1-14.1-6.269c-.552-.438-1.052-.967-1.836-.738-.849.248-.923,1-.9,1.693.048,1.512-.65,2.841-1.036,4.233A3.964,3.964,0,0,1,502.57,16c-4.216-1.121-8.446-2.264-12.248-4.52a8.1,8.1,0,0,1-1.655-1.247A6.183,6.183,0,0,0,481.574,8.7a1.473,1.473,0,0,0-.917,1.856,21.2,21.2,0,0,1-.263,5.193,2.78,2.78,0,0,1-3.04,2.789,18.008,18.008,0,0,1-7.277-1.522,17.834,17.834,0,0,0-2.7-.987,8.608,8.608,0,0,1-4.584-2.693,15.222,15.222,0,0,0-4.04-3.269c-2.359-1.431-4.247-.416-4.051,2.26a32.189,32.189,0,0,1-.441,10.148c-.307,1.253.742,1.1,1.466,1.106,3.293.008,6.475-.856,9.711-1.294,8.6-1.166,17.251-1.957,25.875-2.94,8.908-1.015,17.854-1.544,26.763-2.515,4.141-.451,8.315-.593,12.472-.9,1.1-.082,1.7.2,1.66,1.463-.083,2.433-.058,4.869-.111,7.3-.008.395-.073,1.037-.3,1.139-2.217.99-1.421,2.037-.214,3.265.808.822.514,1.986.516,3q.047,29.638.05,59.276c0,10.3-.028,20.593-.024,30.89,0,1.432.1,2.807-1.832,3.151-.476.085-.858.675-1.292,1.022-2.534,2.023-2.484,2.621.218,4.264.743.452,1.148.33,1.454-.405.418-1,.815-2.014,1.434-3.55V355.6l-.346.163c-.9-1.473-1.833-2.923-2.681-4.423-3.877-6.854-7.932-13.618-11.5-20.628-1.772-3.478-4.211-6.679-5.091-10.6-.107-.476-.427-.94-1.03-.8-.5.113-.516.6-.534,1.018a5.616,5.616,0,0,0,.551,2.634,160.62,160.62,0,0,1,6.55,15.96c2.162,6.29,4.41,12.553,7.108,18.617,1.263,2.838,1.5,6.066,3.461,8.621a1.835,1.835,0,0,1-.024,2.264c-.834-2.144-3.048-3.007-3.945-5.112-.432-1.014-1.072-2.046-1.567-3.1-.265-.565-.644-1.236-1.373-1.035-.76.208-.345.934-.329,1.442a6.967,6.967,0,0,0,1.355,4.076c1.248,1.7,1.4,3.877,2.214,5.8,1.282,3.039,2.962,5.984,3.458,9.324.108.726.336,1.715-.538,2.044s-1.039-.686-1.4-1.225c-3.526-5.24-6.095-11.035-9.42-16.381-2.515-4.044-4.6-8.323-7.172-12.339a103.251,103.251,0,0,1-5.035-9.731,117.578,117.578,0,0,1-5.394-11.217c-1.012-2.718-3.283-4.848-3.488-7.891-.027-.393-.146-.925-.7-.828-.523.091-.5.628-.453,1.025a6.907,6.907,0,0,0,.442,2.24c1.75,3.411,2.325,7.219,3.723,10.748a33.025,33.025,0,0,1,1.109,4.011,94.957,94.957,0,0,0,3.652,11.181c1.138,2.9,2.188,5.868,3.089,8.84,2.266,7.469,5.8,14.395,8.739,21.574.92,2.247,1.919,4.462,2.845,6.707a3.368,3.368,0,0,1,.281,2.676c-1.415-.186-.609-1.9-1.622-2.312a1.03,1.03,0,0,0-.364.139c-.47.451.292,1.612-.821,1.626-.743.009-1.123-.741-1.549-1.282a1.878,1.878,0,0,1-.292-.551c-2.229-6.568-6.189-12.215-9.547-18.193-2.633-4.688-4.734-9.672-7.117-14.5a54.8,54.8,0,0,0-3.447-6.838,12.7,12.7,0,0,1-.977-2.94c-.163-.463-.451-.934-1.054-.785-.5.123-.508.614-.52,1.029a8.651,8.651,0,0,0,.786,3.851c2.184,4.843,3.158,10.053,4.6,15.122.776,2.731,1.922,5.343,2.891,8,1.284,3.521,2.457,7.09,3.616,10.64,1.568,4.8,3.44,9.5,4.551,14.489.71,3.19-.748,6.465,1.161,9.432-5.589-5.039-8.3-11.792-11.822-18.027q-2.6-4.6-5.078-9.262c-.418-.787-.561-1.715-.916-2.541-.222-.516-.636-.991-1.3-.773-.589.194-.55.768-.471,1.243a27.453,27.453,0,0,0,.686,3.476c2.787,9.161,4.811,18.538,7.892,27.617.806,2.376.823,4.929,1.915,7.638a3.142,3.142,0,0,1-2.254-2.233c-1.822-4.189-3.35-8.518-5.377-12.6-2.064-4.158-3.68-8.5-5.569-12.724a69.062,69.062,0,0,1-3.376-8.468c-.721-2.43-1.858-4.754-2.82-7.1-2.666-6.5-4.648-13.233-6.93-19.853-2.26-6.556-4.524-13.118-6.709-19.7-1.463-4.407-3.612-8.56-4.83-13.058a4.529,4.529,0,0,0-.68-1.01,4.054,4.054,0,0,0-.136,3.679c2.04,6.483,4.262,12.912,6.164,19.435,1.554,5.329,3.263,10.6,5.059,15.848,2.377,6.942,4.98,13.807,7.39,20.739,1.957,5.626,3.783,11.3,5.63,16.962,1.156,3.541,2.307,7.11,3.521,10.641,1.3,3.774,3.071,7.427,3.635,11.434a2.6,2.6,0,0,1-.278,2.161.663.663,0,0,1-.795-.552c-1.162-4.157-3.91-7.625-5.1-11.767a1.828,1.828,0,0,0-.362-.744c-.645-.68-1.223-2.056-2.12-1.664-.965.421.229,1.4.342,2.153.84,5.631,3.145,10.96,3.482,16.7.019.32.192.672-.343,1.1-1.016-2.927-2.235-5.691-3.351-8.486-1.356-3.395-2.836-6.726-4.287-10.076-1.032-2.382-1.6-4.963-3.094-7.161-.306-.451-.448-1.2-1.129-.94-.764.293-.538,1.087-.318,1.638,2.756,6.911,4.649,14.13,7.332,21.047,1.666,4.3,2.139,8.942,4.289,13.046a1,1,0,0,1,.112.4c.051,1,.775,2.475-.215,2.864-1.041.41-.919-1.237-1.324-1.932-3.213-5.5-5.638-11.4-8.565-17.043-1.87-3.6-3.56-7.3-5.328-10.942a36.269,36.269,0,0,1-3.2-7.609c-.469-2.051-2.228-3.529-2.571-5.653a.446.446,0,0,0-.632-.346.725.725,0,0,0-.351.462,2.892,2.892,0,0,0-.055,1.033c1.418,8.321,1.465,16.784,4.319,24.981a265.9,265.9,0,0,1,7.633,25.76c.45,1.888,1.157,3.713,1.728,5.573a5.159,5.159,0,0,1-.058,3.625c-1.336-2.843-2.565-5.117-3.483-7.512a29.464,29.464,0,0,0-3.02-6.145,18.39,18.39,0,0,1-1.434-3.453c-1.96-4.7-3.884-9.411-5.846-14.1-1.322-3.161-2.711-6.332-3.868-9.59-1.194-3.36-2.259-6.8-3.72-10.058a25.668,25.668,0,0,1-1.437-4.311c-.928-3.685-2.9-7.049-3.417-10.873-.065-.481-.278-.993-.881-1.011-.668-.021-.976.5-1.162,1.028-.724,2.064-.624,4.25-.865,6.383-.4,3.549.694,6.877,1.669,10.22,2.9,9.938,5.711,19.9,8.681,29.819,2.273,7.59,4.662,15.144,6.313,22.9.133.626.622,1.291-.083,2.016a3.2,3.2,0,0,1-1.483-2.118c-1.939-5.726-4.728-11.107-6.823-16.754-1.08-2.91-2.555-5.651-3.412-8.675-.705-2.487-2.359-4.688-2.5-7.408-.026-.483-.289-1.007-.9-.964-.491.035-.566.539-.7.933a17.4,17.4,0,0,0-1.259,6.731c-.937-.162-.733-.785-.7-1.152.558-6.377-1.675-12.356-2.558-18.526a69.579,69.579,0,0,0-3.982-15.18c-.27-.7-.389-1.709-1.3-1.682-.942.028-.566,1.094-.821,1.681-2.012,4.643-.272,9.239.414,13.757C442.34,430.1,445.2,447.04,447.931,464c.416,2.58.741,5.175.925,7.809-1.32-1.136-1.366-2.809-1.764-4.254-1-3.611-1.523-7.359-2.64-10.926-1.529-4.878-2.327-9.929-3.933-14.8-1.271-3.853-1.721-7.978-2.522-11.984a6.789,6.789,0,0,0-.132-1.238c-.453-1.081-.124-3.013-1.585-3-1.183.011-1.644,1.792-1.854,2.956-.406,2.248-.511,4.551-.751,6.829-.034.321.017.71-.567.885a12.006,12.006,0,0,1,.056-4.87c.883-4.738,1.673-9.58.894-14.308-.738-4.479-.511-8.982-1.17-13.43a5.617,5.617,0,0,0-.207-1.021c-.312-.9-.393-2.164-1.561-2.225-1.436-.075-1.087,1.33-1.327,2.186a33.953,33.953,0,0,0-.933,11.133,65.243,65.243,0,0,1-.293,8.09c-.448,6.454-.225,12.916-.5,19.368-.158,3.76-.248,7.592-.047,11.41.3,5.8.08,11.63.08,17.447l-.842.055c-.182-2.038-.5-4.075-.522-6.115-.09-9.322-.019-18.645-.153-27.966-.15-10.426-.465-20.85-.369-31.279a5.845,5.845,0,0,0-.068-1.04c-.082-.476-.148-1.051-.807-1.013-.625.036-.746.6-.756,1.079-.044,2.086-.051,4.173-.05,6.259a6.019,6.019,0,0,1-.736,3.617c-.609.888-.2,1.71.11,2.573a9.014,9.014,0,0,1,.951,4.021c-.039.351-.157.745-.6.655-.183-.038-.385-.385-.431-.62-.145-.746-.16-1.522-.346-2.255a.94.94,0,0,0-1.068-.794c-.494.077-.635.5-.7.918-.736,4.52-1.547,9.031-2.154,13.568-.23,1.722-.78,3.361-.945,5.107s-.675,3.407.65,4.941c.31.359.368,1.247-.045,1.3-2.275.288-.949,1.478-.767,2.478.35,1.92-.731,3.612-1.029,5.438-.9,5.533-3.321,10.7-3.87,16.338-.314,3.227-1.082,6.41-1.74,10.155-.534-3.063.1-5.538.388-8,1.709-14.7,3.485-29.392,5.241-44.086q.975-8.154,1.954-16.308c.07-.586.427-1.476-.317-1.644-.853-.192-.71.8-.868,1.34a49.3,49.3,0,0,0-1.656,8.126,3.309,3.309,0,0,1-.532,1.545c-3.111,4.17-4.053,9.133-5.263,14.015-1.835,7.4-3.781,14.766-5.624,22.161-1.542,6.186-2.985,12.4-4.515,18.587a70,70,0,0,1-2.085,6.869c-.42-2.075.425-4.017.833-5.956,1.835-8.7,3.854-17.354,5.773-26.034,1.648-7.455,2.875-15.028,4.965-22.355,2.651-9.3,3.757-18.91,6.38-28.2a39.171,39.171,0,0,0,1.61-6.637c.056-.549.3-1.271-.349-1.465-.863-.259-.6.7-.866,1.1-1.7,2.55-1.41,5.783-2.821,8.4-3.3,6.125-4.257,12.827-5.053,19.582-.086.726-.187,1.465-1.006,1.643-1.385.3-1.832,1.414-2.283,2.5-3.2,7.679-6.539,15.3-9.494,23.074-2.741,7.2-5.612,14.356-8.408,21.538-.768,1.973-1.628,3.91-2.519,6.037-.494-.855-.036-1.456.177-2.042,1.706-4.7,3.4-9.4,5.17-14.084.667-1.77.34-3.744,1.255-5.456a.673.673,0,0,0-.411-1.011c-.4-.094-.589.258-.754.574-.91,1.747-1.824,3.492-2.984,5.712a5.9,5.9,0,0,1,.811-3.979c3.757-8.266,7.641-16.475,11.487-24.7.059-.126.14-.243.187-.373.18-.5.688-1.16.015-1.456-.716-.314-.826.564-1.041,1.013q-7.865,16.447-15.7,32.908c-.982,2.055-2.022,4.082-3.1,6.248-.576-.672-.169-1.165.021-1.591,4.5-10.086,9.133-20.118,13.478-30.272,1.157-2.7,3.011-5.29,2.48-8.628-.161-1.013.812-2.206.89-3.516-8.128,12.082-15.112,24.834-22.788,37.714a5.608,5.608,0,0,1,1.19-3.52q7.5-13.956,15.192-27.812c2.889-5.233,5.857-10.421,8.788-15.631.136-.241.4-.525.355-.734a6.916,6.916,0,0,1,.408-4.612c-8.05,9.293-14.931,19.363-22.718,29.338a3.081,3.081,0,0,1,.854-2.57c5.683-7.982,11.41-15.934,17.1-23.911a66.937,66.937,0,0,0,4.6-7.45,5.324,5.324,0,0,0,.256-3.738c-14.96,15.5-28.545,32.2-43.138,47.98,2.054-3.485,4.833-6.387,7.364-9.48,7.527-9.2,15.125-18.335,22.687-27.5q8.355-10.13,16.683-20.284a10.154,10.154,0,0,0,1.92-3.9,1.107,1.107,0,0,0-.356-1.318c-.541-.353-.872.109-1.259.4-4.037,3.03-7.213,6.927-10.567,10.625-5.93,6.537-11.71,13.211-17.554,19.826q-10.631,12.033-21.267,24.062a79.093,79.093,0,0,1-7.315,7.523,23.234,23.234,0,0,1,1.374-1.989A178.183,178.183,0,0,0,361.591,429.8c3.2-4.766,7.2-8.992,10.778-13.51,2.278-2.876,4.822-5.636,6.573-8.819,5.173-9.4,13.412-16.172,20.178-24.2,2.068-2.453,4.562-4.586,5.653-7.815-18.467,18.495-35.65,38.2-54.039,57.4a3.786,3.786,0,0,1,1.329-2.216c1.492-1.878,3.406-3.484,3.7-6.114a4.2,4.2,0,0,1,1.459-2.236c7.9-8.411,15.3-17.271,23.038-25.833,5.965-6.6,11.706-13.4,17.462-20.18.713-.84,2.308-2.256,1.6-2.709-1.142-.733-1.892,1.1-2.683,1.957-4.794,5.221-9.546,10.481-14.326,15.714-8.766,9.6-17.483,19.245-26.341,28.758-4.015,4.312-7.749,8.9-12.354,12.685,1.283-1.572,2.513-3.188,3.855-4.708q15.253-17.269,30.536-34.511c2.258-2.556,4.216-5.236,4.925-8.752.447-2.216,2.351-3.722,3.884-5.319,5.911-6.159,12.383-11.8,17.427-18.76.473-.653,1.123-1.235.753-2.423-11.981,11.3-23.229,23.331-34.753,35.084-11.582,11.812-23.221,23.567-35.2,35.718.417-1.852,1.537-2.494,2.378-3.323,4.813-4.74,8.547-10.385,13-15.426s9.081-9.967,13.437-15.107c2.658-3.137,5.767-5.932,7.18-10.091.6-1.767,2.431-3.164,3.832-4.6,7.422-7.627,14.71-15.4,22.408-22.735,3.677-3.506,6.918-7.419,10.715-10.788.869-.772,2.306-2.065,1.574-2.811-.949-.968-1.959.665-2.742,1.4-18.351,17.144-35.577,35.423-53.466,53.034-6.4,6.3-12.72,12.666-19.081,19a3.652,3.652,0,0,1-1.389.942c16.617-17.818,32.879-35.958,49.96-53.345l-.754-.735q-12.383,12.177-24.382,24.752l-.53-.491c.62-.673,1.224-1.361,1.861-2.017,5.423-5.577,10.772-11.225,15.84-17.126a18.911,18.911,0,0,0,3.581-5.334,7.642,7.642,0,0,1,1.8-2.533c8.245-8.079,16.544-16.1,24.787-24.185,2.576-2.525,5.032-5.174,7.536-7.773a.829.829,0,0,0,.194-1.068c-1.184-.049-1.939.807-2.705,1.536q-10.047,9.561-20.059,19.159-16.632,15.961-33.242,31.944-13.553,12.993-27.156,25.933c-1.392,1.327-2.835,2.6-4.265,3.908-.428-.521-.043-.742.169-.954,3.486-3.5,6.872-7.107,10.507-10.445,3.405-3.127,5.934-6.961,8.982-10.366,7.7-8.6,15.852-16.778,23.836-25.113,4.263-4.451,9.322-8.321,12.378-13.72,3.945-6.97,10.772-10.8,16.181-16.154,5.623-5.569,12.136-10.194,17.27-16.281.358-.424,1.283-.768.606-1.444-.472-.472-.983.182-1.413.508-4.939,3.736-9.423,8.006-14.088,12.062-7.079,6.154-14.072,12.408-21.079,18.644-6.906,6.146-13.762,12.351-20.682,18.481q-13.891,12.308-27.853,24.536a20.287,20.287,0,0,1-3.406,2.966c-.353-.577.019-.783.238-1,5.285-5.214,9.648-11.3,15.294-16.18,1.347-1.165,1.91-3.356,4.323-2.964.127.02.45-.292.427-.353-.974-2.554,1.508-3.314,2.624-4.509,4.786-5.127,9.8-10.038,14.778-14.988,3.892-3.873,7.9-7.634,11.735-11.557,1.3-1.331,3.339-2.435,2.415-5.007-.224-.624.76-1.1,1.275-1.524,5.439-4.437,10.938-8.8,16.356-13.261,5.617-4.626,11.44-9.017,16.55-14.233.341-.348.7-.683,1.019-1.046s.7-.786.291-1.276-.92-.252-1.323.02c-1.5,1.01-3.032,1.978-4.441,3.1-8.744,6.976-17.408,14.053-26.2,20.972-7.744,6.1-15.285,12.441-23.088,18.467-7.365,5.686-14.436,11.753-21.693,17.581q-17.721,14.232-35.523,28.362a34.007,34.007,0,0,1-6.237,4.043c2.032-1.781,4.03-3.6,6.1-5.336,11.616-9.714,23.163-19.512,34.9-29.075,11.758-9.579,22.664-20.1,33.945-30.2,9.162-8.205,18.185-16.565,27.282-24.843a3.686,3.686,0,0,0,1.546-2.4c.037-1.9,1.187-2.891,2.588-3.731,4.425-2.655,8.253-6.124,12.45-9.088a1.2,1.2,0,0,0,.173-.116c.807-.83,2.133-1.995,1.433-2.844s-1.871.452-2.8,1.03c-4.169,2.6-8.344,5.179-12.364,8.021-8.385,5.926-16.862,11.722-25.332,17.526-7.553,5.175-15.252,10.145-22.7,15.471-6.894,4.933-13.973,9.589-20.906,14.46-7.432,5.222-14.88,10.423-22.417,15.49-6.317,4.247-12.728,8.355-18.937,12.764a.988.988,0,0,1-1.1.133c1.351-1.858,3.373-2.827,5.091-4.108,5.337-3.981,10.656-8.007,16.2-11.68,5.733-3.8,11.272-7.855,16.853-11.851,12.23-8.756,24.656-17.253,35.975-27.231,5.2-4.58,10.776-8.724,16.023-13.25.96-.828,3.273-1.738,1.538-3.937-.387-.49.131-.849.573-1.126q9-5.645,17.978-11.314c3.566-2.261,7.15-4.5,10.61-6.917,1.2-.837,2.535-1.385,3.748-2.191a12.343,12.343,0,0,0,3.878-3.592c-1.731-1.638-3.1-1.359-5.306-.052-6.509,3.863-12.852,7.994-19.344,11.882-6.118,3.664-11.944,7.813-17.954,11.663-9.153,5.864-18.37,11.627-27.528,17.484-6.253,4-12.431,8.118-18.679,12.126-7.112,4.562-14.262,9.064-21.4,13.586q-14.4,9.124-28.816,18.23c-4.341,2.731-8.74,5.371-13.121,8.039-.136.083-.368.01-.816.01a64.1,64.1,0,0,1,8.164-5.962c7.066-4.884,14.221-9.637,21.3-14.5,11.289-7.755,22.6-15.473,34.05-22.994,9.566-6.284,18.96-12.83,28.436-19.25,7.754-5.254,15.546-10.45,23.266-15.754,7.608-5.228,15.146-10.559,22.713-15.848.376-.263,1.086-.514.706-1.049-.435-.612-1.165-.308-1.686.058-5.047,3.544-10.533,6.387-15.6,9.917-9.279,6.466-18.7,12.735-28.031,19.121-6.411,4.385-12.767,8.85-19.174,13.24-6.573,4.5-13.182,8.956-19.767,13.442q-3.52,2.4-7,4.86a2.465,2.465,0,0,1-2.171.618c4.324-3.181,8.415-6.228,12.547-9.217q7.155-5.176,14.375-10.26c3.042-2.133,6.152-4.167,9.029-6.53.366-.3,1.16-.552.923-.963-1.461-2.538,1.193-2.815,2.169-3.469q10.181-6.823,20.633-13.239c5.3-3.265,10.445-6.815,15.839-9.9,6.845-3.912,13.5-8.14,20.281-12.144,5.844-3.449,11.742-6.916,16.981-11.319.469-.394,1.176-.643.907-1.437a1.228,1.228,0,0,0-.678-.712c-.878-.257-.957.522-1.241,1.058-.151.286-.429.7-.669.715-4.546.261-7.838,3.251-11.476,5.377-8.312,4.858-16.509,9.914-24.718,14.947-5.615,3.442-11.144,7.025-16.761,10.465-5.551,3.4-11.19,6.655-16.74,10.055-5.614,3.44-11.147,7.013-16.754,10.465-4.306,2.651-8.678,5.194-13.011,7.8q-6.937,4.174-13.857,8.379c-5.929,3.6-11.845,7.22-17.78,10.81q-6.935,4.194-13.9,8.332c-4.868,2.891-9.754,5.75-14.713,8.518,1.352-1.809,3.369-2.846,5.173-4.031,8.8-5.783,17.77-11.312,26.545-17.133,4.6-3.051,9.438-5.761,13.766-9.215,5.479-4.372,11.62-7.736,17.457-11.563,5.271-3.457,10.516-6.953,15.8-10.392,5.991-3.9,12.026-7.736,18.015-11.64,6.387-4.164,12.737-8.384,19.114-12.562,5.742-3.762,11.5-7.494,17.243-11.261.446-.293,1.459-.456.914-1.255-.391-.574-1.14-.154-1.694.171-5.372,3.148-10.792,6.216-16.1,9.461-4.554,2.782-8.968,5.792-13.473,8.654-5.15,3.272-10.348,6.468-15.5,9.743-4.44,2.825-8.822,5.741-13.261,8.568-4.263,2.715-8.572,5.356-12.85,8.047-5.447,3.427-10.868,6.9-16.328,10.3-6.7,4.176-13.427,8.3-20.393,12.116,1.675-1.309,3.262-2.755,5.041-3.9,7.814-5.031,15.32-10.52,23.239-15.4,4.294-2.645,8.246-5.849,12.566-8.444A11.62,11.62,0,0,0,330.941,301c.964-1.632,2.89-2.168,4.432-3,6.884-3.726,13.559-7.808,20.348-11.692,8.9-5.094,17.64-10.465,26.469-15.68,6.309-3.727,12.87-7.025,19.2-10.715,5.2-3.029,10.531-5.809,15.776-8.743a68.122,68.122,0,0,0,10.671-7.018c.577-.483,1.439-.908.811-1.82a1.7,1.7,0,0,0-2.424-.386q-11.124,6.232-22.232,12.49c-7.317,4.1-14.666,8.143-21.964,12.276-5.063,2.868-10.049,5.871-15.1,8.764-4.8,2.752-9.647,5.429-14.462,8.158-5.432,3.078-10.84,6.2-16.281,9.261-6.281,3.535-12.6,7.007-18.878,10.541-5.191,2.92-10.339,5.919-15.534,8.83-6.166,3.456-12.366,6.853-18.547,10.281-4.176,2.316-8.343,4.65-12.522,6.961-3.124,1.729-6.261,3.436-9.5,4.978,1.662-1.835,3.844-2.949,5.872-4.223,5.926-3.721,11.886-7.4,17.946-10.892,9.177-5.292,17.741-11.557,26.986-16.747,5.911-3.319,11.551-7.115,17.365-10.61,5.75-3.456,11.594-6.754,17.343-10.211,4.737-2.848,9.373-5.862,14.1-8.735,3.722-2.265,7.6-4.285,11.24-6.673,4.293-2.818,8.746-5.364,13.1-8.074,5.779-3.6,11.6-7.121,17.377-10.723,6.7-4.181,13.373-8.416,20.064-12.619,2.635-1.655,5.293-3.273,7.926-4.931.54-.34,1.552-.642,1-1.47-.454-.68-1.333-.266-1.833.23-1.8,1.785-4.355,2.031-6.49,3.146-4,2.088-7.8,4.465-11.653,6.773-6.771,4.061-13.475,8.234-20.191,12.387-5.586,3.454-11.064,7.094-16.746,10.38-5.642,3.263-11.144,6.747-16.725,10.1-5.813,3.5-11.532,7.149-17.323,10.682-4.667,2.847-9.393,5.6-14.071,8.426-6.877,4.158-13.717,8.379-20.606,12.517q-8.549,5.135-17.191,10.112c-1.214.7-2.171,1.969-3.837,1.838,7.918-5.707,16.077-11.044,24.315-16.267q12.546-7.953,25.022-16.015c8.256-5.315,16.525-10.612,24.72-16.02C367,261.536,375.569,256.91,383,250.594c-1.434-.5-2.537.759-3.987-.22a40.16,40.16,0,0,1,3.713-2.109c6.661-2.912,13.019-6.457,19.718-9.295,3.885-1.646,7.585-3.722,11.413-5.507,3.871-1.8,7.772-3.551,11.714-5.2,1.551-.647,2.847-1.682,4.366-2.393,3.292-1.542,6.714-2.9,9.6-5.221.6-.478.893-1.03.453-1.582-.729-.914-.959.165-1.357.49-.591.482-1.158.992-1.744,1.482-.938.784-1.84.993-2.638-.192a1.269,1.269,0,0,0-1.782-.528c-2.818,1.285-5.71,2.425-8.467,3.828-4.145,2.109-8.42,3.913-12.652,5.825-3.409,1.54-6.687,3.368-10.063,4.984-5.115,2.45-10.276,4.806-15.4,7.243-4.881,2.322-9.728,4.716-14.606,7.044-6.628,3.162-13.281,6.275-19.907,9.442-3.864,1.847-7.684,3.785-11.545,5.636-3.431,1.645-6.9,3.212-10.337,4.842-4.066,1.927-8.107,3.909-12.18,5.822-3.575,1.679-7.181,3.29-10.769,4.942-3.524,1.623-7.049,3.245-10.56,4.895-3.755,1.765-7.487,3.579-11.244,5.34q-8.375,3.925-16.775,7.8c-.982.453-2.026.773-3.041,1.154l-.243-.465c1.172-.71,2.316-1.473,3.521-2.122,8.234-4.433,16.575-8.655,24.923-12.869,8.033-4.055,16.026-8.193,24.056-12.257,5.982-3.027,11.815-6.359,17.868-9.23,5.886-2.791,11.674-5.762,17.426-8.8,3.551-1.876,6.934-4.073,10.383-6.141,3.185-1.91,6.355-3.846,9.539-5.756.364-.218.8-.386.829-.849.04-.714-.593-.634-1.037-.743-.349-.086-.713-.176-.661-.628a.724.724,0,0,1,.722-.645c1.516.242,2.17-.74,3.226-1.584a22.206,22.206,0,0,1,4.73-2.515c4.177-1.87,8.223-4,12.35-5.963,4.011-1.906,8.1-3.661,12.084-5.626,2.541-1.251,5.149-2.367,7.74-3.513.726-.321,1.244-.681.811-1.558a5.173,5.173,0,0,1-.363-2.036c-.082-1.238-.67-1.3-1.684-.811-7.045,3.4-14.046,6.885-21.175,10.115-6.559,2.971-12.957,6.3-19.467,9.377-5.2,2.46-10.48,4.739-15.68,7.191-3.44,1.622-6.776,3.467-10.208,5.108-3.622,1.732-7.315,3.316-10.957,5.009-3.519,1.636-7,3.345-10.519,4.989-5.526,2.584-11.077,5.115-16.6,7.714-5.583,2.629-11.129,5.336-16.712,7.965q-6.965,3.28-13.978,6.458c-4.61,2.1-9.238,4.161-13.864,6.225a1.861,1.861,0,0,1-1.494.057c3.991-2.118,7.965-4.266,11.975-6.345q7.375-3.823,14.8-7.548c3.394-1.7,6.84-3.3,10.244-4.982,4.842-2.393,9.662-4.828,14.5-7.23q4.834-2.4,9.688-4.762c4.973-2.433,9.957-4.845,14.923-7.294,5.1-2.513,10.175-5.058,15.261-7.591,4.889-2.435,9.73-4.973,14.68-7.276,3.494-1.625,6.924-3.39,10.361-5.11,3.416-1.709,6.989-3.141,10.217-5.288,1.6-1.063,3.562-1.625,5.3-2.607,2.366-1.335,4.971-2.233,7.232-3.811a27.093,27.093,0,0,1,4.455-2.108c1.958-.89,3.385-2.685,5.576-3.061.352-.06.686-.251.643-.676-.045-.444-.459-.456-.789-.535-.517-.123-1.272-.009-1.322-.734-.06-.861.83-.748,1.346-1.023,1.466-.782,2.938-1.558,4.362-2.413.672-.4,1.27-1.044.766-1.9-.432-.734-1.119-.312-1.675-.075-3.054,1.3-6.1,2.624-9.15,3.924-4.458,1.9-8.8,4.2-13.429,5.509a7.333,7.333,0,0,0-4.619,3.845c-.825,1.355-1.674,2.321-3.214.771a1.475,1.475,0,0,0-1.767-.134c-3.837,1.911-7.863,3.388-11.675,5.386-4.662,2.444-9.551,4.453-14.327,6.681-4.972,2.32-9.924,4.681-14.888,7.017-3.891,1.831-7.789,3.646-11.681,5.475q-8.271,3.889-16.539,7.785-5.271,2.47-10.561,4.9-6.9,3.18-13.8,6.335a6.1,6.1,0,0,1-2.44.587A15.5,15.5,0,0,1,289.1,258.3c7.025-3.6,13.96-7.378,21.052-10.859,2.918-1.432,6.036-2.7,8.4-5.2,1.235-1.309,3.051-1.906,4.737-2.568,8.913-3.5,17.79-7.085,26.48-11.125,4.028-1.873,8.208-3.417,12.271-5.218,4.366-1.936,8.654-4.048,13.019-5.984,1.83-.811,3.659-1.612,5.472-2.461a5.494,5.494,0,0,0,3.392-3.644c.161-.59.647-1.15.12-1.741a1.58,1.58,0,0,0-1.945-.183c-2.162.914-4.3,1.87-6.475,2.767-4.1,1.692-8.046,3.738-12.1,5.542-8.051,3.583-16.095,7.185-24.209,10.619-5.808,2.458-11.526,5.114-17.35,7.541q-10.162,4.235-20.193,8.806c-7.637,3.479-15.5,6.419-23.073,10.042a10.482,10.482,0,0,1-4.418.958c2-1.015,3.983-2.048,5.99-3.041,5.64-2.79,11.321-5.517,17.031-8.138,6.671-3.062,12.9-6.957,19.725-9.744,6.917-2.824,13.544-6.357,20.305-9.563,3.195-1.515,6.4-3,9.613-4.48a3.354,3.354,0,0,0,1.676-1.185c.445-.765,1.113-1.649.413-2.479-.652-.773-1.406-.006-2.06.3-8.868,4.137-17.718,8.315-26.6,12.425-6.862,3.176-13.769,6.253-20.641,9.407-3.906,1.793-7.773,3.667-11.673,5.472-1.169.541-2.388.974-3.712,1.508.03-1.023.627-1.164,1.087-1.4,6.333-3.285,12.64-6.623,19.018-9.819,4.7-2.354,9.521-4.461,14.235-6.786,4.894-2.415,9.6-5.264,14.633-7.32,2.5-1.02,4.471-3.089,7.26-3.414.317-.037.8-.238.881-.471,1.151-3.528,4.617-3.791,7.29-4.934a7.777,7.777,0,0,0,4.366-4.958c.551-1.531-.98-1.332-1.7-1.088-2.1.714-4.119,1.64-6.172,2.481-5.327,2.182-10.666,4.337-15.978,6.553-4.355,1.818-8.655,3.767-13.022,5.554-6.551,2.682-13.14,5.272-19.711,7.9q-8.7,3.484-17.4,6.97c-.3.121-.62.372-1.108-.084,1.654-.884,3.2-1.862,4.869-2.575,6.372-2.729,12.588-5.813,18.965-8.508,4.011-1.695,8.114-3.305,11.918-5.319,3.453-1.828,7.049-3.062,10.585-4.571,6.359-2.714,12.654-5.584,18.995-8.35,4.7-2.049,9.281-4.361,13.907-6.572a1.764,1.764,0,0,0,1.12-2.036c-.38-1.519-1.638-.393-2.61-.714.376-1.24.913-2.271,2.369-2.377a1.744,1.744,0,0,0,1.481-.979c.24-.413.625-.868.139-1.306s-.919-.061-1.249.3c-.518.57-1.046.884-1.819.456-1.427-.789-2.8-.221-3.947.51-2.31,1.466-4.932,2.2-7.372,3.35-5.265,2.482-10.672,4.666-16.032,6.945a4.47,4.47,0,0,0-1.924,1.817c-1.49,2.18-3.051,4.312-4.6,6.455-.329.458-.723.93-1.36.782-.749-.173-.538-.861-.6-1.383-.394-3.164-1.164-3.512-4.261-2.159q-10.968,4.792-21.98,9.483a2.1,2.1,0,0,1-1.92.235,6.851,6.851,0,0,1,3.076-1.976c5.928-2.534,11.564-5.7,17.472-8.243,3.515-1.515,6.706-3.594,10.192-5.118a2.281,2.281,0,0,0,1.268-1.295c1.324-3.2,2.681-6.4,4.02-9.595.151-.361.53-.748.1-1.122-.3-.26-.645.044-.971.079-6.009.644-11.42,3.3-17.119,4.992-2.709.8-4.008,2.831-5.435,4.851-1.724,2.44-2.852,5.262-4.761,7.585-.407.495-.81,1.44-1.595,1.009-.811-.445-.188-1.25.042-1.855.566-1.5,1.246-2.949,1.777-4.456.676-1.919.03-2.6-1.969-2.593-2.828.014-5.282,1.658-8.1,1.765-.135-.8.518-.782.891-.932,1.569-.629,2.671-2.007,3.982-2.78,2.594-1.528,4.875-3.684,7.845-4.54.774-.223,1.487-.415,1.808-1.217.825-2.058,1.62-4.129,2.444-6.187a7.145,7.145,0,0,1,1.114-2.433,5.939,5.939,0,0,0,1.482-3.306c.207-.98.3-2.093,1.377-2.686a.621.621,0,0,0,.2-.919c-1.6-1.9-.022-2.023,1.769-2.272-2-.948-1.466-2.064-.842-3.2.266-.486.486-1,.727-1.5,1.466-3.041,1.314-3.373-1.813-4.235-.563-.155-1.408-.064-1.522-.845-.1-.711.657-1,1.109-1.4a4.636,4.636,0,0,1,1.075-.631,13.366,13.366,0,0,0,7.13-7.524,235.9,235.9,0,0,1,11.348-24.509c.729-1.368.217-2.8.747-4.235.8-2.171,2.905-3.1,3.881-5.055,3.17-6.337,6.628-12.533,9.672-18.927,2.089-4.387,4.666-8.516,6.572-12.986a29.88,29.88,0,0,1,2.582-5.291l-.572-.321c-1.83,2.548-3.763,5.03-5.472,7.657-9.182,14.118-17.051,29-25.209,43.708-4.652,8.389-9.177,16.849-13.761,25.275-6.267,11.523-12.5,23.063-18.826,34.556-1.805,3.281-3.858,6.427-5.812,9.627a6.071,6.071,0,0,1-.9,1.146c-.431.426-.916,1.056-1.587.607-.566-.378-.229-1.033-.056-1.541a189.353,189.353,0,0,1,7.589-19.593c1.823-3.869,3.85-7.656,5.507-11.614a3.891,3.891,0,0,0,.547-2.708c-1.631.528-1.7,2.184-2.3,3.295-.84-.217-.679-.685-.564-1.06,2.121-6.955,4.97-13.637,7.6-20.4,5.516-14.193,12.674-27.612,19.378-41.241C327.346,97.3,334.672,81.953,342,66.611c2.038-4.264,4.1-8.518,6.249-12.727a30.569,30.569,0,0,1,2.306-3.207c.472-.685,1.032-1.472.5-2.3-.544-.85-1.527-.666-2.29-.4a34.335,34.335,0,0,1-5.246,1.323c-1.376.247-2.04,1.319-1.355,2.464,2,3.343.709,6.107-.973,9.061C336.485,69.1,331.919,77.462,327.31,85.8c-5.18,9.37-10.224,18.813-15.038,28.376-6.906,13.717-13.834,27.424-20.583,41.219-7.083,14.479-14.033,29.023-21.356,43.383-1.578,3.095-3.272,6.132-4.973,9.162-.3.536-.653,1.519-1.49,1.1-.731-.367-.1-1.092.068-1.659,2.524-8.378,6-16.417,8.779-24.7,1.538-4.592,2.942-9.23,4.56-13.792,2.911-8.209,6.131-16.3,9.559-24.309,5.891-13.767,12.3-27.3,18.444-40.947,3.807-8.455,7.4-17.007,11.266-25.438,3.066-6.68,5.906-13.464,8.885-20.185.446-1.007,1.239-1.868,1.631-2.889.563-1.464-.11-2.157-1.589-1.762-1.875.5-3.734,1.065-5.6,1.585-1.4.391-2,1.122-1.32,2.607,1.629,3.539,1.214,6.69-.759,10.226-7.215,12.931-14.032,26.081-20.753,39.28-8.009,15.73-15.351,31.779-22.941,47.71-7.227,15.169-14.247,30.435-21.394,45.642-1.359,2.891-2.885,5.7-4.333,8.554-.219.431-.4,1.021-1,.875-.724-.177-.585-.826-.5-1.383.6-4.156,2.472-7.909,3.74-11.854,1.459-4.541,2.974-9.064,4.458-13.6,1.849-5.646,3.411-11.385,5.51-16.95,2.732-7.243,5.271-14.56,8.323-21.68q5.773-13.466,11.567-26.923c2.347-5.474,4.746-10.923,6.949-16.462,2.967-7.46,6.221-14.807,9.361-22.2,2.036-4.792,4.058-9.591,6.152-14.357.527-1.2,1.354-2.265,1.959-3.435.68-1.316.043-2.215-1.412-2.089-2.177.188-3.183,1.219-3.281,3.449-.1,2.4-1.488,4.332-2.523,6.318-8.635,16.586-16.649,33.473-24.5,50.437-4.6,9.951-8.983,20.007-13.315,30.08-4.357,10.134-8.774,20.242-13.145,30.37-3.742,8.672-7.479,17.342-11.448,25.912a15.338,15.338,0,0,1-.937,1.86c-.333.519-.385,1.613-1.343,1.2a1.607,1.607,0,0,1-.67-2.017c.548-2.076,1.048-4.172,1.741-6.2,2.377-6.954,4.077-14.106,6.227-21.118,1.838-6,3.491-12.069,5.783-17.929,1.1-2.812,2.007-5.7,2.965-8.568.187-.56.5-1.388-.285-1.619-.753-.221-.656.656-.859,1.133-2.943,6.935-5.8,13.911-8.881,20.784q-7.028,15.669-13.735,31.476c-.837,1.976-1.879,3.866-2.858,5.78-.213.417-.506.973-1.067.831-.6-.151-.455-.783-.472-1.25-.134-3.685,1.21-7.086,2.1-10.566,1.423-5.568,2.8-11.148,4.219-16.714,1.175-4.615,2.091-9.29,3.35-13.894,1.535-5.611,3.455-11.092,5.1-16.662,1.311-4.445,3.093-8.753,4.71-13.106,2.485-6.69,5.039-13.354,7.5-20.051,2.177-5.921,4.268-11.873,6.4-17.809.224-.623.825-1.46-.071-1.755-.794-.262-.721.831-.96,1.335-2.108,4.44-4.143,8.915-6.273,13.344-.932,1.938-2.122,3.752-3.041,5.7q-3.143,6.647-6.125,13.371-4.667,10.565-9.216,21.181c-5.159,11.989-10.251,24.006-15.441,35.981-2.846,6.566-5.823,13.075-8.784,19.59-.28.616-.326,1.87-1.29,1.554-.9-.295-.945-1.418-.783-2.369a62.058,62.058,0,0,1,2.414-8.838c1.32-4.026,2.359-8.121,3.307-12.248.771-3.353,2.131-6.535,3.06-9.857,1.524-5.451,3.184-10.867,5.025-16.229,3.425-9.974,7.324-19.76,11.252-29.54,1.725-4.3,3.28-8.66,4.915-12.992.149-.4.371-.925-.05-1.132-.7-.345-.7.375-.88.784-5.117,11.377-10.116,22.808-15.412,34.1-2.406,5.13-4.968,10.191-7.2,15.4-3.633,8.472-7.079,17.024-10.741,25.483-3.171,7.324-6.53,14.567-9.82,21.839-.238.526-.359,1.43-1.194,1.133a1.575,1.575,0,0,1-.976-2.052c.921-3.274,1.863-6.541,2.8-9.809q2.351-8.185,4.711-16.367c1.345-4.628,2.641-9.273,4.106-13.863,1.724-5.4,3.5-10.793,5.452-16.115,2.24-6.1,4.706-12.116,7.068-18.171q4.8-12.3,9.591-24.611c2.218-5.7,4.455-11.383,6.628-17.095.684-1.8,1.189-3.664,1.823-5.647-1.865.832-2.038,2.74-2.825,4.114A516.426,516.426,0,0,0,200.158,148c-4.153,9.545-8.527,18.994-12.759,28.5-5.245,11.789-10.434,23.6-15.676,35.393a18.961,18.961,0,0,1-2.737,4.658c-.585-6.18,2.254-11.381,3.723-16.889,1.284-4.814,2.53-9.642,3.992-14.4,1.6-5.218,3.441-10.363,5.164-15.545,1.835-5.518,3.878-10.959,6.049-16.354q4.771-11.856,9.5-23.731,4.342-10.922,8.625-21.867c.833-2.122,1.6-4.269,2.414-6.4.177-.464.467-1.025-.091-1.283-.628-.292-.762.4-.97.805-2.6,5.13-5.119,10.307-7.82,15.386-5.868,11.038-10.85,22.477-15.685,33.99-3.088,7.352-6.351,14.632-9.454,21.978-5.209,12.333-10.346,24.7-15.534,37.038-.785,1.869-1.681,3.691-2.651,5.807-1.582-3.477-.328-6.351.477-9.236,2.235-8.007,4.8-15.916,7.159-23.887,1.977-6.68,4.59-13.176,7.023-19.716,3.718-10,7.462-19.984,11.309-29.932,4.178-10.8,8.007-21.744,12.467-32.441a30.185,30.185,0,0,0,1.45-4.335c.32-1.292-.31-1.877-1.631-1.448a18.117,18.117,0,0,0-2.125.864c-1.389.655-1.732,1.843-.709,2.854,1.736,1.715.984,3.185.061,4.845-3.268,5.885-6.66,11.711-9.693,17.717-7.332,14.517-14.078,29.314-20.661,44.185C155.723,177.319,149.9,190,144.346,202.8c-1.93,4.453-4.1,8.793-5.952,13.28a2.035,2.035,0,0,1-1.384,1.371c1.38-1.7-.262-3.143.248-4.735,1.2-3.758,2.243-7.569,3.386-11.348s2.249-7.564,3.515-11.3c2.2-6.484,4.333-13,6.808-19.38,4.781-12.327,9.777-24.571,14.692-36.847,2.5-6.248,5.044-12.479,7.516-18.739a6.338,6.338,0,0,0,.8-3.661c-1.137.094-1.332,1.07-1.72,1.684-6.271,9.928-12.124,20.1-17.668,30.453-8.6,16.054-16.7,32.359-24.967,48.586q-5.912,11.613-12.006,23.132c-.413.784-.869,2.346-1.752,1.976-1.219-.51,0-1.762.245-2.511,1.487-4.478,3.118-8.911,4.82-13.313,3.372-8.719,6.657-17.477,10.532-25.988,3.9-8.565,7.939-17.066,11.9-25.6,4.027-8.686,8.017-17.389,12.046-26.074,2.215-4.775,4.474-9.53,6.718-14.292.257-.547.826-1.1.227-1.687-.542-.533-1.161-.182-1.733.1q-1.311.636-2.635,1.245c-2.08.952-2.656,2.2-1.238,3.89,1.789,2.137,1.014,3.844-.1,5.81-5.206,9.164-10.472,18.3-15.5,27.557q-9.3,17.131-18.239,34.455c-6.017,11.59-11.83,23.285-17.83,34.885-1.733,3.351-3.3,6.828-5.8,10.038-.834-2.424.366-4.245,1.012-6.037,3.261-9.052,6.728-18.028,10.053-27.057,4.705-12.777,10.848-24.9,16.759-37.133a15.688,15.688,0,0,0,1.289-4.328c-1.807,1.8-2.846,4.1-4.183,6.186q-8.648,13.511-16.455,27.528Q98.885,200.9,89.886,216.778c-2.435,4.287-4.683,8.7-7.662,12.657a1.443,1.443,0,0,1-1.115.773,13.754,13.754,0,0,1,1.623-5.083c4.447-9.928,8.155-20.158,12.537-30.118,5.314-12.077,11.656-23.61,17.689-35.312,3.338-6.474,6.456-13.063,9.863-19.5,3.079-5.818,5.419-12.068,9.783-17.16.378-.441,1.027-.959.506-1.623-.479-.611-1.138-.222-1.731-.037a47.452,47.452,0,0,0-6.015,2.872,1.359,1.359,0,0,0-.841,1.724c1.259,3.118-.428,5.48-1.884,7.932-5.181,8.727-10.273,17.508-15.536,26.186C99.819,172.1,92.857,184.3,85.868,196.48,80.61,205.645,75.48,214.884,70,223.922a17.317,17.317,0,0,1-2.759,3.532c9.724-25.994,22.147-50.7,35.643-74.918-1.173-.538-1.4,0-1.7.335-6.971,7.951-13.347,16.369-19.673,24.834-9.489,12.7-19.095,25.309-28.683,37.933-1.36,1.791-2.392,3.881-4.34,5.338-.4-.915.179-1.345.488-1.826,3.529-5.5,7.46-10.777,10.539-16.514,6.988-13.017,15.829-24.746,24.336-36.736,2.849-4.015,5.866-7.934,8.463-12.133.278-.448.866-.969.38-1.476-.631-.659-1.114.1-1.581.435-3.971,2.855-7.195,6.539-10.813,9.787-11.277,10.124-22.35,20.467-33.33,30.914-4.321,4.111-8.827,8.027-13.408,12.176-.148-.807.376-1.087.7-1.412,9.594-9.593,19.089-19.289,28.836-28.724,6.6-6.386,13.076-12.888,19.623-19.322.2-.195.406-.384.584-.6.3-.356.848-.732.418-1.226-.491-.563-1.014-.12-1.459.215-.333.251-.626.555-.963.8-1.539,1.12-2.871,2.347-5.065,2.522-2.025.161-3.676,1.863-5.359,3.053-11.327,8.006-22.6,16.092-33.895,24.139Q29.206,190.6,21.384,196.1a2.931,2.931,0,0,1-.719.263l-.349-.5L75.4,154.06l-.411-.6a18.327,18.327,0,0,0-5.68,3,17.132,17.132,0,0,1-6.079,2.942c-4.92,1.162-9.043,4.108-13.372,6.573-5.294,3.015-10.626,5.964-15.918,8.982-4.989,2.846-9.952,5.738-14.92,8.622-2.69,1.562-5.36,3.16-8.054,4.716A6.6,6.6,0,0,1,9.5,188.6c2.05-2.215,4.422-3.148,6.505-4.458q10.482-6.588,21.061-13.024c4.5-2.751,9.067-5.4,13.6-8.117,7.058-4.228,14.21-8.293,21.079-12.844,4.5-2.98,9.273-5.542,13.925-8.287.517-.305,1.423-.479,1.152-1.219-.312-.85-1.176-.4-1.824-.276a7.7,7.7,0,0,0-3.037,1.769c-2.988,2.228-6.856,2.216-9.94,4.128-3.705,2.3-7.628,4.265-10.907,7.2a4.434,4.434,0,0,1-3.711.951,8.727,8.727,0,0,0-5.345,1.238,62.01,62.01,0,0,1-7.086,2.85,61.023,61.023,0,0,0-8.344,3.558c-1.77.994-3.808,1.159-5.669,1.99A133.922,133.922,0,0,1,14.3,170.721ZM404.53,24.68c.026,5.718-.548,6.244-4.487,5.733-.413-.054-.837-.027-1.247-.095-4.015-.663-8.032-1.317-11.538-3.612-1.233-.807-1.826-.266-1.9,1.027a8.772,8.772,0,0,0,.241,1.645c.44,3.124-.1,3.821-3.284,4.147a12.789,12.789,0,0,1-1.87-.026,41.749,41.749,0,0,1-10.463-1.614c-.848-.26-2.189-.877-2.489.8-.289,1.615,1.056,5.428,1.853,5.486a4.331,4.331,0,0,0,1.239-.136c1.76-.4,3.5-.891,5.273-1.213,8.476-1.54,16.946-3.118,25.444-4.53,14.748-2.451,29.518-4.777,44.269-7.209.923-.152,2.551.26,2.579-1.008.019-.837-1.6-1.051-2.59-1.343-3.141-.93-6.306-1.86-8.752-4.184a10.99,10.99,0,0,0-3.95-2.238c-1.873-.69-3.758-1.261-4.984-3.042a1.751,1.751,0,0,0-2.04-.7c-.767.261-.534,1-.656,1.593a10.986,10.986,0,0,0,.431,4.709c.575,2.574-.38,3.946-2.55,3.915a29.513,29.513,0,0,1-11.17-2.84,23.7,23.7,0,0,1-7.085-5.072c-2.228-2.185-5.206-3.183-7.6-5.09a1.314,1.314,0,0,0-2.013.372c-.477.881.313,1.2.94,1.518a12.336,12.336,0,0,1,5.192,4.368C403.106,19.121,404.462,22.554,404.53,24.68ZM144.6,104.2c-1.305.069-2.347-.073-2.738.984-.365.987.592,1.446,1.108,2.058.47.558,1.386.919,1.08,1.847s-1.261,1.018-2.069,1.16c-3.008.531-5.949,1.458-9.034,1.537-.9.023-1.71.269-1.859,1.3-.187,1.3-1.12,1.65-2.176,1.895-1.219.283-2.443.544-3.661.832-.638.15-1.347.43-1.176,1.2.622,2.794-1.373,3.029-3.234,3.495a31.1,31.1,0,0,1-8.822,1.329c-.915-.036-2.149.543-1.431,1.615,1.081,1.616-.016,1.856-1,2.368-3.058,1.594-6.393,1.729-9.731,1.938-.978.061-2.291.037-2.477,1.411-.165,1.215.983,1.313,1.807,1.632.47.181.894.463.826,1.056-.057.492-.475.633-.883.759a13.788,13.788,0,0,0-6.492,3.791c-.344.383-1.167.563-.683,1.231.411.568,1,.129,1.492-.132,5.383-2.874,10.739-5.8,16.158-8.606,8.508-4.4,17-8.838,25.612-13.037,6.925-3.377,14-6.45,21.028-9.612,9.748-4.385,19.518-8.72,29.5-12.564.53-.2,1.465-.244,1.214-1.088-.216-.726-1.077-.5-1.66-.428-1.931.233-3.846.672-5.781.778-1.854.1-3.953-.714-4.787,1.907-.059.185-.459.347-.715.372-3.8.361-7.387,1.962-11.265,1.867a36.973,36.973,0,0,1-5.79-.676,1.562,1.562,0,0,0-1.923.876c-.311.809.256,1.278.833,1.718.663.5,1.3,1.038,1.955,1.557.895.713.9,1.461-.151,1.907a16.133,16.133,0,0,1-3.464,1.376C150.875,104.448,147.589,105.555,144.6,104.2Zm189.37,73.485a.583.583,0,0,1-.134-.752c1.766-4.059,2.943-8.358,5-12.3a1.514,1.514,0,0,0,.143-1.548c-1.649-3.259-1.639-3.262-5.253-2.365a30.5,30.5,0,0,1-3.241.757,6.11,6.11,0,0,0-4.52,2.96c-4.97,7.628-8.7,15.955-13.4,23.736-.512.848-.031,1.479.934,1.612a3.381,3.381,0,0,0,2.211-.453c4.223-2.524,9.03-3.843,13.22-6.46.895-.559,2.236-1.929,3.026-1.04.752.846-.423,2.271-1.025,3.347a4.257,4.257,0,0,0-.512,4.129c1.139-3.307,4.167-5.673,2.736-9.537a2.636,2.636,0,0,0,1.038-.28c.979-.755,2.439-1.964,1.831-2.875C335.262,175.472,335.044,177.957,333.97,177.688Zm35.323-26.914c-2.509.7-5.352,1.647-8.262,2.278-4,.868-6.895,2.529-9.039,6.49-2.632,4.862-5.288,9.744-8.046,14.553-.318.553-.526,1.189.046,1.722a1.341,1.341,0,0,0,1.571.132c3.477-1.731,7.123-3.076,10.651-4.677a80.827,80.827,0,0,0,11.105-5.563,5.144,5.144,0,0,0,2.5-3.056,17.6,17.6,0,0,1,1.594-4.248c.655-1.181.427-1.9-.909-2.048-1.6-.171-1.233-.91-.644-1.793a5.217,5.217,0,0,0,1.148-2.192C371.124,151.392,370.836,150.715,369.293,150.774Zm14.024-33.554c-2.46.409-5.137.828-7.8,1.311a2.617,2.617,0,0,0-1.706,1.436c-1.956,3.347-4.3,6.447-6.058,9.929-2.1,4.154-4.393,8.206-6.608,12.3-.273.5-.532,1.019-.165,1.56.43.633,1.076.543,1.7.375a7.022,7.022,0,0,0,1.373-.484c3.344-1.717,7.044-2.521,10.448-4.063,2.336-1.058,4.767-2.294,5.857-4.723,1.359-3.027,2.548-6.134,3.892-9.177.428-.969,1.466-2.215.521-3.29s-.566-1.69.1-2.655C385.81,118.376,385.132,117.242,383.316,117.22Zm69.189,167.858c-1.941,1.461-2.994,3.633-4.629,5.3-1.222,1.246-3.073,2.148-1.875,4.436.131.25-.181.79-.38,1.143-.85,1.511-1.819,2.961-2.588,4.512-1.353,2.727-3.965,4.659-4.765,7.745-.228.878-.506,1.712.327,2.247,1.723,1.107,1.232,2.417.518,3.788a60.668,60.668,0,0,1-5.125,8.088c-.94,1.268-1.1,2.564.187,3.717a2.072,2.072,0,0,1,.427,2.808,38.724,38.724,0,0,1-4.734,7.813c-.326.373-.75.788-.63,1.265.695,2.758-.9,4.8-2.1,6.963-.494.891-.686,1.672.328,2.337s.97,1.551.523,2.557c-1.324,2.977-2.448,6.057-4.943,8.351-.866.8-1.142,1.723-.11,2.686.765.714.65,1.522.321,2.478a47.9,47.9,0,0,1-4.2,8.125c-.5.871-.975,1.768.451,2.047,1.827.358,1.512,1.216,1,2.536-.811,2.1-2.233,4.061-1.852,6.514.085.545.01,1.273.656,1.395.809.153.71-.654.851-1.148q2.187-7.68,4.368-15.363,6.352-22.227,14.048-44.025c3.459-9.812,7.22-19.518,10.842-29.273C450.523,291.151,451.974,288.3,452.506,285.078ZM276.868,61.281c.516-.091,1.07-.145,1.6-.291,2.871-.792,5.853-1.243,8.482-2.786,3.152-1.85,6.866-1.343,10.25-2.456,6.122-2.012,12.431-3.461,18.673-5.1,2.55-.672,5.133-1.222,7.692-1.861.605-.151,1.338-.416,1.2-1.189-.124-.682-.88-.535-1.41-.578-.623-.051-1.257.007-1.875-.074-3.227-.418-6.517-.595-9.565-1.854-2.814-1.163-5.568-2.472-8.343-3.731-.989-.448-2.231-1.366-2.977-.325-.636.888.361,2.055.986,2.965.234.341.595.595.827.936,1.01,1.482,2.354,2.747,2.838,4.571.4,1.5.068,2.285-1.611,2.651-2.307.5-4.582-.092-6.851.133-2.9.288-5.584-.723-8.356-1.195-1.117-.19-2.353-1.275-3.3-.289-.971,1.011.3,2.014.72,2.979,1.111,2.54-.1,4.416-2.932,4.468-1.808.034-3.62.085-5.424,0-4.463-.206-9-.016-13.02-2.6a1.7,1.7,0,0,0-2.439.378c-.586.9.1,1.489.717,2.121,2.926,3,2.6,4.131-1.42,5.2a3.9,3.9,0,0,0-.4.1c-.542.208-1.031.5-1.041,1.157s.456.982.977,1.228a3.12,3.12,0,0,0,2.24.006,39.582,39.582,0,0,0,6.482-2.833C271.854,61.936,274.017,60.21,276.868,61.281Zm79.009,63.744c-.231-1.026.586-2.048-.6-2.639-1.084-.542-6.166.618-6.857,1.629-.976,1.428-1.964,2.857-2.814,4.36-3.182,5.626-6.31,11.282-9.458,16.927-1.388,2.489-2.784,4.973-4.154,7.472-.41.747-.757,1.593-.1,2.334.732.825,1.512.318,2.238-.137a15.541,15.541,0,0,1,3.1-1.188c3.606-1.309,7.085-2.757,8.817-6.672,2.862-6.47,5.764-12.926,9.1-19.171C355.684,126.942,356.3,126,355.878,125.024ZM205.784,82.109c-.887.041-2.349.051-3.8.193-.962.094-1.878.507-1.553,1.721.592,2.207-.893,2.489-2.4,2.674-2.618.323-5.247.554-7.872.822-.742.076-1.428.209-1.258,1.219a2.915,2.915,0,0,0,3.775,2.139c4.448-1.762,8.821-3.709,13.369-5.226,2.1-.7,4.081-1.755,6.177-2.47,3.4-1.158,6.569-2.856,10.055-3.824,4.868-1.352,9.8-2.67,13.887-5.891,1.307-1.029,2.586-2.092,3.892-3.122.98-.773,2.013-1.008,2.991-.028a3.662,3.662,0,0,0,4.623.5,23.87,23.87,0,0,0,6.709-4.873,1.551,1.551,0,0,0,.518-1.685,1.489,1.489,0,0,0-1.507-.911c-2.34-.108-4.725.294-6.976-.775a1.2,1.2,0,0,0-1.484.475A1.3,1.3,0,0,0,245,64.6c1.552,2.384,1.313,2.906-1.582,3.222-5.677.62-11.35,1.045-16.924-.752-.6-.193-1.259-.335-1.7.326a1.463,1.463,0,0,0,.2,1.915c.657.715,1.4,1.351,2.08,2.044,2.324,2.364,1.986,3.882-1.1,4.818a23.473,23.473,0,0,1-2.441.471c-2.976.566-5.954.093-8.933.046-2.144-.034-2.4.409-1.44,2.229.939,1.78.595,2.443-1.419,2.83A24.828,24.828,0,0,1,205.784,82.109Zm274.6,135.554c.042-.612.176-1.3-.475-1.683-.8-.471-1.3.158-1.788.628a44.658,44.658,0,0,1-3.919,3.737c-1.437,1.07-1.428,1.948-.127,2.928,1.337,1.007,1.116,2.042.3,3.226a47.575,47.575,0,0,1-3.18,4.12c-2.028,2.359-4.362,4.487-5.6,7.464-.62,1.493-.26,2.34,1.239,2.9,2.711,1.013,2.851,1.473,1.172,3.977a52.978,52.978,0,0,1-6.884,8.622c-.921.9-1.714,1.88.2,2.631,1.884.739,2.042,1.312.862,3.034a36.645,36.645,0,0,1-6.126,7.346c-.963.827-1.373,1.643.241,2.271,1.267.493,1.11,1.422.59,2.4a36.6,36.6,0,0,1-4.681,7.128c-.45.51-1.114,1.008-.643,1.792s1.318.653,2.076.6c1.1-.07,1.44-.906,1.8-1.772,2.707-6.468,5.453-12.92,8.15-19.393,1.145-2.749,1.94-5.676,3.349-8.276,3.161-5.832,6.273-11.624,6.358-18.494a6.2,6.2,0,0,1,.246-1.851c.378-1.14.87-2.3,2.338-2.3,1.707,0,2.391-1.076,2.981-2.442C480.059,223.5,480.013,220.552,480.381,217.662ZM360.255,181.3c.008-1.645-.707-2.192-1.844-1.543a32.31,32.31,0,0,1-5.645,2.08c-4.568,1.592-9.132,3.2-13.707,4.767a3.825,3.825,0,0,0-2.293,2.006c-1.271,2.813-3.565,4.949-4.914,7.7-.471.96-1.654,1.986-.788,2.985.956,1.1,2.15-.172,3.247-.357a.7.7,0,0,0,.19-.084q8.94-4.566,18.2-8.433c1.512-.635,2.683-1.942,4.345-2.353.289-.071.741-.481.713-.677-.277-1.955,1.608-2.949,1.985-4.6A12,12,0,0,1,360.255,181.3Zm6.013,14.324a9.2,9.2,0,0,1,1.292-.322c1.735-.2,2.875-1.714,4.494-2.073,2.676-.594,4.889-2.235,7.442-3.13a30.72,30.72,0,0,0,3.941-1.748c2.129-1.108,4.587-1.621,6.4-3.274a4.506,4.506,0,0,1,2.537-1.246c.622-.087,1.678.046,1.636-.864s-1.055-.742-1.7-.715c-1.685.073-2.134-.485-1.4-2.091.4-.89,1.171-2.034.245-2.9-.893-.833-1.949.141-2.932.309a3.538,3.538,0,0,0-.746.362c-4.419,1.962-8.829,3.948-13.265,5.872-2.754,1.194-5.454,2.275-6.484,5.6-.449,1.449-.685,3.252-2.483,4.038-.493.216-.555.943-.289,1.506A1.246,1.246,0,0,0,366.269,195.627Zm45.314-83.453c-2.16.331-4.568.651-6.954,1.091a2.92,2.92,0,0,0-2.019,1.944,37.645,37.645,0,0,1-2.9,5.217,81.7,81.7,0,0,0-4.546,8.853,1.4,1.4,0,0,0,.25,1.735c.55.5,1.132.3,1.736.019.939-.437,1.9-.842,2.867-1.2,3.815-1.417,7.686-2.683,10.983-5.224,1.413-1.088,1.564-2.717,2.172-4.152.45-1.06-.437-1.621-1.049-2.272-.51-.541-.337-1.127-.039-1.731.4-.808.767-1.634,1.092-2.474C413.668,112.7,413.124,112.143,411.582,112.175Zm-28.02,46.868a6.131,6.131,0,0,0,1.538-.467c5.262-3.027,11.428-4.237,16.271-8.113.542-.434,1.756-.3,1.522-1.335-.181-.8-1.169-.539-1.828-.608-1.213-.126-1.587-.614-.6-1.509a5.93,5.93,0,0,0,1.422-2.94c.2-.64.8-1.279.155-1.907s-1.435-.3-2.166-.082c-2.791.837-5.562,1.752-8.375,2.5a6.692,6.692,0,0,0-5.324,5.955c-.071.569.009,1.175-.59,1.43-2.292.977-2.477,3.4-3.544,5.19C381.349,158.321,382.027,158.974,383.562,159.042Zm-3.387-46.868a37.335,37.335,0,0,0,10.567-3.962,5.2,5.2,0,0,0,2.318-2.818c.7-1.875,1.612-3.67,2.446-5.493.28-.613.459-1.329-.18-1.687-1.41-.79-.887-1.533-.2-2.48a1.866,1.866,0,0,0,.245-2.155c-.536-.8-1.372-.5-2.092-.276-2.853.876-5.4,1.57-7.362,4.626-2.551,3.964-4.613,8.205-7.254,12.1C377.771,111.341,378.33,112.149,380.176,112.175Zm-14.64-14.221c-2.11-.446-3.287,1.319-4.269,2.94-3.447,5.689-6.769,11.455-10.063,17.234-.973,1.707-.235,2.759,1.729,2.4,3.767-.685,7.2-1.984,8.862-5.917.429-1.018,1.048-1.954,1.539-2.947,1.566-3.163,3.186-6.3,4.645-9.513C369.171,99.53,368.333,98.016,365.536,97.954Zm-15.377,272.5c3.377-2.047,5.778-4.876,8.458-7.338q18.955-17.408,37.7-35.042c3.852-3.6,7.589-7.325,11.37-11,.334-.325.891-.726.539-1.21-.427-.587-1-.186-1.462.135-.227.157-.419.365-.636.538-9.458,7.568-17.757,16.391-26.6,24.624-9.554,8.9-18.909,18.01-28.341,27.038A2.414,2.414,0,0,0,350.159,370.452Zm38.009-178.123c.032-1.456-.592-1.7-2.173-1.032-6.116,2.581-12.282,5.046-18.366,7.7-2.963,1.294-6.4,2.143-7.38,5.979-.136.533-.535,1.028-.113,1.542a1.231,1.231,0,0,0,1.543.172c1.532-.645,3.005-1.444,4.565-2,6.395-2.3,12.476-5.339,18.785-7.84A4.767,4.767,0,0,0,388.168,192.329Zm5.806-24c-.172-.785-.707-.926-1.742-.545-3.77,1.387-7.51,2.849-11.354,4.046-3.317,1.032-6.819,2.013-7.827,6.107-.159.644-.8,1.27-.152,1.913.607.6,1.291.179,1.946-.035,5.083-1.657,10.124-3.425,15.088-5.415A5.983,5.983,0,0,0,393.973,168.334ZM353.26,217.811c1.706-.65,3.425-1.7,5.237-2.536,8.356-3.843,16.623-7.877,24.937-11.811a5.557,5.557,0,0,0,2.582-2.318c.294-.518,1-.977.508-1.64a1.3,1.3,0,0,0-1.889-.127c-1.618,1.141-3.531,1.605-5.279,2.442-5.367,2.572-10.779,5.049-16.177,7.556a74.369,74.369,0,0,0-9.5,5.39,5.042,5.042,0,0,0-1.4,1.784C351.864,217.3,352.24,217.723,353.26,217.811Zm63.156-21.94c.145-1.453-.529-1.563-1.734-1.028-2.9,1.286-5.863,2.432-8.734,3.779-3.372,1.582-6.731,3.18-10.181,4.594-2.218.909-3.326,2.841-3.914,5.091-.1.4-.3.837.072,1.166.487.429.9.04,1.292-.228a40.431,40.431,0,0,1,6.132-2.98c4.761-2.19,9.617-4.175,14.383-6.369A3.971,3.971,0,0,0,416.416,195.871Zm-5.989-92.881c2.341-.848,4.985-1.7,7.536-2.777a12.26,12.26,0,0,0,3.268-2.2c.981-.875,1.44-2.032-.1-2.856-.989-.529-1.21-1.061-.473-1.925a5.288,5.288,0,0,0,.781-2.349c.344-1.347-.071-1.914-1.592-1.773-2.926.272-5.285,1.091-6.608,4.112-1.16,2.651-3.233,4.843-4.257,7.611C408.544,102.01,408.51,102.9,410.427,102.99Zm10.407,65.246c.4-.366.77-.672,1.1-1.02.415-.442,1.075-.9.634-1.581s-1.143-.312-1.71-.105c-3.977,1.453-7.937,2.953-11.921,4.387-1.519.546-1.912,1.963-2.5,3.156-.543,1.11,1.039.949,1.472,1.707a25.427,25.427,0,0,0-2.6.893c-.638.3-1.214.824-1,1.64.253.945,1.009.651,1.711.609,2.052-.122,3.508-1.568,5.283-2.26,3.369-1.314,6.8-2.447,9.81-4.535.55-.382,1.461-.436,1.521-1.261C422.711,168.82,421.5,169.041,420.833,168.236Zm15.224,37.1c.068-1.288-.735-1.66-2.12-1.007-5.064,2.385-9.941,5.171-15.231,7.076a2.263,2.263,0,0,0-1.2,1.626,17.9,17.9,0,0,1-.587,1.762c-.287.678-1.056,1.409-.374,2.059.7.665,1.563.042,2.3-.3,4.567-2.1,9.056-4.39,13.724-6.229C435.081,209.336,435.385,207.33,436.057,205.336Zm-16.51-25.806c-.013-1.832-.515-2.2-1.866-1.568-1.821.85-3.709,1.578-5.567,2.286-2.27.864-4.322,2.321-6.663,2.815-2.728.575-3.865,2.49-4.912,4.634a1.411,1.411,0,0,0,.181,1.748c.438.387.9,0,1.352-.164,4.875-1.819,9.5-4.245,14.422-5.958A4.26,4.26,0,0,0,419.547,179.53Zm5.326-21.971c.1-1.043-.672-1.13-1.6-.816-2.691.913-5.348,1.933-8.052,2.8-2.627.845-4.579,2.26-5.183,5.131-.123.584-.719,1.14-.214,1.731s1.2.252,1.757.058c3.142-1.089,6.219-2.4,9.415-3.294C423.873,162.369,424.415,160.127,424.873,157.559ZM392.563,90.58a14.788,14.788,0,0,0,6.96-1.918c1.538-.967,2.453-3.4,1.475-4.132-1.062-.8-.882-1.392-.211-2.2.457-.548.9-1.122.441-1.866a1.811,1.811,0,0,0-2.017-.737,3.989,3.989,0,0,0-2.954,1.333c-1.722,2.421-3.463,4.833-5.071,7.329C390.284,89.792,390.837,90.556,392.563,90.58Zm-17.678-3.628c-.083-.876.15-2.01-.945-2.494-1.2-.529-2.136.153-2.945.984-2.25,2.315-3.656,5.212-5.383,7.885-.4.622-.9,1.38-.342,2.114.589.769,1.5.541,2.325.434C371.646,95.353,374.712,90.171,374.885,86.952Zm44.46-1.125c2.757.4,4.67-1.527,6.936-2.464.625-.258.916-1.26.335-1.552-2.149-1.082-1.026-2.319-.508-3.722.31-.838,1.606-1.975.279-2.73-1.255-.714-2.7-.189-3.844.741a3.079,3.079,0,0,0-.607.837c-1.157,1.933-1.811,4.152-3.667,5.69a2.422,2.422,0,0,0-.548,2.707C418.01,86.027,418.759,85.883,419.345,85.827ZM332.453,46.521c3.392-.863,7.14-1.249,10.632-2.662.643-.26,1.845-.111,1.677-1.134-.151-.928-1.247-.593-1.965-.65-.551-.043-1.113.053-1.662,0-3.5-.338-7.062-.414-10.194-2.357-.549-.341-1.173-.6-1.694,0a1.522,1.522,0,0,0,0,1.934,7.215,7.215,0,0,1,1.485,3.807C330.756,46.3,331.419,46.592,332.453,46.521Zm88.773,94.793c2.168-.523,4.36-1.173,6.566-1.743,2.489-.643,3.474-2.283,4.043-4.474.416-1.6-.064-2.1-1.665-1.632a38.445,38.445,0,0,1-5.565,1.655c-2.92.376-3.717,2.473-4.577,4.694C419.563,141.012,420.107,141.327,421.226,141.314Zm105.629-5.832a2.666,2.666,0,0,0-1.537,1.008,48.392,48.392,0,0,1-7.455,6.27c-2.672,1.754-2.6,3.017-.046,4.97a2.927,2.927,0,0,1,.447.435c.777.913,1.526.614,2.031-.2,2.332-3.771,4.609-7.576,6.9-11.375C527.47,136.125,527.568,135.666,526.855,135.482ZM439.6,184.74c-.129-.865-.731-.658-1.448-.318a52.159,52.159,0,0,1-6.008,2.732c-2.463.8-3.154,2.693-3.65,4.834-.294,1.268.215,1.4,1.353,1.05,2.056-.631,3.848-1.83,5.826-2.574C438.718,189.316,439.735,188.087,439.6,184.74Zm-21.858,1.487c-.288-.988-.945-.714-1.649-.517-1.888.527-3.467,1.708-5.309,2.375-3.826,1.386-7.562,3.026-11.309,4.621a4.074,4.074,0,0,0-1.726,1.769c-.338.558-.537,1.2.03,1.712.5.449,1.026.139,1.539-.11q8.492-4.112,16.993-8.205C417.013,187.532,417.657,187.144,417.738,186.228Zm-37.864-19.035a26.112,26.112,0,0,1,4.35-1.879c3.661-1.29,7.275-2.725,10.853-4.231,1.04-.437,2.376-1.249,1.631-2.658-.683-1.292-1.866-.338-2.745.053-3.67,1.632-7.357,3.215-11.136,4.586a8.891,8.891,0,0,0-3.695,2.264,1.251,1.251,0,0,0-.342,1.337C378.934,167.043,379.256,167.146,379.874,167.193Zm59.6-125.035a3.961,3.961,0,0,0,3.271-4.653c-.349-1.167-.075-1.608.884-2.075a5.373,5.373,0,0,0,1.422-1.186,1.243,1.243,0,0,0,.371-.892c-.088-.5-.611-.534-1.011-.482-2.329.309-4.666.587-6.973,1.02-.873.164-1.361,1-.595,1.706.959.881.755,1.688.525,2.773C436.94,40.389,438.06,42.2,439.475,42.157Zm-18.11-6.445c-1.442.2-2.887.382-4.327.6-3.443.522-3.442.529-3.031,4.054.373,3.2,2.152,4.062,4.86,2.389a4.654,4.654,0,0,0,2.006-2.568,6.587,6.587,0,0,1,1.383-2.754,1.141,1.141,0,0,0,.39-1.311C422.384,35.56,421.843,35.7,421.365,35.712Zm6.888,110.53c.17-1.564-.712-1.9-1.907-1.41-2.935,1.208-5.852,2.468-8.708,3.85a4.675,4.675,0,0,0-2.37,2.783c-.144.433-.631.853-.222,1.329a1.114,1.114,0,0,0,1.356.121c3.382-1.394,6.773-2.767,10.115-4.252A2.86,2.86,0,0,0,428.253,146.242ZM392.975,39.908c-.79,0-1.277-.01-1.763,0-.926.023-1.921.049-2.141,1.2a2.893,2.893,0,0,0,1.039,3.179c2.721,1.839,7.761-.024,8.587-3.13.454-1.709-.011-2.28-1.726-1.894A12.244,12.244,0,0,1,392.975,39.908Zm94.573,165.4c-.04-.421-.051-.559-.066-.7-.091-.827-.164-1.656-.279-2.479-.206-1.487-1.233-1.975-2.522-1.151a30.734,30.734,0,0,0-2.86,2.057c-1.2.981-1.074,2.133.25,2.792,3.351,1.667,3.351,1.667,1.232,4.631-.041.056-.083.112-.121.17-.376.582-.932,1.235-.2,1.833a1.272,1.272,0,0,0,1.956-.522A24.049,24.049,0,0,0,487.548,205.312ZM362.843,172.55c-.3-.9-1.006-.762-1.555-.564-.838.3-1.578.9-2.424,1.151-5.038,1.517-9.524,4.4-14.6,5.851a9.116,9.116,0,0,0-2.422,1.576c-.283.2-.54.515-.3.875s.63.248.942.093a11.908,11.908,0,0,1,3.007-1.374c3.144-.606,5.913-2.27,8.922-3.288,1.942-.657,3.855-1.5,5.827-2.147A3.947,3.947,0,0,0,362.843,172.55Zm72.915-49.367c-.157-1-.639-1.433-1.595-1.091-2.215.795-4.433,1.585-6.63,2.428a3.268,3.268,0,0,0-2.13,2.619c-.083.463-.363.972.039,1.383.479.489,1.067.233,1.55.006a30.083,30.083,0,0,1,5.931-1.871C434.749,126.226,435.274,124.695,435.759,123.183Zm4.788-14.921c.117-1.1-.008-1.306-.9-1.477-2.287-.442-7.038,2.389-7.747,4.581-.349,1.079-.025,1.672,1.117,1.57,1.376-.122,2.749-.331,4.11-.578C439.377,111.95,440.422,110.482,440.546,108.262ZM460.9,35.592c.2,1.638.305,2.949.538,4.238.223,1.236,1.081,1.452,2.2,1.172,1.651-.414,1.862-1.882,2.379-3.138.558-1.358,2.279-2.844,1.338-4.05-1.084-1.39-3.1-.04-4.717-.025A1.656,1.656,0,0,0,460.9,35.592ZM446.984,80.458c1.8-.007,3.318-.947,4.922-1.571a.752.752,0,0,0,.211-1.353c-1.713-1.019-1.506-2.111-.545-3.553a1.414,1.414,0,0,0-.574-2,1.551,1.551,0,0,0-1.9.392,3.122,3.122,0,0,0-1.271,1.85,4.639,4.639,0,0,1-2.053,3.435,1.479,1.479,0,0,0-.5,1.869A1.615,1.615,0,0,0,446.984,80.458Zm-54.2,58.732c.236-.048.445-.073.643-.134,3.437-1.074,6.878-2.138,10.3-3.249a3.434,3.434,0,0,0,1.178-.829c.518-.489,1-1.1.552-1.823-.421-.684-1.124-.381-1.7-.183q-5.014,1.722-10.012,3.487a3.2,3.2,0,0,0-1.738,1.427C391.521,138.731,391.826,139.193,392.783,139.19ZM364.358,39.47l-.08-.62c-1.223-.122-2.449-.221-3.668-.371-2.673-.328-5.4-.124-8.034-.918-.914-.275-2.05.126-1.8,1.324.225,1.077-.463,3.226,1.638,2.927C356.424,41.242,360.379,40.273,364.358,39.47ZM472.684,139.686c-2.352-.575-3.03,1.206-3.574,3.245a28.045,28.045,0,0,1-1.066,2.705c-.17.446-.44.973.06,1.334a1.063,1.063,0,0,0,1.338-.233,5.657,5.657,0,0,1,2.814-1.712c1.884-.184,2.652-.937,2.888-2.915C475.436,139.674,475.441,139.412,472.684,139.686Zm-29.77,29.809c-.026-1.414-.672-2.027-2.115-1.342a38.943,38.943,0,0,0-3.689,1.922c-.982.6-2.578,4.4-2.064,4.649,1.558.767,2.895-.3,4.274-.8a9.522,9.522,0,0,0,1.8-1.034A3.75,3.75,0,0,0,442.914,169.494Zm74.93-17.81a19.746,19.746,0,0,0-8.6,14.981A102.469,102.469,0,0,0,517.845,151.684Zm-35.892-31.72c.058-.861-.4-1-1.174-.81-2.509.618-4.474,1.823-4.957,4.6-.155.892-1.285,1.864-.3,2.645.812.646,1.373-.6,2.089-.913a1.978,1.978,0,0,1,.376-.17c1.195-.235,2.578-.153,3.018-1.7C481.34,122.42,481.63,121.211,481.953,119.965Zm-45.75-7.036c-1.727,1.165-4.458.476-6.409,2.21-.65.577-1.172,1.307-.768,2.194.442.971,1.342.693,2.184.611,2.23-.217,3.818-1.942,5.922-2.442.779-.185,1.563-.576,1.46-1.489C438.465,112.884,437.445,113.024,436.2,112.928Zm10.873,276.581c.227-.393.357-.512.355-.629-.073-4.852-1.92-9.337-2.923-14a.933.933,0,0,0-1.058-.807c-.666.089-.9.6-.961,1.189a9.1,9.1,0,0,0,1.755,6.29,7.683,7.683,0,0,1,1.31,3.405C445.79,386.467,445.645,388.158,447.076,389.509ZM443,155.447c.137-.024.273-.052.411-.072a6.334,6.334,0,0,0,4.8-6.057c-.086-.958-.639-1.061-1.474-.872-2.232.505-4.647,3.714-4.642,6.194C442.093,155.322,442.435,155.475,443,155.447Zm3.666-70.792a5.628,5.628,0,0,0-5.525,4.7c-.068.778.382.946,1,.985A5.715,5.715,0,0,0,447.6,86.8C448.1,85.37,447.611,84.679,446.668,84.656ZM374.9,82.136c1.223-.5,2.958-.618,3.486-2.1.494-1.391.513-2.963,1.007-4.4a.947.947,0,0,0-.333-1.116.906.906,0,0,0-1.28.29,37.57,37.57,0,0,0-4.163,5.62C373.018,81.563,373.628,82.083,374.9,82.136Zm36.57-20.77a1.867,1.867,0,0,0-.753-1.823c-.628-.466-1.174-.122-1.681.281a13.062,13.062,0,0,0-3.419,4.857c-.41.858.005,1.682,1.217,1.508A6.483,6.483,0,0,0,411.472,61.366ZM386.99,63.06c-.144-.6.079-1.194-.512-1.411a1.244,1.244,0,0,0-1.427.6c-1.242,1.733-2.426,3.508-3.626,5.271-.465.684-1.126,1.477-.3,2.19.734.638,1.655.144,2.259-.388C385.31,67.625,386.03,65.218,386.99,63.06Zm51.141,129.97c-.354-.9-1.164-.793-1.8-.386a38.7,38.7,0,0,1-4.859,2.258c-1.439.67-2.867,1.341-4.344,1.928-.617.245-1.321.765-.932,1.593.349.742,1.1.484,1.654.229,3.129-1.445,6.242-2.927,9.354-4.408A1.516,1.516,0,0,0,438.131,193.03ZM211.3,88.013c-1.481.029-2.924.307-2.964,2.128a3.982,3.982,0,0,0,2.491,3.536c1.414.556,1.039-1.515,1.643-2.308a4.408,4.408,0,0,0,.432-1.16C213.622,88.25,213.443,88,211.3,88.013Zm227.165,13.76c1.932.027,4.271-1.088,5.05-2.41.243-.412.628-.813.341-1.332a1.146,1.146,0,0,0-1.483-.4c-1.524.471-3.03,1.009-4.527,1.562a1.422,1.422,0,0,0-1.087,1.761C436.985,101.843,437.777,101.741,438.465,101.773ZM435.34,58.7a2.866,2.866,0,0,0-1.565-2.05c-.914-.506-1.4.336-1.852.894a19.385,19.385,0,0,0-1.733,2.57,1.126,1.126,0,0,0,.456,1.756C431.92,62.454,435.28,60.338,435.34,58.7ZM400.968,76.3c1.686-.049,2.816-1.166,3.745-3.33.347-.807.756-1.559-.208-2.153a1.652,1.652,0,0,0-2.212.534,21.189,21.189,0,0,0-2.345,3.372C399.26,75.978,400.119,76.283,400.968,76.3Zm25.161-2.958c1.844-.2,2.546-1.8,3.013-3.607.2-.761.781-1.672-.362-2.118a1.838,1.838,0,0,0-2.312.882c-.644,1.053-1.175,2.176-1.759,3.266C424.064,72.974,424.543,73.42,426.128,73.345Zm62.11,25.42c.032-1.179-.6-1.1-1.366-.843-1.706.573-2.374,2-3,3.506-.307.74-.654,1.494.147,2.055a1.861,1.861,0,0,0,2.3-.282C487.864,102.076,487.555,100.186,488.239,98.765ZM371.432,46.283c1.259-.2,2.741.2,3.827-.977.427-.463.858-.961.617-1.65-.249-.713-.9-.728-1.534-.8-1.439-.17-2.478.723-3.619,1.323-.794.418-2.444.188-2.213,1.36C368.786,46.939,370.356,46.1,371.432,46.283ZM177.966,102.789c-.061-1.073-.845-1.15-1.638-1.047-1.321.172-2.913.316-2.634,2.177a11.655,11.655,0,0,0,1.459,3.426.6.6,0,0,0,1.141-.043C176.907,105.832,177.41,104.315,177.966,102.789ZM485.577,31.409c-1.041.348-2.6-.035-2.794,1.758-.063.6,2.576,3.741,2.914,3.5,1.27-.918,1.251-2.456,1.445-3.817C487.279,31.883,486.719,31.282,485.577,31.409ZM454.377,65.5c.141-.738.1-1.288-.522-1.555a1.206,1.206,0,0,0-1.626.5c-.6,1.082-1.086,2.227-1.613,3.348-.231.49-.613,1.012-.019,1.483a1.494,1.494,0,0,0,1.57.034C454,68.6,453.748,66.714,454.377,65.5Zm.111,63.105c.1-.783.131-1.441-.622-1.7a1.274,1.274,0,0,0-1.615.606c-.564,1.1-1,2.264-1.492,3.4a1.073,1.073,0,0,0,.027,1.173c.368.46.858.336,1.334.2C454.072,131.731,453.9,129.856,454.488,128.6Zm2.786-74.5c-1.794.022-2.214,1.3-2.471,2.607a.888.888,0,0,0,1.147,1.065c1.424-.343,3.336-.522,3.706-2.027C459.949,54.561,458.232,54.412,457.274,54.106Zm-92.953,93.35c3.085-.11,5.885-.324,8.3-2.076.374-.271.895-.608.523-1.165-.273-.409-.783-.271-1.135-.052-1.694,1.057-3.632,1.3-5.517,1.75A2.578,2.578,0,0,0,364.321,147.456ZM142.635,119.15c.918.028,2.82-1.932,2.87-2.832.04-.724-.363-1.1-1.013-.957-1.323.283-2.931.333-3.2,2.1A1.472,1.472,0,0,0,142.635,119.15Zm309.315,17.618c.065-.777-.333-1.126-1.076-1.19a3.05,3.05,0,0,0-2.8,2.806c-.022.659.217,1.047.905,1.116C450.136,139.615,451.885,138.014,451.949,136.768Zm-11.011,25.493c1.741.217,2.665-1.705,4.062-2.832.373-.3.195-.794-.2-1.057-.372-.25-.973-.292-1.109.1-.621,1.785-2.125,1.661-3.548,1.844-.641.082-1.235.5-1.065,1.262C439.227,162.222,439.875,162.248,440.938,162.261Zm51.181-76.719c-.06-.4-.1-.828-.569-1a.967.967,0,0,0-1.088.411A8.416,8.416,0,0,0,488.97,87.9c-.19.53-.53,1.089.126,1.466a1.247,1.247,0,0,0,1.807-.5A29.4,29.4,0,0,0,492.119,85.542ZM459.082,114.7c.054-.592-.044-.989-.529-1.126a1,1,0,0,0-1.218.556c-.52,1.048-.965,2.132-1.44,3.2-.209.47-.344.949.227,1.254.505.27.933.006,1.322-.308C458.629,117.326,458.463,115.767,459.082,114.7Zm6.641,46.5c-.392-.7.379-2.226-1.2-2.111s-1.727,1.557-1.912,2.771c-.115.756.155,1.447,1.11,1.272C464.751,162.942,465.759,162.615,465.723,161.2Zm20.017-53.975a.864.864,0,0,0-.99-.721,6.8,6.8,0,0,0-2.387.576,2.011,2.011,0,0,0-1.04,2.461c.477.932,1.3-.116,1.943-.307a9.361,9.361,0,0,0,1.858-.891A1.174,1.174,0,0,0,485.74,107.224Zm-.452-76.771c.9-.086,1.795-.127,2.674-.274.477-.08.961-.371.859-.965-.088-.511-.6-.537-1-.51a19.185,19.185,0,0,0-2.659.317c-.879.187-2.53-.381-2.476.679C482.75,31.016,484.385,30.125,485.288,30.453ZM508.9,27.309c-.778.449-2.44-.624-2.477,1.168a1.5,1.5,0,0,0,1.963,1.322c1.1-.241,2.278-.8,2.266-2.027C510.643,26.743,509.579,27.409,508.9,27.309ZM460,106.329c.136.421-.13,1.048.492,1.222.592.165.822-.41,1.051-.8a5.556,5.556,0,0,0,.774-3.539c-.036-.289-.472-.345-.686-.156A5.929,5.929,0,0,0,460,106.329ZM447.872,318.685c-.025-.85-.336-1.444-1.214-1.409a1.439,1.439,0,0,0-1.512,1.611,1.328,1.328,0,0,0,1.271,1.4C447.478,320.333,447.77,319.524,447.872,318.685ZM493.989,78.739c.019-.559.194-1.357-.513-1.141-1.536.469-1.274,2.15-1.831,3.285-.2.413.063,1.014.506.919C493.851,81.437,493.477,79.762,493.989,78.739Zm-52.8,255.08c-.044-.642-.285-1.269-1.007-1.316-.98-.063-1.22.742-1.32,1.517-.086.668.094,1.338.9,1.332C440.646,335.345,441.032,334.67,441.189,333.819Zm10.945-32.174a1.2,1.2,0,0,0,1.186-1.354c.008-.635-.118-1.369-.949-1.229a1.589,1.589,0,0,0-1.317,1.6C451.033,301.305,451.506,301.594,452.134,301.645Zm-65.1,58.121a8.435,8.435,0,0,0-3.416,3.7A6.194,6.194,0,0,0,387.032,359.766Zm24.229-251.808c.737-.373,1.97.024,2.368-1.082.159-.443-.566-.57-.926-.437-.913.337-2.245-.105-2.673,1.037C409.84,107.985,410.712,107.9,411.261,107.958Zm-51.669,41.727c.771-.409,2.081.122,2.606-1.009.184-.4-.567-.583-.934-.454-.926.325-2.218-.193-2.74.956C358.341,149.58,359.042,149.672,359.592,149.685ZM510.443,316.851c-.331-.613.1-1.8-.926-2.144-.624-.21-.618.6-.557,1.022.121.831-.055,1.918,1.012,2.215C510.462,318.081,510.426,317.415,510.443,316.851ZM440.561,93.772c.646-.118,1.245-.391,1.246-1.13s-.616-.831-1.2-.787c-.6.046-1.107.333-1.148.977C439.414,93.536,439.93,93.752,440.561,93.772Zm18.657,190.121c.7-.16.828-.765.868-1.388.034-.529.146-1.277-.6-1.29-.725-.013-.926.721-1.013,1.344C458.392,283.123,458.457,283.668,459.217,283.893Z" transform="translate(2.737 0.246)" fill="rgba(93,193,133,0.32)"/>
</svg>
