<svg xmlns="http://www.w3.org/2000/svg" width="27.87" height="27.863" viewBox="0 0 27.87 27.863">
  <path id="Icon_awesome-instagram" data-name="Icon awesome-instagram" d="M13.933,9.025a7.144,7.144,0,1,0,7.144,7.144A7.132,7.132,0,0,0,13.933,9.025Zm0,11.788a4.644,4.644,0,1,1,4.644-4.644A4.653,4.653,0,0,1,13.933,20.813Zm9.1-12.08a1.666,1.666,0,1,1-1.666-1.666A1.662,1.662,0,0,1,23.035,8.733Zm4.731,1.691a8.246,8.246,0,0,0-2.251-5.838,8.3,8.3,0,0,0-5.838-2.251c-2.3-.131-9.2-.131-11.5,0A8.288,8.288,0,0,0,2.343,4.58,8.273,8.273,0,0,0,.093,10.418c-.131,2.3-.131,9.2,0,11.5a8.246,8.246,0,0,0,2.251,5.838A8.311,8.311,0,0,0,8.182,30c2.3.131,9.2.131,11.5,0a8.246,8.246,0,0,0,5.838-2.251,8.3,8.3,0,0,0,2.251-5.838c.131-2.3.131-9.189,0-11.49ZM24.794,24.382a4.7,4.7,0,0,1-2.649,2.649c-1.834.727-6.186.56-8.213.56s-6.385.162-8.213-.56a4.7,4.7,0,0,1-2.649-2.649c-.727-1.834-.56-6.186-.56-8.213s-.162-6.385.56-8.213A4.7,4.7,0,0,1,5.719,5.307c1.834-.727,6.186-.56,8.213-.56s6.385-.162,8.213.56a4.7,4.7,0,0,1,2.649,2.649c.727,1.834.56,6.186.56,8.213S25.522,22.554,24.794,24.382Z" transform="translate(0.005 -2.238)" fill="#fff"/>
</svg>
