<svg id="email_black_24dp" xmlns="http://www.w3.org/2000/svg" width="39.767" height="39.767" viewBox="0 0 39.767 39.767">
  <path id="Tracé_239" data-name="Tracé 239" d="M0,0H39.767V39.767H0Z" fill="none"/>
  <path id="Tracé_240" data-name="Tracé 240" d="M31.825,4H5.314a3.309,3.309,0,0,0-3.3,3.314L2,27.2a3.324,3.324,0,0,0,3.314,3.314H31.825A3.324,3.324,0,0,0,35.139,27.2V7.314A3.324,3.324,0,0,0,31.825,4Zm-.663,7.042L19.448,18.366a1.676,1.676,0,0,1-1.756,0L5.977,11.042A1.407,1.407,0,1,1,7.468,8.656l11.1,6.943,11.1-6.943a1.407,1.407,0,1,1,1.491,2.386Z" transform="translate(1.314 2.628)" fill="#fff"/>
</svg>
