<svg id="phone_white_24dp" xmlns="http://www.w3.org/2000/svg" width="40.177" height="40.177" viewBox="0 0 40.177 40.177">
  <path id="Tracé_296" data-name="Tracé 296" d="M0,0H40.177V40.177H0Z" fill="none"/>
  <path id="Tracé_297" data-name="Tracé 297" d="M30.152,23.517,25.9,23.031a3.332,3.332,0,0,0-2.745.954l-3.08,3.08A25.186,25.186,0,0,1,9.042,16.034l3.1-3.1a3.332,3.332,0,0,0,.954-2.745l-.485-4.219A3.35,3.35,0,0,0,9.277,3.01h-2.9A3.322,3.322,0,0,0,3.032,6.475a28.444,28.444,0,0,0,26.6,26.6A3.322,3.322,0,0,0,33.1,29.728v-2.9A3.318,3.318,0,0,0,30.152,23.517Z" transform="translate(2.04 2.029)" fill="#fff"/>
</svg>
