<svg xmlns="http://www.w3.org/2000/svg" xmlns:xlink="http://www.w3.org/1999/xlink" width="42" height="42" viewBox="0 0 42 42">
  <defs>
    <clipPath id="clip-path">
      <circle id="Ellipse_33" data-name="Ellipse 33" cx="21" cy="21" r="21" transform="translate(421 1266.732)" fill="#fff"/>
    </clipPath>
  </defs>
  <g id="Groupe_de_masques_9" data-name="Groupe de masques 9" transform="translate(-421 -1266.732)" clip-path="url(#clip-path)">
    <g id="place_black_24dp" transform="translate(421 1266.518)">
      <g id="Groupe_262" data-name="Groupe 262" transform="translate(0 0)">
        <rect id="Rectangle_182" data-name="Rectangle 182" width="42" height="42" transform="translate(0 0.215)" fill="none"/>
      </g>
      <g id="Groupe_263" data-name="Groupe 263" transform="translate(6.969 3.884)">
        <path id="Tracé_295" data-name="Tracé 295" d="M42.439,14.25A13.86,13.86,0,0,0,28.5,28.537q0,8.311,12.789,19.566a1.772,1.772,0,0,0,2.317,0Q56.36,36.839,56.377,28.537A13.86,13.86,0,0,0,42.439,14.25Zm0,17.423a3.485,3.485,0,1,1,3.485-3.485A3.495,3.495,0,0,1,42.439,31.673Z" transform="translate(-28.5 -14.25)" fill="#fff"/>
      </g>
    </g>
  </g>
</svg>
