<svg xmlns="http://www.w3.org/2000/svg" width="27.863" height="22.63" viewBox="0 0 27.863 22.63">
  <path id="Icon_awesome-twitter" data-name="Icon awesome-twitter" d="M25,9.02c.018.247.018.5.018.743,0,7.549-5.746,16.247-16.248,16.247A16.138,16.138,0,0,1,0,23.447a11.814,11.814,0,0,0,1.379.071,11.437,11.437,0,0,0,7.09-2.44,5.721,5.721,0,0,1-5.339-3.96,7.2,7.2,0,0,0,1.079.088,6.04,6.04,0,0,0,1.5-.194,5.711,5.711,0,0,1-4.579-5.6v-.071a5.751,5.751,0,0,0,2.581.725A5.719,5.719,0,0,1,1.945,4.424,16.232,16.232,0,0,0,13.719,10.4a6.446,6.446,0,0,1-.141-1.308,5.716,5.716,0,0,1,9.883-3.907,11.243,11.243,0,0,0,3.624-1.379,5.7,5.7,0,0,1-2.511,3.147,11.448,11.448,0,0,0,3.288-.884A12.275,12.275,0,0,1,25,9.02Z" transform="translate(0 -3.381)" fill="#fff"/>
</svg>
