<svg xmlns="http://www.w3.org/2000/svg" width="18.466" height="18.467" viewBox="0 0 18.466 18.467">
  <path id="Icon_awesome-baby-carriage" data-name="Icon awesome-baby-carriage" d="M5.222.613A1.354,1.354,0,0,0,3.275.274,8.5,8.5,0,0,0,0,6.924H9.233ZM17.889,3.462H16.158A2.31,2.31,0,0,0,13.85,5.77V8.078H0a6.4,6.4,0,0,0,2.175,4.714,2.882,2.882,0,1,0,3.6,2.788,2.914,2.914,0,0,0-.159-.909,9.337,9.337,0,0,0,4.934,0,2.814,2.814,0,0,0-.159.909,2.885,2.885,0,1,0,3.6-2.788,6.4,6.4,0,0,0,2.175-4.714V5.77h1.731a.579.579,0,0,0,.577-.577V4.039A.579.579,0,0,0,17.889,3.462Zm-15,13.272A1.154,1.154,0,1,1,4.039,15.58,1.158,1.158,0,0,1,2.885,16.734ZM14.427,15.58a1.154,1.154,0,1,1-1.154-1.154A1.158,1.158,0,0,1,14.427,15.58Z" transform="translate(0 0.001)" fill="#fff"/>
</svg>
