<svg id="add_circle_outline_black_24dp" xmlns="http://www.w3.org/2000/svg" width="31.299" height="31.299" viewBox="0 0 31.299 31.299">
  <path id="Tracé_290" data-name="Tracé 290" d="M0,0H31.3V31.3H0Z" fill="none"/>
  <path id="Tracé_291" data-name="Tracé 291" d="M15.041,8.521a1.308,1.308,0,0,0-1.3,1.3v3.912H9.825a1.3,1.3,0,1,0,0,2.608h3.912v3.912a1.3,1.3,0,1,0,2.608,0V16.345h3.912a1.3,1.3,0,1,0,0-2.608H16.345V9.825A1.308,1.308,0,0,0,15.041,8.521Zm0-6.521A13.041,13.041,0,1,0,28.082,15.041,13.046,13.046,0,0,0,15.041,2Zm0,23.474A10.433,10.433,0,1,1,25.474,15.041,10.447,10.447,0,0,1,15.041,25.474Z" transform="translate(0.608 0.608)" fill="#fff"/>
</svg>
