<svg id="sell_white_24dp" xmlns="http://www.w3.org/2000/svg" width="28.365" height="28.365" viewBox="0 0 28.365 28.365">
  <g id="Groupe_249" data-name="Groupe 249">
    <path id="Tracé_292" data-name="Tracé 292" d="M0,0H28.365V28.365H0Z" fill="none"/>
  </g>
  <g id="Groupe_250" data-name="Groupe 250" transform="translate(2.364 2.364)">
    <path id="Tracé_293" data-name="Tracé 293" d="M24.94,13.122,14.5,2.685A2.361,2.361,0,0,0,12.838,2H4.364A2.371,2.371,0,0,0,2,4.364v8.474A2.324,2.324,0,0,0,2.7,14.5L13.133,24.94a2.368,2.368,0,0,0,3.345,0l8.474-8.474A2.358,2.358,0,0,0,24.94,13.122ZM7.318,9.091A1.773,1.773,0,1,1,9.091,7.318,1.77,1.77,0,0,1,7.318,9.091Z" transform="translate(-2 -2)" fill="#fff"/>
  </g>
</svg>
