<svg xmlns="http://www.w3.org/2000/svg" width="6.823" height="9.927" viewBox="0 0 6.823 9.927">
  <path id="Icon_awesome-question" data-name="Icon awesome-question" d="M5.22,0A3.757,3.757,0,0,0,1.884,1.765a.466.466,0,0,0,.1.637l.836.634a.465.465,0,0,0,.645-.08A1.881,1.881,0,0,1,5.07,2c.6,0,1.334.384,1.334.962,0,.437-.361.662-.95.992-.687.385-1.6.864-1.6,2.063V6.2a.465.465,0,0,0,.465.465H5.729A.465.465,0,0,0,6.194,6.2V6.092c0-.831,2.429-.866,2.429-3.114C8.623,1.285,6.866,0,5.22,0ZM5.026,7.241A1.343,1.343,0,1,0,6.369,8.584,1.345,1.345,0,0,0,5.026,7.241Z" transform="translate(-1.8)" fill="#fff"/>
</svg>
