<svg xmlns="http://www.w3.org/2000/svg" width="18.567" height="18.567" viewBox="0 0 18.567 18.567">
  <path id="Icon_weather-time-5" data-name="Icon weather-time-5" d="M4.488,13.128A9.1,9.1,0,0,1,5.741,8.461,9.276,9.276,0,0,1,9.13,5.073a9.266,9.266,0,0,1,8.253-.511,9.367,9.367,0,0,1,2.96,1.979,9.09,9.09,0,0,1,1.979,2.968,9.219,9.219,0,0,1-4.938,12.152,9.252,9.252,0,0,1-7.222,0,9.136,9.136,0,0,1-4.947-4.93A8.935,8.935,0,0,1,4.488,13.128Zm2.045,0a7.007,7.007,0,0,0,2.135,5.1,6.963,6.963,0,0,0,5.112,2.135,7.009,7.009,0,0,0,3.619-.973,7.314,7.314,0,0,0,2.646-2.638,7.182,7.182,0,0,0,0-7.247A7.274,7.274,0,0,0,17.4,6.854a7.219,7.219,0,0,0-7.239,0A7.424,7.424,0,0,0,7.505,9.5,6.981,6.981,0,0,0,6.533,13.128Zm6.53,0V7.637a.684.684,0,1,1,1.369,0V12.93L16.2,16.1a.669.669,0,0,1-.594,1.031.645.645,0,0,1-.6-.338l-1.814-3.215A.808.808,0,0,1,13.062,13.128Z" transform="translate(-4.488 -3.828)" fill="#fff"/>
</svg>
