<svg xmlns="http://www.w3.org/2000/svg" width="45.034" height="45.024" viewBox="0 0 45.034 45.024">
  <path id="Icon_awesome-instagram" data-name="Icon awesome-instagram" d="M22.517,13.206A11.544,11.544,0,1,0,34.061,24.75,11.525,11.525,0,0,0,22.517,13.206Zm0,19.049a7.5,7.5,0,1,1,7.5-7.5,7.519,7.519,0,0,1-7.5,7.5ZM37.225,12.734a2.693,2.693,0,1,1-2.693-2.693A2.686,2.686,0,0,1,37.225,12.734Zm7.646,2.733c-.171-3.607-.995-6.8-3.637-9.434S35.407,2.577,31.8,2.4c-3.717-.211-14.859-.211-18.576,0-3.6.171-6.792.995-9.434,3.627S.334,11.85.153,15.457c-.211,3.717-.211,14.859,0,18.576.171,3.607.995,6.8,3.637,9.434s5.827,3.456,9.434,3.637c3.717.211,14.859.211,18.576,0,3.607-.171,6.8-.995,9.434-3.637s3.456-5.827,3.637-9.434c.211-3.717.211-14.849,0-18.566Zm-4.8,22.555a7.6,7.6,0,0,1-4.28,4.28c-2.964,1.175-10,.9-13.272.9s-10.318.261-13.272-.9a7.6,7.6,0,0,1-4.28-4.28c-1.175-2.964-.9-10-.9-13.272s-.261-10.318.9-13.272A7.6,7.6,0,0,1,9.245,7.2c2.964-1.175,10-.9,13.272-.9s10.318-.261,13.272.9a7.6,7.6,0,0,1,4.28,4.28c1.175,2.964.9,10,.9,13.272S41.244,35.068,40.068,38.021Z" transform="translate(0.005 -2.238)" fill="#0e1824"/>
</svg>
