<svg xmlns="http://www.w3.org/2000/svg" width="46.016" height="37.374" viewBox="0 0 46.016 37.374">
  <path id="Icon_awesome-twitter" data-name="Icon awesome-twitter" d="M41.286,12.695c.029.409.029.818.029,1.226,0,12.468-9.489,26.833-26.833,26.833A26.651,26.651,0,0,1,0,36.521a19.51,19.51,0,0,0,2.277.117,18.887,18.887,0,0,0,11.708-4.029,9.448,9.448,0,0,1-8.818-6.54,11.893,11.893,0,0,0,1.781.146,9.975,9.975,0,0,0,2.482-.321,9.432,9.432,0,0,1-7.562-9.256V16.52a9.5,9.5,0,0,0,4.263,1.2A9.445,9.445,0,0,1,3.212,5.1a26.807,26.807,0,0,0,19.446,9.869,10.646,10.646,0,0,1-.234-2.161A9.44,9.44,0,0,1,38.746,6.359a18.568,18.568,0,0,0,5.986-2.277,9.406,9.406,0,0,1-4.146,5.2,18.906,18.906,0,0,0,5.431-1.46,20.273,20.273,0,0,1-4.73,4.876Z" transform="translate(0 -3.381)" fill="#0e1824"/>
</svg>
