<svg id="Calque_1" data-name="Calque 1" xmlns="http://www.w3.org/2000/svg" viewBox="0 0 2048 2048">
  <defs>
    <style>
      .cls-1 {
        fill: #FEAA28;
      }
    </style>
  </defs>
  <g>
    <g>
      <path class="cls-1" d="M855,945.36c5.89,17.94,12.92,33.32,21.16,46.5a233.71,233.71,0,0,1-21-45.93C855.14,945.74,855.06,945.56,855,945.36Z"/>
      <circle class="cls-1" cx="989.84" cy="760.83" r="44.19" transform="translate(-109.09 168.38) rotate(-9.22)"/>
      <path class="cls-1" d="M1182.43,959.94a96.91,96.91,0,0,0-83.91-95.67l-20.14-2.72V1089.8a16.59,16.59,0,0,1-17.77,16.58A235.81,235.81,0,0,1,876.16,991.86c-8.24-13.18-15.27-28.56-21.16-46.5.06.2.14.38.2.57-.06-.19-.13-.38-.2-.56A235.11,235.11,0,0,1,843.33,872h0c0-3.69.09-7.35.26-11l0-.77c.14-2.81.37-5.6.61-8.39a235.09,235.09,0,0,1,7-40.34c25.23-94.93,108.32-166.28,209.25-173.87a16.62,16.62,0,0,1,17.87,16.49V495.42c-207.07.15-356.4,159.63-374.6,341h-.11v-2c-.06.67-.11,1.34-.17,2-6.34.21-12.69.35-19.09.35-88.79,0-171.79-20.35-242.47-55.68C353.27,736.72,284,668.82,247,587.94A322.88,322.88,0,0,0,217.24,723c0,79.51,29.43,153.37,79.83,214.64a423,423,0,0,0,82.64,76.29q4.28,3,8.62,6H292.66c8,46.08,33.39,88.31,71.29,123.16,35.08,32.27,80.9,58.24,133.6,75.14H388.34c42.88,83,132.24,140.12,235.51,140.12a273.13,273.13,0,0,0,79.81-11.87V1513.3A39.28,39.28,0,0,0,743,1552.58h113c180.89,0,327.52-146.63,327.52-327.52Z"/>
      <path class="cls-1" d="M1183.44,828.29l-2.66,1.11c.89.77,1.76,1.56,2.66,2.31Z"/>
    </g>
    <path class="cls-1" d="M1830.7,845.83A375.2,375.2,0,0,0,1808.58,742l-.06,0c-52.93-144-191.26-246.63-353.57-246.63H1145.79A25.59,25.59,0,0,0,1120.2,521V697.1a174.46,174.46,0,0,0,60.58,132.3l2.66-1.11v3.42A174.2,174.2,0,0,0,1295.1,872h404.52c0-1.58,0-3.14.09-4.71,0,1.57-.09,3.13-.09,4.71H1806.3A24.46,24.46,0,0,0,1830.7,845.83Z"/>
  </g>
</svg>
