<svg xmlns="http://www.w3.org/2000/svg" width="45" height="46" viewBox="0 0 45 46">
  <g id="arrow_down" transform="translate(-1298.948 -2534.731)">
    <ellipse id="Ellipse_26" data-name="Ellipse 26" cx="22.5" cy="23" rx="22.5" ry="23" transform="translate(1298.948 2534.731)" fill="#fff"/>
    <path id="Tracé_272" data-name="Tracé 272" d="M1.339,8.83H16.3L9.765,2.294a1.35,1.35,0,0,1,0-1.9,1.334,1.334,0,0,1,1.889,0L20.48,9.219a1.334,1.334,0,0,1,0,1.889l-8.827,8.827a1.335,1.335,0,1,1-1.889-1.889L16.3,11.509H1.339a1.339,1.339,0,0,1,0-2.679Z" transform="translate(1331.224 2547.484) rotate(90)" fill="#feaa28"/>
  </g>
</svg>
