<svg xmlns="http://www.w3.org/2000/svg" width="295.894" height="224.797" viewBox="0 0 295.894 224.797">
  <g id="enjoy" transform="translate(-1375 -1073.966)">
    <g id="family" transform="translate(1375 1070.407)">
      <g id="Groupe_286" data-name="Groupe 286" transform="translate(111.415 43.872)">
        <path id="Tracé_331" data-name="Tracé 331" d="M326.762,112.19c-14.863,0-26.529,10.877-26.529,33.862,10.3,2.7,20.943,1.136,26.529-9.909,5.586,11.045,16.231,12.613,26.529,9.909C353.291,123.067,342.624,112.19,326.762,112.19Z" transform="translate(-300.233 -112.19)" fill="#ffcd69" fill-rule="evenodd"/>
      </g>
      <g id="Groupe_287" data-name="Groupe 287" transform="translate(3.711 120.294)">
        <path id="Tracé_332" data-name="Tracé 332" d="M54.748,376.026H99.485V343.564c-.315-19.787-19.355-20.828-33.3-25.436a11.439,11.439,0,0,1-22.879,0c-13.948,4.607-32.977,5.649-33.3,25.436v32.463H54.748Z" transform="translate(-10 -318.128)" fill="#ff7b79" fill-rule="evenodd"/>
      </g>
      <g id="Groupe_288" data-name="Groupe 288" transform="translate(93.196 120.294)">
        <path id="Tracé_333" data-name="Tracé 333" d="M271.008,376.026h69.625V343.564c-.168-9.9-5.007-15.106-11.56-18.419-6.532-3.3-14.779-4.713-21.743-7.016a11.439,11.439,0,0,1-22.879,0c-6.974,2.3-15.21,3.713-21.753,7.016s-11.392,8.521-11.56,18.419v32.463h19.87Z" transform="translate(-251.138 -318.128)" fill="#a0c8ff" fill-rule="evenodd"/>
      </g>
      <g id="Groupe_289" data-name="Groupe 289" transform="translate(37.014 112.784)">
        <path id="Tracé_334" data-name="Tracé 334" d="M99.743,305.4a11.439,11.439,0,0,0,22.879,0v-7.511c-.179.073-.368.158-.547.232a27.958,27.958,0,0,1-21.785,0c-.179-.073-.358-.158-.547-.232Z" transform="translate(-99.743 -297.889)" fill="#ffd0c7" fill-rule="evenodd"/>
      </g>
      <g id="Groupe_290" data-name="Groupe 290" transform="translate(149.388 85.517)">
        <path id="Tracé_335" data-name="Tracé 335" d="M424.3,266.207c-6.532-3.3-14.779-4.713-21.743-7.016V248.335a26.6,26.6,0,0,0,15.084-23.921c0,17.136,12.454,24.583,21.816,27.676-2.377,9.594-6.08,12.823-15.158,14.117Z" transform="translate(-402.561 -224.414)" fill="#ffcd69" fill-rule="evenodd"/>
      </g>
      <g id="Groupe_291" data-name="Groupe 291" transform="translate(89.609 85.654)">
        <path id="Tracé_336" data-name="Tracé 336" d="M278.372,259.423c-6.974,2.3-15.21,3.713-21.753,7.016-9.078-1.294-12.77-4.523-15.147-14.117,9.33-3.082,21.743-10.5,21.806-27.539a26.643,26.643,0,0,0,15.095,23.795Z" transform="translate(-241.472 -224.783)" fill="#ffcd69" fill-rule="evenodd"/>
      </g>
      <g id="Groupe_292" data-name="Groupe 292" transform="translate(111.391 67.824)">
        <path id="Tracé_337" data-name="Tracé 337" d="M338.167,218.35a26.432,26.432,0,0,1-22.879.01,26.626,26.626,0,0,1-15.095-23.784c-.052-10.446,0,0,0-.01v-7.921c10.3,2.7,20.943,1.136,26.529-9.909,5.586,11.045,16.231,12.613,26.529,9.909v7.784a26.6,26.6,0,0,1-15.084,23.921Z" transform="translate(-300.17 -176.736)" fill="#ffdcd5" fill-rule="evenodd"/>
      </g>
      <g id="Groupe_293" data-name="Groupe 293" transform="translate(20.352 72.253)">
        <path id="Tracé_338" data-name="Tracé 338" d="M54.843,203.543v-7.2c7.942-.8,14.421-1.294,19.281-7.679,9.667,6.617,23.289,8.458,36.922,7.5v7.374a28.185,28.185,0,0,1-17.209,25.888,27.957,27.957,0,0,1-21.785,0,28.185,28.185,0,0,1-17.209-25.888Z" transform="translate(-54.843 -188.669)" fill="#ffdcd5" fill-rule="evenodd"/>
      </g>
      <g id="Groupe_294" data-name="Groupe 294" transform="translate(20.352 44.282)">
        <path id="Tracé_339" data-name="Tracé 339" d="M54.843,141.4a28.1,28.1,0,1,1,56.2,0v7.364c-13.633.957-27.255-.884-36.922-7.5-4.86,6.385-11.34,6.88-19.281,7.679Z" transform="translate(-54.843 -113.296)" fill="#ffcd69" fill-rule="evenodd"/>
      </g>
      <g id="Groupe_295" data-name="Groupe 295" transform="translate(126.509 109.439)">
        <path id="Tracé_340" data-name="Tracé 340" d="M363.777,299.731a11.434,11.434,0,1,1-22.868,0V288.885a26.432,26.432,0,0,0,22.879-.01Z" transform="translate(-340.909 -288.875)" fill="#ffd0c7" fill-rule="evenodd"/>
      </g>
      <g id="Groupe_296" data-name="Groupe 296" transform="translate(73.504 125.062)">
        <path id="Tracé_341" data-name="Tracé 341" d="M238.151,337.675a33.324,33.324,0,0,0-40.077,0v1.546a20.039,20.039,0,0,0,40.077,0v-1.546Z" transform="translate(-198.074 -330.977)" fill="#ffdcd5" fill-rule="evenodd"/>
      </g>
      <g id="Groupe_297" data-name="Groupe 297" transform="translate(73.504 108.018)">
        <path id="Tracé_342" data-name="Tracé 342" d="M218.113,285.047a20.033,20.033,0,0,0-20.039,20.039v3.7a33.324,33.324,0,0,1,40.077,0v-3.64a20.047,20.047,0,0,0-20.039-20.1Z" transform="translate(-198.074 -285.047)" fill="#ffcd69" fill-rule="evenodd"/>
      </g>
      <g id="Groupe_298" data-name="Groupe 298" transform="translate(83.003 150.337)">
        <path id="Tracé_343" data-name="Tracé 343" d="M244.74,399.086a19.948,19.948,0,0,1-21.069,0v8.131a10.279,10.279,0,0,0,10.246,10.246c5.954,0,10.824-4.113,10.824-10.246v-8.131Z" transform="translate(-223.671 -399.086)" fill="#ffd0c7" fill-rule="evenodd"/>
      </g>
      <g id="Groupe_299" data-name="Groupe 299" transform="translate(57.599 158.468)">
        <path id="Tracé_344" data-name="Tracé 344" d="M201.688,421c0,6.133-4.87,10.246-10.824,10.246A10.279,10.279,0,0,1,180.618,421c-12.5,4.124-25.119,5.06-25.4,22.774v5.964h71.876v-5.964c-.284-17.714-12.907-18.65-25.4-22.774Z" transform="translate(-155.215 -420.997)" fill="#d5ea7a" fill-rule="evenodd"/>
      </g>
      <g id="Groupe_300" data-name="Groupe 300" transform="translate(71.769 7.271)">
        <path id="Tracé_345" data-name="Tracé 345" d="M236.525,35.276A12.636,12.636,0,1,0,218.98,17.089l-2.093,2.02-2.093-2.02a12.636,12.636,0,1,0-17.546,18.188l19.639,18.956Z" transform="translate(-193.398 -13.56)" fill="#ff7b79" fill-rule="evenodd"/>
      </g>
      <g id="Groupe_301" data-name="Groupe 301" transform="translate(0 3.56)">
        <path id="Tracé_346" data-name="Tracé 346" d="M107.513,247.005a3.711,3.711,0,0,0-2.579,6.379,12.768,12.768,0,0,0,17.6,0,3.711,3.711,0,1,0-5.157-5.337,5.286,5.286,0,0,1-7.286,0A3.7,3.7,0,0,0,107.513,247.005Z" transform="translate(-65.282 -156.664)"/>
        <path id="Tracé_347" data-name="Tracé 347" d="M189.891,176.116a3.711,3.711,0,0,0-2.438-4.416c-8.79-2.9-19.269-9.451-19.269-24.153v-7.784c0-12-2.75-21.4-8.173-27.922-5.249-6.313-12.879-9.65-22.066-9.65-8.8,0-16.291,3.324-21.66,9.613-5.612,6.574-8.579,16.242-8.579,27.959v7.784c0,8.142-3.2,14.611-9.51,19.252A23.735,23.735,0,0,0,71.32,181.716c-.991-.278-6.182-1.677-7.715-2.126v-2.469a31.836,31.836,0,0,0,16.66-27.964V134.419a31.812,31.812,0,1,0-63.625,0v14.738A31.833,31.833,0,0,0,33.3,177.118v2.471c-1.533.449-3.125.879-4.772,1.325C15.961,184.3.315,188.518,0,207.7v32.523a3.712,3.712,0,0,0,3.711,3.711H53.89v5.277c0,.009,0,.018,0,.027a3.711,3.711,0,0,0,3.711,3.711H76.86a3.711,3.711,0,1,0,0-7.422H61.311V243.3a21.643,21.643,0,0,1,1.05-6.791c2.334-6.687,8.376-8.468,16.6-10.9l1.168-.345a13.98,13.98,0,0,0,13.115,9.183c6.52,0,11.776-3.716,13.722-9.175l1.141.336c10.5,3.1,17.441,5.143,17.653,17.686v2.223H110.184a3.711,3.711,0,1,0,0,7.422h19.292a3.711,3.711,0,0,0,3.711-3.711c0-.009,0-.019,0-.028v-5.276h49.506a3.711,3.711,0,0,0,3.711-3.711V207.759c0-.02,0-.041,0-.061-.128-7.772-2.772-13.086-6.709-16.884,5.342-2.5,8.285-6.976,10.2-14.7Zm-51.947-66.5c7.008,0,12.513,2.346,16.359,6.973,3.86,4.643,6,11.436,6.388,20.209-6.873,1.192-14.963.229-19.436-8.616a3.747,3.747,0,0,0-6.623,0c-4.471,8.841-12.557,9.807-19.428,8.617.859-17.084,9.219-27.184,22.74-27.184Zm-22.818,34.679a33.377,33.377,0,0,0,4.6.331c7.482,0,13.759-2.761,18.213-8.044,4.454,5.284,10.731,8.044,18.214,8.044a33.384,33.384,0,0,0,4.6-.331v3.256a22.818,22.818,0,1,1-45.636,0v-3.256Zm30.551,32.489v5.543a7.728,7.728,0,0,1-15.457,0v-5.54a30.188,30.188,0,0,0,15.457,0Zm-34.043-14.354A30.479,30.479,0,0,0,122.8,173.706v5.883c-1.543.452-3.142.884-4.8,1.33-.763.206-1.538.416-2.316.629a23.928,23.928,0,0,0-9.673-11.656A29.475,29.475,0,0,0,111.634,162.427ZM78.416,183.946a16.318,16.318,0,0,1,31.15,3.067,37.168,37.168,0,0,0-32.057,0,16.262,16.262,0,0,1,.907-3.07ZM24.063,134.419a24.391,24.391,0,1,1,48.781,0v3.84c-9.755.326-22.049-.834-31.114-7.039a3.711,3.711,0,0,0-5.049.815c-3.138,4.123-7.079,5.146-12.617,5.8v-3.42Zm0,14.738v-3.848c5.969-.667,11.59-1.757,16.258-6.23,10.155,5.749,22.559,6.909,32.523,6.605v3.472a24.39,24.39,0,0,1-48.781,0Zm32.12,30.854v2.28c0,.011,0,.022,0,.033a7.728,7.728,0,0,1-15.457,0c0-.008,0-.016,0-.023v-2.291a31.784,31.784,0,0,0,15.46,0Zm23.108,37.764c-.813.249-1.625.49-2.427.724-9.159,2.7-19.371,5.711-22.21,18.013H27.282V221.5a3.711,3.711,0,1,0-7.422,0v15.014H7.422V207.793c.223-12.654,8.854-15.89,23.038-19.713,1.195-.323,2.408-.652,3.616-.993a15.147,15.147,0,0,0,28.756,0c1.208.341,5.906,1.616,6.989,1.924-.019.356-.026.716-.026,1.076v5.247a23.722,23.722,0,0,0,9.5,18.985Zm21.071,2.71s0,.009,0,.013c0,4.49-3.687,6.535-7.113,6.535a6.542,6.542,0,0,1-6.535-6.535s0-.007,0-.01v-2.4a22.823,22.823,0,0,0,2.772.653,23.687,23.687,0,0,0,7.422.108,22.81,22.81,0,0,0,3.455-.757Zm1.974-11.4c-4.988,3.325-12.475,3.492-17.46.078a16.324,16.324,0,0,1-7.648-13.47,29.833,29.833,0,0,1,32.629,0A16.331,16.331,0,0,1,102.336,209.088Zm76.644,27.423H166.542V221.5a3.711,3.711,0,0,0-7.422,0v15.013h-26.7c-2.841-12.3-13.052-15.311-22.209-18.012-.8-.234-1.614-.475-2.427-.724v-3.444a23.733,23.733,0,0,0,9.507-19v-5.184c0-.449-.015-.894-.04-1.337.9-.248,1.793-.49,2.677-.728,1.2-.324,2.425-.655,3.642-1a15.147,15.147,0,0,0,28.756,0c1.208.341,2.421.669,3.616.991,14.184,3.823,22.816,7.059,23.038,19.712v28.719Zm-7.31-51.01a85.326,85.326,0,0,0-13.8-4.588c-1.65-.445-3.241-.874-4.774-1.323V173.7a30.477,30.477,0,0,0,11.136-11.242c4.218,8,11.516,12.533,17.537,15.039C180,182.665,177.493,184.519,171.67,185.5Z" transform="translate(0 -65.59)"/>
        <path id="Tracé_348" data-name="Tracé 348" d="M208.013,50.613a3.711,3.711,0,0,0,5.155,0L232.8,31.658A16.347,16.347,0,0,0,210.59,7.68a16.347,16.347,0,0,0-22.216,23.977ZM193.294,13.694a8.874,8.874,0,0,1,6.27-2.71h.166a8.844,8.844,0,0,1,6.19,2.488l2.093,2.02a3.711,3.711,0,0,0,5.153,0l2.1-2.022a8.969,8.969,0,0,1,12.622.223,8.939,8.939,0,0,1-.232,12.626L210.59,42.785,193.527,26.316a8.946,8.946,0,0,1-.234-12.622Z" transform="translate(-115.332 -3.56)"/>
        <path id="Tracé_349" data-name="Tracé 349" d="M245.728,488.441a3.711,3.711,0,0,0,0,7.422h.021a3.711,3.711,0,1,0-.021-7.422Z" transform="translate(-152.206 -308.504)"/>
      </g>
    </g>
    <g id="open-box" transform="translate(1506.951 1176.646)">
      <path id="Tracé_395" data-name="Tracé 395" d="M68.343,22.285,24.224,46.133l0,0,0,0L9.565,31.363l44-23.851Z" transform="translate(-5.71 -5.72)" fill="#e2ae83"/>
      <path id="Tracé_396" data-name="Tracé 396" d="M314.778,31.363,300.126,46.133l0,0,0,0L256,22.285,270.773,7.512Z" transform="translate(-193.368 -5.72)" fill="#d39c72"/>
      <path id="Tracé_397" data-name="Tracé 397" d="M115.128,193.287v56.067L71,225.5V169.438Z" transform="translate(-52.496 -129.025)" fill="#f2c397"/>
      <path id="Tracé_398" data-name="Tracé 398" d="M300.124,169.438V225.5L256,249.354V193.287Z" transform="translate(-193.368 -129.025)" fill="#e2ae83"/>
      <path id="Tracé_399" data-name="Tracé 399" d="M410.994,173.305v56.066l7.156-3.868V169.438Z" transform="translate(-311.394 -129.025)" fill="#d39c72"/>
      <g id="Groupe_308" data-name="Groupe 308" transform="translate(62.632 40.413)">
        <path id="Tracé_400" data-name="Tracé 400" d="M300.126,169.438l14.652,14.771-14.654,7.942L270.773,208.06,256,193.287l44.119-23.849,0,0Z" transform="translate(-256 -169.438)" fill="#f2c397"/>
        <path id="Tracé_401" data-name="Tracé 401" d="M300.126,169.438l14.652,14.771-14.654,7.942L270.773,208.06,256,193.287l44.119-23.849,0,0Z" transform="translate(-256 -169.438)" fill="#f2c397"/>
      </g>
      <path id="Tracé_402" data-name="Tracé 402" d="M415.067,172.778l14.658,14.78,6.18-3.35-14.652-14.771,0,0,0,0Z" transform="translate(-314.495 -129.025)" fill="#e2ae83"/>
      <path id="Tracé_403" data-name="Tracé 403" d="M68.343,193.287,53.57,208.06,24.219,192.151,9.565,184.209l14.652-14.771,0,0,0,0Z" transform="translate(-5.71 -129.025)" fill="#ffd2a6"/>
      <path id="Tracé_404" data-name="Tracé 404" d="M159.262,93.3l-44.119,23.849L71.024,93.3l44.119-23.848Z" transform="translate(-52.511 -52.886)" fill="#c48d69"/>
      <path id="Tracé_405" data-name="Tracé 405" d="M109.277,40.413,122.68,26.9a1.789,1.789,0,0,0-.418-2.833L78.258.218A1.789,1.789,0,0,0,76.14.526L62.631,14.035,49.123.527A1.773,1.773,0,0,0,47.008.219L32.874,7.878a1.79,1.79,0,0,0,.854,3.363,1.8,1.8,0,0,0,.851-.217L47.537,4,59.67,16.133,18.835,38.2,6.8,26.076,28.287,14.432a1.784,1.784,0,0,0,.72-2.423,1.788,1.788,0,0,0-1.572-.937,1.807,1.807,0,0,0-.851.217L3,24.07A1.786,1.786,0,0,0,2.586,26.9l13.4,13.512L2.585,53.925A1.789,1.789,0,0,0,3,56.758L16.72,64.192V96.474a1.75,1.75,0,0,0,.009.184c0,.026.008.051.011.077s.008.062.014.093.018.077.028.114c0,.017.008.035.014.052.012.038.026.076.04.114.006.017.011.034.018.05.014.034.03.066.046.1s.019.041.029.06.03.052.046.078.029.049.045.073.028.039.042.058.04.056.062.083.026.029.038.043.051.058.078.086l.044.041c.027.026.054.051.083.075s.057.044.087.065.033.026.051.038q.077.052.159.1L61.772,121.9a1.8,1.8,0,0,0,.2.092l.045.016c.05.018.1.035.152.048l.056.014c.05.012.1.021.152.028l.052.008a1.667,1.667,0,0,0,.41,0l.053-.008c.052-.007.1-.017.152-.028l.056-.014q.077-.021.151-.048l.045-.016a1.816,1.816,0,0,0,.2-.092L107.6,98.055q.082-.044.159-.1c.018-.012.034-.026.051-.038s.059-.042.087-.065.056-.05.083-.075.03-.027.044-.041.052-.057.078-.086.026-.028.038-.043.042-.055.062-.083.029-.038.042-.058.03-.049.045-.073.031-.051.046-.078.019-.04.029-.06.032-.065.046-.1c.007-.016.012-.033.018-.05.014-.037.028-.075.04-.114.005-.017.009-.035.014-.052.01-.038.021-.076.028-.114s.01-.062.014-.093.009-.051.011-.077a1.756,1.756,0,0,0,.009-.184V64.192l13.717-7.435a1.79,1.79,0,0,0,.42-2.834ZM77.726,4l40.732,22.077L106.429,38.2,65.594,16.132ZM62.633,18.6l40.358,21.815L62.632,62.229,22.274,40.414Zm-43.8,24.024L59.67,64.695,47.538,76.827,19.369,61.559l-.015-.008L6.806,54.75ZM47.007,80.608a1.789,1.789,0,0,0,2.117-.308L60.843,68.581v48.748L20.3,95.412V66.132Zm58.911-19.061-.029.015-8.912,4.831a1.791,1.791,0,0,0-.723,2.426,1.794,1.794,0,0,0,2.426.72l6.287-3.408V95.412L64.421,117.329V68.58L76.141,80.3a1.776,1.776,0,0,0,1.264.525,1.807,1.807,0,0,0,.851-.217l14.134-7.661A1.788,1.788,0,1,0,90.686,69.8L77.727,76.825,65.595,64.695l40.835-22.074,12.03,12.128Z"/>
    </g>
    <g id="square-dice" transform="translate(1565.326 1197.584)">
      <path id="Tracé_384" data-name="Tracé 384" d="M48,30.854,59.88,24l11.88,6.854L59.88,50.5Z" transform="translate(-47.543 -23.543)" fill="#e8edf1"/>
      <path id="Tracé_385" data-name="Tracé 385" d="M59.88,150.854v12.794L48,156.794V144Z" transform="translate(-47.543 -136.689)" fill="#e0e2e5"/>
      <path id="Tracé_386" data-name="Tracé 386" d="M256,150.854v12.794l11.88-6.854V144Z" transform="translate(-243.663 -136.689)" fill="#d9dbdd"/>
      <g id="Groupe_307" data-name="Groupe 307" transform="translate(1.668 5.51)">
        <ellipse id="Ellipse_38" data-name="Ellipse 38" cx="1.816" cy="1.332" rx="1.816" ry="1.332" transform="translate(8.96 0)" fill="#6a7073"/>
        <ellipse id="Ellipse_39" data-name="Ellipse 39" cx="1.618" cy="1.161" rx="1.618" ry="1.161" transform="matrix(0.763, -0.646, 0.646, 0.763, 11.876, 10.648)" fill="#6a7073"/>
        <ellipse id="Ellipse_40" data-name="Ellipse 40" cx="1.621" cy="1.152" rx="1.621" ry="1.152" transform="translate(17.379 12.925) rotate(-40.135)" fill="#6a7073"/>
        <ellipse id="Ellipse_41" data-name="Ellipse 41" cx="1.161" cy="1.618" rx="1.161" ry="1.618" transform="matrix(0.646, -0.763, 0.763, 0.646, 5.475, 15.797)" fill="#6a7073"/>
        <ellipse id="Ellipse_42" data-name="Ellipse 42" cx="1.161" cy="1.618" rx="1.161" ry="1.618" transform="matrix(0.646, -0.763, 0.763, 0.646, 5.481, 10.317)" fill="#6a7073"/>
        <ellipse id="Ellipse_43" data-name="Ellipse 43" cx="1.161" cy="1.618" rx="1.161" ry="1.618" transform="matrix(0.646, -0.763, 0.763, 0.646, 0, 7.119)" fill="#6a7073"/>
        <ellipse id="Ellipse_44" data-name="Ellipse 44" cx="1.152" cy="1.621" rx="1.152" ry="1.621" transform="translate(0.023 12.604) rotate(-49.865)" fill="#6a7073"/>
      </g>
      <path id="Tracé_387" data-name="Tracé 387" d="M40,23.311V36.1a.457.457,0,0,0,.229.4l11.88,6.854a.457.457,0,0,0,.457,0L64.445,36.5a.457.457,0,0,0,.228-.4V23.311a.457.457,0,0,0-.228-.4l-11.88-6.854a.457.457,0,0,0-.457,0l-11.88,6.854A.457.457,0,0,0,40,23.311Zm.914.791L51.88,30.429V42.168L40.914,35.841ZM63.76,35.841,52.794,42.167V30.429L63.76,24.1ZM52.337,16.985,63.3,23.311,52.337,29.637,41.371,23.311Z" transform="translate(-40 -16)"/>
      <path id="Tracé_388" data-name="Tracé 388" d="M218.285,107.655A1.873,1.873,0,1,0,216,105.828,2.1,2.1,0,0,0,218.285,107.655Zm0-2.742c.743,0,1.371.418,1.371.914s-.628.914-1.371.914-1.371-.418-1.371-.914S217.542,104.914,218.285,104.914Z" transform="translate(-205.948 -98.974)"/>
      <path id="Tracé_389" data-name="Tracé 389" d="M280.154,267.655a2.54,2.54,0,0,0,2.261-1.683,1.543,1.543,0,0,0-.159-1.406,1.434,1.434,0,0,0-1.189-.566,2.54,2.54,0,0,0-2.261,1.683,1.544,1.544,0,0,0,.159,1.406A1.432,1.432,0,0,0,280.154,267.655Zm-.48-1.683a1.624,1.624,0,0,1,1.394-1.058.535.535,0,0,1,.447.186.652.652,0,0,1,.033.583,1.623,1.623,0,0,1-1.394,1.058.535.535,0,0,1-.447-.186.651.651,0,0,1-.033-.583Z" transform="translate(-265.075 -249.835)"/>
      <path id="Tracé_390" data-name="Tracé 390" d="M376.007,307.648a2.559,2.559,0,0,0,2.267-1.675,1.535,1.535,0,0,0-.147-1.407,1.42,1.42,0,0,0-1.183-.565,2.559,2.559,0,0,0-2.267,1.675,1.535,1.535,0,0,0,.147,1.407A1.42,1.42,0,0,0,376.007,307.648Zm-.466-1.675a1.643,1.643,0,0,1,1.4-1.058.523.523,0,0,1,.439.182.646.646,0,0,1,.027.579,1.643,1.643,0,0,1-1.4,1.058.523.523,0,0,1-.439-.182A.646.646,0,0,1,375.541,305.973Z" transform="translate(-355.465 -287.552)"/>
      <path id="Tracé_391" data-name="Tracé 391" d="M168.041,360a1.433,1.433,0,0,0-1.189.566,1.544,1.544,0,0,0-.159,1.406,2.54,2.54,0,0,0,2.261,1.683,1.433,1.433,0,0,0,1.189-.566,1.544,1.544,0,0,0,.159-1.406A2.54,2.54,0,0,0,168.041,360Zm1.361,2.555a.534.534,0,0,1-.447.186,1.623,1.623,0,0,1-1.394-1.058.652.652,0,0,1,.033-.583.534.534,0,0,1,.447-.186,1.624,1.624,0,0,1,1.394,1.058A.652.652,0,0,1,169.4,362.555Z" transform="translate(-159.366 -340.352)"/>
      <path id="Tracé_392" data-name="Tracé 392" d="M166.807,265.972a2.539,2.539,0,0,0,2.261,1.683,1.433,1.433,0,0,0,1.189-.566,1.544,1.544,0,0,0,.159-1.406A2.54,2.54,0,0,0,168.154,264a1.433,1.433,0,0,0-1.189.566,1.543,1.543,0,0,0-.159,1.406Zm.9-.872a.535.535,0,0,1,.447-.187,1.623,1.623,0,0,1,1.394,1.058.652.652,0,0,1-.033.583.534.534,0,0,1-.447.186,1.623,1.623,0,0,1-1.394-1.058A.652.652,0,0,1,167.707,265.1Z" transform="translate(-159.472 -249.835)"/>
      <path id="Tracé_393" data-name="Tracé 393" d="M73.062,211.655a1.433,1.433,0,0,0,1.189-.566,1.544,1.544,0,0,0,.159-1.406A2.54,2.54,0,0,0,72.148,208a1.433,1.433,0,0,0-1.189.566,1.544,1.544,0,0,0-.159,1.406A2.539,2.539,0,0,0,73.062,211.655ZM71.7,209.1a.534.534,0,0,1,.447-.186,1.624,1.624,0,0,1,1.394,1.058.652.652,0,0,1-.033.583.534.534,0,0,1-.447.186,1.624,1.624,0,0,1-1.394-1.058A.653.653,0,0,1,71.7,209.1Z" transform="translate(-68.95 -197.034)"/>
      <path id="Tracé_394" data-name="Tracé 394" d="M72.279,304a1.42,1.42,0,0,0-1.183.565,1.536,1.536,0,0,0-.147,1.407,2.56,2.56,0,0,0,2.267,1.675,1.419,1.419,0,0,0,1.183-.565,1.536,1.536,0,0,0,.147-1.407A2.559,2.559,0,0,0,72.279,304Zm1.376,2.551a.523.523,0,0,1-.439.182,1.643,1.643,0,0,1-1.4-1.058.646.646,0,0,1,.027-.579.524.524,0,0,1,.439-.182,1.643,1.643,0,0,1,1.4,1.058.646.646,0,0,1-.027.579Z" transform="translate(-69.085 -287.551)"/>
    </g>
    <g id="square-dice-2" data-name="square-dice" transform="translate(1555.362 1197.599) rotate(60)">
      <path id="Tracé_384-2" data-name="Tracé 384" d="M48,29.354,57.281,24l9.281,5.354L57.281,44.7Z" transform="translate(-47.643 -23.643)" fill="#e8edf1"/>
      <path id="Tracé_385-2" data-name="Tracé 385" d="M57.281,149.354v9.994L48,153.994V144Z" transform="translate(-47.643 -138.289)" fill="#e0e2e5"/>
      <path id="Tracé_386-2" data-name="Tracé 386" d="M256,149.354v9.994l9.281-5.354V144Z" transform="translate(-246.362 -138.289)" fill="#d9dbdd"/>
      <g id="Groupe_307-2" data-name="Groupe 307" transform="translate(1.303 4.305)">
        <ellipse id="Ellipse_38-2" data-name="Ellipse 38" cx="1.419" cy="1.04" rx="1.419" ry="1.04" transform="translate(7 0)" fill="#6a7073"/>
        <ellipse id="Ellipse_39-2" data-name="Ellipse 39" cx="1.264" cy="0.907" rx="1.264" ry="0.907" transform="matrix(0.763, -0.646, 0.646, 0.763, 9.278, 8.318)" fill="#6a7073"/>
        <ellipse id="Ellipse_40-2" data-name="Ellipse 40" cx="1.266" cy="0.9" rx="1.266" ry="0.9" transform="translate(13.576 10.097) rotate(-40.135)" fill="#6a7073"/>
        <ellipse id="Ellipse_41-2" data-name="Ellipse 41" cx="0.907" cy="1.264" rx="0.907" ry="1.264" transform="matrix(0.646, -0.763, 0.763, 0.646, 4.277, 12.341)" fill="#6a7073"/>
        <ellipse id="Ellipse_42-2" data-name="Ellipse 42" cx="0.907" cy="1.264" rx="0.907" ry="1.264" transform="matrix(0.646, -0.763, 0.763, 0.646, 4.282, 8.059)" fill="#6a7073"/>
        <ellipse id="Ellipse_43-2" data-name="Ellipse 43" cx="0.907" cy="1.264" rx="0.907" ry="1.264" transform="matrix(0.646, -0.763, 0.763, 0.646, 0, 5.561)" fill="#6a7073"/>
        <ellipse id="Ellipse_44-2" data-name="Ellipse 44" cx="0.9" cy="1.266" rx="0.9" ry="1.266" transform="translate(0.018 9.846) rotate(-49.865)" fill="#6a7073"/>
      </g>
      <path id="Tracé_387-2" data-name="Tracé 387" d="M40,21.711v9.995a.357.357,0,0,0,.179.309l9.281,5.354a.357.357,0,0,0,.357,0L59.1,32.015a.357.357,0,0,0,.178-.309V21.711A.357.357,0,0,0,59.1,21.4l-9.281-5.354a.357.357,0,0,0-.357,0L40.178,21.4A.357.357,0,0,0,40,21.711Zm.714.618,8.567,4.942v9.17L40.714,31.5ZM58.561,31.5l-8.567,4.942v-9.17l8.567-4.942Zm-8.924-14.73L58.2,21.711l-8.566,4.942-8.566-4.942Z" transform="translate(-40 -16)"/>
      <path id="Tracé_388-2" data-name="Tracé 388" d="M217.785,106.856A1.463,1.463,0,1,0,216,105.428,1.638,1.638,0,0,0,217.785,106.856Zm0-2.142c.58,0,1.071.327,1.071.714s-.49.714-1.071.714-1.071-.327-1.071-.714S217.2,104.714,217.785,104.714Z" transform="translate(-208.147 -100.074)"/>
      <path id="Tracé_389-2" data-name="Tracé 389" d="M279.838,266.856a1.984,1.984,0,0,0,1.766-1.315,1.205,1.205,0,0,0-.124-1.1,1.12,1.12,0,0,0-.929-.442,1.984,1.984,0,0,0-1.766,1.315,1.206,1.206,0,0,0,.124,1.1A1.119,1.119,0,0,0,279.838,266.856Zm-.375-1.315a1.268,1.268,0,0,1,1.089-.827.418.418,0,0,1,.349.146.51.51,0,0,1,.026.455,1.268,1.268,0,0,1-1.089.827.418.418,0,0,1-.349-.146.509.509,0,0,1-.026-.455Z" transform="translate(-268.058 -252.935)"/>
      <path id="Tracé_390-2" data-name="Tracé 390" d="M375.693,306.85a2,2,0,0,0,1.771-1.309,1.2,1.2,0,0,0-.115-1.1,1.109,1.109,0,0,0-.924-.441,2,2,0,0,0-1.771,1.309,1.2,1.2,0,0,0,.115,1.1A1.109,1.109,0,0,0,375.693,306.85Zm-.364-1.309a1.283,1.283,0,0,1,1.1-.826.409.409,0,0,1,.343.142.5.5,0,0,1,.021.452,1.284,1.284,0,0,1-1.1.826.409.409,0,0,1-.343-.142A.5.5,0,0,1,375.329,305.541Z" transform="translate(-359.646 -291.151)"/>
      <path id="Tracé_391-2" data-name="Tracé 391" d="M167.725,360a1.119,1.119,0,0,0-.928.442,1.206,1.206,0,0,0-.124,1.1,1.984,1.984,0,0,0,1.766,1.315,1.119,1.119,0,0,0,.928-.442,1.206,1.206,0,0,0,.124-1.1A1.984,1.984,0,0,0,167.725,360Zm1.063,2a.417.417,0,0,1-.349.146,1.268,1.268,0,0,1-1.089-.827.51.51,0,0,1,.026-.455.417.417,0,0,1,.349-.146,1.268,1.268,0,0,1,1.089.827A.51.51,0,0,1,168.788,362Z" transform="translate(-160.948 -344.651)"/>
      <path id="Tracé_392-2" data-name="Tracé 392" d="M166.786,265.541a1.984,1.984,0,0,0,1.766,1.315,1.119,1.119,0,0,0,.929-.442,1.206,1.206,0,0,0,.124-1.1A1.984,1.984,0,0,0,167.838,264a1.119,1.119,0,0,0-.928.442,1.206,1.206,0,0,0-.124,1.1Zm.7-.681a.418.418,0,0,1,.349-.146,1.268,1.268,0,0,1,1.089.827.51.51,0,0,1-.026.455.417.417,0,0,1-.349.146,1.268,1.268,0,0,1-1.089-.827A.509.509,0,0,1,167.489,264.86Z" transform="translate(-161.056 -252.935)"/>
      <path id="Tracé_393-2" data-name="Tracé 393" d="M72.546,210.856a1.119,1.119,0,0,0,.929-.442,1.206,1.206,0,0,0,.124-1.1A1.984,1.984,0,0,0,71.832,208a1.119,1.119,0,0,0-.929.442,1.206,1.206,0,0,0-.124,1.1A1.984,1.984,0,0,0,72.546,210.856Zm-1.063-2a.417.417,0,0,1,.349-.146,1.268,1.268,0,0,1,1.089.827A.509.509,0,0,1,72.9,210a.417.417,0,0,1-.349.146,1.268,1.268,0,0,1-1.089-.827A.51.51,0,0,1,71.483,208.86Z" transform="translate(-69.334 -199.433)"/>
      <path id="Tracé_394-2" data-name="Tracé 394" d="M71.966,304a1.109,1.109,0,0,0-.924.441,1.2,1.2,0,0,0-.115,1.1,2,2,0,0,0,1.771,1.309,1.109,1.109,0,0,0,.924-.441,1.2,1.2,0,0,0,.115-1.1A2,2,0,0,0,71.966,304Zm1.075,1.993a.409.409,0,0,1-.343.142,1.283,1.283,0,0,1-1.1-.826.5.5,0,0,1,.021-.452.409.409,0,0,1,.343-.142,1.284,1.284,0,0,1,1.1.826.5.5,0,0,1-.021.452Z" transform="translate(-69.47 -291.15)"/>
    </g>
    <g id="board-game" transform="translate(1565 1143.245) rotate(-40)">
      <g id="Groupe_305" data-name="Groupe 305" transform="translate(1.101 1.101)">
        <path id="Tracé_350" data-name="Tracé 350" d="M73.725,80.462H65.87l-21.5-7.026L22.092,80.462H14.237A6.737,6.737,0,0,1,7.5,73.725V65.87l9.257-22.151L7.5,22.092V14.237A6.737,6.737,0,0,1,14.237,7.5h7.856L44.96,14.073,65.87,7.5h7.856a6.737,6.737,0,0,1,6.737,6.737v7.856l-6.6,22.053,6.6,21.724v7.856A6.737,6.737,0,0,1,73.725,80.462Z" transform="translate(-7.5 -7.5)" fill="#f6f9f9"/>
        <path id="Tracé_351" data-name="Tracé 351" d="M382.315,186.106l7.991-3.475,6.6,3.475V200.7l-6.992,4-7.6-4-3.92-7.771Z" transform="translate(-323.946 -156.921)" fill="#94afe5"/>
        <path id="Tracé_352" data-name="Tracé 352" d="M382.315,106.9h14.593v14.592H382.315l-3.92-7.771Z" transform="translate(-323.946 -92.308)" fill="#adc9fa"/>
        <path id="Tracé_353" data-name="Tracé 353" d="M382.315,305.7h14.593v14.592H382.315l-3.92-7.771Z" transform="translate(-323.946 -261.923)" fill="#adc9fa"/>
        <path id="Tracé_354" data-name="Tracé 354" d="M22.092,197.652,14.1,201.127l-6.6-3.475V183.06l6.992-4,7.6,4,3.92,7.771Z" transform="translate(-7.5 -153.875)" fill="#baabeb"/>
        <path id="Tracé_355" data-name="Tracé 355" d="M22.092,320.292H7.5V305.7H22.092l3.92,7.771Z" transform="translate(-7.5 -261.923)" fill="#ccbaeb"/>
        <path id="Tracé_356" data-name="Tracé 356" d="M22.092,121.492H7.5V106.9H22.092l3.92,7.771Z" transform="translate(-7.5 -92.308)" fill="#ccbaeb"/>
        <path id="Tracé_357" data-name="Tracé 357" d="M197.652,382.315l3.475,7.991-3.475,6.6H183.06l-4-6.992,4-7.6,7.771-3.92Z" transform="translate(-153.875 -323.946)" fill="#c8646d"/>
        <path id="Tracé_358" data-name="Tracé 358" d="M320.292,382.315v14.593H305.7V382.315l7.771-3.92Z" transform="translate(-261.923 -323.946)" fill="#e27f83"/>
        <path id="Tracé_359" data-name="Tracé 359" d="M121.492,382.315v14.593H106.9V382.315l7.771-3.92Z" transform="translate(-92.308 -323.946)" fill="#e27f83"/>
        <path id="Tracé_360" data-name="Tracé 360" d="M186.106,22.092,182.631,14.1l3.475-6.6H200.7l4,6.992-4,7.6-7.771,3.92Z" transform="translate(-156.921 -7.5)" fill="#f1cd6b"/>
        <path id="Tracé_361" data-name="Tracé 361" d="M106.9,22.092V7.5h14.592V22.092l-7.771,3.92Z" transform="translate(-92.308 -7.5)" fill="#f5dd81"/>
        <path id="Tracé_362" data-name="Tracé 362" d="M305.7,22.092V7.5h14.592V22.092l-7.771,3.92Z" transform="translate(-261.923 -7.5)" fill="#f5dd81"/>
        <path id="Tracé_363" data-name="Tracé 363" d="M0,0H43.777V43.777H0Z" transform="translate(58.37 14.592) rotate(90)" fill="#bfe19f"/>
        <g id="Groupe_304" data-name="Groupe 304" transform="translate(20.615 21.851)">
          <g id="Groupe_302" data-name="Groupe 302">
            <path id="Tracé_364" data-name="Tracé 364" d="M158.982,170.987h-7.471a3.588,3.588,0,0,1-3.587-3.587v-7.471a3.588,3.588,0,0,1,3.587-3.587h7.471a3.588,3.588,0,0,1,3.587,3.587V167.4A3.588,3.588,0,0,1,158.982,170.987Z" transform="translate(-147.924 -156.341)" fill="#f6f9f9"/>
            <path id="Tracé_365" data-name="Tracé 365" d="M153.757,170.994H151.51a3.587,3.587,0,0,1-3.586-3.588v-7.471a3.587,3.587,0,0,1,3.586-3.586h2.246a3.587,3.587,0,0,0-3.588,3.586v7.471A3.588,3.588,0,0,0,153.757,170.994Z" transform="translate(-147.924 -156.348)" fill="#dddaec"/>
          </g>
          <g id="Groupe_303" data-name="Groupe 303" transform="translate(17.087 14.614)">
            <path id="Tracé_366" data-name="Tracé 366" d="M275.371,270.537H267.9a3.587,3.587,0,0,1-3.587-3.587v-7.471a3.587,3.587,0,0,1,3.587-3.588h7.471a3.587,3.587,0,0,1,3.587,3.588v7.471A3.587,3.587,0,0,1,275.371,270.537Z" transform="translate(-264.313 -255.891)" fill="#f6f9f9"/>
            <path id="Tracé_367" data-name="Tracé 367" d="M270.147,270.543H267.9a3.587,3.587,0,0,1-3.586-3.588v-7.471A3.587,3.587,0,0,1,267.9,255.9h2.246a3.587,3.587,0,0,0-3.588,3.586v7.471a3.588,3.588,0,0,0,3.588,3.588Z" transform="translate(-264.314 -255.897)" fill="#dddaec"/>
          </g>
        </g>
      </g>
      <g id="Groupe_306" data-name="Groupe 306" transform="translate(0)">
        <path id="Tracé_368" data-name="Tracé 368" d="M67.326,0H7.838A7.847,7.847,0,0,0,0,7.838V67.326a7.847,7.847,0,0,0,7.838,7.838H67.326a7.847,7.847,0,0,0,7.838-7.838V55.961a1.1,1.1,0,1,0-2.2,0V58.37H60.572V45.979h12.39v5.577a1.1,1.1,0,0,0,2.2,0V7.838A7.847,7.847,0,0,0,67.326,0ZM31.387,14.592V2.2h12.39v12.39Zm-14.592,0V2.2h12.39v12.39ZM43.777,60.572v12.39H31.387V60.572Zm14.592,0v12.39H45.979V60.572ZM29.185,72.962H16.794V60.572h12.39ZM2.2,58.37V45.979h12.39V58.37Zm12.39-29.185h-3.51a1.1,1.1,0,0,0,0,2.2h3.51v12.39H2.2V31.387H6.678a1.1,1.1,0,1,0,0-2.2H2.2V16.795h12.39ZM45.979,2.2H58.37v12.39H45.979ZM60.572,16.795h12.39v12.39H60.572Zm12.39-8.957v6.755H60.572V2.2h6.755a5.642,5.642,0,0,1,5.636,5.636ZM7.838,2.2h6.755v12.39H2.2V7.838A5.642,5.642,0,0,1,7.838,2.2ZM2.2,67.326V60.572h12.39v12.39H7.838A5.642,5.642,0,0,1,2.2,67.326Zm70.76,0a5.642,5.642,0,0,1-5.636,5.636H60.572V60.572h12.39ZM16.794,58.37V16.795H58.37V58.37ZM60.572,43.777V31.387h12.39v12.39Z" transform="translate(0)"/>
        <path id="Tracé_369" data-name="Tracé 369" d="M152.583,148.842h-7.471a4.694,4.694,0,0,0-4.689,4.689V161a4.694,4.694,0,0,0,4.689,4.689h7.471A4.694,4.694,0,0,0,157.272,161v-7.471a4.694,4.694,0,0,0-4.689-4.688ZM155.07,161a2.489,2.489,0,0,1-2.486,2.486h-7.471A2.489,2.489,0,0,1,142.626,161v-7.471a2.489,2.489,0,0,1,2.486-2.486h7.471a2.489,2.489,0,0,1,2.486,2.486Z" transform="translate(-119.809 -126.991)"/>
        <path id="Tracé_370" data-name="Tracé 370" d="M191.406,198.223a1.1,1.1,0,0,0-1.1,1.1v.073a1.1,1.1,0,1,0,2.2,0v-.073A1.1,1.1,0,0,0,191.406,198.223Z" transform="translate(-162.367 -169.123)"/>
        <path id="Tracé_371" data-name="Tracé 371" d="M214.643,174.987a1.1,1.1,0,0,0-1.1,1.1v.073a1.1,1.1,0,0,0,2.2,0v-.073A1.1,1.1,0,0,0,214.643,174.987Z" transform="translate(-182.193 -149.298)"/>
        <path id="Tracé_372" data-name="Tracé 372" d="M168.17,221.46a1.1,1.1,0,0,0-1.1,1.1v.073a1.1,1.1,0,0,0,2.2,0v-.073A1.1,1.1,0,0,0,168.17,221.46Z" transform="translate(-142.542 -188.949)"/>
        <path id="Tracé_373" data-name="Tracé 373" d="M268.972,248.391H261.5a4.694,4.694,0,0,0-4.689,4.689v7.471a4.694,4.694,0,0,0,4.689,4.688h7.471a4.694,4.694,0,0,0,4.689-4.688v-7.471A4.694,4.694,0,0,0,268.972,248.391Zm2.486,12.159a2.489,2.489,0,0,1-2.486,2.486H261.5a2.489,2.489,0,0,1-2.486-2.486v-7.471a2.489,2.489,0,0,1,2.486-2.486h7.471a2.489,2.489,0,0,1,2.486,2.486Z" transform="translate(-219.112 -211.926)"/>
        <path id="Tracé_374" data-name="Tracé 374" d="M307.8,297.772a1.1,1.1,0,0,0-1.1,1.1v.073a1.1,1.1,0,1,0,2.2,0v-.073A1.1,1.1,0,0,0,307.8,297.772Z" transform="translate(-261.671 -254.058)"/>
        <path id="Tracé_375" data-name="Tracé 375" d="M331.032,276.811a1.1,1.1,0,0,0,1.1-1.1v-.073a1.1,1.1,0,1,0-2.2,0v.073A1.1,1.1,0,0,0,331.032,276.811Z" transform="translate(-281.495 -234.233)"/>
        <path id="Tracé_376" data-name="Tracé 376" d="M284.559,321.009a1.1,1.1,0,0,0-1.1,1.1v.073a1.1,1.1,0,1,0,2.2,0v-.073A1.1,1.1,0,0,0,284.559,321.009Z" transform="translate(-241.845 -273.883)"/>
        <path id="Tracé_377" data-name="Tracé 377" d="M330.855,321.259h-.073a1.1,1.1,0,1,0,0,2.2h.073a1.1,1.1,0,1,0,0-2.2Z" transform="translate(-281.282 -274.096)"/>
        <path id="Tracé_378" data-name="Tracé 378" d="M284.382,274.786h-.073a1.1,1.1,0,1,0,0,2.2h.073a1.1,1.1,0,0,0,0-2.2Z" transform="translate(-241.632 -234.446)"/>
        <path id="Tracé_379" data-name="Tracé 379" d="M431.854,43.76h4.687a1.1,1.1,0,1,0,0-2.2h-2.028l3.023-3.023a1.1,1.1,0,0,0-1.557-1.557L432.955,40V37.972a1.1,1.1,0,1,0-2.2,0v4.687A1.1,1.1,0,0,0,431.854,43.76Z" transform="translate(-367.516 -31.274)"/>
        <path id="Tracé_380" data-name="Tracé 380" d="M34.134,41.656h4.491a1.1,1.1,0,0,0,0-2.2H34.134a1.1,1.1,0,1,0,0,2.2Z" transform="translate(-28.184 -33.662)"/>
        <path id="Tracé_381" data-name="Tracé 381" d="M34.134,62.938h4.491a1.1,1.1,0,0,0,0-2.2H34.134a1.1,1.1,0,1,0,0,2.2Z" transform="translate(-28.184 -51.82)"/>
        <path id="Tracé_382" data-name="Tracé 382" d="M428.8,433.922a4.03,4.03,0,1,0-4.03-4.03A4.035,4.035,0,0,0,428.8,433.922Zm0-5.858a1.828,1.828,0,1,1-1.828,1.828A1.83,1.83,0,0,1,428.8,428.064Z" transform="translate(-362.412 -363.343)"/>
        <path id="Tracé_383" data-name="Tracé 383" d="M34.706,425.493h-.949V424.34h.949a1.1,1.1,0,0,0,0-2.2h-.949v-.949a1.1,1.1,0,0,0-2.2,0v.949H30.4v-.949a1.1,1.1,0,0,0-2.2,0v.949h-.949a1.1,1.1,0,0,0,0,2.2H28.2v1.152h-.949a1.1,1.1,0,0,0,0,2.2H28.2v.949a1.1,1.1,0,1,0,2.2,0v-.949h1.152v.949a1.1,1.1,0,1,0,2.2,0v-.949h.949a1.1,1.1,0,0,0,0-2.2Zm-4.3,0V424.34h1.152v1.152Z" transform="translate(-22.311 -358.417)"/>
      </g>
    </g>
  </g>
</svg>
