<svg xmlns="http://www.w3.org/2000/svg" width="142.475" height="143.15" viewBox="0 0 142.475 143.15">
  <g id="for_life" transform="translate(-2.24 -2.198)">
    <path id="Tracé_406" data-name="Tracé 406" d="M30.3,51.755,19.459,20.517a7.48,7.48,0,0,0-8.522-5.553,7.2,7.2,0,0,0-5.458,8.881L16.634,58.29Z" transform="translate(4.181 17.639)" fill="#ffac96"/>
    <path id="Tracé_407" data-name="Tracé 407" d="M48.29,51.755,59.134,20.517a7.48,7.48,0,0,1,8.522-5.553,7.2,7.2,0,0,1,5.458,8.881L61.958,58.29Z" transform="translate(64.182 17.639)" fill="#ffac96"/>
    <path id="Tracé_408" data-name="Tracé 408" d="M55.438,59.135l-21.161-12.4a7.167,7.167,0,0,0-9.1,1.625L17.459,24.517a7.48,7.48,0,0,0-8.522-5.553,7.2,7.2,0,0,0-5.458,8.881l10.413,38.85a9.45,9.45,0,0,0,2.9,4.692L32.97,85.773a9.575,9.575,0,0,1,3.208,7.157v7.66H64.9V75.657a19.15,19.15,0,0,0-9.466-16.522Z" transform="translate(1.394 23.214)" fill="#ffbcab"/>
    <path id="Tracé_409" data-name="Tracé 409" d="M90.966,18.963a7.48,7.48,0,0,0-8.522,5.553L74.712,48.356a7.167,7.167,0,0,0-9.1-1.625l-21.161,12.4A19.15,19.15,0,0,0,35,75.657V100.59H63.725V92.93a9.575,9.575,0,0,1,3.208-7.157L83.114,71.386a9.451,9.451,0,0,0,2.9-4.692l10.413-38.85a7.2,7.2,0,0,0-5.458-8.881Z" transform="translate(45.659 23.214)" fill="#ffbcab"/>
    <path id="Tracé_410" data-name="Tracé 410" d="M34,53V72.15H67.512V53H34Z" transform="translate(44.265 70.804)" fill="#006df0"/>
    <path id="Tracé_411" data-name="Tracé 411" d="M49.512,53H16V72.15H49.512Z" transform="translate(19.178 70.804)" fill="#006df0"/>
    <path id="Tracé_412" data-name="Tracé 412" d="M86.576,39.968l-1.7,1.7L54.4,72.14,23.932,41.667l-1.7-1.7A21.541,21.541,0,1,1,52.708,9.516l1.7,1.7,1.7-1.7A21.541,21.541,0,1,1,86.579,39.971Z" transform="translate(19.074 1.396)" fill="#d80027"/>
    <path id="Tracé_413" data-name="Tracé 413" d="M65.566,9.52A21.3,21.3,0,0,0,47.929,3.346a21.529,21.529,0,0,1,12.85,36.624l-1.7,1.7L31,69.746l2.394,2.394L63.866,41.668l1.7-1.7A21.544,21.544,0,0,0,65.566,9.52Z" transform="translate(40.084 1.396)" fill="#bd0022"/>
    <path id="Tracé_414" data-name="Tracé 414" d="M45.15,38.725V29.15h9.575V19.575H45.15V10H35.575v9.575H26V29.15h9.575v9.575Z" transform="translate(33.115 10.874)" fill="#f1f2f2"/>
    <path id="Tracé_415" data-name="Tracé 415" d="M60.713,35.943l-16,8.857a2.073,2.073,0,1,0,2.073,3.591l13.927-7.66a7.181,7.181,0,0,0,3.157-8.639,7.112,7.112,0,0,1-3.157,3.852Z" transform="translate(57.753 41.663)" fill="#ffac96"/>
    <path id="Tracé_416" data-name="Tracé 416" d="M15.291,35.943l16,8.857a2.073,2.073,0,1,1-2.073,3.591L15.291,40.73a7.181,7.181,0,0,1-3.157-8.639,7.112,7.112,0,0,0,3.157,3.852Z" transform="translate(13.199 41.663)" fill="#ffac96"/>
    <g id="Groupe_321" data-name="Groupe 321" transform="translate(2.24 2.198)">
      <path id="Tracé_417" data-name="Tracé 417" d="M56.119,18.575H48.937V11.394A2.394,2.394,0,0,0,46.544,9H36.969a2.394,2.394,0,0,0-2.394,2.394v7.181H27.394A2.394,2.394,0,0,0,25,20.969v9.575a2.394,2.394,0,0,0,2.394,2.394h7.181v7.181a2.394,2.394,0,0,0,2.394,2.394h9.575a2.394,2.394,0,0,0,2.394-2.394V32.937h7.181a2.394,2.394,0,0,0,2.394-2.394V20.969A2.394,2.394,0,0,0,56.119,18.575ZM53.725,28.15H46.544a2.394,2.394,0,0,0-2.394,2.394v7.181H39.362V30.544a2.394,2.394,0,0,0-2.394-2.394H29.787V23.362h7.181a2.394,2.394,0,0,0,2.394-2.394V13.787H44.15v7.181a2.394,2.394,0,0,0,2.394,2.394h7.181Z" transform="translate(29.481 7.281)" fill="#231f20"/>
      <path id="Tracé_418" data-name="Tracé 418" d="M96.985,24.649a10.96,10.96,0,0,0,.072-1.269,9.623,9.623,0,0,0-7.612-9.36A9.745,9.745,0,0,0,78.194,21.13l-10.532,30.3a3.906,3.906,0,0,0-.455.215L46.046,64.05A21.584,21.584,0,0,0,35.394,82.625v22.549A2.394,2.394,0,0,0,33,107.568v19.15a2.394,2.394,0,0,0,2.394,2.394H68.906a2.394,2.394,0,0,0,2.394-2.394v-19.15a2.394,2.394,0,0,0-2.394-2.394V99.908A7.275,7.275,0,0,1,71.3,94.546L87.481,80.16A11.8,11.8,0,0,0,91.12,74.3l10.389-38.85a9.466,9.466,0,0,0,.335-2.489,9.62,9.62,0,0,0-4.859-8.306ZM82.766,22.543a5.058,5.058,0,0,1,5.7-3.83,4.788,4.788,0,0,1,3.806,4.668v.048a9.814,9.814,0,0,0-9.312,7.325l-6.679,20.61a10.054,10.054,0,0,0-3.208-.91ZM66.512,124.324H37.787V109.962H66.512ZM96.889,34.2,86.476,73.074a7.136,7.136,0,0,1-2.154,3.495L68.116,90.956a12.1,12.1,0,0,0-4,8.953v5.266H40.181V82.625a16.881,16.881,0,0,1,8.282-14.458L69.6,55.792a4.787,4.787,0,0,1,6.559,1.747,4.931,4.931,0,0,1,.479,3.638,4.787,4.787,0,0,1-2.25,2.9L60.672,72a2.394,2.394,0,0,0,2.394,4.141l13.716-7.923A9.451,9.451,0,0,0,81.258,62.4a9.592,9.592,0,0,0-.957-7.253l-.144-.215,7.4-22.812a5.058,5.058,0,0,1,5.7-3.83,4.787,4.787,0,0,1,3.806,4.668,4.123,4.123,0,0,1-.168,1.245Z" transform="translate(40.631 14.038)" fill="#231f20"/>
      <path id="Tracé_419" data-name="Tracé 419" d="M68.69,105.17V82.621A21.584,21.584,0,0,0,58.038,64.045L36.877,51.622c-.144-.072-.311-.12-.455-.191L25.962,21.293A9.831,9.831,0,0,0,14.64,14.016a9.623,9.623,0,0,0-7.612,9.36A10.958,10.958,0,0,0,7.1,24.644,9.62,9.62,0,0,0,2.24,32.951a10.583,10.583,0,0,0,.311,2.489L12.964,74.267A11.768,11.768,0,0,0,16.6,80.155L32.76,94.541A7.21,7.21,0,0,1,35.178,99.9v5.266a2.394,2.394,0,0,0-2.394,2.394v19.15a2.394,2.394,0,0,0,2.394,2.394H68.69a2.394,2.394,0,0,0,2.394-2.394v-19.15A2.394,2.394,0,0,0,68.69,105.17ZM11.815,23.376A4.787,4.787,0,0,1,15.6,18.708a5.173,5.173,0,0,1,5.793,4l9.623,27.743a10.054,10.054,0,0,0-3.208.91l-6.631-20.49a9.932,9.932,0,0,0-9.36-7.445ZM35.944,90.951,19.762,76.564a7.1,7.1,0,0,1-2.154-3.519L7.171,34.2a5.077,5.077,0,0,1-.144-1.245,4.787,4.787,0,0,1,3.782-4.668,5.132,5.132,0,0,1,5.769,3.95l7.349,22.693-.144.215a9.592,9.592,0,0,0-.957,7.253A9.45,9.45,0,0,0,27.3,68.21l13.716,7.923a2.394,2.394,0,0,0,2.394-4.141L29.7,64.069a4.787,4.787,0,0,1-2.25-2.9,4.931,4.931,0,0,1,.479-3.638,4.787,4.787,0,0,1,6.535-1.771l21.161,12.4A16.881,16.881,0,0,1,63.9,82.621V105.17H39.965V99.9a12.041,12.041,0,0,0-4.021-8.953ZM66.3,124.32H37.572V109.957H66.3Z" transform="translate(-2.24 14.043)" fill="#231f20"/>
      <path id="Tracé_420" data-name="Tracé 420" d="M89.654,9.221a23.923,23.923,0,0,0-33.863,0A23.935,23.935,0,0,0,21.928,43.056L54.1,75.228a2.394,2.394,0,0,0,3.385,0L89.656,43.056a23.952,23.952,0,0,0,0-33.835ZM55.789,70.151,25.31,39.672A19.15,19.15,0,0,1,38.866,6.99,18.949,18.949,0,0,1,52.4,12.608l1.7,1.7a2.394,2.394,0,0,0,3.385,0l1.7-1.7A19.144,19.144,0,0,1,86.269,39.667Z" transform="translate(15.448 -2.198)" fill="#231f20"/>
    </g>
  </g>
</svg>
