<svg xmlns="http://www.w3.org/2000/svg" width="131.4" height="154.079" viewBox="0 0 131.4 154.079">
  <g id="secure" transform="translate(-37.681 0)">
    <g id="Groupe_38" data-name="Groupe 38" transform="translate(40.922 3.24)">
      <path id="Tracé_136" data-name="Tracé 136" d="M145.618,69.75,105.665,109.7a7.3,7.3,0,0,1-10.321,0L76.206,90.566A7.3,7.3,0,0,1,86.527,80.243L100.5,94.221,135.3,59.429A7.3,7.3,0,1,1,145.618,69.75ZM110.91,10.768A253.381,253.381,0,0,1,48.452,37.26V70.376c0,62.13,53.734,87.99,62.458,87.99s62.46-25.86,62.46-87.99V37.26A261.292,261.292,0,0,1,110.91,10.768Z" transform="translate(-48.452 -10.768)" fill="#5dc185"/>
      <path id="Tracé_137" data-name="Tracé 137" d="M165.171,217.777l39.953-39.952A7.3,7.3,0,0,0,194.8,167.5l-34.791,34.792-13.978-13.977a7.3,7.3,0,1,0-10.321,10.322l19.138,19.137A7.3,7.3,0,0,0,165.171,217.777Z" transform="translate(-107.959 -118.842)" fill="#fff"/>
    </g>
    <g id="Groupe_39" data-name="Groupe 39" transform="translate(37.681 0)">
      <path id="Tracé_138" data-name="Tracé 138" d="M166.7,26.606A256.3,256.3,0,0,1,105.029.45a3.24,3.24,0,0,0-3.3,0A249.283,249.283,0,0,1,40.066,26.606a3.241,3.241,0,0,0-2.385,3.126V62.849c0,34.1,15.733,56.677,28.931,69.608,14.209,13.923,30.76,21.622,36.77,21.622s22.56-7.7,36.769-21.622c13.2-12.931,28.93-35.505,28.93-69.608V29.732A3.241,3.241,0,0,0,166.7,26.606Zm-4.1,36.243c0,31.852-14.674,52.916-26.985,64.978-13.973,13.691-28.912,19.77-32.232,19.77s-18.26-6.079-32.234-19.77C58.838,115.764,44.163,94.7,44.163,62.848V32.192A255.256,255.256,0,0,0,103.382,7,263.335,263.335,0,0,0,162.6,32.191Z" transform="translate(-37.681 0)" fill="#000003"/>
      <path id="Tracé_139" data-name="Tracé 139" d="M104.465,101a3.241,3.241,0,0,0-4.2-1.828c-5.79,2.281-11.733,4.381-17.663,6.242a3.241,3.241,0,0,0-2.271,3.092V121.02a3.241,3.241,0,1,0,6.482,0V110.873c5.32-1.721,10.635-3.625,15.829-5.672A3.24,3.24,0,0,0,104.465,101Z" transform="translate(-67.493 -69.168)" fill="#000003"/>
      <path id="Tracé_140" data-name="Tracé 140" d="M173.451,92.707a3.242,3.242,0,0,0,1.3-.272l.06-.026a3.241,3.241,0,1,0-2.617-5.93l-.052.023a3.24,3.24,0,0,0,1.31,6.206Z" transform="translate(-130.322 -60.263)" fill="#000003"/>
      <path id="Tracé_141" data-name="Tracé 141" d="M327.7,346.056a3.242,3.242,0,0,0-4.486.94,78.881,78.881,0,0,1-9.314,11.634,82.782,82.782,0,0,1-9.3,8.271,3.241,3.241,0,1,0,3.931,5.155,89.336,89.336,0,0,0,10.026-8.92,85.283,85.283,0,0,0,10.081-12.594A3.241,3.241,0,0,0,327.7,346.056Z" transform="translate(-223.387 -241.546)" fill="#000003"/>
      <path id="Tracé_142" data-name="Tracé 142" d="M278.367,432.411l-.186.109a3.241,3.241,0,1,0,3.247,5.609l.215-.126a3.241,3.241,0,1,0-3.276-5.593Z" transform="translate(-204.675 -301.972)" fill="#000003"/>
      <path id="Tracé_143" data-name="Tracé 143" d="M140.808,178.5A10.54,10.54,0,0,0,125.9,193.4l19.138,19.138a10.542,10.542,0,0,0,14.905,0L199.9,172.589a10.54,10.54,0,0,0-14.906-14.9l-32.5,32.5Zm48.769-16.231a4.057,4.057,0,1,1,5.738,5.738l-39.952,39.952a4.06,4.06,0,0,1-5.739,0l-19.138-19.137a4.057,4.057,0,0,1,5.738-5.738L150.2,197.06a3.241,3.241,0,0,0,4.583,0Z" transform="translate(-97.2 -108.075)" fill="#000003"/>
    </g>
  </g>
</svg>
