<svg xmlns="http://www.w3.org/2000/svg" width="258" height="181.896" viewBox="0 0 258 181.896">
  <g id="subscribe" transform="translate(-836 -1322.165)">
    <g id="Groupe_285" data-name="Groupe 285">
      <rect id="Rectangle_64" data-name="Rectangle 64" width="258" height="92.334" rx="46" transform="translate(836 1322.165)" fill="#fff"/>
      <g id="Logo_TOUCANO_LUDIO_Plan_de_travail_1_copie_15" data-name="Logo TOUCANO LUDIO_Plan de travail 1 copie 15" transform="translate(805.26 951.096)">
        <g id="Groupe_240" data-name="Groupe 240" transform="translate(63.74 394.823)">
          <path id="Tracé_273" data-name="Tracé 273" d="M809.33,819.4c.006-.119.016-.237.026-.355C809.345,819.167,809.336,819.285,809.33,819.4Z" transform="translate(-782.872 -803.996)" fill="none"/>
          <g id="Groupe_239" data-name="Groupe 239" transform="translate(0 0)">
            <path id="Tracé_274" data-name="Tracé 274" d="M84.218,517.529a15.726,15.726,0,0,1,.071-2.076c-.272.009-.544.015-.818.015a22.928,22.928,0,0,1-10.241-2.352A17.48,17.48,0,0,1,65,504.96a13.642,13.642,0,0,0-1.257,5.7,14.2,14.2,0,0,0,3.371,9.066,17.868,17.868,0,0,0,3.491,3.222c.12.085.242.169.364.252H66.926a9.292,9.292,0,0,0,3.011,5.2,15.172,15.172,0,0,0,5.642,3.174H70.966a11.145,11.145,0,0,0,9.948,5.919,11.527,11.527,0,0,0,3.371-.5V521.032C84.286,519.865,84.256,518.7,84.218,517.529Z" transform="translate(-63.74 -501.052)" fill="#feaa28"/>
            <path id="Tracé_275" data-name="Tracé 275" d="M809,830.435c0-.156,0-.31.011-.465-.007.152-.011.307-.011.465h0a9.924,9.924,0,0,0,.493,3.1,8.955,8.955,0,0,0,.894,1.964A9.87,9.87,0,0,1,809,830.435Z" transform="translate(-782.553 -814.529)" fill="#feaa28"/>
            <path id="Tracé_276" data-name="Tracé 276" d="M658.558,813.38v10.253a.7.7,0,0,1-.753.7,9.907,9.907,0,0,1-6.8-3.463c.021.753.377,1.529-.666,1.934a10.263,10.263,0,0,1-.282,4.379,10.866,10.866,0,0,1-7.323,7.289v7.049a1.66,1.66,0,0,0,1.659,1.659h4.774A13.835,13.835,0,0,0,663,829.346V813.965Z" transform="translate(-622.184 -798.527)" fill="#feaa28"/>
            <path id="Tracé_277" data-name="Tracé 277" d="M657.928,400.836a.7.7,0,0,1,.755.7v-6.7a15.9,15.9,0,0,0-15.823,14.4,23.374,23.374,0,0,0,6.23-1.053A9.932,9.932,0,0,1,657.928,400.836Z" transform="translate(-622.31 -394.83)" fill="#feaa28"/>
            <path id="Tracé_278" data-name="Tracé 278" d="M648.022,786.365a10.263,10.263,0,0,0,.281-4.378c1.043-.4.687-1.18.666-1.934a9.929,9.929,0,0,1-.984-1.374,8.952,8.952,0,0,1-.894-1.964,9.923,9.923,0,0,1-.491-3.1h0c0-.158,0-.312.011-.465v-.033c.006-.12.015-.238.025-.355a9.9,9.9,0,0,1,.3-1.7,23.372,23.372,0,0,1-6.23,1.051,15.731,15.731,0,0,0-.071,2.075c.036,1.168.067,2.335.067,3.5v15.965A10.869,10.869,0,0,0,648.022,786.365Z" transform="translate(-620.154 -757.709)" fill="#feaa28"/>
          </g>
          <path id="Tracé_279" data-name="Tracé 279" d="M809.29,829.113v-.033A.29.29,0,0,1,809.29,829.113Z" transform="translate(-782.834 -813.67)" fill="#feaa28"/>
        </g>
        <path id="Tracé_280" data-name="Tracé 280" d="M805.542,708c0,.068,0,.136,0,.2V708Z" transform="translate(-715.477 -302.064)" fill="#feaa28"/>
        <path id="Tracé_281" data-name="Tracé 281" d="M640.589,798.3v3.177q-.079-.783-.079-1.589A15.725,15.725,0,0,1,640.589,798.3Z" transform="translate(-556.303 -389.16)" fill="#feaa28"/>
        <path id="Tracé_282" data-name="Tracé 282" d="M805.542,708c0,.068,0,.136,0,.2V708Z" transform="translate(-715.477 -302.064)" fill="#feaa28"/>
        <path id="Tracé_283" data-name="Tracé 283" d="M1828.23,693.923a5.572,5.572,0,0,1,4.6-5.487" transform="translate(-1701.876 -283.195)" fill="#feaa28"/>
        <circle id="Ellipse_27" data-name="Ellipse 27" cx="1.867" cy="1.867" r="1.867" transform="translate(94.507 404.167)" fill="#feaa28"/>
        <path id="Tracé_284" data-name="Tracé 284" d="M1452.128,1449.3l-.048-.008v-.062C1452.1,1449.254,1452.113,1449.277,1452.128,1449.3Z" transform="translate(-1339.074 -1016.991)" fill="#feaa28"/>
        <path id="Tracé_285" data-name="Tracé 285" d="M805.542,708c0,.068,0,.136,0,.2V708Z" transform="translate(-715.477 -302.064)" fill="#feaa28"/>
        <path id="Tracé_286" data-name="Tracé 286" d="M1832.734,693.923h-4.5a5.572,5.572,0,0,1,4.6-5.487,15.824,15.824,0,0,1,.933,4.383,1.033,1.033,0,0,1-1.03,1.1Z" transform="translate(-1701.876 -283.195)" fill="#feaa28"/>
        <path id="Tracé_287" data-name="Tracé 287" d="M805.542,708c0,.068,0,.136,0,.2V708Z" transform="translate(-715.477 -302.064)" fill="#feaa28"/>
        <path id="Tracé_288" data-name="Tracé 288" d="M1089.109,823.57c1.733.142,1.3-.484,3.226-.123,1.792.335,6.154-.327,6.064.058-.106.461-4.369.7-9.559.532" transform="translate(-988.724 -413.304)" fill="#feaa28"/>
        <path id="Tracé_289" data-name="Tracé 289" d="M1602.491,394.853c.411-.237,5.733.884,9.145,4.8,1.785,2.049,3.691,5.768,3.549,5.97-.158.222-2.094-3.429-3.1-4.4-1.252-1.206-1.116-.713-1.893-2.423C1609.432,397.135,1602.148,395.05,1602.491,394.853Z" transform="translate(-1484.136)" fill="#feaa28"/>
      </g>
      <text id="PREMIUM" transform="translate(917 1391.746)" fill="#feaa28" font-size="25" font-family="LondrinaSolid-Regular, Londrina Solid" letter-spacing="0.036em"><tspan x="0" y="0">PREMIUM</tspan></text>
      <g id="check_circle_black_24dp" transform="translate(1013 1339.789)">
        <path id="Tracé_315" data-name="Tracé 315" d="M0,0H56.912V56.912H0Z" fill="none"/>
        <path id="Tracé_316" data-name="Tracé 316" d="M25.713,2A23.713,23.713,0,1,0,49.426,25.713,23.722,23.722,0,0,0,25.713,2ZM19.287,35.886l-8.513-8.513a2.364,2.364,0,0,1,3.344-3.344l6.853,6.829L37.285,14.544a2.364,2.364,0,0,1,3.344,3.344l-18,18a2.361,2.361,0,0,1-3.344,0Z" transform="translate(2.743 2.743)" fill="#5dc185"/>
      </g>
    </g>
    <g id="smile" transform="translate(888.635 1400.871)">
      <g id="Groupe_276" data-name="Groupe 276" transform="translate(26.269 1.538)">
        <g id="Groupe_274" data-name="Groupe 274">
          <g id="Groupe_273" data-name="Groupe 273">
            <path id="Tracé_317" data-name="Tracé 317" d="M115.709,100.451a5.642,5.642,0,0,0,5.235-7.774c-1.387-3.352-3.469-5.8-.927-11.493,4.492-10.067,2.074-15.406-1.9-21.87-6.738-10.958-1.812-16.555-4.432-26.048C104.25-.915,50.435-.917,41,33.266c-2.62,9.493,2.306,15.089-4.432,26.048-3.975,6.464-6.393,11.8-1.9,21.87,2.542,5.7.46,8.141-.927,11.493a5.642,5.642,0,0,0,5.235,7.774Z" transform="translate(-32.246 -7.629)" fill="#735351"/>
            <path id="Tracé_318" data-name="Tracé 318" d="M286.7,81.184c4.492-10.067,2.074-15.406-1.9-21.87-6.738-10.958-1.812-16.555-4.432-26.048C275.345,15.085,257.771,6.574,241,7.734c14.762,1.021,28.9,9.532,33.319,25.532,2.62,9.493-2.306,15.089,4.432,26.048,3.975,6.464,6.393,11.8,1.9,21.87-2.542,5.7-.46,8.141.927,11.493a5.642,5.642,0,0,1-5.235,7.774h6.046a5.642,5.642,0,0,0,5.235-7.774c-1.387-3.352-3.47-5.8-.927-11.493Z" transform="translate(-198.926 -7.629)" fill="#664442"/>
            <g id="Groupe_270" data-name="Groupe 270" transform="translate(11.517 46.875)">
              <g id="Groupe_268" data-name="Groupe 268" transform="translate(54.911)">
                <ellipse id="Ellipse_36" data-name="Ellipse 36" cx="6.123" cy="6.152" rx="6.123" ry="6.152" fill="#fac8a2"/>
              </g>
              <g id="Groupe_269" data-name="Groupe 269">
                <ellipse id="Ellipse_37" data-name="Ellipse 37" cx="6.123" cy="6.152" rx="6.123" ry="6.152" fill="#fac8a2"/>
              </g>
            </g>
            <g id="Groupe_271" data-name="Groupe 271" transform="translate(16.833 67.399)">
              <path id="Tracé_319" data-name="Tracé 319" d="M115.766,374.815v-4.547a28.22,28.22,0,0,1,28.22-28.22h.086a28.22,28.22,0,0,1,28.22,28.22v4.547Z" transform="translate(-115.766 -342.048)" fill="#ff80b3"/>
              <path id="Tracé_320" data-name="Tracé 320" d="M244.067,342.048h-.086a28.529,28.529,0,0,0-2.98.156,28.224,28.224,0,0,1,25.24,28.065v4.547h6.046v-4.547A28.22,28.22,0,0,0,244.067,342.048Z" transform="translate(-215.761 -342.048)" fill="#ff6ba7"/>
              <path id="Tracé_321" data-name="Tracé 321" d="M227.607,374.574h-.022a7.159,7.159,0,0,1-7.159-7.159V355.828h14.34v11.587A7.159,7.159,0,0,1,227.607,374.574Z" transform="translate(-199.333 -353.051)" fill="#ffd8ba"/>
            </g>
            <g id="Groupe_272" data-name="Groupe 272" transform="translate(19.699 19.235)">
              <path id="Tracé_322" data-name="Tracé 322" d="M140.778,103.481c-.906,9.221-5.588,10.248-8.48,11.251A3.455,3.455,0,0,0,129.986,118v17.434a25.4,25.4,0,1,0,50.794,0V119.217a3.464,3.464,0,0,0-3.577-3.46c-3.058.09-8.135.113-12.069-3.782-5.015-4.965-7.915-3.2-13.149-3.317-6.543-.149-9.251-3.2-10.348-5.34A.455.455,0,0,0,140.778,103.481Z" transform="translate(-129.986 -103.066)" fill="#ffd8ba"/>
            </g>
          </g>
        </g>
        <g id="Groupe_275" data-name="Groupe 275" transform="translate(34.357 59.896)">
          <path id="Tracé_323" data-name="Tracé 323" d="M222.9,310.7a14.021,14.021,0,0,1-18.879,0c-3.173-2.981.058-7.912,3.362-4.972a9.027,9.027,0,0,0,12.154,0C222.877,302.757,226.053,307.738,222.9,310.7Z" transform="translate(-202.719 -304.817)" fill="#fff"/>
        </g>
      </g>
      <g id="Groupe_284" data-name="Groupe 284" transform="translate(24.76 0)">
        <g id="Groupe_277" data-name="Groupe 277" transform="translate(0 0)">
          <path id="Tracé_324" data-name="Tracé 324" d="M161.484,127.659c-1.182-2.541-2.116-4.549-.246-8.739,4.8-10.756,2.071-16.668-1.993-23.278-3.844-6.252-3.653-10.614-3.451-15.232.989-9.174-3-19.277-9.7-25.839a1.512,1.512,0,0,0-2.141,2.134,31.583,31.583,0,0,1,8.111,14.083,28.434,28.434,0,0,1,.7,9.49c-.213,4.87-.434,9.905,3.9,16.947,3.829,6.227,6.023,11.015,1.808,20.463-2.431,5.449-1,8.529.266,11.246.819,1.762,1.455,3.488.26,5.277a4.093,4.093,0,0,1-3.453,1.848h-8.9a29.622,29.622,0,0,0-11.583-19.479,27.12,27.12,0,0,0,7.609-11.412,7.658,7.658,0,1,0,1.469-15.035v-10a5.047,5.047,0,0,0-5.133-4.971c-2.573.075-7.365.216-10.962-3.345-4.35-4.307-7.594-4.091-11.03-3.862-.991.066-2.016.134-3.148.108-5.622-.128-8.018-2.528-9.038-4.519a1.981,1.981,0,0,0-3.709.706c-.759,7.717-4.187,8.867-6.941,9.791a5.148,5.148,0,0,0-3.858,4.877V90.133a7.658,7.658,0,1,0,1.469,15.035,27.122,27.122,0,0,0,7.587,11.391A29.8,29.8,0,0,0,93.809,122a1.513,1.513,0,0,0,2.376,1.869,26.781,26.781,0,0,1,5.654-5.36,26.807,26.807,0,0,0,6.713,3.428v4.576a8.682,8.682,0,0,0,17.363,0v-4.575a26.8,26.8,0,0,0,6.687-3.41,26.633,26.633,0,0,1,11.332,21.842v4.547a1.513,1.513,0,0,0,3.023,0c0-1.942.055-3.893-.027-5.834h8.619a7.165,7.165,0,0,0,5.966-3.191c1.795-2.684,1.239-5.5-.032-8.233ZM149.3,97.776a4.69,4.69,0,0,1-5.805,4.482,57.106,57.106,0,0,0,.647-9.09C147.078,93.169,149.3,95.218,149.3,97.776Zm-59.522,4.64a4.631,4.631,0,0,1-4.611-4.64,4.7,4.7,0,0,1,5.158-4.608,41.332,41.332,0,0,0,.647,9.09A4.607,4.607,0,0,1,89.778,102.416Zm3.57-6.063V78.919c0-1.142.836-1.689,1.8-2.011,2.707-.908,7.056-2.367,8.589-9.7,2.953,3.188,7.4,3.819,10.069,3.88,1.266.029,2.409-.047,3.418-.114,10.13-1.259,7.1,7.855,21.879,7.213a1.97,1.97,0,0,1,2.021,1.949v16.22C139.807,128.2,94.657,128.191,93.348,96.354Zm29.544,30.159a5.654,5.654,0,0,1-5.647,5.647h-.022a5.654,5.654,0,0,1-5.647-5.647v-3.734a27.034,27.034,0,0,0,11.317,0v3.734Z" transform="translate(-70.578 -43.212)"/>
          <path id="Tracé_325" data-name="Tracé 325" d="M45.812,85.087A1.576,1.576,0,0,0,43.8,85.9a29.474,29.474,0,0,0-1.9,6.952H33A4.093,4.093,0,0,1,29.545,91c-1.2-1.789-.559-3.515.26-5.277,6.133-11.8-8.875-15.2,2.074-31.709,4.33-7.042,4.11-12.077,3.9-16.947a28.434,28.434,0,0,1,.7-9.49A32.319,32.319,0,0,1,56.152,5.937C67.177,1.4,81.4,2.251,91.569,8.4a1.512,1.512,0,0,0,1.544-2.6C68.5-9.088,30.6,5.86,32.755,37.2c.2,4.618.393,8.979-3.451,15.232-4.065,6.611-6.793,12.522-1.993,23.278,1.87,4.19.936,6.2-.246,8.739C25.793,87.18,25.238,90,27.032,92.68A7.165,7.165,0,0,0,33,95.871h8.619c-.082,1.941-.027,3.892-.027,5.834a1.538,1.538,0,0,0,3.074,0c0-5.048.02-9.863,1.975-14.646a1.512,1.512,0,0,0-.827-1.971Z" transform="translate(-24.76 0)"/>
        </g>
        <g id="Groupe_283" data-name="Groupe 283" transform="translate(27.249 36.299)">
          <g id="Groupe_279" data-name="Groupe 279">
            <g id="Groupe_278" data-name="Groupe 278">
              <path id="Tracé_326" data-name="Tracé 326" d="M160.268,184.689a1.552,1.552,0,0,1,.246-2.123,12.538,12.538,0,0,1,6.818-2.461,1.512,1.512,0,0,1,.072,3.022,9.59,9.59,0,0,0-5.012,1.808A1.527,1.527,0,0,1,160.268,184.689Z" transform="translate(-159.961 -180.104)"/>
              <path id="Tracé_327" data-name="Tracé 327" d="M314.281,184.938a9.559,9.559,0,0,0-5.016-1.811,1.512,1.512,0,0,1,.072-3.022,12.537,12.537,0,0,1,6.818,2.461,1.511,1.511,0,0,1,.246,2.123A1.565,1.565,0,0,1,314.281,184.938Z" transform="translate(-277.996 -180.104)"/>
            </g>
          </g>
          <g id="Groupe_280" data-name="Groupe 280" transform="translate(7.089 23.63)">
            <path id="Tracé_328" data-name="Tracé 328" d="M207.4,309.906a15.145,15.145,0,0,1-10.478-4.067c-4.659-4.541.725-11.345,5.406-7.2l.034.031a7.522,7.522,0,0,0,10.077,0l.034-.031c1.581-1.406,4.118-2.006,5.953,0a5.1,5.1,0,0,1-.549,7.2A15.146,15.146,0,0,1,207.4,309.906Zm-8.794-9.206a2.093,2.093,0,0,0,.39,2.94,12.541,12.541,0,0,0,16.805,0l0,0a2.115,2.115,0,0,0,.389-2.96c-.433-.473-1-.4-1.7.206a10.49,10.49,0,0,1-14.193,0C199.923,300.548,199.273,299.993,198.608,300.7Z" transform="translate(-195.136 -297.35)"/>
          </g>
          <g id="Groupe_282" data-name="Groupe 282" transform="translate(1.895 6.887)">
            <g id="Groupe_281" data-name="Groupe 281">
              <path id="Tracé_329" data-name="Tracé 329" d="M182.27,225.788a1.511,1.511,0,0,1-1.512-1.512v-2.829a4.186,4.186,0,0,0-8.373,0v2.829a1.512,1.512,0,0,1-3.023,0v-2.829c.4-9.567,14.026-9.559,14.419,0v2.829A1.512,1.512,0,0,1,182.27,225.788Z" transform="translate(-169.363 -214.275)"/>
              <path id="Tracé_330" data-name="Tracé 330" d="M284,225.788a1.511,1.511,0,0,1-1.512-1.512v-2.829a4.186,4.186,0,0,0-8.373,0v2.829a1.512,1.512,0,0,1-3.023,0v-2.829c.4-9.567,14.026-9.559,14.419,0v2.829A1.512,1.512,0,0,1,284,225.788Z" transform="translate(-250.593 -214.275)"/>
            </g>
          </g>
        </g>
      </g>
    </g>
  </g>
</svg>
