<svg xmlns="http://www.w3.org/2000/svg" width="39.62" height="39.611" viewBox="0 0 39.62 39.611">
  <path id="logo_instagram" d="M19.809,11.887A10.156,10.156,0,1,0,29.965,22.043,10.14,10.14,0,0,0,19.809,11.887Zm0,16.758a6.6,6.6,0,1,1,6.6-6.6A6.615,6.615,0,0,1,19.809,28.646Zm12.94-17.174A2.369,2.369,0,1,1,30.38,9.1,2.363,2.363,0,0,1,32.749,11.472Zm6.726,2.4c-.15-3.173-.875-5.984-3.2-8.3s-5.126-3.041-8.3-3.2c-3.27-.186-13.073-.186-16.343,0-3.164.15-5.975.875-8.3,3.191s-3.041,5.126-3.2,8.3c-.186,3.27-.186,13.073,0,16.343.15,3.173.875,5.984,3.2,8.3s5.126,3.041,8.3,3.2c3.27.186,13.073.186,16.343,0,3.173-.15,5.984-.875,8.3-3.2s3.041-5.126,3.2-8.3c.186-3.27.186-13.064,0-16.334ZM35.25,33.719a6.685,6.685,0,0,1-3.765,3.765c-2.607,1.034-8.795.8-11.676.8s-9.077.23-11.676-.8a6.685,6.685,0,0,1-3.765-3.765c-1.034-2.607-.8-8.795-.8-11.676s-.23-9.077.8-11.676A6.685,6.685,0,0,1,8.133,6.6c2.607-1.034,8.795-.8,11.676-.8s9.077-.23,11.676.8a6.685,6.685,0,0,1,3.765,3.765c1.034,2.607.8,8.795.8,11.676S36.284,31.121,35.25,33.719Z" transform="translate(0.005 -2.238)" fill="#0e1824"/>
</svg>
