<svg xmlns="http://www.w3.org/2000/svg" width="22.914" height="18.611" viewBox="0 0 22.914 18.611">
  <g id="logo_twitter" transform="translate(0 0)">
    <path id="Icon_awesome-twitter" data-name="Icon awesome-twitter" d="M20.559,8.019c.015.2.015.407.015.611A13.27,13.27,0,0,1,7.212,21.991,13.271,13.271,0,0,1,0,19.883a9.715,9.715,0,0,0,1.134.058,9.4,9.4,0,0,0,5.83-2.006,4.7,4.7,0,0,1-4.391-3.257,5.923,5.923,0,0,0,.887.073,4.967,4.967,0,0,0,1.236-.16A4.7,4.7,0,0,1,.93,9.982V9.924a4.73,4.73,0,0,0,2.123.6A4.7,4.7,0,0,1,1.6,4.239a13.349,13.349,0,0,0,9.683,4.914,5.3,5.3,0,0,1-.116-1.076,4.7,4.7,0,0,1,8.128-3.213A9.246,9.246,0,0,0,22.275,3.73,4.684,4.684,0,0,1,20.21,6.318a9.415,9.415,0,0,0,2.7-.727,10.1,10.1,0,0,1-2.355,2.428Z" transform="translate(0 -3.381)" fill="#fff"/>
  </g>
</svg>
